<mxfile host="65bd71144e">
    <diagram id="OAwrCCo2x8WocXfspOTw" name="ページ1">
        <mxGraphModel dx="1138" dy="1128" grid="1" gridSize="10" guides="1" tooltips="1" connect="1" arrows="1" fold="1" page="1" pageScale="1" pageWidth="827" pageHeight="1169" math="0" shadow="0">
            <root>
                <mxCell id="0"/>
                <mxCell id="1" parent="0"/>
                <mxCell id="2" value="JSPを強化学習で学習させる際の環境側の表現に注目した論文" style="text;html=1;strokeColor=none;fillColor=none;align=left;verticalAlign=top;whiteSpace=wrap;rounded=0;" parent="1" vertex="1">
                    <mxGeometry x="10" y="10" width="800" height="30" as="geometry"/>
                </mxCell>
                <mxCell id="3" value="" style="shape=image;verticalLabelPosition=bottom;labelBackgroundColor=default;verticalAlign=top;aspect=fixed;imageAspect=0;image=data:image/png,iVBORw0KGgoAAAANSUhEUgAAAhYAAAEOCAYAAADVKl64AAAAAXNSR0IArs4c6QAAAARnQU1BAACxjwv8YQUAAAAJcEhZcwAADsMAAA7DAcdvqGQAAL/7SURBVHhe7Z0FoFXF1oAX3d3d3V0KogICIqLYPrtbn/Gs/9n9nu3DVlQULFQUAenu7u7uzvOvb86ey+Zwzrnn3nMu3Cvz6eaePbtmz56ZtWZmzaxMAUUcDofD4XA4EkBm76/D4XA4HA5H3DjFwuFwOBwOR8JwioXD4XA4HI6E4RQLh8PhcDgcCcMpFg6Hw+FwOBKGUywcDofD4XAkDKdYOBwOh8PhSBhOsXA4HA6Hw5EwnGLhcDgcDocjYTjFwuFwOBwOR8JwioXD4XA4HI6E4RQLh8PhcDgcCcMpFg6Hw+FwOBKGUywcDofD4XAkDKdYOBwOh8PhSBhOsUgwO3fulGPHjnl7Dkc6YeVKkWXLRPbv9wIcDocjbXCKRYLp3bu3bN261dtzONIJ3buLdOggMmeOF+BwOBxpg1MsEsjhw4elf//+snbtWi/E4Ugn7N0rsmePyNGjXoDD4XCkDU6xSCArVqyQKVOmmL8Oh8PhcJyJOMUigfz2229Sv359Wb9+vQQCAS/U4XA4HI4zB6dYJAgMNmfOnCktWrSQdevWOQNOh8PhcJyROMUiQWzYsEHKli0refLkkQMHDsihQ4e8Iw6Hw+FwnDk4xSJB0EvRuXNn01PRoEEDWcn0PocjvZAzZ3DL7Iq8w+FIW1wtkyDq1q1rhkGgTZs2UqlSJfPb4UgX/OtfIs88I1KhghfgcJx6WOdn2bJlsnTpUtm+fbsXmji4/9y5c12P8WnGKRYJIqe2BrNly5b0O0eOHOa3w5EuuOoqkeuvFylRwgtwOE49mTJlkt9//12+++47yZwGvWcHDx6UXr16GQUjUaCkfPHFF3LUTdWOGadYOBxnAlTibhjEcZrJnz+/aYBlyZJFChQo4IXGDj0dffv29fZOJl++fGZGXrzG81OnTjXPApQh11BMGa6mcTgcDke6gF4BO1SyZs0aL1Rk9erVJhwj+Vy5cpkwjOQ3b95s7Nn4m9wU//3798umTZvMOkPbtm3zQkX27dsnixYtMgsb0tPBfX/66SdZuHCh7Nmzx+wXL17cKEOwe/duWb58uYkTwzk8d9euXTJo0CDTY8K9WM/IKjfcn/OJO/cEFlM8cuSI+f13xCkWDofD4TjtIKBxiYDALlmypLz66quyceNGozh88sknUqZMGSO4Ef4oIH/++adREJiJ9/PPP8teVpeNAEIcZYHr6TH54YcfTBhCn2fS00GvxIABAyR79uySNWtWo8Dkzp3b9Fi88sor5j48+4MPPpDChQtLwYIF5f333zfKB/zf//2fLFmyxMSdFZjHjh1rwv/66y8Txv0+++wzEzZ48GD55ptvzO+/I06xcDjOBLSyNo7ItPXlcKQ3aN2vWrVKfv31V2nZsqUR7OXLlzfKwLhx48wQCoK/QoUK8tFHHxn7DIQ+f1EUWEOIXoNIcB6C3Q5rjB492vQazJ49W7Zs2SIlSpQwig09Gpzr37jGGoOOGTPGPI9hHJSRatWqyeuvv550Ds8grlWqVJFhw4aZaxhW4Xn0mFyPnZPSrFkz6dSpk/n9d8QpFg7HmcAttwQNOL2uWIcjPcEwBCsWY/hOrwJbly5dkmbYoTQg+Bl6aNKkibmmXr16RsjTq0FvRXLGlc2bNzcKDMMmDGdwP/tMFINixYrJAw884J19MpzP8EyRIkW8EGyhSyQpEMBaRoBCQm8IoEwMHDhQHnnkEdOLwX0YWqEX4++KUywcjjMBXKZjjObcpjvSIdglILCxZ6DFz1anTh3jIqFGjRpGiWAaKQrBk08+KTt27JC3337b9D4wRIJyEA3sG9566y0zfMH51hiTIQ3/1FQUDP9fP4RxPnGw0NtRs2ZNb0/MMIoflB3CGEp55plnzBBJImespFecYuFwOByOUwI9EfQa0GqnlwH7BGwoGAKpXLmy6Y2YNm2aUTDopUBwz58/3wyNsAgh1zNcgX0ECgHDGfxF6HOM6+gt4K9/Zgi/uYbzOY9zGJqoXbu2OU4vBtfQ+4EygPLBfYkjf+kZoQeiVatWptcE5YK4z5kzR5544glzDgoE5/AMnkecuBc2HPwtV66cXH311WYIh6Gb8ePHm2f/HcmiWtQz3m9HAhg+fLgZP2P8zeFIN7z7LrV6cDjE6651OE41CGWENEMG/EU4M7yA7UT16tVN3YkygRKA8kEvBgrF0KFDjTDHWJN1MFAIGjVqZAQ/vRUoJdyPmRuFChWSvHnzmt4JFAhAmDNswfn8xgaC80uVKiW1atUyygoKB/fiWoYq2KfnBKUBRYPfDF/QQ0GPCYpI48aNTdzZxyaEZ6MEoVSgSDC8Qi8HthcoHQzrEC9+cw5x+juSST+ec8OZQJ5++mm56667TIZ1ONIN1aqJNgFFfvlFpGVLL9DhOLVEEzcIWott8SPUv/zyS2NvYetUjCHpbWjXrl3SeeEIDefZbP5w+9ses4oIcG/2/XH2nw+h++HgnNDz/+64oRCHw+FwnBIQrJE2Pwh0wuzsEHo27NAExzDq9J8XbguFsNDzLfaYH7sf6fxw++E2//EzBadYOBwOhyNdwtBG+/btzfROhiagYcOGRuFwpF+cYuFwnAk89ZTICy+IOOd4jgwGMzgYBsE2ATsHp1Skf5xi4XCcCbAwz623OidkDocjzXHGmwnm0UcflZ49exprYAtja37jnViSPKXXnIpnnOkULVrUzfZxODIQW7duTVo3gjouOSjflHNHfDjFIsFcd9tdsjlTPsmeI7cK6mOyc+NaWbdghuQuWMRYGe/fuV3K1mks+YuXkkyhHUaa748eOSSbliyQ3Vs3So68+eTwgf2SOWtWKVurkWTPnVck9GvpNQf27pJ182ZQciRL1myyf88OKViynBSvVEMyZ8l60jXEa4fGa8PCWZKrQGEJHD0i+3btlCKlSku9fNmkXNHjK8vBvBUrJE+uXFIhpLW7aft2WbpmjbRq0AATai9U5PDRo/LL6NHSs317HuaFBpm+aJHkzJ5datEl7zu2d/9+GTJlilzctu0J4fwaPWOG1KlcWYrkzx8MBH3XBStXmiljVUJm4GzasUNWrl8vzZij7rvXwcOH5S99xoVnnaXvfHyVPs4gXvly55ZqIVMxd+zdK6OmT5f2TZtKm27dpIcqjQ6HI/2Dsedj2tBjVkn18uXlgpYtqS5NPTBh7lw5q2FDCboVC7Jc64waTZrI4//+txfiSC1OsUgw9zz9ohTrfKccO3JYNiyZZQRY8ar1JVe+gkaCIfS3rJgvARXExSvXlbxFPKGown77+iWyZs4UKVSmkhQpV02y58prFI3dm9fLZr0mX7ESUqxCXVUwgq3mQ/t3y7bVC2TT8sVSumYjVVbKGsXi0P49sm3tMtm1abU+o44ULltN5TBFKCB7t23U82frfY9KiSr1JFd+VSz02Qf37JLlYwbIjYUPy3l165j7H9GsMUEF7qBx4+TeSy6R4tbNsQr1dapUfD5woHRq1kyaMpWRbKThew8elG+GDpW8OXLI1eedFwxXjurfUfPmyYjJk+XeSy+VoigJGsbRZZs2yVt9+8p1F1wgzapXT7pm14ED8tWwYZI7c2a5Uu+VS5UIOKJpN37hQvl9zBh56PLLj8dLWatKxWe//y4XNG9+/F4ar31ayXz9119SQBWkK3wKj43XqKlT5R6NV5G8KG9evDZulDf79ZNbunQx47sL9fmdVLlwOBzpH4w9b7/tNvmyd2+pXbGiDHztNSlepIj0HT5csmmdQJ1im3bjtQ648F//khatWskff/7phTpSi7OxSDQqkXZvXidLJg6VYhVrSeWmHSRvodIq8HNLlmy5ze+KDdtL8Sp1ZcX0cbJjwyoj4zYunSPb1qyU6m26StnarSRn3qKSOUtOyZYjvyoGNaR6q66SK29hWTV7ounFOKKFZrX+zpotj9Q5t6cUKV9Lz81nruHaMjWbS5VmHVW52CAbFs02z9i5aa0snzZa41VHqhCvwmU0XrnMPfIUKqWKRl19AdXp9WS0+lEzZ8pE3e7o3l2KeYoA29J16+ST336TTtqKb1S5crC3QsNp3X87ZIgUzZdPLmY6mBfORsFdsHy53KMKCsftsWUbNsiA0aPlxq5dpWnVqsFw3fbs3y8/jhwppQsVMgpKLgy29PxDGq8RM2bIFL3ffT17SnFfvJZovD7q3186t2ghjX3x2r57t3zxxx9GmemmFYcNR6ceN2eOiRfvWCR37hPi9asqLrdovBrae2VkVEkSbZGZRbIcjjMAjDzLliwpWbVhskLzfn8tz1+q0lBQGw8Xn3WWZNZyTlnfp2Xikf/9T7bt2mXqPUf8OMUiwbB065q5U6Vmu4tUiSirctrf2eaRKbPkKVBKarW/UNbOmyT7d26SFTPGSqXG7SV7rgLk9ZPIlCWbFCpdQ3LmyavKwgrZtXmVZM2RS4pUqKXKRHYtIN6JHtwjW858UrFRW733GDmwa5MqGDOkWusLVIkoHTZeXGNHIcfOny9Dp02T+y6/XMqocDfhegK9C6/37St3XnyxUQSyqOYP+7RAvv3jj6qoZJXuqlTktmvma6H+bcIE6T14sFzfsaMUQ6nwXnDjnj3y8tdfS9tGjaRRpUpJz5Zs2eR/v/5qhia6q5KQw2cFPlrjNdJTdkoXLBgM1Put2LJF/tOvnzx0xRXSVBWBLN4c9D1aabyvykY+rUy6t259PF4a7/7jxslngwbJTZ06SQnfMMvqHTvkhc8/l/YarwZ/l1kU+r2kQwcRVaQcjjOFyqVLmyFRlIdX+/SREsWKSbfmzY/XA8rXQ4fK+LlzJVeOHFKDxo0jbpxikWD2bN0kuQsWk2zZ8xyX0uHQY5kluyoS+WTmoB+kTvvuqm8kM41Kr2Fog/OXThoppao3CAZGJbPUObe7TOj3ieTIU0Cy5dB4RYFhhimLF8ui1avlgcsuk2yeEsC/q7dvl9/Hjze9DsUYMvBg+GPgpEnSuFYtufGCC5LGLbG1GK2CbLUK/VfvuENye0MZ9BSsUAWlz5Ahctell5peD/sW2/ftky8HDpSq5ctLt5YtJbOnuHCviQsXytK1a81QSq4swacQr1XbtsmvY8fK3RqvAjgj8q7Ze+iQDFHlqJHG6x/nn58UL95xzLx5slEViHfvvTdJcSFeyzVetGzuu+oq01Nh40XFdDQj91roN5DNmzUhXYvMceZA/fHwNdeY3zu0IVNFFQtbpzAMOlzrp/e0QYT9W11tRNR207ETglMsEgyrtRUogQGgFUlR0Ayev1gZObBnl+QtHNsS4Nly5ZV8RUsbO4tsOY8L92jk1/OPHDogeVThyZQp+icfNm2q/DBqlFxxzjlJygPCe/GGDfL2999Lm7p1pZbPwHG3Clx6Fxii6NSwYdKQAf+O1FbA+Nmz5XK9VyHrfVDfebkKuC8HD5aLVHFo7DPi3Ll/v/QdMUJya8uhq7YqrMBHqfhdFZffJ0yQK9u1k+LezAyuWrh+vbyr8WpXv77U9sUL+wx6MBhn7eiLF5XJ0FmzZJxuPc8+W/L6Wi4rideff0pnhngqVkyK1y6NF8aou/fuNfsOhyNjcOjIERmvygNKwz6tE17s3ds0IIyBuTaS3v/hB1m+bp0599qOHaWo7QV1xIVTLBJM7oKFVUko7u0lT57CxaRcnXqa2WNQREDPK1OrrhRn3D8o95IlEMgi5Rs21bgV8kLCc0Bb+Nt375Gnr7tOCmFv4LF++3b577ffyn30LlSpkjT8wTDDx6pUFC1cWHq2bSvZvV4ERPjEBQuk9++/y20XXSRFfb0ba7dtkzf79pWurVtL5ZIlk4Q3vQg/jRkjuVTQ91CBn90bymAoZbzea/ayZfLIlVdK/ly5guEKBqQf9u8v91x+uRmysC2RPfoeH//2m1SpUMHEK5t3L5SKcXqvbwcNktu7dw/aeoBet1rjxbBMdz2/ii9eB7UC+l6VikO6nzdP9N4eh8ORvqCHs0nNmvLsjTdKVq2fvteGy7yVK2W4NiyGT51q6i7suYoVKCBXnXeeVgUx1sOOqDjFIsEc1Zb70cOxG8gdPXxI9uMcKtb8rOcd2L1bDqag9UxZ2b9zh4lbNJgGeuk550geb8iCC1dpK/5DFdJ3XXKJlC9aNCma+/Ve9DpgZX2tFki/8P5r2jQzZPLRY49JQU8RQEwv0EL+jrYQbujc2RhX2kK8Xd/lrZ9/loOqEFyj98rqhaNs/DF5sgydMsUYUebLkcOEEy+GUv73yy9ynd6rglYOFuL1xZ9/SulixeRKVVAw3AKe/5dWJFQmvR59NDhk4oUvWLNG3v/pJ7lT37FBxYpJ77h9zx5588cfTW/HNR06JN3L4XBkDGqULy9dmjeX5qpcNNBG0TGtn/718cdmuun92lD5cdgwY4/12h13yAZtqKzVesURP66mTDAMa+zbuc3bS559O7bI5pXL9NfxdRWiEjhmppfu2LCBnWBYMgQCh2XD4gUat91eSGSsUOfOyzduNEMD3du1k7paQC2HtXD2GT5cihUsKJcivL1weiomLVwoC1atkvt79pScPkG8VYX0n6ok/AOlomrVpIxHr8efkyZJpdKl5WY9Zp9PBcBUV3oq7urRQ0p5XZTEa8n69fLNkCFy6bnnSoMKFUw40L355V9/SXFVNDDUtDYVpOxorUhQIO7s3l1yes+AHfv2mXhdc8EFRqmw8dqrCgpKTU29/w2dOiW9o8PhyDjQi8lWUuuEjs2aGSVixpIl0rFpU3nnu+9ky86dUk8bOWc1biw/jx4dY43qSA6nWCQYFqTas20j0twLiQxjfawrUaRcZbPmRCwc2LNDjh05KFmyZpZD+3d5odHZtna5FCpdXg7u3aHPDNoaJMfKrVvl4wED5NaLL5bGKlztMAM9Av/+/HOpUa6cXNa2bdLaEsZ2YfZsGTB2rNzUpUtw9ofHlr175YF33pFLVAmpW7ZsUo/AoWPH5FNVXFh86+KWLZN6PYDhj6nz58tDqqD4Z2ys3LJFvhg4UG7s1k0aqbLjj9czX35pZqpcps+xVt/Ea/D06fLn+PFyc9euJ8Rrw+7dcsNLL5n3qOeL1wGN1wf9+0venDmlG5WRTxFxOBwZj0xat1TROgsbuE3btskf48bJJ1q/oWh01Lrnwbfflqs6dJCybsn7hOAUiwSTp1BhObRvt1nsKti+Dg+iau+O9WZ6au1zLpLF44fKgd1bgwcjEAgclfWLZkrd8y+Vio3OltVzJsmxo9GHN1A+lkwcLk0u+odZ/2LnxpXekfAQ43XMshgzRi5RgVvSJ9Qx1MQOon6VKtKqZk1WVzPhCG96KibPnSsPX3VVkkEkitPSjRullwrpB664Qsr5hiww1Ow3cqRRADo2aZIkvA8eOWKmug6bNk0ub9/eLGQDPGmNKju/6PO7n3WWlAoTrwbVqkkTVSxsvOj1IF5zli6Vx665RvLaWSm6Ea+Pf/lFnr3lFinjixc9GD9ovArr/Vmnw05bZUYI75NhufZakZtuEsF+xOE4g6DsjtG6aac2JLqoEoFB55s//CAHtDFSSMv5th075JU77gjWAwkq49QV0eqLw/rsbVrP7tY4xQL3OqLxzig4xSLBMOuiXN0WsmXVQtmweKpmCM0M/gav+X1UNiyZLmvnTpeKDc+WrNnzSM2zu6qiMEH2bFvHMhcngGw9duyQrJg+XHLkyW8Ws8pdsLjkKVhEVs4YIUcP7zfn+OEe+3dtlpXTxxjFJYs+o0ztZrJ5+fzj8fKj12fOnEkWrl4tz/buLR1U2DdWBUJPNId3Hjhg1qnAuPIihhmswNe/g6ZMkbFz5sgd3bqdYPS5bPNm6f3nn9KjXbsTbCoY/vhs4EApVaiQGWbI6Qn8Q6pkDZ46VcbMnCl3de8uJX0W2nNWrZJX+vSRC5o1M0Mp9nW3qSLA6ph5cuQw01PtM4g162eMnT1bburc2ay4aVm6aZOZ0oo9iX8ohdU5P9f4ltIK5rqOHZPixRALY7K79VkZliefFHn+eRHf+zocZwI/jR1r1qm4TuuaF1S5xpYMg02EdS0tDw9qo6d2uXLe2Ylh8ODBMlafGwl8mLz11lvy888/eyGR2bt3r4wePVr++OMPma+NLhqj6R2nWKQBTAmt1rKrHD6wT0Z/9ZqsXzhdDh/co/u7zO8Jfd+TQ3qsxtldJHvuYMs7T6GSphdizl8/yoR+b8v29cvMkMe+nZtk4djfZfx370nR8lWldM0mZrglc+YsUrJaIylWqYaM+PxVmT+qv+nxOHbkgGxft1Qm/9RLw36TCo3aBKeyqqRlzYyqLS/QuOyXMV+/LusWTpUjh/bKof07ZcPCGTL5j2/k9zGj5akbbzRTSu0ww2HV+F/95huppK1dhjOS1qPQ4wPGjzeKxe0XXSSFfbMm9qhG/s/33jNKRR26IL17HcucWd5VBQXjynPq108a/kARmLl8uRHg9112mVla2yoPrJ+BQebj//iH1ChT5njvhhawd/Re2EGwkp4dliFev4wbJ0OmT5e7e/SQIr54bdUK5cF33pFL27c3lYlVRI5lySKvffutlLLx8sKJ1/QVK+T3iRNNN2qGham7bN57ORxnAqzHw5T3h7ROYRYY007bMf3c48377jPT1BNdKrZrnbULo/wIlNS6tILWW2vXrvVCIvPXX3/Jfq23LrzwQhkzZozMyQCL3GV5RvF+pytWaQu1j7ZQw3mbW7lypelCKuDzEZEaWBRlw4YNMm/ePCM0cmmrNl7h8cew0ZK7ajPJml3vlTWbBI4elNVzpxgjzU3LFxrFokSVGlKsQi0j6L0ujCRy6fvu27lFNi9fILu3bDTnH9i9TcrVbSL5ilaQrNmYGeG/JrNkz5ldtq1ZYhyebVu7QtYtmCq58hfQa5rrX5YGP256mElFJatjHlUFZN38afqsrbJx2XzZsGi6pnVeub5RTWnpW32OVvxXqn3X0QKJUmGHGZixMWLWLJmrysCDl19+wiyLRVpY/tu3r/zrmmuMUmHZqpo39hE4M2NpbTs9lR6BITNmmBkbD/TsKfntvfRZy7ZsMdNWWde/ql5nFQEW5eo9ZIjULF/eLB/uH5YZNnOmLFmzxqzC6V+nglkpH/7yizx27bXBNS+8a4iXWZRLw1hbI5sXL7pMB2qcxun9ruvaVY5ofquK/xGHw5Huof5YpGX3nk6dpIA3o4wp9f/t1884KgRmm5UpEnS6uFkVgTmbNkkTlv2PA3oUKlasKFWqVDFOEoH1dBj6gOxenTRV6xZ6I5o2bWqOc66t3/z897//lUsvvdT4K9qzZ4/M1cZXQ1WOwp2bXki3TbDChQvLOG11LlfBFQrdQnyUeNm4caP079/ffLAlS5aYrqto42IxEzgma+ZNkPWLpkmp6o2l1WV3S+1zeki98y+TlpffLSWqNpD1i2fKiumj9OSgMeUxVUBWTBshB/bslBptLpQm3W6Smm27SaOu10v9TldLrgJFZdmUobJjvU2PgOzctFKWTf5LchcqJg06/0Pqnn+51DqnuzTrcZtUbdFJDu7bLSumjjC9GEGOyeo542XD4hlSukZjadHzLqnV9mKp3+FyE69S1RqadfStwGXlyvd+/llyqKBvT0a2aaMZetKiRTJx/ny5ukMHKRSytkS/ESNMePXSpb1QLdAqpPH9wYyNrlpwc3qLXzH+iSIwRe9318UXB52AebBMN6viXaiKg793gaEU4pVL43WeP17K2AULZJIqipe1b59UmRDf9VqR9B02TC5r106q+dapYPjlx1GjzMI4XXzLh6OgMNd9zrJlcudFFyU5J3M4HBmHPFpHMExq0HqAummuNkwt+Dw6rHXTQa2HqB/WsTptnCD8P/roI/nggw/MPm7b+2pDa4Y2nn799VcznGHZpIrMIq37RmrdSM8EjV0/2GKsXr06SRnJnz+/aVgnRE6lIQlVLOzL8jfcb0u4MPCH59WKPKfXcgX/+ddoS/hifB8o/mv851j8x0MZMGCAlNcWb40aNaSStshHaKY7cMAK4dSzeeVc44isRusLJX/xipI1Rx6zXDcbS2rnK1JOqrfuohn9mKydN4VuBFk07g8pULyMlKt7luTKX1yyZMup5SCLZM6STXLkLmj8hDB0sn7RLDO749CBveZaFIii5euacziXa7g2V/5iUqZGczN8Mm/EAMqUbFw6Ww7t2yXVWnWV/MVsvLKYePE7R56CGpWg8N6t6YD3UtwNX61C2s6yICUZYug3dKg8eNllSdNAAUWAhbQuUeFtnJN5UFSwXSis516iSoJVKmCUat9zVXjf16NH0KGYB4ty4Tjs0X/8w9h62DUkTLw0vG61anKNxgubD+AbD542TX4kXldccUK88FL6/BdfyOXnny8NzMJiwfzAEE8vrVgw4GLabA6vp4KjI1WpmL10qdyNUsFMkgh5KMNAhcWW0d/D4UgNWgHOVwH9SK9eRngXKVBAgzLJcBX2c1etkjf69ZMiWmdUi9MGCUWARmoOVWYGDRoko7TR8uSTT5phj44dO8r5Wgchvz799FMZP368LF682Mi6rl27yg8//GBsLl544QVzzU033STXXnutrPNWBgV62OndiCTT0gsJUyzQuj777DPTk7Bw4UIZqhU8CULCoY3ROwA7tOVIz8CfKmimTJmSpKGhuQ0ZMsRss7RSx5c+oO1xb5QAxqz27dtnhkj4YHQ5/aaCgQ/Cx+S66Sr0SHTuyxAHH5dtqQqJUCZNmiS5PWND/jK8QtdUPBzct1e2rl4pNc++SOMRuauKWZ8VG7Y1szTWL5hsFIKiFYPuysOBYpA5c04pXqWW1+vAkErdoHIQ4TFkvUJlqkrW7Fll1Zyx+qw1UrHJuVFlC4dorffXTI8igEOxpLUldGPGxlT9Hq/cfvuJ/jq2bpVPVeBfoYWH4Q8bJWZ/fPz776pQ5ZAeLVsm2UcwY2Os3gdPpVecd57k91oV3GuNKhVcc5EK+1I++wiGTHAcVqRwYbnAN5PExGvBApmu3/g/d90luXzDWcSLoZybVUGoVbr0CfH6ROPLd+/pW/OCIZ6xmn+J19VaCfhX+szQXH21SPfuos0lL8DhODOgTqFx8S9VKrao/Cmu9dpLt9wi+bVuWamC+rEPPzQG25e2bZtUp6QWGqYYZX7yyScyc+ZMeeKJJ0xvRUut+wDFY/369UaxmKYNIYZHrGysrI0eZCNmAIQx1F+mTBnTS2FhZgiyLT0Pg0DCFIsSJUqYrhyUinIqWBD0WLGW1so8iwoghDsCn6EHlItWrVoZhQANDFBKihUrZsK/++67JKMWPgL32Lx5s7kH41AkLgoI9hD0NvCR6CriI3At9+f6fqqFMn7FWNf3339/Um8EcbUQR+4b75Se/bt2SMESKlgzB8fWohLIbByWLRgzRKo0P1cDks8shUpVlFWzJsu6+bOlUOkqXmhkUCKqND9H5v71m+QuUFSyZD1ucxCOfYcPycvffCMlCxUyvQuZPMXviN7oLxW2s1RRvKVLlxN6HRj+YJjj+s6dpTn2GTxUYRoowwwVS5WS684994Spmyw+tWTlSrOQFt5Tgavmr1kjvQcOlCtUqDesdNwhED0Vr+q3Lad5hHglKQL6LBa4Il5mgS2fUoGCQryu7dRJmvh6Klj86ieNVxXNLzfoc2whJV44LVuheYfpsbhsB65arwoKK4NmWBg6VEVatXMvwOE4M8BJ4f9U7ixXWUKDpnH16nJF+/bGZgw7qlXaqL1G66dEiGp6H9577z3T69CuXTsjd6pqnYhCARhtNmvWTF577TW5+eabpYvWpS1atDDHoK0qN2+//ba5B+e8+uqrplfdNrTzqDKEnDtjFAu0KzaUCl6ejZcnoa0NAz0M52nrFEUBhQFLV3ohtmzZYpQGNDaMNen+4RyoWbOmuUeRIkVk9uzZRrHg41itjedhj1G8eHFzHvfjvr/88os5l3sz5kWPCL0fflAmLCg9iZjGkz1XbslX7LhtQVQ0/vmLl1WBXyhmh2JZsuaQ4pVrmQWvMA6NBYY48hcrIXkKFdO9yBkSufv5r78aHxvnNWiQpDxQGPEG2ldb/lepID7B94cK7wfffVfaN24sVVXoWxhm6K2KJrNBzm3YMMlQkxkb2GdM0Psx/FDY1yPA8AcrfTINtIZ+Y9t6wICU2R94HjynXr3j9hkar1Fz5sivo0cbm45QnyS3aKHsgGLpixczST4cwNBQJmlfv/4JS37j1XWkKk+s2lnYNwyHfQZGn0xRczgcGYfdWmbvUQHNtFIUC2qU+y65RLKobCiksiab1iWLtIEzce7c4AVxQr2CHESOMRxSShtVKBA//fSTkS9MM+VYkyZNzPGs+nxkGYoDPfOtte5hEgFmAMgvtnO0PqShjIyix76B1s1njGJhSW7sB8PLydrCLKStQZQFehFQBuiSJhEBZYIEjwc+Gh+IXhA0vscff9w8zw8f1/ZQoIzw22/XkRpyqEKVM+/xrqvkyJE7nxTV+MW4IKYR/kXKlZcCJUsEpWEMHFN9qWilKvqs6E60Dh89Iq3qN5CebdokTQ/lEcNU2E5Upe6t++5LWqeCcHoXPv/9d/nnVVdJfd/YJMt3Y7tA38hV2hKwU0ox4MS9+ojp0+WO7t3NypYWZmwwpRQHZNW1MFpYP+MLVTqrqgJ5oU+z5/lDNV7TFy6U1+6+O8knCczXe6GgvHjHHVJH09ayZfduM/yRT8/F4ZCd/cFCOQM1Tw7VVv19PXtKPi9ePGPu6tXmXhdomrBolsPhyDjs2rtXXr3rLhk0caJpGLSsXVsaVq8uX2qdwl/swWg4PfHJJ2adGrw0J5rrrrvOyCF69DERYKgE2VS3bl1jdzFs2DDTsH7ooYfMeaEwIwQ5ydAJ8tXfw5FeSZhi4Vco+B1JwWB4pA2VdOHCRnuj54JErq4f2Q5/YA9hx50g0r39f0PD6YZi+IR7M0bFuJXtjrJccMEFSZogBjEMq9DTEg84B4vFJ4fl4L5dsnnlCknGm3kSyHtsOHZsWB/LyIkhs8rPTcsWG/uPaGRXZa5xtWrHl9bWvwMmTJDJqkmzHLYVuICQxnahuyoCzfUaq4gcUK28jxYeppTe3KVL0iwLCu8wVShYp/+2bt2Shj9gnn4bY1Oh+aKFfgOrjTMrBdfnzNhgGqjt9SBev4wdazyoXt+pU5J9BmzUeDGllZkkjX0OxVAf8S9SkXjpd7eGmsRr+MyZJl53XHyxlNZnWeZrvD7Ve/U466wT4uVwODIGpYsWlcNaj/w2bpxk14br87fdJn1UwJdW+UOj5yamomqdTw/qW99/L0u1sRQP9Ipj/4ciwJRTYJgeWYNM6qkNF6s8YHfRuHFjE87xOnXqhK1jkJXITBrcDJ0g09I7CVMs0MQYdmBmBUMWGGxiHEkY9hMYcbJdccUVRrn4XQVJhw4dTO8FXUMPPPCA6S5iW6ACY9myZcawhfugqXHNihUrzAIh2GmgkDDt5sUXXzTdQ5zz9ddfG2WCVc8Y1zpbhd7HH39sNEU+RmhvxFkqMFAkmAaEPcZFF12U1GuSWg4fPCD7d6fECdlWVUb2yNEjsXlEZQnvHetWG4+oAboiYuDIwb2yd/s2OZSMYgFJglgF7ri5c2WmClwcd1kX46hu21UJe+7LL+V6LQz1KlRIugal4htN+0qlSknnZs2OL4ql91qsiuJS/WbYVLBglb1mnb7HQFVecDSGozMbztLe32leOrthQ7lcC56d/cHwBzM2FqtCeP8llxyPl4Zv1xbJvz/9VG5SJai+T6nYr/Hq9csvxlcAzodspqcLctmmTeZe92q8/MMyG/bsMYti3avxqpkGC+g4HI60h3rh8Q8/lP1aZzWtXVtmaaO1vjZiWUcHo/SG2ijCRQH2VSO0gYG35nhg2J0JBSxihUyzoDAgf/w98dgI2vDk5A7KCbLKP3yfnsmkCX+8OyAO6A1gDImEsoaQQILQG2B/c5zZFzYxOY9wYDgCTY8xKip9ew8+hv1t7819uJ6xKX5zDs/ndfhg3JN78CzOs7M/QiFuZAbiE29vBdz64OOyv1wjqX3OxRrX6IaS+P5YMPo3yVekuBzR96jQsK2+S3Rdb/v65bJxySzJma+gFCxZXrfjBo6RWDr5L8mcNbMcO3LMrO6JnUY4Ns0dL113zJRz69SSkVowpi5cKLcxZOErDEs3bDDTUG/p1k0qonl72WeXKnffDB8uBTWdL1VFILvX68FMjlGqCAydPl0eveqqE4YsVqoSSJdkN9XGMdS0whubim9VUWX6Fz0VScMy+iziNW3RIvP8/F6+gWVevO6k18HXG7JT4/Ut8dJve0nbtifEiyGeIVOmyL+vv/748Ic+Y7nGi6mudJOioPB8ptIuzJFDOl14oTkvw6EVqDHcVAVLm0peoMPx9wV58O8nnpBX33jDNIhYcfMBrYO6MKPMVw88/MEHRqnoofVD+fr15ab77zfHUgP1BzIHmUSD+UwlYYqFI8jN9z0s6zIXkNwFihnBr1kteOAkMsn+Xdtl54ZVUrJqbVk6ZbSUrd1EcuRlNdHw1/Cp1i+aI0W15S2Zssrm5YukVI0GkjmiFpvJOB5bpveu0aa9bFm5THLkyecZl578jJ2rFkrTPSukeqnS8tPIYdKheUspWsA31UkVtT/GjJHqFSpIjfIVtPB4B/RW0xcvkr2qGDavW/f4kIWyatNGmaTKQPumzaVI/uMF7ciRo9JnyCBpWaeeVClbVgt68GaYmoybOUMOHj4irevVl1w5POVBn7H3wEH5bewoOb9Zc43X8VVXj+qxX0eOMC2Perol9S5oBCcvWKDXHZDWxEsVJI6Rjrhex3tqx+bNpZDP6HO/p9S0qVdXqpYpm2TcycyXRao812/S1OxbqEC43zF6j/QvS63jSTFaseKaY4FjEtBKDVgZ1d4nEuYafUZAvwG/M9k0jnCJP15UotX7fS859NzArbeIVDhud+IHpZb7o5BzY7NiazDBzPGwcI2+R5YsmY3xtcORXqDRedttt8mXX35pFspiCPaC1q1N/WTLGt6SZ2g90KBqVdOQWatl5c5HHjHHHKnHKRYJ5pEHukmr6gMk74mjLmExAlD/4QuoHDih/l69XmTNZpFW9b0AD85LEiYh10Riyw6RqXNELmirOyozIl1i4qB/MSTFLuNY6Im6P2+5SG6V9RXLemGg4SZewZ8nQDCbuZd3jkH3x0wRUdktlY7bahrQMXiv0HsRgJwPjRfnTp4l8tus1lKrxyMa/4DpAVoxbbTsWL9KSlStI5mzZZN182dK8Uo1pVw9bbHQm+QJX3MPTZgDu3bLkgmDzX7RitVk16b1snfHVilfV5Wi8lUke87cJ8zEYVhq84rFsnzqKFUiy0muAgVl09IFqriV0mc0lzwFCuszgopJEI3XwQMar3Gyde0yKVaxqqZzNlUQF0rxKnWkXN3G+n56f5uYCm7uD+zaJYsnDFGBf0QKlakge7dtkYN7dxtnd0XKVdJHnKhYmngt13hN03iVqqBKbgHZsXqZ5C9e2lzDLCSUHwtpgF+bldOJ11KNVw3TM8gS9CWr1ZcytRqZ90ZZsaCAoBgvmTDUpF1g5SwZPYaVZB2O9AGKxb0PPCgf9+olZes0lbOue0jWzJ4oGzVfl6hSS7JrI2vd3GlahipL/hKl5c83Hze2Dr//PsC7gyO1OMUiwbz4f93kzosGSOE4esGOqGD/+S+RZg1UgJfwAlPJvsMib3wscte1KizjnNRwWOP1RX+RHufqvY7bOKaKDVtFvtR7PXiTSHa/wpEKtu4T+eQbVcayXy7lrvpOtqxYpAKfyqOOCtMySf5VjhzaL3u2bZT1i2YY4Vm4XHVVYrLIoQN7jH+VQ/v3S+kaDVXwFgn6edHW/qH9e2X7uuWqZKyR8vVbSs68jMEGZM/2jbJm7mTJW7ikcQSXPWdeFbyZjVBH4G5aPo/SJeXrtZIsWdEyA7Jl1QKjiITG6/ChfcYvzMYlM6VohRpa0Wm8VFkw8Zo/WQ7u2y9lajeW3Pn98doj29askN1b1wV9wuQrok/QeG1dL2vnabyKlNJ3rCnZc/njtU3jtcDoOuXqtjRDYlyzZeU82bpqiRSvXE8KqPKRWePFCqyk167N6827FClXRZWr4+m1VuOFzQ4ec/MWLiLDHukhgwb9pu/jcKQPGJ6/86675NNPPpH8xUpL+1sfl6otzjc9yVlz5DKK8tFDB2TXlnXy9UOXaZ6eZgwqWRHTER/+5pQjUaCqxbFt2yWyXbdS2uANdzzmTaEl36CmSBEUnXDnpGCbOFvvo8pJYRSUMMdj3ehpnzBDpMPZqlRoULhzYt0CqpR8+b1I2+Yi2fRmuzaukq2rl0iV5uebBcQQ6qyAivqcJVsuKVCioh7rKLtVYO5VoXzs6FGjVOQtXEKqNu9gvMyyuFlw+m8WFcz5pURlbbXXbmqWRg8EggJ62aShRmkoXbOpKhUkCMMfqibotbi0L1+vjRQsUVZb9H9p+DFVAhbptkyfcd5J8cqaLbcUKlVJj3U0is/uzas1jQKqVExRBaGkVGvVSfIUDI1XgWBvQs0msmD0QA07YhzdrZgxWio0PEvDm5m4nxivEqoctdZKtpQsGjdIjx2TzcvnyI4Nq6Rysw4ar8qquKgS5Esvwio3PVf2bd8sO9cvN+Fr5k6SfBqv6q26aLxwDBff1HCHIy3A1q6YKsTZcuQ05Wrfzh1SpGw1yZo9dzCPa1kiv+/evEk2LJlrFI1q2CI54sYpFumMYyooP1NB2bKhSI446+u9B0SmacO5XTPaxfFBb8X7X4q0b62ZJs6bbdsjsnaTSPXjjk9TzaoNIstXidSprmkXOCSTfvpCWyXnaWUS3lgXOFa6VlOZP2qgtsq3aIWzTQprhRM6pJCEVji5C5SQKs3OkZl/9pM18ydKlRbtJVe+oqYyCgc9CwVLV5Oc+QrJpmUzZcaf30vVlh3MEuyRyKrxwmnd0smj5ejhrVoZbtGKkGmuEeKlXxUlpkKD1hqv72XTkhlSqWFryZmniIlzOBh6KVymuuTMW1DWL5pu0qCqKmHJpReO81bPmSqH9m02QzFFytVAW/HOcDjSJzQYytRpZhoQswb1lUP793lHghw9fEgm/vCR/j0oRcpXk5JVI7tVcMSOqxnSEyoLlqiQPHJUpFbykz2SZdk6kbLFRPJFlhkx89dYkR7dRArFey99xxnzRWpUFskTfnJKzBzSdBo4UuThW4IZefPSBVKzbUcVnskbuOTInV+y5cwls4f0l7K1m0YR3scpWLqCGUo4fHC/Xo/w9g5EQlv3BUuWkSUThkjtczrrMzxD1CiwuBryetqAb6RS4zYxCe8i5SvLuoUz5cDenarIFA8brxx79NjuHZL5yBHT61CsYhVZOHag1GrXWY8mP8U6Z94Cqrgdlam/fq4KEsvPu6rDkf7ZuXG1tLj0JslTqLhsWjpPZg3u6x0JwpDp8mlaiSgNO19pVjR2xI+rHRLMgUPagtZW9JK1sW1LVfiz8XuBKhVf9Rdp21pkpd7Dhse6LV3vu0Z//zBQFQGVf8QnxffyxWvmEpGhE0RqV9cw71jo+dG2ZRoX+3v2CpGfB6kwLBwMT3G8uJd3zcQ5Ipu2s0y3vqOG79lzwAxNxALCtVLj1rJp2TLJV7SMFxqdY0f0miZnSZaseSSLsY9InpzG9iG7FC1fywuJDt2z5eu3ki2r1phhmVggXlWatVcdJGfEeHV66U7p+n83SOFVi8x+tpwFJEeuwlKgeGzdRqRXGU3b3Vt2Sa78J8/1P3gk8SsWOhzxwqyoaq0ukKbdb9Q8fEyGfvS8sYGyzB/5q2xft9JM32/c7TpV/p1ITATOeDPB3HFrN8l9bIDkSr5xaswEVqhAzKuyoJgKWvZNY5N/dIflI7zlO2Ji+jyRiqpwF2L2pN6D2YxmVmIq7rV4tQr/AkF7CpNDtLxl0r/0sLOZGYkxwNDOsLEi55/Fjv5v78FB/SeL3tebdZk8ei42I/VqqMDWRrb/XvTyTFzTVC58Y7IcidFXWOasARn+yWvS/ubHROufmNi/e5OZ5lu+gb4Q6ZIMxG/u8P6mZyBTptiUkUya0CM+13jdpPGKMZ3prdiweKZUbNQ2bLxu715NcuzZJT+89Yusq8c6FgEz06RSo9aSNUdsfmowAB3X9wM5+9r7PVuPIIwg/XT3eTJh1FAvxOE4/Zh1LF57W3Kef7NsWbFKPr/7Atm1eZ30eOpDaX7JrXLo4H75T/fqJqzzfa9I66vvkayzf5N/3XyFdwdHanGKRYIxs0K6D5DCMdTVzP54v6/Ixe1EKsTotywSO/aKPP+eyNP3iRSMc8XXPRqvdz9VYaTlyxhqxsECVVDooXj8Vt2JJ6epgKYX5/s/RO79x8n2J3sOiNz6ahVp9PgiFYCxtTr27lgno754U7o8+JoqT6gnybN69hgV4nulWstOXkh0Dh/cJ1P6fyotet4a0xAN7N68RkZ//bZ0/efrJwjwaKyaNU4O7Nkh1dt0iUmxYDhn+u9fS6MuV0g2Y3yaPDs2rJRJP34sF9z3wgmKGIrF0Ie7uVkhjnQFisXjz7wguTvdrXk0l/zy0l2a57+SsnWayz/e7C/TfvtC/nzncSlctorc02eKZMuR3SkWCcL1+6QFCAMq92S25WuDLe8yxcMfj3VD+EycKXLheZ5SEeacmDfl58EiTeuIFMrnhaVyo4dk6mxVnDrofoxpEmk7rPf64geRHirPc3i9MCdsen9U5G1rl+lO8tCTsGbOFClUuozs3328azQaCNCVM8fpryMqWGPr/jmwZ5scPbJP9m5fH+z5SQbitXbBVClQoqgc2neiN95IEK9lU0bqtRqvGLulDh/YJQd2bZaDe7fHHK8NS2ZLrvy59drkl4Z3ONIDLPa2bfVSVZ7zSKNu10mW7Dlk47K5xtZi9Ff/FdZzaXzhP4wNkSNxOMXiNMFqkR99q8rAOSJZEZRxsFtb6yvXiTSurTsxCIlobN6trc8RIue1Mp0EcbFjj8ZNt4qxmQpEZe5SkcIFRapEMYcoWrGmLB4/RAVl8uP9+GbZtWWj1O/UXTYtVe3HaD7RYbiB9Spo2Rw+EJvQP6BKS4WGLWXJhGGanskL/SOHD8r+XTukYZfLZN3CGRqSfLxQjHLmyy858uaTg/ti81Ozb8dmKV+/uSyfNlaVhuTHgY4cOiCH9+/R9LrUzPePO6M5HKeAAsXLyOq5k7VOOCSVm7ST0jUaqcK+R4Z88H+yd8cWKViinNQ6p7uWgeDKtmYFXUfcpFvFAgdkODPbvv3k1iQLnxxJicFAMrBCW3AZ41PHzAUilSuJlDnZS26KWbBCpJwK7/yx9bRH5KgmAbM/Hrgx/oyB2Bk+QaRhLZFccc7+2H8ouO7F1RfpTpTPlF1bJRUatpE1cyYZe4BIBAJHVGhPl2otzpFc+cqp0Dwku7eoZhaFg/t2yIKRv0ujC6+VohXqyNLJw/W6E6eunUhA77latqxcKmVqtTJrTqyZNzGZno6jsmHxDKOI5ClY0Ti0271lrXcsPMRr4Zg/pWn3G6RQ6eqycuZ4OXpYNc2IBGTX5lWyafliKd+wnV5T0Sx2xaqekTkqG5fOktI1G2hFXEMO7t2l8YrPC6TDcSpgEbrKTc+SFdNGabk/Kl0efF2yZs9h8jBddZWaniPFtUFCxbJlxQLZvWl98MI4wQdVqDdtP/inQr6tSYE3VXxpZRTSrWKBx9LXX39dpk+f7oUc55tvvjEe5OIF5QSPqy+99JKsXr3aC40PBCo6Lz0SkTZ6GIaMU0F5se7ryeHOiXXbr4L2tyEizepr0cgU/pxYt/Xa2N25R6ROtfDHY970/TfovWYtFKmvigUKS9jzYtxWbBQpVkgVp9zhj5uNtNe/JSrX1YojuyybMlwF7G4xFqceGEUeObRbFowaIKwsmb84y2FnlbJ1m8vqORNl/aKpEjh60HT78yHNX73zvp3rZMnEv6Ry83OMPULeQizZ3cJYlO/avNKcEzxXr9ESdezYQVm3YLKsmTtVqrY8XzJnzi4lqzeRLFk1XlOHmTgQF4uJ18FdMm/4L+a5BUvicyOzlK/bUpWkybJ+8TRVSMLFa73Ga6hUbtZW3zmP5C1cSltkjWXusB+8eOFXhHODsGLnelWo1i2YIdVbdTDLh5ep1VzPySLLp/xl4hAar8PEawTxyqRKSFWTxuXrn6XvNkU2LJ2m9wzG61Qr5g5HLLCyLAvS5StawpThktVqmsaHpeXld0imLEdk4bg/tTxt0fMYl46fjz76yMipSNCY/fnnn4037+RAoZgyZYrceeedWv6Ol8/0TLo23rz11lvlkksukc6dmWt/HNyc44k03lXSUF4mTpwoTz31lHz44YdSt25d70jqufWmbnJs1wCxvrMsCOw8uYLDHgcO6qat8ILYzEVIfeQBMzmwLfDD19qyXQVtcGVpc59deu/irNIZhWxh7sVDtuq9injLc+9ThQeDUgR4JMziWEaQBPctWk7kgCro+b31n7buEMFhaJ4ovSgIJGaFMKPDD4rITm1QFMZJqb4jaUe6kX6RQEFbm+tyOfuhvsE0WrlAZvzxjRQoUVYqNmwmmVWoL5k4Qg4fOCANO18ueYucOF8dIbp4wmBZPXuiFK1QXYVnQ9m6eqUqG/MkV/4CUve8SyV7zgLBD+Nx+MBumT6wjxzcs9P4IihYqpQsnzpe9mzbqs9saVbfNLq7vUafsWXFfJn+x7eqPJSV8g2a6TfOIUsmDVcBfkgadb1S8hQ80Yo3U6ZjZr0JBHnxyrVVCaon21av0njNNVPk6nfoqcoOxjDHOayKy/TfvpaD+/An0lwVqGLS+bHrJZ+mwbBbH5ejrbtolDRBk94lIJtXzDGLbBUoWUbfXdMrc2Z9lzGqBB3V9LpCchcMHc86KvNH/yrr58+UUjXqyty+78mUcSO8Yw7H6QfjzVc//EoCTXtKlux5ZeeG5TJ1QG+Z8vMXsn3dCnPOOTc/qmWumJbvi1SpKCtZZiXGeJPeCDxmR5NRH3/8sWzZskUef/xxLyQ869evN4oF8nDdunWmbKZ3EqZYbN682QxbFC5c2HQBcdtixYrJ1q1bTc9AyZIljWtzftP9s3fvXilbtqxxkQ5cQzjCvnTp0lKoUCGTkN26dZMWLVoYd+rly5c31y9dulSKFClitkWLFknevHklV65cRrPDVa29J+5ruScOlSpUqCA5coTvk+/SpYu89tprCVEsnn2ym1zbcUBwyqfHEc0Hn/cTuaJLdKEdC2s2iQwaJWLyfohATinb94v80F/vdaWnMKQSMtC0BUEF4NzYlpGIyoQ5qphsFenaXndibAizyuhrf14uZS/rqwJ/v2xZNd84IKNVnqdwUWOktWfrZv1LT0UpKVKmhvEXYNm3c7NsWj5H9u/YLtlz55M8mv8O7N1j/IewJHCRspUkX7FyKuitQUxAdmhFtdlbMIsFeLLnyim7t2zWvH9U94tK0fI1JWfe4y7c8b2xZaUXryxZ9ZxiJj6ssGniVUzjVU7jld3GK2DitXHpbOOILHvuvCrgC8lBjRfPzJY9pxQmXkU1Xkmrhmq81i8zC3kdOXRQ8mq8subMIYe2bJRjRw5LzqIlpUjFWpIjz3FnL8F4zdXr1hivqXkLB1tte7dv0XhmMX4W8KuSNZvVEoPx2rBkhhzYs0dy5S0gS755TYYOY5lwhyN94FcsJHN2VcgXGqV+xKevahkNViz44Gl/y+NaH1SQ/CUrSO4lw+VfN8WnWDAMgtxBJiHLAAVi48aNkj9/filTpoxRDlAsCMMDK7KrlDZMsmcPv04BpgHIJ+6bERSLhMUQIU7L/48//jCJ1K9fPxk2bJhRFMaMGSPjxmFNLzJ//nxZtmyZ6Tp9//33jcIA9BxMnTrVKAGDBg0yHwJWrlxplBDuN2fOHKOA/Pjjj/LFF18Y5WXevHnyyCOPGK1ux44d0rt3b9PNxH3piuLaFStWmC6nU9E5Q8ua1SkLa8vdbvOWijSuI1Kh2InhKd2474YNIhedr/tax4c7J9atoCo+f6gcuOYikaL6O9w5sW7YduDfpE298MdTsuVTmTplmkiPDrqvv8OdE24jbYJGsMdk5YyxKvsySZVm50u11hdImVotpHTNZmaKKOs84P105czRxoAT9mxdJyumj5HCZaqY6ZpcV7J6U6nYsJ3xH1KqegPZtGyBEdhBArJ2/hQVxovN1LWabbtLhQZnacu9mVRv3dn4/MhXpJTMHzVAlYCgMSXKRnCFP41Xc+LVRSs1jVet5knx0tvKCj2H5YVh99b1ZhZK0fLVNF6dzXWlami8GrULxrFGQ1UgFqqCY+N1TNbMnShbVy82Xkxrnn2RWW+jtMarYpuuUkGfmaeoxmv078Y2A7A3WTppiEYri7l/9dZdTXqxsbBQhQZna3odCw4t2fTats5Mby2mCkoNPb9K83NV6Yhh4RaH47QQkNWzx6uivFVm/4UcOKbKchltJGQWnOzlzl/ULKe/fPIIOaKNknih8Ttw4EDTWAXkXZ8+fYz8mTZtmvzyyy9JsgjZhOxEfn3wwQdR7TIyEglTLCpXriwFCxY0Whe/6bmgZ6FSpUpSv359ozigTKBkkJB0EaHZoTigWb733nvStm1bqVmzplEwMG4BeiO4X/Xq1WXAgAGSO3duadq0qVEiUEJwc4vyQu9H1apVZcGCBaaXBA91G1QK16lTRxo1amSUkp07Y7PkTyR7joj89JvI2Y19Pc+phLUqtukrVEjAMCALc2XOKlI2Tu+psEHjdVRlTvHjjfNUQVEbN13kwvb63VMpp1bPGS85Nc+UrNZQshmPo15LXm9Oqz5bjjxSsmpD04uxbc0CbcUfkrULpkilJm21sikvWWiVM0Zjyn0m07OQM29hYyuxbPIoFchbZOfGFWar1rKj5NJKKTMJydf1rmH1S5ydNep8mcwd/ouZbrpyxgjJW6iwKiyNvHh5Rc8XrxIarwIlSsuWVXONwF87b6IqN20kX1EvXr5n4PMjZ55CRqgvmzpWDh3YporPctOTULXFBcF4adyPczxe9Tr0kNmDf9B47Zelk4dIgVJlNb1C4qWQdkzTI15FylZQ5WqWPv6YUSoqNNB4FSnnrfQZb852ONKOjcvnGKPpA3t3y451K8zU0k73vqR1QHHZvXmDLBj9hxQpX1vzeW1VNLTlFgfIOBq1yKO1a9caGfTEE09Ip06dTI8D8goFgqEN24NBzz5eVen1Hzp0qEyePNnIryFDhsjgwYNPkFs0lDOCPVNC+1ToorHDDUzf4Td/URx27dplEgTlAcE/d+7cpERatWqV6epBiYBnn33WDHsAioolklUs9haMZwH3QxucNWuWUTwYKsEws02bNmb/VIIMGDpe5KqLRXLGm9Jad0+ZLVKlnEiO5F07ROWgKjujpohc2VV3jKBKPQGN11c/iJzVRCRLnPJlj37e1etEqlXUnVTE68DubSqMpxsHY9GFXSYpXrGOttRHy/b184ytQq58yRipSFap36mnTOj3sWxcOkOqNDtP81kyL5wpp5St3dgYRm5dvUxK1dBESua9CperIatmTpGtq2ZI7gJFjYIQjUyZsknd87rLuD69BPfn5eq10nh5ByOQJUtuqdCwhSwa97u24rZJySoNk40XBqXYdWxYPFEVitLJxsvhSA8c3r9Xlk8dJ6VrNpJpA76WI4cPqXJfX2qc3UXOu+1pU03M/PM7LQebVemuIPH6CkGm3Xvvvab3fuTIkdKjRw/Tc1+lShVzHOUB2XTXXXfJV199ZRQJejGAYfzvv//eyD+2t99+W959913ZtGmTOQ705J9xikU0rBfI//3vf6ZXgl4MbCRIKBQQFAOGMAAFxSoRqR2+qFGjhvlLjwXPQrGIZGORVmxVRZPZss0T4DBvlybHhJlBF+hxym9Zr3HKnUeFhW7xMnOhSPkSImUT0IvCypoliwWXOE8xmiibls2ROuf20Lzmb6mHJ7O2tItVrCZTf+0npaqpYI0hVbPnLmDsLY4cChi35bGQu2AxWTlrqtTUikxFejAwCkyPK1S6gkz5pa+UqdlYQ5KPF3YczDg5qGWGXoxYyFOohKybN0uqNmune8lXA1my55R8RUvJzIE/mXHp+HOhw5H27NiwWqo2P08V+xWybPJwBIq0uPR2yVOgiDS56EYpWq6a7Ny4RsZ+85bpOYzo4ThG6FF/9dVXTS9F69at5csvvzQ9FXZov0SJEtK4cWN566235Oabb06yIQSGUC699FL59NNPzZC+3ej1t9ATgq1ieidhigWaGEMbGHDSdUNC8pswegwY2kCbo9cAJYPzsXBljImwa665RiZNmmSGSYYPH256MRhvoneDYQ+6jRjyYJ/xKLqb2F+yZIlRSHgmhi2Ec28UCTQ7jhMPupZCNT0+JNNNuYY4ohnGa4fBDI1xM4I9AoPGaIDWv2MnBfdTsg2fKDJMN7M/VRWyPiI1VemdMP3E82LZRkwOTm+1+z8PETl2WOOl9/WfF8tGnIgbv0fq1u8PLSyqDIzRZ4Sem9z213i9l00bfa++A0QOabxGpyJeI/X5+44UMoaGMaGfuWydJlqRZJMceWJb0hp7L4YecDkeawVET0jBkuUlV4HYWvhkv9K1GkuWbLkka87YND/iVb11J6NUYHwZjk4v3ikXPn29FF4ZdEKGklSkQg3JnifGFQc1XqWqN5QcuQuauIWyR8uQw5HeoGwXLFVOpv7ymemVYPnuOuddovVyJsG7ccsr7tKynFnGfP2mKiGrvKtSD7KsXLlyxmiTHgiG8J977jkz/RTZhUnAOeecY4Y+MBfAfADZuHz5cnO8Xbt2RvkoXry4Oc4kBmQoQ/wYdmKvYc0E0jNZnlG833GBUCYxSRC0NpQHtCuGMhD02EmQYK1atTLn0kNx7rnnmnMrVqxouoqs4oCGRu8CM0m4hnNQCrDLYNiD3/RIMDaFAkKPRNGiRY1ywbV8EOLC+Sgk9IDUqlXLXOsHxYUPig0GFrw8hw9pe1dSw4ih30qDaoukkNbXCFyW69bbpnhbtUlk7TaRGqqs5tZ6nOGB4kVOPi/ZTV952Tq91waRWtV1X+9VuZzGLRX3yqXb3JUqlFRhLl0yGFavZnCKaei5yW3ca7AqO6XKiJQkLjmD62cU1HQLd37UTZ8/cZbIzJXlpWbn21TQxvb9suqLrJo5USo3bZvs8MFxjsiB3Tu0smK8JnmotLatWSrFK9fUfBVbSyNLtmyyetZEY/cR85CQvvL+XVulUOnw/vbP/8+DUmzpXFnU/mLZXaKsyeO4lC5cppLp7YgF3mXtgulSsWHrE+KFWcaywX3khuuv9UIcjtMPjcRREybLntxFZcDr/zR2Fhf96z0zLGLJla+QLJkwWPZs3Wh6I6uULSFnN6nvHU05PJOhf+TSzJkzzVAIchBlA5sLehsuvvhiyaZlHDlF7wXn0rjt3r170oxGPygSXNuxY0cj+5BRyKr0zGlZx4JHhhPeNirxCPZQIj0rrTBOyC4aIIVPXFogRRw+qq33P0TathQpH+fKnHsPirzwvsi/bhcpQF6MIylYBqPXtyLXdBUpFKdzMpYg/2GIyP3XY70QHyxD/llfkXHzVXF9gZUqY+tNwEhyXJ//yUWPv6sZJbaEmTf8B8mcNYfUPLubFxIdHION7/u+tLvhIcERUixsWjZbxvfrJRc/8b7pjUgWjfrsIT+ogpBZ6rS/RPO8F+4j1AnZwb07ZcL3H0rrK2/XlltsvRbrF8/Ult8XctFjb2ol7QUqdN44J2SO9AYC/uF/PSmDJs+V+SMHmBlct3z4l+TIc7xyPnrksPz+n4dMGWX21Y033SSv/d9j3tGUQy88dhIoEzSgWdTKEk3unUoZdSo4ZTYWfiIlIuGJTuDT8sGo2OPYNm4NKhelvAWiUrshYMbPEGnXXJUK21kTck5KNoZBypf2lIowx2PdtLwbe5EL2qtSgeAMc06sG6tufvKdyLmtMDAsLWvmBqc1JwcLYq2ZM1VqnNVedm2KrQs0c5aAbFgyR7LmyCxHDwWnXiYHTr4KFC9ilIVYIF6sjFm1RSvZk8xy3pbMmY/JhoUzJEfu7IJPj1hg9c+ceXIYj6WxQLw2L5sr5erWk73bjxuTORzpGaZKM+sjS7bs0qjrtZKd7k0fWbJmk+Y9bjXLfG9bs0w2LFvgHUkd9CTQ+82w/02qpPiJJvf+bpwWxeJvD6lKXknFRq/AN7+KtGoiko3ZH2HOiXXbvU9k/lKRNnovQ5hzYtr0fXbqvX76M6ikGMKdF+O2dY/Irr2ec7I40optoeoERzTRalZWxaJ0Rdm2eoXs36WCL8y5dqMc792x2bRcqjRvbxa5Mms0hJzn3+juX7dwplRp1k7yFCgqu7aoQA5znn/LlDkgW1YtMetDbFyyQA7s2XLSOaEb00VzFSioCk9XWbdoZvLxMorITKnepoNZpAv/JOHOs/DuxGv9ojn6jM6yfuEsObRvezA8yrZv11aNVyGp3f5i49TJLjFuNleLONIhDBvs3rnNKBf4xKnR5gLNq5pZNc/6txLV6kj9jpeboZJFC+ZzaarBZgKF4uqrrz7lkwXSE+l6Se+MyIP39pDqpYZLnlypq20PHhL5fahIjwv045Dx44BFq1ao4G1UJ7Z7HT58RPbiV8usy8A1meTY4T1aMI/IstVZZOuuI9K8fg7TpR8p0/CcY4eZWhx8IEtSZ8mWT8/PrP8dlrx5ssimrZnNsuR1q5tTUg1PGD1FpH4N0UIckB/GVZHMZc6X3RvXStFKtYInhUMjv2P9Cs8jaCHZvnapWW0ye+7g+A4lgmXGWQbdQqWzTgVqmXrN5ejhQ7Jp0SwpXTdozR2Jwwf2yVZVLIpXrScH92yTvVs3RY+XQrxy5M5rjD2JV+6CRVUBCg5V0NND+lI3WujKXb9gupSt20Sfd1C2rpgvJWudPK31f5/9V/IcPixvX/+AzC1URLauWSFlajWQvds2Gy+vparX884Mz9bVS4331HyqvGxeucjEK3eB4BRdVg1d8fuXMnz4X2bf4UgPYJx//4MPynfffq7lu6Q06Hq91l3hh0l3ap0xtf9H0rHThfLDDz97oY7U4hSLBPPYY4/JZZddZgxLMxqTp82UAasOSqlazeTA3m2yavZ02bN5oxQtX0UKlKxg/G/s2b5FCpctK8Wr1JHsOfIFJZ1KMQTvvp0bZOnECZI1WxazQBVGiBuXzJYD+/ZK+Xr15PC6lXJHx8ZSonji0wZD3AF975Tu7VS4xWKXAOT8oP6TBEHLVBlbrQ3/c477KjKYN/WuCb518sxcLpLliCpR1WK/JhzH9MI/x6kSpcpY2ZDk89837DNUESl7lf7ZX0Q2f/KJHGx03HgtUWAgjYGaw5FewMbi0/fvkda1e0kubST4FfJw4Ctp8vIb5IbbP/dCHKnFKRYJ5umnnzaLn/gX9soojB4/SfotOSC5VbvfsHSulK7RUPIXK6tafrYkgXrsyEHZsWGFbFo6xyz4xKIyLJHLUtLHjh6S4pXqSq78zKzJEhRweuHhg3vNGhNbpw+T1x+4Qcp46+cnEqYc9/2kp/zj/N9iVyzCsHu/SK/vRO6/TiR7bDagEWFVlvf7iNzQXaTQiUO7KWb1xuD03qu7aQWZ0vfT91hwtUjF8pdIzpdfFqkeZ1eRw5EBQLH46qN7pGebXjGt5LtPC+xv026QK25wikW8pK6/3vH3RBUHPHbOG/mHVG/VySz/zDoPSaqn/s2cJYcULlNdqjTvKBuXzpKD+3bJ3m1r5dC+PVK+3lmqVLBegyoVXGOuyyTZcuQ1vjqKV2TKJW3q9AnRnTpfpH3r+JUK+GOMSP3a8S9ERlouXCbSqG4qlAqPfg1Etr/yioi3AqDD4XCkFU6xcPjIJIvGjZQWPW+RLNmizU1lcZl8kr94Odm8fKZMG/CdVGraXpWQyBNH8UGROau1Rk2f4PZ90fLErCK684DIz3+InFUv/jfec1BkrioW5eIYQTqgnybAOi4RxpgdDocjUTjFwpHEkQP7JEfevMYhVizkL15BFoweImXrNFZ5FacDkwRgBDj/pGbTkrBwnUienCLF8Cge7pwYN5bEGDZe5Lqenl+XkOMp2jReQ8YGDV3z8VnCnRPDlo47ihyOtIN8j5TzlYWomyMhOBuLBJORbSyGjxwlX83cItXbXuKFJEdAxn37jjTvebNkzRZ0IBeZgGyaNEAe7tZMSpdinmliwcbijed7SuViv/Go2KAisedqQ/7730XaNhUpkQr/Wv5b7T8oMmqSSLuWIjlToW+hBNhSicO4b34Wuaq7SK5UeHw199KtnybLe1+sNSvSOhxnAthYvPX6PVIkey/JGUNH3SEta9uO3SAPPOJsLOLF9Vg4kmCOd+gCMtFgmiFr8WfLmT6Wl82uQrxwgdg2llwfrcL/4DEvTPWiO64UqVXlxPNi2gqKTJ8f9BPDPkMpV18oUloVlJPOTWajV6L/YJEi3rWliog8cqtImWInn5vcxvLo/VRZYjp9PlVKMh1UjedYHJatDkcGI6sqFEXyhy8fJ216nn+KuSP1pNseC6YPsn46PkVYVz2jkJF7LIYOGy6fjFsqDS68xQuJDrNB/nz7MWl340OSu0By75v2PRb9Pukp13aIbVbI6s0in30v8q87VPDGqV6v3yHy349Fnrk3OJQSDzMXiUyYI3L7pboTT8nMJDJmusiMuaow/UNk2o0idereLnkee0zE5y3R4fi7kjQr5KzYZoVs3C7y6+Qb5NZ7XY9FvKTbHgscuNx+++0yefJkL+Q4U6dONd7e4oWMN336dHnjjTdk7NixSW7bz1Sy5cglm1cuNUtXx8LOTWukVI3asmD0YEkPqy+aWPNPMht+LmbMF7nwPFUq7BhGaje9/qNvRW7oqUoFC+2FOyfGjT9TVRE4l3W3UI5Cjqdk23NAZNBIkX/0CPpiabZW49e/v9aeG3XP4TiDCFM+Ttq0vM1dqg2OdfrbETfpVrFo2rSp5M2b13gsDWXOnDkJUSzGjRsnu3btMi7bBw0aJJ999plRNs5UWJUuX5ESsn7RTN2jtEUhEJBdG1cYD5ysw79ny3rvQPrngL7aGo1u9QSs57R4lSpkeGat7AXEwWbN6oePiFQo4QXEAQpK+5ae4zkF/SnJcMPhcJxAQLXvqbNESidgRlisMFjwdzVxTJhiwdAFfuNZRnX//v1mn0TjN0MaFsJ2795t3KOzlruFcBy3bNmyJUm424TnetubwP4ll1winTt3Nr/tsziO23X/Pfm9bds2ozxwbigDBw4U1lVg2OLGG2+UMWPGmHPPVEij0jXryoZFs2THhiW6H17JYonvrWsXavoelbyFykrtdl1k9ZwJcmDPVu+MkzlyaJ/s2bZR7xnDOEVaohJ26mxVBKqK5I3N2WhEWPZ72kKRKy/UnXhfS+OFj5j2reJfQ+OAKie4yW9QQ3ecLuFwREfL3sz5IpW0oVGIGWEJAM+myJ5IIOd+/vlnmTRpkhcSGeTh6tWrZfbs2caFekYgYYoFQwk333yz9O/fXyZOnChvv/22LFmyRKZMmSIff/yxrFixwpxHgg4ZMsQI9R9//DFJ4JNwvXv3lpEjR8qAAQOMkgKbN282if/CCy/Ijh07zPbwww/L119/bZSYZ599Vp566ilzztChQ83zuScf46+//pI///zTnMuQRyi33Xab1KxZ0/y2CglLE5/JZMqSXep1vEI2r1wiy6cNU2Vhs4Ye9WYqHJEDuzfKkklDZOfGNVK+bmvJki2HttjzS9m6zWXB6AGyecVMOXxwt16DK2BN16MHZNempTJv+C9y+MB+DUu79MXPynpt9Z+0qa5of6/YItLnF5GKlUQ2+M+JdfPda+F6rUB2aJ7R9zzhnJRues+pqqBo1pY8+cMcj2XzxWv2MpH9h1XB0DSxYShBDseZBg4KN/rKht02+MJWqfz/4GuRerWDM0MSwVtvvSWffx7ZViNPnjyyatUqGTFihBcSGcwC5s+fL4sWLZKHHnpI1q9P/73DCTXepNV/4YUXmh6FL7/80vRMYMiIpsWwA77pP/30Uylfvry0b9/e+NV44IEHjO/6Rx55RO644w6pVq2aURauvfZaeeWVV6Ru3bpy7733GiVk+/btRhn4/fffzf1efPFF84xLL73UKA/58+eXxx9/XJ588knTI0IcUDoYTnn33XdNOB80FHo83nnnHRMP/HzEo1xk9CW9+y45IGXrtZXAsUOycuZoWTx+hBQsVVaKlq8qq2ZNlqw5sknVlh2kZNX6eo53ocfhA7tk7vAfZeuqlcG1LbJlk9Vzpkn+4sWkVtuLZe+iSfLPC5ummfHmM//qKbkDJ043pfNr0myRVo11R+OL/nhIhW7OVDgeZNom00jxFptVswj3QmAzGyWl7NmvSs4akTqeDxGUIu6DMpZSDui1k2aJtG2mO/ruVKaQ1Vq46z3v+kKkcPbiIr+oVtWypXfA4fj7QuPylRfukUNbekk2Xy8gfnewsWqgigTB7NOOZf2+HEVvkCf+Hb/xJjInS5YsZjjfQnyQLXb1YRrcNLSRWdFAhj366KNGvnENDWpkZXpexTihigUvi7vYtm3byldffWV6HW655RajWPzwww9G6NKLMWPGDKlatar06dNHbr31VpNguJr96aefjOBfvHixcWiEQnHxxRdL165dtT78xRhtPvfcc8YeYtSoUUaxYPiDnhLsI0joBx980DyHnouNGzdKjx49jNCh54S44dbWDx/7119/NdcyvBKvq9sMr1gsPiDlGpwtaxdMkb3bN0neQiUkV/7CkjVnbjm4Z6cqD3tlz9aNxkV3yeoNNd2CJfbA7m1miW9cFOcuVFRy5SuiuSuzXrNdDu7fJft3bJdM29bIszd2SzPFou/HPeWaEF8hK1S5HztN5JpuuhOiCKUILcNL14kM1gbGbVdqhRRnmZ6+WGTbdpHzrBv6VIKyM2SMvpoqOhe0JiAYfgL6iTJ31L/7nWLhOHOgbmdWyCWtT5wVsknL3R+jRa7VOiGrrxzjK2TAtBvkyhvjUywYrmBYvUCBAtKqVSvTG45d4Lp160xY48aNjZxBSaCn/h//+IdpCFepUiWs88r//Oc/ctVVV5k1aGhUjx49Wl566aV03buepjHza1RWf/n+++8ld+7cpieiRIkSxkYCSHx7DkpH9uzBnBBL4vGcUO0tV65cUrRoUaldu7Y0bNjQKC4oMH543rRp04wS0K1bN2PjQe/FmQwjFQtG/SbHjhyWyk3OM47GCpaqrApGSSlSroaUrNZIKjY5R44e3iOrZ4/TRNTvduyQLJk4RI9XkvIN20nxSvUlX9Eykq9IKSlaobaUrtHcDJUcOrDbKB5phmYBhiXsRo7Ax0bjerqvWct/LKXbUb2+r+osV18kkk3TKNw5MW96/fS5IrWrhDmWwk2zrEyZI9Khje7r+4Y7h21TbpHDFSpQMExSORxnCqFlYfkakZpa9rKHKcchYiRVILsYsv/oo4/MPsMd9LC3bt3aLJ/w8ssvG6UHGA4pWbKk6cWnURrOhuK+++5Laqja+6T3IfuExY4EsQaUKAvs85tuG4YwCOP4smXLzJADv+lRYJ9EateunenN4Bp6NAhHyCPsCcOokh4Q9ulmsgab2GDwl/vzMTmHZ3fs2FHWrl1rDGgIw8bCb0QKaJHDhg0z9xs+fLix7+BeZyxaqnasXymHDx6QcvWwn2BRhtCSlkmyZsslZeqcJUcO7Ze9OzcYw81iFWuoIlFBv+XJlofYVeTMW1iKlK1uFuE6VWzbJ7JinUiVBCw2OXuRKrzlRQrm8wLiYPbi4EI8LKAVD3Thjp0h0ukcvV9QJ4/IB6p4bPn2W1GN3gtxOM489h5U4TxNpF4a+uJDsUBZQPYhpxjSxzyAhm2jRo2M3LE2hzVqaL2ZL5/pjaCXfsKECSbcD+s40QjGjpHGOLItvZOwWn7NmjXSpEkTI5gR5mhmJCTCHGMTunkQ4Pfcc4+sXLnSKA5XXHGF+QgMTzBkQlcRSkXWrFlNQjLllL+MQ/GXngzuhaLAB0HZQGE4++yzzTNRTLgGZQMNj/tzfPny5eaj0YvhZ8OGDaanY+7cuTJr1iwT53iHQjIygWNHZdXsaVLnvIvpiIgKQyD5i5eXFdNGyZq5M6QENhfescgkf0aiOKr6UJ/+Iq0apm5ZbT/YMMxYIHJOC33vOF+BJbq/+FGkc7uTVbaUslfjtWaDKjxlvYAoHFJ9L0D+d07IToJ6KaPOBqNepOHmnw3nCM8xLXA/DhZprnVCvDPCYgVZhWwqXLiwFxIctg1ngIlNBrIuFDuUQkMZORnaO58eSZiNBS/PZoclbEYnsWy3D78BTY5eCjbOs+Gcx75VLMLdz14D/nsTzjVsnM8xfttn2Wf44Vr/69s4xUNGtrH466+h8r/hc6TZZffpXvKZ9+iRQ/L7f/8pZ197jxQqzdzGaJyClTc/7SnXdgwab67arAJcG+hP3qv5xDsntazaKjJGGxKXdw4abaYaTdKReh/W0ejUSvfjKXl6r/GzRfaoPDy/dTJfSxPgyTdE7n7K+QoJB+PWubWB075DBy8k40D9hmH7RRdddFLD6UyH+v3rj++RS88O2liwTsw7n2kd/YBI9jAFZr8q6qy8ecUN8RtvMvzBRAUmEDAMz+SEOnXqGHmD3d/7778vf/zxxwnGm/y9/PLLTa+GHxrGNMRpQKOo0IBmeB85l15xTsgSTFoqFnSrMT8a4ZAWmWrEqDHSZ/4uqdyiixcSnUzafJ/886fStMf1KiST6xZIe8Xited6Ssn8qlgoy1cGF7vJkYolttFbN2vDoYS3WM6adSL58ooUONFEJyZwSIbZTn69npK2YpVIhfKqxKbi8+3YHRxCyYP8UAVnFutxVFe9Ibmk13P7DxT56Ou0UyywVcIoLS3g29Jaq5RGS5FjvM3Huah7dy8k44Bi0a9fP2Pkju1aomGImaHoIkWKeCEZBxSLt167R3Ie6yU5tNys26BlWMthnuMTNU6Axen2Z71BHnoscYoFkxjooWfWIjMm6R0vVKiQXHDBBfLdd98ZRaFevXpm+H7hwoVGCaFh7YeZkxh50ptOo5oZk0xocIrFGURaKhYM8WD8ypTb0MyXCPBu+s2c7VK1TYwVrCoWY/u8I62vuF0yZU5Ogqe9YvHV/3pKj7OCs0Ioc6nJ2QG9bvx0bdFo8jatR4BulN9UlpKxc4OrX9a1MjGV96Jfrq8qB+edpQqPZ+cR8ztmEXnxPZF/vpB2isVZZ51lLOHTAizmX3/9dTNWnRagWOTQ8tSpS2wKdXoirRULBNrSpUvlnHPO8UIyDigWn//vHunUuJfkQflOpuzRYzF8/g1y7S2pVyz4HtgBomgz65GZH8BQG0Mi2EvYhiFDcOxTr9NTjl1GOL9YGHjaSQVcV7x48ROmsaZHEmZj4Uh70FZDDVATydEjh2XnxtXeXvIc00K0bfUS2bVlrRdyejHeTVXoshXScmd/p2RDoZg9XwV4S92390jlvfIX1nvNEWlSyxeeynvt2Bn0cFqzzPGwlLzj5YtUwXnhBRHPaCzRUEmmFbR9wlnLJ5LM6bj1dzoh7e1wc0YE76ZJ5SSZ8lJIt3i9m6IE0LhkuII1kSzYG1asWFHKlCmT1NPA1FOUwQoVKhgbwEjONpkxgo0iW+XKldO9UgFOsXAkkSN3Ptm+bq2wWmYsbFuzRGq3v0AWjBysFVCClqw7jdCYmTBLpHN7beTHK2f0+u8GiLRVBSVPDJ4Vo8Hsj4VLRWpX1dumorcDWuCE7McfsVj2QhyOUwOtdbr5mQXI0MrfuZOc3gjWnKhfv36GmL2RVjjFIhkoBPQUxLpxfkqvScmW1vcuWb26zBzUT44e2afb/ojbkUN7ZOvaxVK8Uh0pXbOOrJ0/Oex5Sdvh/aqwHAn73MRtATmkjavUbrsOiixaJlKiWPjjKdnWbBWZMl2kQXXdV50r3Dmxbtv3iixZLVKscPjjsWz6aQ3h0y3+LS3vndZlii2t759WG70J4cITuSUibXAaiZHsJ598YoYIWOyQoYG07g0h2x8OKQuRNs6z5SS1MLOQRbFatMBF8ZmLs7FIBqb5MIYZK6yKhlVvWnRX0R08b948M6U23tkr4diqBX35ph2yT1sY+YuX0mdEnk+BA7KDe3ZJznwFTWncv3u7WaEzkkGRqZz275JaFcuYwpdoqLzWrpwqhfOl3i04y3Nv3CxSBu+iIa9x8MABMwxVIGTl1kjs2iOyb79IyZMX0gvLzh07JU+e3JI1THcoS5Bv2RaMV2oKK6/y+LfzJOfhrPL1ZZfJ2nIJcOsaQq9evczKu2kBrVyM4VgZNy2gJU0eLlEy8bY/wP2ZUp8WU9kpV0ybZ9w93My3eGGIi+msdOPHA+WTOgtbAewPUCyY2YCbB+xD0iLuPPOD916WpfN+1Gd7gVHQ06VSjQvlvgef80IcqcUpFsmARm0NZ2KBJcdvv/12s5BJomFGSN++fY1xaFoUREhrS+O0zG5pGXcM2FAyu6fRzAGc8qEwhlvSNxFkr1OHPmk5/MMPcqx5nOuIh4G4s2x+WkDL9vnnn5c333zTC8lY4PuIZZsZH89oJMJ40y56yFpHLGJIowufUGysjpwWhugWjClT0itCvZqW8TlTcIpFgknLWSG0fL755huzxKvL/KcW/Nfg84YV9NICPPoinLEMTxO0EkexSCtfIUyZI33SAub6P/PMM/Lee+95IRkLnEjhoBHju4wGxojk/fPOO88LSTl8P1aaRIlg2ir+oNKix9WRfnBf1+FwOBxpBgoFSjPDKSxf7ZSKvz/uC2cg6Op3PRWnB9I+LStE7p2mw1D0WNSoIZIGax1AWi+Fb50SZkQiTSPMCKR1vnf8PcnyDH2MjoSBM7NmzZoZzTzRMP5HVyItgLQSQoyMMabK9DCeEeoRNqNAFy5zxBNli8J9MMALdbufKBA++BPAQBQDXRaFYj9hlXq7diI9ejApXlQ79QITB9Ps2BYtWmRWGiSfJkoJJh9y77ReJh8jUbrs7SqTlAVsDFiTALuA1CpP2M0wxJUWRssW4oqh5e7du81QA/sYdZKXmO6Z2rzENbx7Rq0HHKcHp4pmIKiYatasmaYtCMZTqUipSBgbTuuFidICVr775z//af4mChazidcyPhrcG18P+BZAKGDMiQO9hFG2bFCpSCPh1qVLFxk0aJBR5lgFFf8VvEciIF3SarlwC4ooyy6TbywoGXwHFjV64403Ur04HT4iyD9pBbMfhg4dKq+++qr89ddfJoylovGUyWwR7LKw4UkNNJB4f4cjJTjFwnEC9LiguFAZsjHvPKNBbwsW6IkSbKeK8ePHG4GAF99zzz03zXxjpAWkNUt6owRgyEkvAwIvo1BWFa8rr7zSKEUWlmNGoaG3AQE7ceJE70j6gvLavn17M23TpjmeonFcxYqOzEhBQUrLVXsdDj9OsXCcAF4SUSioYOnSrlu3rnckY8Cce6a3pdWQRVpCbwVCgpbyqFGjMpQLf+LN+i14aGT2BosEpdWU6LSA+IcOL86aNSvpG3AcYZ1eIa39ijRDR3jRJN4sTkWvg7PPcpwqnGLhOAHGsamEmHeOoIhnmtmphjnrv/32m4l3OEGR3sGugvF4WvwINIYWMhK0+lFM8drIKosZqcciHKHrH2SkHjCGTVk3g6me5KN7773XKRaOU4ZTLBwngYtqjNZYs4GKKaOAfQiGaigXLCaG10p6MDIKtWrVMoaDKEQY4PEdEsann4r8739p5isEw0GGn+iOHzx4sEn/jJT24UDJs8oFShLDPOmZUEWasksZeOGFF4xSkdEVPUfGwSkWjhNg+OOBBx6QuXPnGvsKuoMzCtgkXH755WZcnBY/XgMz0nACY+EYbDI7Yfny5Wbuf8L4z39EJQwf2AtILHTF0+OCwSxpjpFxWs6CSDTYHzAEhYLEbAoUCvISs1ywe+FYkyZNvLPTH6Q9eWb9+vVGuWY4kJVKifcXX3whf/zxh1MsHKcMp1g4ToBWDl75GBLBTqEGax9kEBBkWMEjFG644QZjvJaRDNZY4hhlgtkJfAPsFBIGy9IfOUJ/vheQWDBuPP/88+WHH34wwyAYn9LrklFAoZg5c6bcdNNNxpcFNkadOnUy7/Xzzz+b1XRxX51eQQFiBhdllp4jlCGGQlCumeHFXzcU4jhVuCW9E0xaLuntODOgSCbcPiSNl/S2pEncTyO2evw7vZPDkda4HosEQ6smI68S6Dj9ZGQh9ncTwLyPUyocjpThFIsEc+uttyat3OdwOBwOx5mGUywcDofDERYMPjEEDbVVwgaFcLZEGoUyZdzeN3TzL16WVmCfxbtio8Iw2GFsk9IQnsOqqNalfDiI07Zt28wiZ3PmzPFC0zdOsXA4zgRKlxZhaeYMNEvGcfpB0I8dO1buv//+EwQfS6A/99xzMmzYsIQKX1b+ZYE1DK/79esnH374oZmp1rt3b7M0OUIWIZwW8B68F+/JLBt8Jn3++efe0bQBxQJjZ4bb8MkCx1Sh2X/oqOw5cNTYWrMmDwa4LJo3depUc056xykWDseZgFZeMnKkSP36XoDDkTzYi1WvXt0IWQzTUTSgSpUqZlXeDh06pHhKNz0BkdZoYbosxu/cm9+sGsr6LjfeeKOZ9cKsNY6nBXYWGUu4s3IpjgH79u1rjhFnfCglGu5Ljw8zdtiOHAvIgvX7zN91Ow7K6MU7jNJhZ/RklCnDTrFwOM4EaA3hcTcDLbPtSB+gXHz66aemG57F5xBuCDu8OPunsLL+CkMWtMLtPmtq8JdhDHoC+E0PxBNPPGHWPLGKioVVZ23L3Q/KS+vWrc3033feeccIZO7FImzEB6+uKAX85r6hzhPpjbBDKpFgyfbJkycnxYkpukxb556TJk2Shx9+2DzTCnc7HEQY8HzekfcnnDgQz5SwfPN+2bb3iOTLmVWqlcgtk5Zr+h06cQXYjIBTLBwOh8MRFZb5Rxno1auXWVUVEPZ2xgw9EAxj0MtAK58hC8Lo5WDogiEGFtxD8NLrsHnzZvPXCmULvRORYE0d7vnss88agc19WcyPe9Ob8PLLLxtbBFYNfv7555NWfkUBYAVSnkkcbPxDoaeiT58+8tBDD5mFAVFGunbtahQNnmuHSNhHacCjLO/w0UcfmWexMTyEM0GexWJ3OK6zyg7hyQ0bZc+aWYYv3C6rtx2Qg0eOScHcWSVrlownpp1i4XD83aHVlMKWk8MRSrt27Ywfnvvuu++EngaELG7l27ZtaxblQtDjn4ThkooVK8rbb79thhXwHsv6PsyaY/E0egTogfATbbVWejJYAIyl+7E7wBU9QyUIbuLFUvLss+orygQ2CfDUU0+ZZ7IUAD0iL730kgkPhev+85//GMXkggsuMHYlrChLj03RokXNku74w2H/0UcfNYvx4T2WDQeCvBu9MShbvBvPYsE4lA96MFBWQntoQilfOIecVbWA/HfIavlu8ibp2aSYZMuS8aY7O8XC4chI0AqbMEG01sRc3AtUMOrSFpRMmsRAbDAMZWL5cpFx40TGjBGZNk206RQ8RstJK2H56y+RKVNYelIEi3NtdWozi37sYNjo0cFzli0LXuc4Y0GgImw3btxohiNs65ueA7ucOz0GCFR+I2BZyRSBOlrzUYkSJcz5iQSlBmEPDMtYxQTFg+ERVlTF8BNBT9zoeUEhQPHgWrsBwh/Pzt9//73079/fvC/LuocOn/Cu9MrgS4Z7ojyh8NCLgiJSuHBhcx5xYVgExYJzb7/99mT9zWzafdj0Utx1ThnJqtL5q/EbjRFnRsMpFg5HRkJbfkYhuOUWkd9+8wI9PvnkuOIAf/4pWquKNrdwpEJ/tciHHzIYzMpPSAqRe+8VGTGCWjlog/HKK0HFRStmsw0ZItKnT/C5jjMSWtnWVoBWOcMhP/74o2aTCSYcBQIhzMwFehFYCh0vt0DPBEMLDEUghBMNvRg828Lz/aBs0KOB4OcY/oQefPBBo3hwzG6AfyQUAfabN28uL774oumpCHWXT++L/54YmtIbY4eF/L0SDAmlhInLdkm5wjmNfUXPJsWlTKEcsnTzicNFGQGnWDgcGQkM22rXFrn+epH77gv2SIC2tKRnT5FGjYIKwdKlIo88InLbbQxO49Nc5NxzqT1Fhg0LKhKVK4ucdVaw94OWlLbq5OyzRRYuDBp5omgQ9vzzIuXKBZ/jOKNAcZg/f/4JthDYQdBzgSEnghNlg5Y4AtUOHdCbwbEpU6ZIly5dzFAF6zXYVj2Cnd9WYYlE6HG7b69FmPvPscLdgmLTU8vF7NmzzXNRGogXf+lRsBsw84WhFHu/3Llzm94Ieht4J5QJjqFAXXjhhcauw97TXsO96SUBejq4Nz0YpA22HdwjGjmyZZY9B4PKSE79XbFITsmXM+MZXDvFwuHIiFx1lUjnzqLNKpHdu4M9ECgCKAxUcvRmaKWotb53gYJTMDx04unUct11eLBiYYLgPgoFPSL0ahw6FLxn8eLBY44zDrr9WTth5MiRZtaDhV4J20pH0N59990yYsQI402VaZuEz5s3z1zLb4wgsb3AwBFB3bBhQyPIGa4IB0IZhQXHfJyD4GajRwFHfdyH+DAzBUHO0AvhCHCupWeC3gSGPOh5wJgSRSCaY0J6JxgWwVCT3hXOv/rqq819MBxlOIX3457YlHAeHmXZ7EwYQAnjGE7tLr74YjP0QhwZXvGfF46WlfPLpl2HZOvew7Jr/xEpli+bVCyavt31h8M5IXM4MhrYUaAwoATceKPITTeJ1mDBngc8otI1/MADwePvvutd5IETMq5hWIReCpSHFi2CvRIoKt9/L8KiQC+/HHwGCkfz5kHFxXHGYQU1PQy04PlroVeCYQEL53E+s0XYEOCcw3AFLXkELj0btPBRFmi9c4xWfygc43rEE61+ew73t/fhGOcQL5QXlAt7LucQV/Y5hjLAuTybawkLhXO4hr88n/v4bSJQNngv+zyUBO5Jb4Z9zmWXXSaPPfaYUUSIHz0m3Me+T+izUTgwBGU2ibVBOXw0IEePBSRL5kySVTd7+uOPP27WFLmR8pvOcT0WDkdGBcGPjcSzz4ps2OAFeoSprA20I+iOtbUVSsg55wSVFYw2GRqpW1fk66+DvRYMvfgqQseZBYKYHgkUAL9SAX6lAhC4nIvwBYQtsz4QpNyH3/wFftMTEE6pAKvIWMFs8d+H5/Ob45zPb8L4zXV+IW5tQKxSEA7O4b6cw/v6lQpgSIP72ut5T97BPgdFgmcTH+LC82zc7fuEPpt9jnGtHSZhFgjDIPy1p3OMc0OvT684xcLhyGigHACVzHnniXTpEjTmZMYIUOFjc2HtL/ysXi3SrBm1vhegdO8uMnmyyPz5x20x6NmYN4/J/d5JDocjGvTCXHfddcaokx6aWEA5YUgJxcHOTgmFXhoWGmOVU4Z+MgJOsXA4Mho7duBkIPibVtW//hXcZ7opoHB07Mj6yEEjTgsV1/TpIo895gV4MGMEgzNtfRkY+uAZ2F54U+ccDkd06KHAlgT7jkg9MaGgWLA+CEuIc3046EVBWWnfvr2ZDpsRcIqFw5GRYD2Jr74KTgO1hm9MJ+3VKzisYbtKmfHx1ltBWwmuQVH48cfgrBFmfvjBOLNpU5G2bYP7xYqJNo+CthcZpOvV4XCkH5zxpsORkaAXgeEMhjvq1RMpVCgYfuSICEsVYwDmby1xLtNH6Zql9wEnZN4Y+AmsXBn0gGrHzRkWQTkJd67D4XBEwSkWDofD4XA4EoYbCnE4HA6Hw5EwnGLhcDgcDocjYTjFwuFwOBwOR8JwioXD4XA4HI6E4RQLh8PhcDgcCcMpFg6Hw+FwOBKGUywcDofD4XAkDKdYOBwOh8PhSBhOsXA4HA6Hw5EwnGLhcDgcDocjYTjFwuFwOBwOR8JwioXD4XA4HI6E4RQLh8PhcDgcCcMpFg6Hw+FwOBKGUywcDofD4XAkDKdYOBwOh8PhSBhOsXA4HA6Hw5EwnGLhcDgcDocjYTjFwuFwOBwOR8JwioXD4XA4HI6E4RQLh8PhcDgcCcMpFg6Hw+FwOBKGUywcDofD4XAkjEwBxfudavbs2SNLly719qJTtmxZKVKkiMydO1d++uknefjhhyVXrlze0YzD9OnTZfLkyVKoUCFp166dFC9e3DsSOwcPHpQFCxZ4e8fJnj27VKxYMUOmS0ZjwIABsm7dOrntttu8kPTLwIEDZezYsVKgQAG5+OKLpVq1at6R6Bw+fFhGjx4tmzZtkiuvvNILzdhk9PrjVDB06FDZvn279OzZ0wtJHX/3tF6yZIn88ccfcsUVV0iJEiW8UEdcoFjEy86dOwPff/99QJUGlJRApUqVAvfdd1/ggQceCNx///2B22+/PdCxY8dAlixZAu+995655u677zbnDh8+3OxnFFSJClxzzTUm7nbTij7Qr18/74zY2b9/f6B///6B6tWrm/sULVo0cOeddwb+8Y9/BOrVqxcoU6ZM4NZbbw2o4POucCSaOnXqBHLkyBE4cOCAF5I+IR988skngRUrVph8oUqFdyQ6a9euDVx66aUmf6lS4YVmfDJq/XGq2LFjh6lvSaMffvjBC00df9e03rt3b+DFF18MaEPXvJ828rwjjnhJiGJhefDBB80HevTRR72QE/nvf/8bePPNN81vbT0ZoXrkyBGzn1FASXrllVcC2hIwAv+1114LZM2aNZA7d25T6aeG5557zqTbLbfc4oUE6dWrlwlHUdu3b58X6pg3b573K2UsX77cKHN+5syZE9DWvLeXPqFCz5Qpk1FqYf78+YFhw4aZ3+EIfc9t27aZfPR3Uiwyav2RVoQrE//+978D5513nmngxUO8aX3w4MHAkiVLvL30B425RCkW4eqYWEltvZYeSaiNRZ48eczfzJnD31Zb4lKlShXzu1ixYtK9e3dRrdrsZwS0ghZVIuSxxx6TggULSqlSpeSRRx6R+++/X1Twy+DBg70zU4YqJeYv9/ajSoxUr15dNLOKFmwv9Mzm+++/l3feecfbi50DBw6YLuGdO3d6IUHq1KkjZ511lreXPuHbU05s+apZs6a0b9/e/A4l3Hva/PV3IiPWH2kFXfk33nijt3ecZ555xuSFDh06eCGpI9601ganTJkyxdtLfzC0mAgi1TGxkNp6Lb1yyow3t2zZIvnz55du3bp5IaoiBgJGIIdjx44dZksE2ICAatyye/du89vPunXrzDh0cmzcuFH+9a9/eXvHueCCC8zf0Ay1d+9e71fqKVq0qPlL+kUiWvwJP3TokPmtmnTENCVtsPkAxmVD4fjatWvNNwsH1zKGHw2+dbRz7LfhGevXrze//WDXctNNN3l7J0PBXr16tRw7dswLCcL+rbfeKlOnTvVCToTrjh496u2dCN80uXyYXLyTg7TbsGGDt3cyfN9YSO49/fA8vmkkkvtWkUjuul27dnm/guUpWhySI1L9Ycsd3yXc/ZP7ppQZ8gTwbSKVPfKMfT5xCffeNEYod5FIrlz504s4h9YplNUePXqEFWZ//fWX+dulSxfz1w9xteU9FiKldXJ5/+OPP5YPPvjA2wtPtPrL1t0QWi+lJC/xvuHqtdQQLu1iKXuR4pBcvQaxyqh0g2aIhPHUU0+ZLiUVvl7IcZ588smkoYJZs2YFtNUfKF++fOC7774zYZaFCxcGtCCY4ZSrr746UKVKlcCNN95ouvU4d9KkSYHWrVsHcubMGejTp4+5ZvLkyeYcwhiLBi1ogc8//zyg2rq53y+//GJsGDhHC0BAM0JANURzPkMQHOO3Fh5zfUr47bffzHuPGDHCCwkEZs+eHciVK1dAM4wXEpk33njDXH/HHXd4IUG2bt1qhlg4phq/FxokufiPHTs2cNtttwUKFy4cGDVqVEA16UD27NlNlzppopncnMd9H3744UDJkiVN9/pFF11kzrHdp1qZmW9FdyFj9YUKFUqyk7HwrTj+9ddfBy6//PLAZZdd5h0JwjdlCOmuu+4KtGnTxnxTm1Z0kfJ8hnteeOEFM/xTvHhx887YmagANOfxPbk34dgXXHvttYEPP/zQHNNKJXDxxReb+7z99tvGboKxUwv5pHLlyuZa3oFref8hQ4aYfKMKb9JzLD/++GPgkksuCbz66qsmfWvUqHFCXo013tGYOXNmQFuCZiiMNK5du3bg6aefDqgiaI6T14mrtV3iN9vvv/9ujocS7j03b95s7EcIYyiEb1S1alUz/s57Dxo0yLs6SLRvFY1o16nwCbz88suB5s2bB84//3wz9MQ3Ik7kTzsU9emnnwby5s1ryujjjz8e0IrUhM+dOzfQokWLQMuWLU0dEq7+WLlypRmWJO0Zqvy///s/c5+GDRua45DcNx05cmTg+uuvN3lchbJ5F+JDPMl7lDkYP368ye+Umb59+wb+85//mHQnTRs3bhxQgRcYM2aMiXO+fPlMuQut55IrV1988UWga9eupvyrsmxs1Bhy5RmUewv1Ks/gW/K9/cMepEkopN2FF14YeP/99029Q/pEG1YLl9ax5v0ZM2aYNCD8rLPOMvGjLoJo9ZcqCIEBAwYYWzPyB8+jbFAvkcdjyUsWZIA2/EwcKeuNGjUKLF261DsaBHnF9ckNhURLu0hlD6LFIVq9lkgZdapJE8WCSh6DITYKHgWejG8VC8aIb775ZnOuv8BRAVLYuY+FD8l5fDgqYuBDEUYlaeEjEnbDDTeYfW1lmHFBwvhgfCD2EbAU6rfeestkDsuvv/5qzr333nu9kNjBtqRBgwZJFQ/wjlQWsYxvhioW2hIKDB482GTAzJkzG8ETSnLxX7RokVEgCOOdEaJUNBjVEkahBGwMOnXqZMKuuOKKwIQJE0ycMRQEKmIUN8tDDz1kzqWShj///DNQsWJF8xuwA0A5sVBwWrVqZf4CadSkSROjdFFhIjwwfOWeVBDffvutyQfa0jFhVGoWKizCQhWwbt26nWDMSNw5T1sPXkjAXEOYrfQQ3tOmTTNp7A8HCjbC3No0ABU959lKPSXxDgeKJ4KPOFgIQ5BpC9QLCUJ54p6xEPqeYBULhAN5hoqJtMdojQrbkty3ikRy15GfMSJFKCKMyc8oGxMnTjT1AsLHYse7aQj4wWDa5sNw9Qd1i61/aHj88ccfxp7rnnvuMcdj+abkCWuoSPlAsUNJQEEnbODAgUnn2TLbvn37wLhx40w4Qo0whOi7775rbAtI+6ZNmxqDW9LBkly5In1QUhCmfFPSj/KLQCXfYDdjqVmzptliAeWM+tOC3VskRRXCpXVK8j7X+K+1RKu/SDfqodKlSweyZctmlEQUNRqaKHWx5iUaTdzzm2++8UICgXLlypn6wk+sikVyaReu7MUSh0j1WiJl1KkmTRSLs88+22iybM8884zR0sggfuNGEppz/RkObZYwZphYbAb2VzQoLIT5FQuUBcKsYmHhubVq1fL2gtBapdIjs5KZ2NBGaREULFjwBAUhOehVIINTCYXir0iiYSspKh8qReJGwXn++efDGvTEGn8KJPel0PmhciKca4DWPfuhhZ+eGFqe9hlsX375pTmXljbQymJWBa0TCwqc5Z///GfgqquuOuEetvK2hrwoQexzrh/eEaXHEqkAIoxoLVtIF87zF+ZwhR5oAfjDyUekYTjFgHyUJ08eo7RCrPEOBwLJXwlabDxR2CyJUixoSfmhZwnBRUUOsXyrcMR6HYIChcNP586djaC0UEeQ9xG8FgQHRoh+wtUf9NIRFpo/UvJNP/roI3MP8r6F8kMYLWULij9hKBB+eA4KgZ9HHnnEnLvOm90VS7kCBClhvL+F3hbCELCWlCgWtHq5r62bqL9CW/mhhEvrWPM+14ReG2v9RcOIhpVNNz+x5CUU9fr1659QN6Ewhs6oilWxSC7twpW9WOIQrl5LpIw6HaSJjUWbNm3kySefNNu///1v+eyzz4whoh+tPLxfx9H4mL+qmZu/oB/A/NUK0PxNKTynQoUK3l4QDImwOxgxYoSokmI21QaNsdPDDz8cdiwxEhhvvvLKK9KsWTMv5DiRjFgjgf3JyJEjRQuMGb/VjCta8XlHjxNr/O3zVfCbv5bLL7/c/J0zZ475a78Fa2f40UJj0t0+g01boKIKY5JdiRZm8xxtsYoqQmZsGkMvC/dgjNp/D4xeuUeNGjXMOTaeod8YY8VY7FQYw+3Vq5dJM9al+Oqrr0x4tLFtS2g+ZLxTBZFoq8ILOc6FF15o4kP6Q2rjzVipVhhhn2FtkPi2iUaVbO9XEG3hmTKngsvsx/KtwhHrdaRXuLQiz/DtgLJK/iE/a4VrwrRxIddcc435bQlXf0TKx/F+U+II/m8a6dvnzZs36ZjFGs9u3rzZ/I2lXEGscUkJqrBJnz59TB3NOxcuXDhZ4+VwaR3p/WMps7HWXzyXNX3IS6Hw/HDP9uelunXrysyZM6VBgwayZs0aefvtt40hfCz1QjhSk3apjUOsaZReObEEpCH33nuvWRgrGggnbf1L7969kwwOqRSoEM4++2yznwjmzZtnMh+zOawC5N9s4U0OhBkW+tdff70XEj+qkZqKlHR46623jFIWSrzxtxVvcoZzPAeL6XDPUO3anFO5cmUZNGiQMTL9v//7P6ldu7apOC3cQzX2sPdAKUkUKBO33HKLySvMPkotFHqwQsCPVVCpIOKB61Eu0vIZsRBaMaf2WyX6G1NXkDdt3v/xxx/N4kWp5VR802jYdLYNp1jKVVrx7rvvGiPDCRMmSIsWLeTuu+9OMlQ9VfD+iah/YwGDUha/Y4Ev3rtSpUrekZST2rRLTRxOZRqlBadMsWDaJNp8NGhRjRo1ylQqHTt2NL0BCK0hQ4aY6Z2Jwk4vGj9+vPkbSrgKKJSff/7ZWPgSx0SDht63b1+jZNx5550ybtw470iQeONvC0O43hA/PIdV9/zW1xY0blomx44dM0ofBeGJJ54wFu5Mb1u2bJk5j3vEk86xQGGlJYAFOi2DeKjiTYcOt5KsbaWhTMYDq8/SErNp5CdRz0gNqf1Wif7G55xzjpkGzPecP3++VK1aNa4ps6fim6aEWMpVWkGd8tFHH5l6lrJCb999993nHT018P6Q1vUCPbLkI5Rb3jHeadepSbvUxuFUpVFakVDFAiEDVjOPRqRzKHB09dAF9Oqrr8p33313UjesrQz8BdAKy1ieTfcUPP300ydpnF9++WWyrRfWq6B76/HHH/dCgqBooASllHDp1rZtW/P+9NzQBUdXqSXe+M+aNcv0NCQnhHkO96cnwg/xZNiD70Dh4jugNL744ovy22+/malYLD8N3IPCgSLmh+73d1I4b9u2/Pw9LQjnTz75RFq3bp20Dgi9AeBPz3DXQmh+adSokeni/P3330+aUsZ6ASh9nBMPKNB8X74py8L74Rmkq7+lH0uetoR7z0jXh4an9lsl8htb7rnnHlmxYoXccMMNYZdbT0manIpvmhJiKVcpgW8emq8j8frrr5u/NAZoeaPEhX63UFKS1qGEy4+8P6S2/oqV1157zdTJuFywUDek9n2SS7tw7xpLHE5nGqUVCVUssAkAEjI57BiRP9HosrzqqqvM3G/WbufjIQTtfS1W0aCrlPm9tJLfeOMNU2FzPtdb+Fih41EtW7Y0H3rixIlmjJXFSagYH3vsMZk9e3bUSoaxcboruS8f3W4PPfSQyWiNGzc2561atcr00iBsk8O+H+PAfrjnZZddZuZo4xvCtnBSGv+FCxd6v4JzqcmYFBI75m4FcWg6YRdDTxG9AbwzShNz4y+99FJp2rSp8RtARc24o4XxR1rj9hsRJwrRtddea9KC3hfiy/vYISRb2dvhLwvx8c9jRzigPPCOXDNp0qQk5RKhgaDmGO8H7FuFzPpyQZBzLUNsEJoP8+XLZ9KGPMxQl4W0//bbb01a2FZHrPEOB/fB9uXll19OqmT4++GHH5peKpuPwN4rlpZsuPe07xb6fUPfPZZvFY5YryM+oWll3yk0vRjOotVGHqXFF0po3CFSPo73m4aLoz1un2khPPT59hwb11jKFcQaF745dSBd7gicaEKHsmrvSzlFIY9mPwPh0jpc3IBzQ+MGVoGmnoq1/iLduL+1mfATS16ydgyUqZ07d8o333wjixcvNvUtdS11Idj3Cv2WoSSXduHKXixxCFevNW/ePNUyKl2gFULcMP2HGQjMp+aWTJlTYWvmtofjhx9+MJbTnMsMBTtlRxM7gKUv4aEblsaaccx5YJcPV+3eTHVTpcRYy2JJrILFzH22U9e0cjJz2/3zl1n7gHuqtmjOyZMnT+DZZ5+Nam3L1Eyt7JLiFLoxB9nCLBHu7bduD0Uzlpn5Ydeqx6JZM84JM0GwCMdyneNM7bLW1bHEnxk5HGM2ANuTTz5pZuyolu2dEQj07t3bWKhznraik6a7WbSQJPkyYWPKov8cZrQwf5v0ZeYOVtPkBT98D76NvQffCwtn4LtZ63emA3711Vdm2iLpQFiWLFmMJbzlVm8WB+f28/yz2HngfGemJWJlXaxYMZM2rH8CTJtjOhr5hemcWJozr9ymPXPm/VM/uXeFChXMWgbMbGBmBlMYLSmNdziwFGcqolYcZnbBddddZ9LRfkMVEGaNBGbdcE/WWGB+fzRC3xPrfRVe5nrK5wcffGDuz9RApkMTzkwqa8ke7VtFI9p1WtGbGWKEEy9mV6gAMutWkG8JZ70XLOH9MDXaP7PHEq7+YA0KrO0JK1eunHk/VRy8K4Ik902ZNmrrH6aMjh492qQf06cJI+9TdjiPdSUI0wreTOVmVokqVSaMfKeKjAmjTDADgHCeZ2cHJFeumMKpAsccY1bdsmXLzLogzP4gjHKsgsucy+w4nsn3DbeGkB9mU7A+xk8//WTWY9DGUNTZEOHSOiV5X4W/qbcIZ90H1iSBaPUXdR7XMyuCY5R50hxSkpe4xtbXpC+zcZgiyj51HvUs+YQ0IYzp9vY54Ugu7ULLHu+RXByQUxCuXkuNjEovJMS7aaKgZY7VK0MMWJmj4aGFotnRIqX7mNachfPR8PSDmX1aIFi6pwSuQdPHoAYtNJHQm4K3vHBW1YkiWvw1E5r01MpMypQpYzT5UIv5WOFdaCFg7KYZ3QsNtlh4Lt+JXhotGKaFGArZjDFuvo/V7FODvQ/f3P++DIlgQGq/Py0n8o/fopx8RDxJi1ihJcj3w5g2rSCetGD4hv60TS2peU8/qf1WifrGFnoYuFeiy8+p+KaxEqlcpRTeieFIOzYfCZ5FLxC9GvxmSDQReS4aPIeeQ2vr4ict61+gzkNO+J9NPUW9YHtsYyWWtAtX9mKJQ6R6DdI6jdKCdKVYYGmLxau2ELyQ42jLwXSxMubqiA2/YhGvUaPD4XA4HLGQUBuLeECjY2yJMU+0Pj+MVWEkiL2BI3aOeUah4cYoHQ6Hw+FIC9KNYsGQwXPPPWc8OdKNilEMlrEYQGLchJFbnnQ+dzc9gVEQhqbATI1YDGodDofD4YiXdDUUAow3T5s2zYxToVwwjpWWNgp/V1iB0lowQ+bMmY0XRIfD4XA40pJ0p1g4HA6Hw+HIuKSboRCHw+FwOBwZH6dYOBwOh8PhSBhOsYgCTsCGDh3q7cUG623873//8/ZOP8y5fv/998086LQAmximtLI0cjwwD5/V6VjOnWXcM/pMlvSWD/ywMu3XX39tbJkyGqys+9///tfbc6Q1+ADCqB6bN0diOCPyMDYWjpNhFdBMmTIFWrZs6YXEBr73s2bNalaIO9307t07ULx4cbNqG6uGpgWsQsf9k1vxLxozZ840qyZu3LgxoJWYuR8r6WVk0lM+8MNKk3bFR7uKa0bgyJEjJo9lyZIlULRoUS/Ukdaw+il55c8///RCHKnlTMrDTrGIwl9//WWW9E0JLFnL8sKng0OHDgUWL17s7QWxFUNaKRYHDx40yoW2gr2QlHPeeeeZJdotCLx47neqWbFixQnLzcPpzAfJ8dFHH51WxcK/ZH00wuVnFDanWKSMWNM7XD7evHmzWcb88OHDXkjGINZ3TmvO1DzshkKioAJPqlWr5u3FRu3atc3S46cDhhFwWuMnXlfBycESs0xjLVSokBeSMliudtiwYScsRXzFFVek+n6nGqb0snBb6DohpzMfJEda54losPR6NIdmfk5Hfv67oUp/TN3ukfIxy+TjTM56Ds4IxPrOp4IzNQ+niWLB+Dhrw0fzFqdKjRlXjzaWjtCx8Nt6irNwjw0bNnh7J8Ma7cAKlKzsGQl7HnHxPxPCjS1yP55rV7YMhUIa7r1wIw3EOzmbB2wXUrKo1aeffhqTi2rilpwvf+u/ICWESyd/WvI+Np39kI6kRzRiySvRvqF/n3cP/W6kCb46IsFx8nPo84kXLr2t58ZQIuUDIH2TywMpyS+h8Fzsa0LLTDiIi98jcDhi+QbJQX5GSMWSr2PNz6zSGy5f+UlNfgaui9e2gPSy3jND39sf73Dpz7eLVm8llz9Yyj8WFwjJ5WOOWw+nfuItV5DabxOpDo7lnUnr0DrCgswi3sB3S0kdHEp6yMOnDc00CQO7BDwH3n///cYDHZ7a+O3vRuMcvCmqJme8AWLDgOdNTThzXD+m8Tx47rnnBrTVZ7qROnfubDz9qaYXeOutt0z30kMPPRSoWrWq8SSH9z3bdb506VLjWZVjeBhkzN56XcQLp/Vep4Iu8MUXXxgvhWx47cMeQVvgxmMdXhXxZIdnUT94nsNjKd4cH330UeOhTjOF8TiHl0M86+HNDs+UgPe6Rx55xDwbb6PYDpQsWdLEh3urwDLnWXhfnss1eNysVKmSSS+8dPbu3ds760TwmNiiRQtzz9atWxsvq8OHDzfHGNMjnG554m09WvLOpLWF+L/33nuBW265xXjaIy3wqsi7RYJvhqe+Zs2amesspCseO0lLzunSpYvxPMq38nv8JG6cR3zwgEi88fBpSS6vRPuG48ePN/mgXr16xrvn4MGDTT4hD3HOmDFjjE0HHifLlClj4oD3UD94SMRLIXkN76N0Yfo9t/bp08d8V67lPOKvFXzYfGBhSIpnki95f96bv/ZbpDS/hMI4Ltfj8ZUhD7z98jytSL0zgt4wuR9eKfnGeCPGngiPpHjR9JPcN1Blw6QbnnnJN0AavPTSS+a+pK0F77p44CSctLr33nu9IycSLT/zfLqROQdvm3xP4s639pOa/AzUVXjs5Z3wnIn3UvIveYVjvBfvWqNGDXM+z8FjLPUN4dZ755QpU0yalSpVyuQHyh7xVAFu8illO3/+/Ca9yaO8Kx5NgTqAPEtdihfTihUrmntArPmDsoG3TsKpo0hD4hmOcPkYb7d4pyVv4hGWPAOrVq2Ku1yl9ttYItXByb2zLZd4vcbOCA+2yAsYO3Zs4PbbbzdyhrxG+cGrMN8ML6bk6ZRwOvNweiBhigXCHgGDm2CLdW/74Ycfmn3VwI0LYQquBdeyuCqmAKIckJiqJZp9KiDuQaVIOEKIwkuhxEUtkFl4hhVYFIjHH3/chOGmlwJB5Y4AIqNQsTFuiEvj/v37J2VCFBZc2vbs2dMUbDIabnupMCxkXJ7vHzPjfCpf3h+329btshUoVEa4HiYMIYLCghBBSSDsnnvuMecB4bhFxv2whYLOecTf79Y7FMbLOc9WABarWKCczZ4924SRgQn7/PPPzT6oZm1cdlsw1uIcKyzCQSVjx+v9igUZ36YDhZXKjvSgIGPQ6C+kCFrOI55+Yskr0b4h+QDX1BzjGyJE+RbaOjAVHmF33323+XaA0OPciRMnmn3AXTYVrsUKZPKGxbokt987Uj4A3pX8Q7ws5GMUENwjQ0rySzhQ9DiPbwOkPZUWSoHFvgdu8qmciZfNJwgxq+TE8g2AZ3AtCogfzgsdSyZ/+8tUJCLlZyplyiXCAQGmrUtjo8M7WiEBqcnPQEPIb++DoOS6q666ygsJmLxGOvn55z//ac6ztkwoGBdccIEJu+yyywITJkww56Cg8ps8iKKNokpjB8FDvqKu4x3JpxYUPpRllJCU5A/KAGH+shmJ0HwM5E3Si3D7HXh+vOUqtd8GotXBEOmdp06dGujevbuRI0DdgXxBGUMZx5aOMsi11LkoTJQhlEPC+AYp5XTl4fRAwhQLFICmTZt6e0GoeNCwsPoHa/Hvbz2BFQ7+QoGWR4Xrp1evXuY8NGw/tIbRMC2jRo0y5/krU7AClZaIhQKL9moznB8ynb8StEIQLdIyevTopEwNZBbO8RdQMi1hVFp+6D1o06aNt3c83v73+/XXX08KC0dyisX06dO9kGCvjj8+tMzRmunVoLeGjXclbQin4EWCgsG9Qgvy1VdfbcJREi1vv/22CbOtL7BpGqpYpCSvRPqGCHnOpULxc+WVV5pw2+oGK0D8LRxajP73ohXKObQSLeEqZAiXD+iFQ9iG8sADD5hzERgQa34JBwKGVpDfCI8KFGXcYhWLjz/+2AsJYtMFZRFi/QYIFfZDFQvbMvOTCMWCdPB/a74H52JkCKnNz5Rl6hK/UAcUfVrJFhosoYqFLWdWsQDqn3DvAPQkIUhCe6AQZCgiNt5s1gDb1lux5o94FQvo27fvSe8QT7mKp64BW19EqoMjvTOyiR5sf7qSlziX3k2w+d3fcAB6jfznxcrpyMPphYTZWKg2JfXr1/f2gmjiyWeffZYUjpFewYIFJV++fGbf0qVLF+MPZMSIEV5I0LeFFjxvL4hWkOYvx/xoQp9gN2CP58iRw/y1YBQI2nI3f4Fz8YEf+iwI9VFSo0YN0VaCaIUq11xzjRn30la4FC5c2Dvj5GvAxif0GThVCzeGu3LlSu+XpNh4NBLW7z/kz5/f/FXt3/xVgWnGE1WxERVuZlPhIdqakieeeCLq+F+494Vw72ydyMUybp3SvBLuG0ZK93D5yMbNn49Y/0OFr2gFIH/88Yd8/vnnJjwWu4XQdNFWnWgFKOXKlfNCjtOtWzfz175TSvOLH1UgjLEYZWLGjBny2muvmbHZcHEOTVtrVKmtO/M3Jd/gVMKz/WmTqPw8aNAg8338hsSgrcZUeVa2eUCVEPPXD8fYypYt64UEIc6M69t4sxUvXly04WbqHognf6QU+w5+4ilXsXwb8it1oH/TBoy5PpY6OBTShDytCtkJ6XrhhReadKWsgI13LHIjXtIqD6cXjueAOGHRj+Qq3OXLlxujGSpZPwi9UqVKGeOw1MAHUiXJ24uMLeCq7Zm/KQXL6MGDB4tqsNKnTx+TyVVz9o7GT6tWrUw6fPXVV0kGRLiMx/Pr+eefb/YTQWiFwCI4CE9tGcmTTz550hZa0Z4K0iqvRMKmSWg++uabb+Smm26SkiVLyo033uiFphziy7toy8oLOU6FChXM30S9E0Z41157rZmBoS1gM3MnFqpWrWr+WkO9U/0NUkui8nMsdVhaQ9zr1asXNt5WAc1IhJarWL4NdR51tX+78sorzfWpqYO1tW+ejyIR7pmhDeJQ4pUbsZAR6uSUkDDFgpYNK/mFE/DWkrxy5comsVasWGH2/aAt1qxZ09tLG9AAoVatWuZvSuHdqFBHjhwpX3zxhWnJ3XvvvaZXJhFQaNBQSYsOHTrII488YrTUv/76S4oVK+adlXhsJh07dqz5G8qmTZu8X6eO051XAEv5N954w/RaNG7c2AtNHWXKlDECHmEfim0pJeKdevfubaZJv/jii3LJJZck3TsWbOvUVrTp4RukhtTmZ+owZlfQCg4lntkwKYG4R4r3li1bwtavGYlYvk3Dhg3NSr7+DQUfUlMHx1u/xSs3UkN6rJNTQsIUiyZNmsjChQtNxeaHLjC6lMG2un/88Ufz10ILicKMRpmW0CJBM+zevbsXEp3QQoziNGTIEHMPuo3pXqM34eeff/bOOPmalIKm+sADDxgF49VXX5W+fftK3bp1vaORsRpvqFYdLj6hYfb+dLOFtti+++47Wbx4sbd3MvG+r70+9D6nO6+gAKBQ0Itkh5Fsy90f11jTnXu0a9fOtPInTJjghQah4oSuXbuav/Hw1FNPme512wsCxC2W70TLjm5gpoRCrN/AKiSh3bNUyKHPJb1iafmdjvxMHQakoR+UCrrM7XNQqkgD/3Ot8AkXv5RA3CdNmiTff/+9FxKE7vzXX389KV1iIVIahiMl6R0PsXwb8mCVKlVO2EqXLm3OSa4ODvce9DgwTEN5ZjjEDzKrX79+3l54kBs8v0WLFl5IbKQkTUPD4qmT0wMJUyz+/e9/mwJ38803m+7XAQMGmIJw9dVXy3XXXWfOeeihh0zXFT4U/F3Cn3zyibEl+Oc//+mFBOfW80H8CU4YhCY0Fb4t2H7INBZaXsSH+DVq1MgLDX502/UbCuGhz7Lj7IDmzPuwWey9/NfZYQ0bfwuVhb8ypuuZ8bxt27aZMf3x48ebTO0f948E47DA2BzYRVlsuvjf0f628WrZsqURelzL+DnKDMKPLjfsAtq0aWPOC0e494Vw72zHf/3vbH+Hjg2nJK9E+ob22aFd+eHykT3Hppc9xndgjHfOnDnm2bB69WqzgU13hh+4B924EC5d3n77bcmZM6e89NJLJ+TrXr16meEWm86x5pdw8DwUBOwfEP7kefL+mjVrTDr6r/fHjTRkUSH8vtghkVi/AZU2Fe/AgQNNHiKedE9jK0BeJu0spBe9AihY/F21apV35ESi5Wd/vCFR+fmWW24xShllnN4exrU//fRTc48LLrggSVCQJrQYEVR8I/zCWGVxzJgxJr3B5qlweZNjKCyh3/ixxx4zfxGazz//vGmxsuATwyDWBibW/IHdAb2g2AaQbgjhSD0vKcnH9rn2/Sw23H+uPceWq3jqGku0OjjcO/PdyKvkx86dO5v8TH6i3DHUQNnz45cb5HvyALZKuXLlMmHkC2wibr/9drMfidORh9MNWsElDKbD2LnLbEyhYYqUH6b5MIOD+eFMY8OaGot1O3sAC/T333/fWL9yD+ZqY+mrFaWZ8kMYlvWDBg0y4ZrQJoyppEzl0sKVZIncvn17M82S2SDaujLW3VqwzHO0lZhkua8Z0cxPx9oamDVhLYTZ+M3UI/3Ixsqd6VSqOJm1JfSjmzizMa2W41zD9DSmZamykDRDQitfM72Pc7Got/dnmqRW7MayGetlG+7fmEvNVKtIaKE20884l/UWVCEx1vvly5c3Ybw/M0OwLrbxKVKkiLH6BmZ3MD1OC6E5xnQo0pZ4RYJpcv57MZtAC4yZj898cMJZl4L0JG9YHxVMc2QON2nI+hOEaSE0luOklyW5vJLcN7SzLfLly2em1vIuvXv3DmgLx4Rfc801Jp2YtcS8eMKYSqgVh7mHtXLn3nxP0ohvSBjW+8CUPNYjIN208jdW9eHygYVnMS2bfMl0MmZNkb9svkxJfgkH1vJZsmQx5zGPHkty0pB9ygPTRUlX1qJgKi1T1yhjzESw6yj4Se4bWEgz8gzPoQ5QJcNMA2S9A+7POwAW8qSVKiNJaRiO0PzMFF6m0vItCONapi2zNgD1AWH81crbXJ+a/AxMY2RWDdewMYNl6NCh3tEglKFy5cqZ41joM9WduofvRd1AHiSfkZc4R4VAUjkj/TnfphXrKqigMMcsXFvQW3uHjfyiAtIcS2n+YN0MwvgmTE2NRGg+pq7hm9r6iLRlKYFElKvUfhuIVgdbwr0z+Yn1aLJly2aO8WzWvFAF0RwHZjZyjLJBvJ966ilTVzG7ww/fmuu1IW1kUCROVx5ODyRUsbCQ+f0fLByqmZkCyt9EYxULKkIUDZ6TiI+h2rcRAGQYKg9tEXpHEgMZiXUfWLOfimTYsGFmXQYqYwS0as3emeEhLakYtcXkhaQcKpS0+i6pJS3zSnKgGPsVOm1ZmEWh/DA9MXTaYHJwDYpRPN8qEuQjfxx5Bu8R7lkrV66MafGfWL4BQlNbe0llLZIijPIVqpiEg2edrvy8efPmE5TcUKgDuC/5ARBsifyW3Iv8EU1wxQL3IQ1jef/U5ON4SM23iaUOjvbOhKFE+RURi1UsUF5QqEMbxX5YSoFGUbj7+OF5f8c6OTky8Y8m5t8Kug+ZgoThnb/LPL3DGB5doXTDhkKX8a+//mqmWTkcDocjsWDwjH0Nww9NPHubSAwfPtxM537wwQe9EIefhNlYpCdUOzR/I40npke0lWmMtjDMYSzQz8yZM81YOWsUOBwOhyPxxCo3sK/ZsWOHUyqi8LdTLDBgYrEuQKvEgM1mmPQMls0Ya2H0ym+MkZjPjpEcYS+//HLSFCSHw+FwJA6UBYwi4bfffovqfAyjzB49enh7jnD87YZCsLzFAt7POeecI0WKFPH20je7du0ylsxYd6NcMNUq3Op3DofD4UgMNN4OejMyIFOmTGGHpB2x8be0sXA4HA6Hw3F6+FvaWDgcDofD4Tg9OMXC4XA4HA5HwjiligXWtqwe9u6773ohQTCcwfEW03zSG0xZHTdunLeXfsG2hOlSzz33XNKqeeFgLJGV5FIKK8P98ssvZiVKR/Kw4iBLD7NqYnLgD+bLL7/09jIW5DW7ZH9awBL3LKdtV25MCaygiGfSIyFLKqcVTAl/5513zIyBMwUM45ne/9FHH3khp56MKFdSA/Z3dgXOdA82FqcCFnthdThWEWM1OwsrttWsWdMsTBLqt/50w+IrxKtr165eSPqElR5ZDY+VO1m5jRXaWEgmHKwAx3EWmIkVrdwD5557rkkLVl50RIfFqbp3727S65ZbbvFCI8OKpKx6yMI/GQUWwWIl29DynGjuu+8+k46hq1MmB4vjsTIk16pS4oWmHayAaVdbZQGwMwEWObMr37Zs2dILPbVkRLmSGkaOHGlWv+V9PvnkEy80/XLKFAtLpUqVTqqIKJTpIQOwIlsoLB3OSpjpFQo3igIZD1CGWHo3EizxzMqkKYUlevlGaaVYsBR4ek7nlGKV0lgUC5Y+Hj9+vLeXfgn3jVCK0lKxYAVflqZPjdJll5NOK8UitL6wS0knSrEIVx+lR1i+/3QpFpaMJldSA/U675MRFItTbmMRbi2G9LA+w4IFC0S1b2/vOB07djzBU2R6QxUf49DGpiFOeS666CLzOxx16tRJlQOb3Llze7/SBlwf+51VZXRSkl64KcfpUHon3DdK63xRrFgx4404Je7fLWkZN9x4hw4pJvJ5keqj9Eha54FYyGhyJTXkyZPH+5X+SRPFYsOGDWY8KFEwvsp4WXLs3r3bPDsSCGC8UqpC5YUEwYMdc5YjeY5k0a1I4KHxUIiXQT/+dMDTY2rGiqM9I9r7RgJ7iUiLhiX3Phauj+Z1lfeMxSsr4G3Qeg6NRKzx8kN+sJD2oWPt3G/Lli3e3slEyi9+OMa6KbF8V94hUrrzrNDnMK/evjPHoy3ag00Hi8FFgnFo8kq0d4lGLN8ISM9oaZFcPMNBmlnvj6GQJv7vHA3yAM8PR0rShzH72267zduLDPVGtG+W2vooEqmt/yyJqKsgubqa9+IdUwrvdjrkCufs3LnT2zuZeL4jdWSkvG1hVeaU1n2nm4QqFlQ8F154ofFpQcFr27atSZTUgmEYK5zhzpmVJ2vWrClvvfXWSR+QNduvvvpqs+z1008/LZUrVz7ByJAMSSse48bvv/9eatWqZVweWzDQxPBq2bJlZtlsfOBTKWD4g7vk8847zzszCJUTz+EdOQdXvB06dJAlS5Z4Z4h89tlnxt1t1apVzX1xgUvrq1ChQsbtbnIk9wwyK3Ht3bu32X/88cfNfiQjKipOVpS75pprzMpx/govlvfx8+yzz5p7sLE6KK7d/eBuG58ngwcPlosvvljuuusu78jJ8I2/+OIL85vvwDvwPSGl8QIKOfmF9O7UqZOJGwukkSdIf9IA4zrc07P4GGE33nijd3WQ5PILEDeO33rrrfL1119LgwYN5LrrrgtbSXz44Yfm+WXKlDHbtGnTTDgCkzTCHTZpaa9lxVjuxQqsCDHixwJvuIQO9X3Dd3zkkUfkgQceMG6cuYZl4f3QuqZ8YEyKr5mmTZt6R2Ij2jeyYOBMGuB2nJaiPd8SSzxD4d1ZNrlcuXLGJbsfjNguv/xyU+fQIqxbt65Jy3CQX/DDU7RoUSlYsKDJm34FLyXpg4B59dVXzbfCXTpp8e2333pHg+ASnrxXunRp883Iv35SUx9FI976L966ykK9zz34tuRnvpEfDHH59qQ/6UNPXWg+Csfpkis//vijXHXVVeb5nE9Pr7/uiec7YkR/8803m7DatWubXrnQRg5G3dSflCXKzek0kE0xmpgJAVev3M6O7+OJTSsYY9zjp2HDhieNhTGGyrX+sTD9+MZ2wD8+NWrUKOMSGkNFC258uR8eHUErjECNGjWMO2Mt/CYMF9UYvlhwW4zLW8bBLdwDF8EWvNthMIaLW3844GIa18AWFTLmGRjgaUYyYapZB7SyM+7fMS5irBhvfMRNC16y3u5ieQZo5jVpp5WwFxIevgdpag2AeD9LLM/SAmWuww3w22+/bWw1/vOf/5h0xGU6nhFBC4wxmrLgJRI3z9Hgu3NvrvUTaxr4YSwez4PEibFf3BSTD3j/xo0bG1fKWjkled/Vivik9Islv5CvcQdu6dOnj7mPDSM92Gfs9/333zfj/ORl3PtzfyBOuFImn3CuKosmXFsnxp05YbiEnj17tjHMxQ05YRjTWnBxjf2L5dprrzXnTJo0yexzHc/UStDsA14ZU0qkb0R5ppyrAmDS3eZ73H7zfpbk4hkO0gsbFc6zLreB9MQNtyqRXkggoJW7OY+6xGKfwbfCUzC2RdYl+vPPP2/OSU36YEPBPULdvlMvEY7bbcoLZfyGG24wYdYVNsSSv0Lro0gkov6Lt65SZdKcp40b45X5p59+SjJkpc4GVSwDrVu3Nt6mgTxO2eA6vOJG4nTJlX79+gW0EZNkBL969WqTZtpIMfuQ2u+IPdWVV17p7QVMWmN86p8koIqKyeN8G4vNX6roeCHpl4QpFnwwZhzg3tXCx27fvr23FyTWDKBa8wkf0ULi8/FsxuD+/goeMLjEmtwWCConKj6LfZ41eIRIBVlbSyeEjxgxwlzLXz+TJ0824X4hao3H/BAPwtZHcVWdkmfEqlhYrMCyikWsz7KKxd133232LdqCNuGvvPKK2X/zzTcDefLkOUH4RTMmhXBCKyVpEA6UCAqmHyo+rvULuLFjx5owbQ14IcnnF+LEO9qKG6go77jjjqTZC1axuP76682+5eyzzzbKjR9tzZhzrWIB77zzjgkbPny4F3LceEtbyGafeGkryZQ5u6Hscc79999vzqFcso8hmyW57xGOaIpFhQoVvL0gVlnDXTTEEs9IfPPNN+Y8q1iQrgiW0DKP4oYyiZCzhp5WsUC5tfA7Z86cRjnlm6UmfZJTLPzu1ocOHWrCtCXrhcRXH4WSqPovtXUVkOY0OPz89ttv5toLLrjA7JM2lAV/HrjiiivMOT///LM5JxynQ66gBBUqVOikuoc8yww8S2q/I3FFOfanBUoW16LokpcpUy+//LJ3RZCBAweaczKCYpGwoRBNLOOFU7Vc0YJlupnorqJrOqWolmi6VulWDYUuMS0woq0PM0am2qbQpeYHg0ttVZv13oHuKeLDGDvrCtDFBbHELdRPB93UEBo3zTymC1AzlRciYQ3OrAFONLuNlDwjpcTzPpAvXz7vVxC6+EArAPOXLlXSWVuGogXR/Ka7MKXEmwakvf3+Fpv2/u9iDc/89iDJ5Re63BlG0ZaP2Yds2bIZOwTc9fsh3I8KtJPGa8P5grFx9L9DaN5h/QAtw6a72m7EkXUfrDEoxrrVq1c3wyl0QzPum5rvEY1w7wj2PWOJZyRC04Z8xn1D80WOHDnk/PPPN/YudD378edZhkMY3mSsXlv7aZI+/vQITQuIpz7yk8j6L7V1lSW0XqAeYPjO1gvkAWwV/HmAYVTyAOU5EqdDrmjjxQzdhaYrQ7z+Ya3UfEeGsHmfuXPnnpAWDIvY9Vrwcr1y5UqTN/2ElrP0TMIUC8CAhTFnKl5t2UbNMNGgciATUMhDYbwVGMdU7dLYDvAxkoNxRMb6GQe79NJLvdCUQ+aGSHFj3I04xcOpeIYl3mchYIExZ6CSZnyXikZbdNKoUSNTkFLKqUoDW/ki+PxEyy/MjIglz4UjVNmJB/I/lfeTTz550nbllVeac6iMsB1AIWOMlgq6X79+5lhaEfqOscQzVpLLF0DdEA1/nk3r9In0vRNRH52O+i9WUFQqVqyYVC8Q18aNG4fNA61atTLnROJUyxU78ykt0pVF26hrsNkIlxbY5ZBWkD17dvM3I5IwxQLNFA0Uozg0f1oQqQWNkgIf2vIAq1ljcIORGOANNBxW8GAchwFMr169TAaIBwyjIFLccHMergWaEk7FMyzxPsse49sDWv+5555rCscDDzxg/mIMFtpKT45TmQahJJdfyHcIOCznQ0mUwhcLtIYxfrOVtx8MVGlJUYmVL1/etNRYIZPvgzC3PUKngljiGSvJ5QugbogG+YaNb3s60idR9dHpqP9SAmls6wXywPjx483vUPy9haGkN7niL9+pSVfbgxUtLWzPxIoVK8zfjEjCFAsskule9HcFox2GtgRjgYQ9++yzjXZHl5Efui/posMyGI0Yq2taGmi1frBIXrBggSxatMjMnCBeNvMQL/DHjZZFuAouNP4ITaDryw8VEsKGLsB4SckzbPxSk84Q7/uQvqQr06rgvffeM5o+hfPNN980S1WjVIwYMcIcD4dt1fnT/1SkczhiyS+0vAhj+XQ/dBljCQ6Rvke48NR+O2ZC8Mznn3/eCwlCOmLtTsVOtyrd5fymZcXS7zlz5jQW9ikh3DeCWN4nlnjGCj1gzOz45ZdfTlLiqBs4nlyLlm9M1zdDWalJn3jSIt76yE8i679Ew7dBgF922WVmnzxAHRA6u4eex88//9zbO5nTIVco30B+DZ3myRLxBw8eTPV35JvxHOpJZoz4QZlluW7SCkJ7zux9qQPTO8EUSQCMK/HijDsxPsXiMevWrTMZh1YJGyB07Aew2C4nfzjTf+gK4kNa+EB0PT3zzDNmISg+6FNPPWXmbzOdjLXiqRBYyIfud8ao7HgXFRHxQQu108PoGrMFkulVCCy6yRYvXpw0HZPr/V1iZExaNDyH6VOWn3/+2WRc/5QiMiD4M5Ydr4w2tzklz7D3iWUcNBwpeRaEjh8yxnjfffdJkyZNzD7H/dPM6K2gcNnu53CQ9sD0QqCyT2m8QqFCCM1ntpLwv4M9x37jWPIL3bLkP8axr732WhMnWruMzTM9Dey3D22ls088/JWPfaY/n9nr/e8QmncY76UFRBm5//77ZdiwYabiJh5sVgD6K256euhu5S/wbgxbMQUwGuG+ERDPcO8I9n1ijWcs2PtQr9BatNCFzWJxfIdQ/N8bocJ4P9/OEi19wsGwDnUPdQzfB2UEwn3z0LSIJX9BpPrITyLrv9TWVRZ/GgMNCoQo03eBqcYIRMr0a6+9ZlrsX3/9tSk/N910kzknHNz3VMsV7DrIl+Rx6i+muvfp08dM/cTugl6T1H5H0pKeXOxNsPXhfcg/KFAoiN26dZNmzZqZhhXl5NVXXzXxY2NaNKCA2PunW/SjJQSm7GgFRW1prPGZ3oUvAfbxX8H0RKZ4aSViNixe9QMYK3M7BYxlYf1W58x0aNCggZlmh5U8VsShFrGaWQPPPvtsAEtv7sHUMS1sSZbhHO/Ro4c5xnQqphoyVZHpWCqgkmYDaMYy52AN/NJLLxmLdhVeJkxbM2b2hZ2iiDX5o48+apYzfuGFF4xVNnHUDGaOA9bs2mo31zM1imPfffddQDOuCSNO0ZawTu4ZmrEDmikDWnjN/bCSZsqjZkBzPBLMXOB8/3TTWN6HdMTSvHz58mYKqLbWzV++ix8tsMYSGgtqFbjG2pzpqdHQCsA8m3hpBZmULrHEK5SdO3eaODFNmPup4mOmQWqFa6bPEYYfD60ITJ7kfoTxDM6JNb/Mnz/fWHdzHhvTzqZPn26Oka+xGCecKa98J63cTDrYfKoVrXmP//3vfybPEcaMHeI0btw4k+8JO//88005YDaMLSdYydvZJ0xdq1y5sgln4z2YiWDRFlCgePHixnqdsoV1PrMliA+QPlxHvFQImrBwhH4jbbGZMqHCzYTxbbTiNzMqKP+EXXjhhWY6JCQXz0hQZjj/B990U8DSH8t53od4qCA4aVl03p00o/6hLiIvUYdoRe+dkXz6ROL666838SIOWOv/+OOPZrYPYTwDS3/yWKdOnUxYzZo1TR2Z2vooEomo/+Ktq4grZZ53JR8wc+yuu+5Kmlpqoe62MoKN6ZzLli3zjobndMkV6hGO2/xdokSJgDaYvKOplyugSpyZ1mvrKP6S7v7yx/RhZtTwTrw/s9xUcTT3uf322019kJ5JmGIBzLm1FYmFQmwzeWpRbS9ZPxIIIQozAjccTJf0z5dWTfeEaWhAxvDPG04O3osKNrQAJZJEP4NMSWYlc4cS67O0tRDxe9j7ko5MOVUN3ewnB98tNO9YTkU6hxJLfgGm4lGRnW7Iu2yhICBJP76LttaTlGM/KF4oppwXjWjfKFYixTMS2go0le+QIUO8kBNZuXJl2O/ix9YN4RSnWNInHFxD4yM5BSQSia6PElH/xQv3Jw2jNW5sWfY3bJLjdMoVns13jvSseL4j34oGSrR6DWXdKl/UpeHq7fRIJv7Rgus4Q1DN2qz6pq0SL8RxpsOwBN23DPGkN+iCvuaaa8wQRvXq1b1Qh8ORnkmYjYUj/fLBBx8kWRgz1oeFtcMBKJjHjh1LV0oFy66PHj3a/Ca/MubtlAqHI+Pgeiz+5uzevdv4pyhUqJDxu/Dnn38aYyRrjOdwpDfat29vjPuwymftgpdeeskYtDkcjoyBUyzOALCmxsIZZQKr5qxZs3pHHI70x8GDB83qh/SkMPUvb9683hGHw5ERcIqFw+FwOByOhOFsLBwOh8PhcCQMp1g4HA6Hw+FIGE6xSACsisaywBhFpgb8KLBqXlrDqoksofzvf/87abXAvxM4D8JDIGP0DofD4Tg9OMUiTlatWiU33HCDWfq1Xwq9Ih49elT+9a9/CcthszR2WsKStSyBfOedd8rQoUOlTZs2ZsbI3wnclj/99NNJy047HA6H49TjjDcTwKFDhyR37tzSuXNnMwc/GrSm8WtgvTQCa/rjU4A15dOCXbt2mTXwiRtr0G/evNn0sKTEfTIOhfAOmD2duPINFx/W38eJDw6m8KOQEUhv6epwOBzx4nosEgBCIVu2oKvb5MAJE66A/aCUpCWsBYDiYt0BM+00JUoFznw4P730cESKT/HixY3zoIyiVKS3dHU4HI5EkPAa2F9Jbty48STXxn6Yp07rnb+nAuKCV7hoY/DWkx9xwoNeNHAHzhYrH330kXz44YfeXmRYbXB/iLdAP9h0pGRJ7niW7yYdbrnlFmMHEg97PU+Jhw8fTvrtZ8uWLTF5UUwuPnTAhUs7em0s9GyEwrP954SS0jT3Qx4JvXcs6Uo60bsUCZte5Otw72QJ93yHw+FIKxKiWFBpYRTYvHlzufrqq41b15o1a0rJkiXNqo/Tpk3zzgyCEPnHP/4hTzzxhOCyGJe/2ClY18C4i2WlyFy5csmTTz5pwvAZUKJECRN21113JVWkI0eOlHLlysnDDz9s9sOBUHjooYfMM1h5smPHjuY3QxiAO9t//vOfUqlSJenVq5cxpORZDB8Qtx2ea17LokWLjHvbN954Q/7zn/+Y+ERToAABgotcwGUz788iQH5YxIoFgegaxz10qAto4vHoo4+aXo+7775bihYtatIvEggenoMLYyC92ee+3333nUk30hMFEH744Qdp1aqVCbNDOrgCxs003HHHHeZ6vtOLL75ozmvQoIE5Ruv7nXfeMXEn3Aoz7Do6dOhgruP+5AnS1Qq6P/74Q26++WZjG8HiXbgSjqbQhYsP7zl79mzj+rt8+fKmhwZWrlxp0qtq1arGYJV3Ir4VKlQw775gwQJZunSpnH/++WZoijznd6cMKU1zP6QBPRKk9/fff2/scEgjiPQeQLxuv/1281zyWa1atZKMbYkvrrKJL/HgmxYuXNjk13r16p3gYj7a8x0OhyPNwMYiXlSoGg+PuJgtXbq0cQ+rlWRgzJgxARUyxp2uBU9uuE/Wys4LCXqZq1atmnEtjHtmwPUu0cPFrQWXvISFuozFjfRun4e5UF599VVznfWoN3PmTLNvXeXiodC6Z9bK2bhoJh641CUMV7wWPM3hutYfLzwvch5uoqOBq2fOC3UB3bRp04AqEsYtOWlBGjVr1sykHd7yLLj7ViXN2wsYV73cLzn307iV5jy+hx/r+hlvpRYVViasf//+XkggyQV4qEdCXEbzzfzYexJvzsedNPu4LMdFOO9+2WWXmfRVYWlcE1vwVInL4bPPPtsLCU+4+OAl0D7bxp3viittwohnv379jOdF3pf0Jt+oYDZ559ixY4HLL7/cuJ3mG1hSm+agym5AlSZvL+gCGhfXlnDvQbqpcpeUnylbqlgEChYsaM7Dmyruv7mOfIMrZ8oeeZXyp4pdUhlK7vkOh8ORFiSkx4IxbXomaM3R6n/88cclT548ZuaBVn4ndPe+/vrrpiVJK9VCi+uRRx4xLbU333zThNGKA1rWluuuu878pbVnmTVrlrRt2zbqsr/YFLRu3TrpHBVy5q9t3bHENa1lYIyeVp4KGDODgnfzx58WYqNGjcxMDst5550Xs41FJOihoCeDtMDmQgWu6dKnNwV+/fVXUeFpjuHpkY14QO/evc3flJIvXz7v13FS8h7JXV+kSBHp0aOHSUN6MfimpC2zZ0hf9vl29n14X5xN4YDKOk2LFXrIMEz1w3e1PSp8L1VoJEuWLKZ1T+/a3LlzTc8L+SJTpkyiCrAZJiMc4k3zJUuWmF4oeg5AFaak+ERCBb9UqVLFDBHyPL5/y5YtTc8JPS70+NCrA1dddZWoMmTK3r333muGVvBSamcnpeb5DofDES8JtbFAgFBB+0HB8I+pM0yCoEew+MGSHxjagLp165pueSpwhjIAJSJnzpzyzTffJIVht5CcZ8Ybb7zRdDvzTCpahjAAg0YLcQd//BFMGGba+DPc8fPPP5u4+eEaBFY8hPrvQNEAKxRstznDCXbDFoN1G8455xxzLD1C2pC2FStW9EKCkKYobCh3/ndCWPJO2CCklHDfINx3BatM+LFGtNauIZY0Z0gORdm/YUcCl1xyiRmiQZiTb6B79+7mbyR4Js/3PxNFg2cyhAP2nULLEEoGsJ4HpOb5DofDES8JVSxigSmV27ZtM0Z2fmiJIcRpcVlQGKi4f//9d7P/3nvvGeNHbAKwlUA40SqzvQ3RwFviNddcYypt7C1SA+PbtGhPxdTAUKGHAMYGAJuT0A17kYwGvVPkAQRduHfyT8c9Vdg0t3kzljS//vrrjdLk32xPGHYT9EKRXxHy9IYlZ0TJtbgJD/dMvH5GwypvVulOzfMdDocjXk65YoHAwGiSrt5QqNjp0rZcccUVZookizuhGFSrVk2uvfZaY3iHUSBDIldeeaV3dmQwcuvSpYsZhunatWtSiy+l2G7+lHbTJwJ6MGh9WgM/P8zEyWirTdoeGb5rOKLNhjhVxJLm5E2UW/+GsSXQ63LfffeZHgSMMBnKYLglGjwztWmCAS3E83yHw+GIl1OuWGCPAD/99JP5a6GngooawW+ha5peBmYOYNvAzA+UAoY2qCSZZWG7f6NBaw/bj9KlS5t921Ud2muSHHRFY1dAb4kdorBwr+S6722L2LYoLeHiERrG8AtDN88884wXEoRn0k0ebSjG3iv0nlbB8g9VWeHkPzdSvLnefy2Euz4ctK4Zjvjggw9OUtSYAcHqoJFISTrGQyxpzgwXhir8m+3RevXVV81fwrDXQMizgJdVqsO9B8/ExoT87YchGGYsRcMOFVobjOSe73A4HGlBQhULFAMrtC0IHn840zqZ/scUOH+3LJXmWWedZbqW/TAcQsVLBW67x+mG5n4Y5Nlx8WhgFEilS6XKOhYYiFKpo8wwtZH72xa/P/423LZYEaRMAWSfbmYbf3pO6IXB6I/FryIJOBZwArvkNPEBhLHf3gPsvhXUTD+k94bprUx7RPAOGjTIdG8zXTLURsOPjX+oEmCNWFlOnOdhf9K/f38TRqvZTsf1x9umJXA96YnNC+nElEZa+MDKnqQDQhjblND3o/fnwQcfNFOPEYQff/yxUSj4Nkz5xNAyEpHiY59BmMW+Q2i+JJzv6w+3vxOR5jBu3DgzNdmCXUbBggWNjRGEew/yF+nGtG3SgXuQv0iPm266yZxvwbjTwvsw7MH1TPmF5J6Pwo6Ch6LscDgcCUMrsbhRwRV47rnnkKYBrWwDr7/+ekAFTUBbdQFtvZlwplJqK9+cv2nTpkCPHj0CzZs3D6hQC6iACdxxxx1mmmU4mH43Y8YMby9Ihw4dAloRe3vRUWFlpuKpMhFo27ZtYMmSJYH27dubeDHdkf0rr7zS7GtFa6bwbd68OaAKjAlT5SVpeqwKn8Ajjzxi3ot3VSUp0KdPn4C2vgNdunQJqJA1UxfDQZow7ZF7qlIUUEXETAXVlq8Je/rpp81Ux4EDB5ophoSdd955gXnz5pnrmZ7J8whnY9ru77//bo6FQwVk4LPPPjPvxPmquJn4qRAyx0lv0pZjxIFvwP0KFy5s3t1OqZ0zZ04gX758Jg2ZkqkCPCmc6cVcz3FVDgNPPfWUiRdppIItoMLZHM+RI4fJFytWrDDXAvEgX6iSYc7h/io8o04dhnDx6devX6Bhw4bmPq1btw6osDTf9d577zVhRYoUCfTu3dtMN/3oo48CqjCYcJ6/dOnSwOjRowNt2rQxYfxlH1Ka5n66detmpg1/+eWXJt1VGQmoYuIdjZyufDMbP7Z27doFFixYYI7BiBEjTPi5555r8hz5pmPHjgFVRLwzgiT3fMoF91GFxAtxOByO+DmtvkJoGeLEi56IaK0/uoGZuuiHli7TW2MFAzZeFSNRoBVNj4W1tE8ptBDpwrdxxyCVqaLJQcue59I9nVroyqa1zWJQtjs9tZAm+Ksg7hgq0nKmNyH0ezDdkR4BO5xkIR0wyCUd6YanF8faT8QKacI9sJ1hFlEsRIpPWpGaNCdtGBYhr7Lxzf3TcSHSe9DTg7Ew3yQ0nzNzit4HjJnpvSNu9AKqguKdESSW59PjRLo7HA5HonBOyByODIZfsWCIxuFwONITp9x40+FwxAe9GUCvm8PhcKQ3nGLhcGQgMMDFgBTwqYPxset0dDgc6Qk3FOJwZCCYOeNfRA5w8pZSuxaHw+FIK5xi4XA4HA6HI2G4oRCHw+FwOBwJwykWDofD4XA4EoZTLBwOh8PhcCQMp1g4HA6Hw+FIGE6xcDgcDofDkTCcYuFwOBwOhyNhOMXC4XA4HA5HwnCKhcPhcDgcjoThFAuHw+FwOBwJwykWDofD4XA4EoZTLBwOh8PhcCQMp1g4HA6Hw+FIGE6xcDgcDofDkTCcYuFwOBwOhyNhOMXC4XA4HA5HwnCKhcPhcDgcjoThFAuHw+FwOBwJQuT/Af0XsSThNgYqAAAAAElFTkSuQmCC;" parent="1" vertex="1">
                    <mxGeometry x="10" y="60" width="534" height="270" as="geometry"/>
                </mxCell>
                <mxCell id="4" value="行動空間は、&lt;br&gt;残ジョブのどれを進行させるか or 何もせずに次のタイムステップに移行する(NoOp)&lt;br&gt;の、ジョブ数＋１の空間を持つ。&lt;br&gt;&lt;br&gt;上図が例で、赤線が現在のタイムステップ。&lt;br&gt;ジョブJ2をマシンM０に割り当てることができる。（割り当てるマシンは環境から明示的に与えられない）&lt;br&gt;現在時刻で行動可能なのは上記行動のみで、もしくは次のタイムステップT=8に移動して、ジョブJ0をM1に割り当てる等で計画を進める。&lt;br&gt;&lt;br&gt;&lt;br&gt;探索空間の低減にも言及している。&lt;br&gt;（解釈の仕方に不明点）&lt;br&gt;J1,J2の２つのジョブがあったとき、J1はあと１操作で終了、J2はそうでない時、J2を先に割り当てる方が計画がよくなるはずで、この最適化制限をnon-final prioritizationと呼ぶ。&lt;br&gt;&lt;br&gt;NoOpの学習には工夫が必要だと言及している。&lt;br&gt;環境側で、NoOpの使用前に有効だった行動はNoOp実行後には無効扱いにし、NoOpが現時点では無効だけどNoOp後に有効になる行動に対してのみ適用できるような制限を設けている。&lt;br&gt;また、もう一つのルールとして、&lt;br&gt;スケジュール可能なジョブの最小継続時間Dを計算する。次にD以下の時間以内にマシンに割り当てられる新しいジョブがあるかどうかをチェックする。これは、一時停止をDより長くすれば、以前のタイミングで先にジョブを割り当てた方がよいという考えに基づいている。&lt;br&gt;さらに、配置可能なジョブを待っているマシンが４台以上ある場合、また配置可能ジョブが５以上ある場合、NoOpを禁止する。&lt;br&gt;&lt;br&gt;報酬は、&lt;br&gt;状態ｓでアクションaを取ったとき、状態ｓ’に遷移した際のマシンｍのアイドル時間を負の報酬とする。また配置したバーの処理時間を正の数字として、合計した値を即時報酬としてＮＮに渡す。&lt;br&gt;これによって、スケジュール全体の中から、空白の時刻がなくなるように学習させる。&lt;br&gt;&lt;br&gt;図は、上記報酬と、makespanが正しい相関にあることを示している。&lt;br&gt;&lt;br&gt;状態表現は、&lt;br&gt;&lt;br&gt;J×７の行列で、7の意味は、各ジョブに対して7つの値を設定するため&lt;br&gt;である。&lt;br&gt;１，ジョブが割り当て可能かのブール。&lt;br&gt;２，現在ジョブで実行されている操作の残り時間。&lt;br&gt;３，ジョブの操作完了割合。&lt;br&gt;４，ジョブの全操作完了までの残り時間。&lt;br&gt;５，次の操作を行うために、必要なマシンがあくまでの所要時間。&lt;br&gt;６，最後に実行されたジョブからのアイドル時間。&lt;br&gt;７，全操作間のアイドル時間。&lt;br&gt;&lt;br&gt;この状態表現にした意図としては、有名なディスパッチルールを簡単に判断&lt;br&gt;できることにある。&lt;br&gt;MWKRは４の値が最大のジョブを優先することと同義。&lt;br&gt;FIFOは６の値が最も大きいジョブを優先することと同義。&lt;br&gt;&lt;br&gt;&lt;br&gt;上記環境を用いて、PPOでの学習を行った。&lt;br&gt;&lt;br&gt;&lt;br&gt;結果は以下、&lt;br&gt;よくあるJSPインスタンスに対しての結果。&lt;br&gt;「Learning to Dispatch for Job Shop Scheduling via&lt;br&gt;Deep Reinforcement Learning.」&lt;br&gt;「Research on Adaptive Job&lt;br&gt;Shop Scheduling Problems Based on Dueling Double DQN.」&lt;br&gt;より良い結果を得ている。　&lt;br&gt;&lt;br&gt;https://arxiv.org/pdf/2104.03760&lt;br&gt;" style="text;html=1;strokeColor=none;fillColor=none;align=left;verticalAlign=top;whiteSpace=wrap;rounded=0;" parent="1" vertex="1">
                    <mxGeometry x="10" y="350" width="800" height="1330" as="geometry"/>
                </mxCell>
                <mxCell id="5" value="" style="shape=image;verticalLabelPosition=bottom;labelBackgroundColor=default;verticalAlign=top;aspect=fixed;imageAspect=0;image=data:image/png,iVBORw0KGgoAAAANSUhEUgAAAWEAAAFGCAYAAAC7Vi5ZAAAAAXNSR0IArs4c6QAAAARnQU1BAACxjwv8YQUAAAAJcEhZcwAADsMAAA7DAcdvqGQAAI7+SURBVHhe7Z0FnBRH1sAfLou7E9whCRKIEHcn7iHhcpGL3yW5i9x9uejFL64XIAbEiRtxCJJAcHeXhV3c5qv/66ml6fTMztrM7G79+Q0709PTXV1V/frVq/delYkYxOFwOBwpoWz0r8PhcDhSgBPCDofDkUKcEHY4HI4U4oSww+FwpBAnhB0OhyOFOCHscDgcKcQJYYfD4UghTgg7HA5HCnFC2OFwOFKIE8IOh8ORQpwQdjgcjhTihLDD4XCkECeEHQ6HI4U4IexwOBwpxAlhh8PhSCFOCDscDkcKcULY4XA4UogTwg6Hw5FCnBB2OByOFOKEsMPhcKSQEr3Q56effiofffSRdOzYMbrF4XCURpYuXSpNmjSR6667LrolfSjRQvjSSy+VMWPGSO3ataNbHA5HaSQrK0syMjJk7Nix0S3pQ4kWwg8++KBqwj/88EN0i8PhKI1ceeWVsmrVKnn33XejW9IHZxN2OByOFOKEsMPhcKQQJ4QdDocjhTgh7HA4iozVq1frC7Kzs2XJkiX63jJ58mTZtGlT9FM4o0aNktdeey3nOCUNJ4QdDkeR8eOPP8obb7yh70eOHKmvmTNnylNPPaUCeMqUKSqEcSddtmyZbp89e7buDxMnTpSdO3fKmWeeKdOmTZNx48bJBx98oF4O27dvlxdffFGGDx8uu3btkvfff19/v3bt2uiviwelRgjv2h2Rjdt2Rj85HI7ceOLr2bLPbR8n/DrogW+iv9ybLVu2yObNm9VNDGcsNNrevXur0CxTpowMHjxYGjRooNpujx49ZMiQIbJhwwbVmtu1a6fC9+mnn1ZX0/Hjx+s+CGH2qVevngrtlStXyq+//ipnnXWWfPnll9EzG3D+2rFZyu/eJmUiu6Ib04tSI4S37twt89dskoVrN8s2897hcMTn+iPbyYIHTkz49dNtR0R/uTcnnXSS/N///Z8ccMAB+tn66qLJIpR5Va5cWcqXLy8VK1aUQw45RDIzM1X4IlzPO+88ufnmm+WrLz83Ej1T6pfbKOV2ZMuE77+U3ZvWSWRblmxfNU8a1agg5Tcskp3rl4usMdr0qukiyyeKrJ4plSJbpIKkpxJW6swRWVt3yKyV2bJ0/RbZXXJdpB2OtABNtWnTphqttt9+++lfPqPltmjRQqpXry5/+tOf1Mxw7rnnypw5c2TtymWyT/Omcswxx0jVqlXl2WeekTdfeUb6tW9otNqt8unnX0jTOhnStnF1mTtrmvTt2kbmz50hTerWkAqRbdLIfCfbN4rs3BotRTgI+DvuuEM1dEwer776qjz22GOyceNGNXMMGzZMFixYEN276Cg1wRqbtu+SeatNw/ioUqGc7FMvQ8qXLRPd4nA4UsJuo6VuXC2y2bx2R80GZcx9Wa6SyK7tIhFv9PrBF9/LCYf3kwoVKujnRLn5nw/K0jXZ8tZ7H0e3eBOFmEROPPFEtU/PmzdPGjZsKF26dJHffvtNHwKYRgj0KEpK9cTclh27ZM6qbNlq/jocjiSya4fItmwjdNeIZC4UWTHZCOEVewQwoB+izUYFMJx6TP88C+BYoIVbcwgCuW3btlK2bFkVwHyHFr51a3xtujAo1UIYduyKyLw1m2STm7RzOIoGTANZy0XWzd9jp105RWTtHJH1i402tC66Y3JZsWKFLFy4UIVuhw4d1AaNOaRNmzaqGX/44YfSs2fP6N5FR6kXwoDnxIK1m2XDFvN0djgcBWf7JiN4l3rClkkytNyt66Oabf4soEuWr4q+KzwwOaD1tm7dWgYOHKifu3Xrpi5xrVq10knCosYJ4ShM0i1at1lWZ2+LbnE4HHkC2y0arwreWUbwrpJ3P/5S7n7iFXny1bflwWdf092Wr1ojK1aF+/Li7zt24jSdKIN5i5ZK5oYsmTl3obz9ySjdVlg0atRIPTZ4lStXTj0z2rdvr981a9ZMhXEyKDUTc9OWZ8uAZ36UxjUrS9NaVaVF3Qw5bb+mUqXCH59DDWtUlgbVK0U/ORyllKUTRGZ9Ef0QA+y1O7Z4Gm6laiKdT41+4fHuZ99K2TJlpXGDujJq9K8y4LhD5aufxqsdtkHd2tK9Yxt59e1P5NYrL5Qh734m1TKqSPtWzWX2giWycvU6Oe7QA+Sb0RPkoJ7d5f0vvpf7b70qeuS8ETYxly6UGk24Zd2qcudJXWTA/s2lU5MaMnb+WrntnUmSufmPJoiVWVsla6uzETtKObFstSp4N3nfG21XJ9iYaMP2G0LE/Ptx/O9y3ilHy8Rps6Vl00bSoXUL6dahjXw75jfp2KalDPvoa+nUtqXRhHfLb1Nny/oN2VK5UkXZt0t7KWP+HbBfF6lXp1b0iCWLtBbChDE+//zz6kbCk5NwRfKB7tixQ5O1E2mDU/fcuXPlpZdeUheTeHRvVlMO61BfTunRRP5zZndpWaeq3PjWb7Ikc3N0jz0sWrfJeU04SjdtjxY57FaRg68X6XulSK+BIl0HiHQ8wfw9Q2Tf8822S/e89r0g+sO9QdjecNnZ8vLwkdLXCNPVazPVvtu8SQOZNH2OHH9YP/lh3CQ5qFd3mT5ngbRu0UTWrs+K/lqkWeMG8tHXP8k637aSRFqbIwhHxLH70Ucflf79+0u1atX0NXXqVBW+l1xyiTz77LNqR7r++uvliSee0L+W3PyE4aPfl8sbvyyUf5/aVdo0MMMpH/gPtzXbKpRzpnNHKQFxgEa71Qi8bRtEdhazOZINS0SylpkXf5eLZPN+hbz482r5dWtzefb9n6M7pg9pLV2IGx89erQKWZJ81KhRQ18k6OAvxnSeIfzNLyd1byzXHtlO/vnhVFkVmJTbudubrHM4SgWbVous+N1zHdu0Kj0FMGVaOVVkyrsi3z4g8sE1Im8ZDfzVk0VeOEzk45tFJr1lrsGMiqvWMdr8USKH/lVmV+sjmWXSc5mztBbCmB/w3yNxB+GOhBDi19evXz8NLeTVuHFjdTEB+zev9GtdV/58aGu5473Jf7AFbzYa9LpN26OfHI4SCJNqq2d4WqQvMCLlrJ4pMmOkyM9PesL1jXNEXjlW5MfHjJCdLVK/g8gBV4gce5/IOUNErvhW5PxhRrN6VKT/X0V6nCfS+nCzXyfZVaZwAjyKgrQ2RxCtQi5RfPgQxmRQYtvBBx+s9l/MFYcddphmUyLlHY7VdevWjf46MXOEny+nr5SPJi2TB87osZfXRNmyZaS9M0s4SgKYGnjtMsoGocK8mFhLNZRp+SSRZRM9bRwBXLulSN225tXGvG8lUqOpSK0W0R/kjXT2jig1LmpMsi3bsCcEcfvO3bJj1x+f+m+OXSzzVmXL7Sd1jm7xqFapvLSqlxH95HAUE9BsN6/1bLwIunTSdJeME1n0ixdBhwmk8b7m1UOk6X4i9dqLVKga3bHgOBe1NKByhXLS2ghR+2pbP0OqVvyjLfnc3s00p8SICXuvAEAuYhdR5yg2ELG2fpGnVWJm2GaEcDoI4DlfiXz2d89+O+ZZkXIVRfpd7ZkSTn7c88BAGBeiAE53Su34uny5siqMa1XZ21ZEkum/n9hZPpuyXKYs29slBv9hhyNtYdIqe4XIqmlexBoacKoHutibF40W+f5hkVdPEJn8tkiLviIXviNy5iueTbfJ/tGdSyel2siJwG1ep6rUzTBPYx8ZRkO+48Qu8vBnM2R19p5JOZLBr9noJukcaQJhwlsyjaa71AjdmZ7wzV6eeq+GzPmexjvyBpFXjhOZMNjzVBjwosjpz3lRdVX3zN2UdtxMk6FJrSpSo3L56CePVvWqygX9Wso9H0+NbvFAG94ZYkt2OJICqR5xH0Pg4qqVucD7vD1FrpT44a6Y5Nl1xxnN9o2zRT660Qt57nyyyKUjPcHb6zJvYs3xB5wQjtLCaMQkefdzdKeGmkPioc+NlhGFRD/Ls9LQf9JRsiE/Q46N12i+qdB2rX/udw+KvDPIs+t+cK3I2JdEZnwiUsGMKI++W+Si90UOvVWkzZEiFfPnNlqacEI4CqYJvB8qld+7Sm48ur3MWJ4ln09dEd1i7oXN29V/2OEoUrDnbl7n2Xfx48XGm0zWzROZ/bnI53eIvHqS559LWeq2EznoepGBn3q23VOeFDn8HyL7XihSv2P0x8UDUiKwCKmF2ARgsdBPPvlEk70XNU4I+yhXFkFcba/ljqpWLC+3n9hZXv5h/l7Rc6uz3SSdowhA48W8gABE612/0PN0KGoQrpPeFPnkbyKvn+WZFbDlblkv0uMcT9ieYTTew27z8kc06mY03yrRHxdPVq1apQFgdvWMjz/+WGMR1qxZo2vg9erVS9577z39rihxQjhAhXKeRlyW9a2itK6fIWf2ai6v/jw/ukUke9tO2e5sw47CAi2X4b5Gri0V2bqhaF3KCNBg8uzru0UGnyzyhdF2MXd0PFFkwPMi5w8XOfr/RLobAYzALV8SUrvuvZYky+zXqVNHUx+QCmH9+vUamcuKGy1bttTv160r+lU/nBAOAZ/ifepW3avJTtuviSxYs1kmL/Xc1hgpugTwjgKh5oao8EUA4u1QlJB6crIRru9fLfKa0WZnfibSsLPIqU97Qhc7buvDRKrUif4gzalSOxpNt49IzWYi1RuZV+M9rxrmxfZaLWVr2QzZLrFDlxctWqRrzC1dulTXsFu+fLkKY9IiFDVOCMcgo1J59ZqwVCxXVgYe1EqeHTVbn5xATgmS/DgceQLzwobFUXNDEQpfPCZY5WLBjyIfXivy5nlmDG40bVJQXjJS5MSHRbqeme9Q4CKnjBFPVWqJVGsoUqmGF9jBCLVqPfPw6OIJX7YjjDPqR4Uvgjj6qmZebK9ax8sd4RvdAmvLkfLgjTfe0BWWWWHjtNNO0xQJCF/MEyxzVNSUmrDl/BJcBPSvwyfJkZ0byvFdTQMb8J5gJQ6HIyZEqyEQEb4kQ/evKFzYYMNdPEbk16Gia7wR/stEWrP9RfY5xBNk6UzZcp6QRbiyUkchwbL12IDJR55uOE04F5rVrrLXA/Tqw9vKa2MW5nhHELyB25rDsRf0CVad0FWF53pBFAjjohDA+Oj+8oLnNvb+lUa7XiJy5B1eKPAAs/3Qv3nuYuksgMsbRaZWc6PhdhOp0aRQBXC644RwLmCGaFRjj1mCSbpeLWvLh5OW6WcE8FoXReewkJWMlYURvmiiLPtT2KBVz/pc5Is7Rf53vOc6FjHCvf/NIue9JdLHCOP6naI7pylovOSHIJKuVkszpDTlRQMOmAxKA04IJ0C9ahWlii/Zzzl9Wshnk5cbAex9XuvyDTvwNlg3X2TFZG9FB4RxYbLDCN55ozyf3aGnicz81AzTeoqcNdh79b0q/QUvIHjrtRNp1N3LB4wARhCXYpwQTpBmtarkeEs0qVlZGpnPo+d5zvOkxCRfsaOUwYQaCXPwbiAV49b10S8KCUKSfxviTaoNMYJ36gemI+4ncr7Rdsk41tlsq9YgunOag08xngwI3oqlx9SQCE4IJwhua3Wr7fGVPLFbYxkZNUlAptOGSwdkBcOtDK0X4YuttzC9G9B40XJZtoccDNmrRfa7SOTyLzzB2+WM4uNCBpQVzZdIOibbHH/ACeE8gCeEDeI4sE1dWbZuS06i+A1bd+hcjKOEQaPiX8vkGis/rJruuZUVtta78CcvcOKdP3nnOuBKkYve8+y8zftEd0pzKmYYbaWWSEY9z0UMkwOrYzjNNy5OCOcBwpoRxPb98d0byYcToxN0uyOSZQSxo4SAjVcT5hjBm7nQ82wo7Ag2lvDBq4GINRLgdDhe5NzXzRP+L16UWjpBxBw+txkNRNNQVq5pNNvqng8vZgYSseMOV6eVSM3mns8uk2+OXHFCOI8wSVcxmuTnuK6N5ZvpKzXPMGRudkK4WLNtoxcyzOQaNt6iSoqOnffNc0W++48XkHDGyyLH3ivSrHd0hySCIEVrRXtFi+UzAhYzAgKXiDMCIxp09t7XjK7zVqe1Eb5to+5kNUqlV0Nh4YRwHiHbWsPqXnBG7aoVpHerOjJqxir9nG00YRdBV4xgzTWW/iFfw7LfjOCd7SXPKUzPBtzJFvwg8sOjXsTa/040d10FkZP/K3KmEb64kyV7cg1/YUJ60bYRpGitaK9osXxGwGJGQOCi/aZ7gEcxxwnhfFCzSnk1R8CJ3RvLp1OW63vI3Owm6NIeJtfIUrYGobvay1xWmGxe42UgY3KNJX1+H24ErdE0j7xLZODH3lLsqfBqwEOBUF80W0J6y+69kIEjNTghnA/Qhu2SSJ0b19CVnGeu8PKOOi+JNAYvBuy8TK6Rpayw4JjT3o/m3TVCl2V9MGWQo2HgJ16+3f0u9gISkg2CF1MD2i0eCuRZcKQVTgjnkzpGCFsz2HFdGuckfcc+7HyG0wyi1tYv9lzKEI4FBQE+92uRbx/w8u6i8S6bKNKyr2ffPec1kUNuMp8P8oITkoF6JJDAJvrCLazJfp7gxdSAndeRljghnE8qlCsr1St5w7kjOzWQH2avzhG+aze6FJcpBZsuk2wIXBW+UzwTQUFYYY7BMj7v/dlLej7zc8+Gesw9Xkayo/4l0vEkTwAmE4Rvw66eoPVnEHNuYcUGJ4QLANow1KhSQfZvUVu+nbFSP2dt2aFRdI4ko6HDrEiBd8Nsz0yQX+GL6WL+tyLf/Fvk1ZON1nu/F0jR63IvcOKE/3gJz3HLKkrKVfC8FvBCYNIMDde+sO0ifNnHkS8WL14sO3Z4Xk0TJ06UqVPNaMlAXuHJk00/SgJOCBeA6pUraIIfOKZLI/lksmeSwD+CXMOOIga/XQQvUWuarYzQ4QLaekm689N/RYacLvL7CCP4jLA79SnPf/eg65ITOFGxque9gFsYWi4at+bUre5puPblvBYKxOzZs+Whhx7SdeTmzZunyxr99NNPun3kyJGybdu2AqXBTRQnhAuIDWXev0UtdVGbvtxbecMJ4SKANJAIWXx5cSsjgg3BS/6GgmYrI/E566uNuNTznjjlcW/FiR7neu5aRQ2pHNF20W7rdfC8F0rEkkLpS7t27XQdOVKqt27dWo444ghN8p6ZmZnz3YQJE6J7Fx1OCBcQfIUJZcZjguCNT6d42jD+whu2uOCNfINdl3BhBCyLXSJ0WYkCcwO+vIXhVoaf8JS3Pf/d0UbgtjhA5KJ3RQ69xdOAixo8FxC2eE3wQtt12m1K2L59u9x9990yYMAAXWcuKytLNm3aJFWrFv3EqhPCBQR/4ZpGEMOxXRvJpMXrjUbsOfs7bTgfoO1iXlg1zQsX5j3LvhemLy8246/v8ZZxXzzOW779vDe9pX4qmiF/UWGX69EotK6e5wJmB7RgR9JheaNZs2bJ4MGD5ddff5WyZcvKp59+qpoxAvj111+Xs88+O7p30eGWNyoENm/fKXNXe8uSP/DpDGnfoJoM6GluNEM7854MbI5cQMjizcBEWlF0SWzHc78xr1GeZt3hRJFOeDMYTbQoIamNLtWDPde8d6QEt7xRCadqxfJG0HpVeXKPxjLy92X6NIUV0SxrjhBIikPYMJNqmBuIXitsAYxGTRAFSXIWjTba7uledjLChYtCAGNOYIUIItPIIob3hLqMOQHsCCethTBuIs8995y8+eabarMZMmSIDh0YKowZM0bfY0SfO3euvPTSSzrDmSrqVPVseV2a1FSvifELM/Vz9radGlHniILGq0lyfhdN2YjgLawlgNCip38g8vW/RYZfLPLCYSI/P2mEYReRC40GdNwDIq0Oje6cT6zLmD8wghfro6k3gzkX74lMc1nEHAmQ1kIYF5GBAwfK2rVr1XZTuXJlqV+/vowfP16mTZsmF154odptMDkMGjRI3UpSRW1fBN2p+zaRT37fk0+i1GvDmAIQvGilqvGSJKeADyb8eNfM8ha5nPOlyHtXirx1odF2x4k0MRro4bd7C12e9qyXq6EgS+ggTElmgx3XuozZoAj7Qvt13gyOfJDWQhi3kd9//10qVaqkwveXX36Rb7/9VoVxjRo1pFy5cjrs52+qwUOiVhVvgu6Q9vVl5spsWZ3tTcyVSm04Jx8vGu8cT/DuLEAkIZ4MJD7/+SmRty8TefkYLwn6xDeNMDbH3/8ikcs+Ezn2HpFOp3rL6BQUJtLwXkDwktbRBUU4ioC0FsIzZsxQc8Of/vQndaA+/vjj5YwzzpDVq1fLxo0b9dW4cWOpXt2b0bZ/U0W9qM8wARwndGsiH/5utL8opUIbRjsl2MGfj7cgGi9pIGd+LPLxzSJDTxeZZAQugQwHXutpueRoOP5Bb5FL8jQUFth10XxJ9Yj3AsLY4Sgi0rp3VatWTWrWrKkacO/evVXIbtmyRU466STp37+/RrecfPLJKpy/+OILOfVUowGlELwgMqKrMp/QvbGMn79Otu/0JprQhreU1MQ+Gi4cXXNtYwHz8aLxzjIa7ef/EHnNCF68GdoZrfeiD0ROMVpwL6MFk5imsMGWhB2XVSKw66L5OuHrSALORa2QYYmjhWuNBmd44qtZ0qJuhpy+n9GqDEzY7VM3SVm1ihom07bgUrauYGYGQHAv+llk/o8iGxZ7GmizXiIt+hVt9i8EL37BVY3wZbLNCd0Si3NRK0XUIJ9EdPmjAT2by4jxi2XHbi+ZD2HN+BQXa3Arw9SAW1nW8vwL4KUTRH55zgsT/vRWLzkOuRnOHyZyxB0i7Y8rGgGMqYGJNJLhsC4ami9L+TgB7EgRrucVAXYx0Oa1q0iHhtXl82hiH1heXG3DCFtcynhhfsgPBEuQleyVY73lfkjAw2oTZ/1PpMf53tplRQVCltwMuJHhUkbwhMORBjghXATgJVE+uvzRGT2byYgJS2RXdO25zdt3SVY0rLlYgH2XyTbcy9CC8wq/+/FxkSGnikz70PNaONMIXbKS9b1adMWHogb3MV3Sp6FngnA40ggnhIsAkvnUj2rDXZvW1LzDo2au1s+wYkMhr2lWFNjVKPB0wGabF9YZbXnsiyLDLxWZ/K5IEzPsP/cNkZONMO52tqeRFhSS38QLhiBCjRwN2JcJnnDrqTnSFCeEi4i6GZWkfDTX8Ll9msvwcYtyQplZAimtk/tkLcv7ahS4o016S+TdP3krUNRrKzLgeZEj7xBpfVjhhe1ivyXjGMlvCAu2ocF7JTvv6m1jpWAnfB1pjhPCRQSjXrsY6AGt6mqmtdHz1ulnWJG1VbYbYZxW4B6mbmbeCiEJMW+Ul4f3izu9YIYTHxE57n4jeA8vvAgym/IR4UpuX3/WMbRhBPxeyc5dUIWj+OCEcBGCELYmyEGHtJanR81RLRiwES9Yu0l2p9JDkEAKcjeQVQzhyxLwBFzkxvZso/W+LvLWBSLLJon0u0bktGdEup7hZQwrCOo2ZoQqWiwTdWi6NuWjE66OEogTwkUIuYYxSwBeEvu1qCXDxi7Sz4BAtj7FSQfhu3q6l8UMX99EhC/74tXwzhXmg9FABzwncvANXsawglDZCG7stwhb3MYwJfC5al1P03U4ioAlS5bIn//8Z1m3bp1G4d57773y73//WyNx//Of/8gDDzwgc+bMie5ddDghXMTUq2a04ej7yw5uLR9PXi6rsvf41m7ctlOWrk/iRB3CF3svAjXR7GWLx3omh49vMoLSCEgSoLPsT34SoOMqhnsYbmJ12hih28P7i+aL2cHhSBL16tWTgw8+WN+PGjVK0yMQjfvBBx9Ijx495G9/+5smeS9qnBAuYlga3668Ucf8HbB/U3nx+7n62cIk3ZqiXiZ/+yaRVVPzJnxZbfjty0W+e1BkH9NZzx/uLeueH5ggq0E+hu5eoAQBE2jALkjCkSJIBMZkuf9lse/924oKdwckgQbV90wknb5/M5m7eqNMWba3zy0TdUTUFTp0IrwdSPu4M0GPjAXfiwy7UGTM814S9AvfEemcz7wc2HHtApbVyMfg/HQd6QHLG33//feai5zcNE899ZQMHTpUTjnlFPnqq6/k4Ycf1hw1RU1Kc0eg6pOqksX0KlasqPaZwiQVuSNisWjd5pyFP3+eu1ZGTlwq959htEIfyKdW9arlJAEqMIQCk1gnEXsvYKYY86wXEbefEcIkzskPaL0kw2E9NbwVHI4U43JHxGDHjh2amP3aa68tdAGcbjSqWTnHNnxgm7pCAN2zo/Y2+vM4XLBmk9qJCwwLZK6emZgAXjRG5LO/i4x7RWTfC0TOHpJ3AUxOBjKP4adLgAQTa04AOxy5klIhTJrK2267TS666KISL4TJMVwvGkUH/zixk4xdsE6+m7Unkg5wWcNjIt+CGHsvrmYsFZ8b0z/0lnsfb4Rv51NETnpUpOWB0S8TAI2XUGC8GjA3kIPXCV6HI0+kVAj369dP+vbtKwcccIDUqmWGriWc+tUqqdsa1KxSQe4+tZtqwwsCbmoIYnyI8yyIt6z33M4IuogHwvf1s0Rmfe75+A54wUsbmSikfST7mCY9b+K8GhyOApBSIfzJJ5/oEkbMUvK3pIMAthnWoHmdKnLjMR3k7pFTJDuQ1MeaJtZvTmCybudWT/vNnO8FYMRixkhP810+SeSYf4uc+rTn9ZAo2HnJQsYaawUNynA4HEpKhTBrw6EBs3oyr9IASyBViuYbhgNa1ZGjOzeSez+e9ofoOT4tzty8l1/xXpAKkiQ7q3LRftF83zhHZMVUkVP+K3LEnZ4JIRHQcrH1kq+BoAy3mKWjlMLEHh4Ut9xyiwZyXHHFFTJpklFoCkhKhTBLE/Xq1UuOOOIIXTuutNCwhi/3geG8Pi2kRpUK8v5ve9ak87Mya6ssyQwEdCB0SRMZL8nOzE88zXf21yLH3ity2G1eUERuYOslRwOBFAhrbL3+fA0ORymkQYMG8pe//EUDOZjLwoWtMCLqUiqEx44dq6GCrKCMf15pAXsw6S393HxMB/lh9hr5bEr4hFrm5u2ycG10tIDng+Z5iGGqWDHFW7FixseezfeUJ7wAidzQxOeNvUQ5brUJhyOUr7/+Wp588kl58803pUmTgqdlTeldtnjxYrnrrrvURa1rV3PjlyKa1KwslSvsqX5MFP93ShcZPn6R/DJ/T7Y1PySDX7JorkRYViiMLeZ33xiN94vbRfr8KW82X4SuBlQ0cgEVDkcczj//fHUouPjii9W5oKCkVAi3a9dOLr30Unn00Udl9OjRam8hqUZpgMTvLetmSNRZQsEk8X+ndJPHvpwl05YHVrGIRKRi1kLZmrlMl0jaEV2pI4ep74m8f7VnJ2Yp+ESXgMfmy2oXmB9c7l2HI1c+++wzXQH+5ZdflsmTJ0e35p+UCeHdu3fLrl275NVXX1XvCJ4u2FuaNWsW3aPkg+/wPkYQ+xVPPCb+cUInufvDqbLMJvYxgrVS1jwpt32Dfty8Y5eaJgh13jVnlMiIS0RmfupNuB1pXrmtn1ahqpdAB08HbL58djgcCYEtGFnFq0KFgqdXTZkQHjZsmFSqVEneeustzWSEu1ppJKNSeWlUY28/2+7NasqF/faRBz6dLivWb5ZK6+dJ2R17e4+U254t1UfdIfLT45LV8WzZdfrznjkhFth3SZrDPmi+vHeeDg5HnmFS7uqrr5bLLrtMsrLyse5igJQJ4a1bt0rnzp1l3rx50r17d6lfP4FZ+xIK6S6ZrPNzUvfGcnyXBvLsiE9k7frM6FaPKmunSPOvrpZdlevIwqNfkFWNDlWf4szNO/6Y9YlwYs1e1s3TfvnscDjyDTENhx12mDz//POyaNGe/OD5JWVCeP/995e//vWvKnzXrFmjiZRLM81rV5XKFfYk7imze6ec3nyTnLNffXn8q1mybL23VH6daa9Jg/GPyso+t8mq/a+T3RW8tdsQvWs3bZN5RhjjV7x1tzlWrZbRyTayl6WsqR2OEkXt2rWlVatWcs8990inTp2iW/NPyu5MfO2wrZAzYsOGDarel2awC7esU1Wj6spEdkmlDXOlzK5t0nOf2nJmz+Yy7KfpUuObf0jltdNk8eH/lS31wk0Pu8uUl7Xl6stsaSGzN1ZU7djhcBQeBG38+OOPcvTRR0v79u2jW/NPytUjhs+ktCSVZWmnYvmy0rJWJSOA56kAthxQO1seKfeUjNtQS16tc73sDk2SU0Z2ZDSSrXU6ys4q9VSqb92xS5Zkbpbpy7NUO2ZdO4fD4YFnw3//+191Dti+fbv6/j733HN/NOkFOO+881QDJg8xeYcLSsqFMGaIQw89NPqplBPZLRkb50v9yntWYcb+2/T7W2RD5wul2Qk3y+yV2fLYl7Nl3uroRJ3pL7sq1THCt5MRvuFmh51G+BJ1N31FluY1ZiUPu+Cow1FamThxonplrV+/Xt3OSObO/NT48eOje4Rz5513asDGDTfcoNpwQUmpEJ4wYYI89thjMnfuXF1Yr1TD03fdXJEdW6RWlQpSrVJ5qb70O2k8+h5Z0efvkt3icMmoVE6uOaKtdG9WS578erYMHbdS1mW0lu3Vm0kkAR9fTkFieda0m2WE+YwV2eoGt32XE8iO0kfDhg3l9ddfl23btqmXQ40aNTS9LubReBDPQMoFbMJffPFFdGv+SakQnjFjhtx88836vjDC/4o1WUtEtu2ZnGyU+ZvUm/w/WdL/QdlSf+8VOI7s1ED+euah8tvmhnLDOzM13Dk/7DDCd63RimcaYVygHMYORzFkypQpGixGzAK2XbThzz//XLp16xbdI5ynn35azRdDhgyRE044Ibo1/6RUCPfv318eeugh+fXXXzWCrNSydb3IJp8gJTHP9w9KmZMek921WkU3ekTKVpStNdtKnUYt5d4zussFfVvK4J8XyN9GTJQ5q/PvYZK1dYfMX7NJNWTyVKRw1SuHIyngFIAieNZZZ0mfPn2kbdu2al5AQ44HQhsNmBE8y7MVlJQK4bVr18r111+vzs9cUJClS5eqofzxxx/Xz2+//bYKbdJejhkzRgYPHiyZmZn6W4zk+BwXO3ZuE1nv8zXMWiry2W0iR9whZWs31xwTZaMLI+GOtq12O4n4kqj3b1dPXrqklxzUtoHc/u5kue+T6bFTXyYAtmIyts1audFpxo4STUZGhi4ogfAFFvvMTQsGXNSwHXfs2LF4hy0DbmrDhw9Xk8QFF1wQ3boHbDUDBw6U8uXLy7Rp0zREcL/99tOhAJ9Znw6bDot5Dho0SEaOHBn9ZTGBPA/rzIPDJmLfukHko5tE+l4j0rSXbsJjoqERxDsr15dtNdtIpEz4IqCn7ddEXry4l2RUKCdXvTZe3hq3uEC2Xn6LZox3hXOqcDj2sHnzZs11gzcF0b4FJWVCmDBlDNwIVAziYa4eRKag7terV09nMNGAFyxYoD561apV06TwO3fu0daK3RA6c6G3Kgbw99NbRDqeINL+WG8blKsoGU06SeMWbXKWRooFCYCuP7q9PHBGdxk7b53cMuJ3Gbdg72i7vIKf8cwVWRoEYl/YkR2O0siKFStUEcQuTPZHTBMFJWVCGIM2F3HggQfKgAEDVKgGmT59ukbTnXvuudKmTRvdxnCBGUzMEAhmEi2TAAjQmIsNJGPHFmz55j7RFYr3vyS6wUACdiLeKmZoWHP7BtWkeuXcr7Fdg+ry6Dk95KR9m8gzo2bL39/5/Y9Z2fIALm6btu3MeeFRwUSe8zt2lDYefPBB9aRgZY3bb7+9UBS/lJoj3nvvPbWpjBs3TnMLB6levbrUqVNH08axDBICODs7Wyf0jjnmGN2OUR0hjqE8zKSRlqD1siyR5dfBItnLRA69NbrBwHpuCGUf5aNZ15rUqpKrVgxHdWwg/xvYR47o1FAe/nym/HX4JPl9SXz3m0RhIm/Oqo0aEOJwlBY6dOggRx11lJQtW1YFcmGsjZlSIbxlyxZV7UlfiZE8CNsxnPMi4xpCmAoAYrePPfZYtROTfwKhjMG8WOBPyr7gR5FpH4oc/+Ce5DpG89W8DzGom1FROjSsLvV9i4bG4+jODeWVS3vLkUYYPz1qjlz26lh5/7dlsmVHwYZS2I1nG0G8euM22el8jR2lgGXLlqnyR5AZKwOtXLky+k3+SakQPu2001TThRYtWujfEs+OzXvMEGjD3xnhy/pvVet621jLjaWIcnHZQxNuVKOydGpcIyETBRzfrZE8f1FPuebw9vLrwky5+OUx8uL38xJb0TkOKzYQjYev8SZd/cPhKKkQVQcnnnii/i0MykRSNJtFvgg8GyxVq1aVF154IfqpcGC4gOfEDz/8EN2SBqydI7It23u9e4VIz0v3TMShCZPrNx8rXODbi602L2baxeu2yLu/LpGf5qyRY7s2krN7NU9YoMeDBwQRfzXMsapXrpCQ6cThKEquvPJKTbzz7rvvRrekDynThLt06aKmCPJy3njjjZqbs8SzLcsTvvDFnUb977dHAJPzoW6bfAlgqF21onRoZLRiI/wShVU8rj+qnfoZk1z+L2/8KkNGL5CtBTRTMGFHePTizC06ITh1WZbMWJEls1d5kXn4MeODHFzi3+EojaRMCGN+wD8Y/14SZrBoXolnQ3RJ+0lveML4oOu8zwRj1G5V4GXlyxuNc596GZqbOC/KJ65t5/ZuLs9e2FN27IzI1a9PkNHz1ka/LTgI2x27IircmdAjmRA+yAhnbMrkskCT53vncOEobaRMCJORnnzCLJbXq1cvjcMu0RCWjFfElvUiEwaLHHxj9AtDreYilWtEPxScWlUrSPuG1fOkFUPViuXk8kNayYNn9JAJCzLlyqET5POp4UvwFxZ4V5DVjSg9NOWpyzao9kwINmvouQk/R0knZUJ46tSpmkpu1KhRmkmNOO4SzaZV3t8xz4q06i/SKLrEP2u92Um5QqQC7mxGK25WOzF3Nj/1q1eUvxzRVu4b0E0n2/40eLy8PWGpbNqeHHc0zBlbzLlWZ2+TmSuNMN6w1fkkO0osKZuYSwZpMzGH9ps5X2TtbJEPrxM57y2j+dYUqVLLM0MUMWRLW7p+q2RvzZ8XBPbd4eMWyzczVslBbevJgP2bqq9ysqlQroxULF9OQ7lZqRrNnVfZ0pz8yZEQbmKutJMd9Qv+/lGR3oM8AUwSniQIYFCtuG5V1YorGQGWV4jW+1P/1vL0hT2lrPk5E3gPfjpDbbnJBLsyEXuZm7b/wa5Msnom/HhguPzIjuKEE8JFDT7B2IJnfWHG2dtEOp/mba+VfL9oPCiwFbc0AjnDaJB5pU7VCnL1YW1l8GUHSOv61eTO9yerMM4ygi+VYFdG+CKYEcbkR0Yw47KXbYQ2YdcORxjvvPOOfPfdd/oel9kPP/xQ3ycTJ4SLmqxl3t9fnhM55CZT40b4YQOuUNXbngJqVK6gQpQcE1XyIYzxJT6rVzN55dI+0rtVHbli6AS5adgk+Xjy8rRJf4lgJtHQAqMts8YerwVrN6mgVm3ZLe9U6nnjjTc0dw2RtpgsicglAnfWrFnRPZKDE8JFiWrBRvslLLm20XwbdhUhFWWN9FhFpHKFstLWCONGNfPvGndExwby1hV9ZVD/VrJyw1a5ZcQkeebbOfLR78tlufmcLqANZ2/dqSYL1ZZXZqsXBu+ZBHSUPpYvX66hxy+++KJmZ2zevLm0bNlSFi5cGN0jOTghXJRkr/ByBk98Q6THed62Go1NrRc8Kq0wqV+tkpopsP3ml86Na8hlB7eSZy7sKe3MsSYvWS83vvWbelY8991cmbAwGqqdRtigEtzhFqzdLJudMC5VoAGzkgYJ2llNA7dZBHCyUyg4IVxUYAfesUVk/rfeJFzzA7xgDNJTpiFM2LWoU1WFMX7GBeHoTg3l7yd0krf+3E9uOqaD2p+HjJ4vZzz7k/x75DT5bMoKydySXjmJ8RyZa4Qx+ZKZAHSUfFhpmfQJCN3DDz9c15wjqRiZ0pKJc1ErKjYs9gI0RgwU2e98kbZHi9Rr72VIKwawzNGKDVsKNSEPgnf8/EwZM3et/LY4U7o2qSWdmtRQr432japLwwSzwhU1uLw1rllZ6mREs9o5ij3ORa20wXJFm9eJLB3vacNtjjSqZvViI4ABzbhl3QydwMvP5F0YtatU1LSad57cWd69+iA5o2dTdXn7ZvoKueHN3+TywePkpR/myfTl0fwaKYIwa9zvWPTUv6II9mMm9gixxvfa4SgMnBAuCjatjtqC3xTpcbaXnKda/BVc0xVMCUzeIZArVygcYWzp0byWnNOrufzzlK7y5hV95fYTO0vdapVkxIRFctVrE+SpUXPkx9lrUmarZTTgX1EE+zETe16ItecCxz4OR0FwQrgowAyRuUBk9UyRDid6tmA04WIMaSnbNaimduPCFsaW1vUy5PT9mspdJ3XRZEIHta0rv8xfK5e+MlZXkR4xfkmhrQxSUJjUwwUObRlbMiHWCGlc41x2OEdecDbhwmZLpieAf/qvecQZYdXvGjMO38dbrqgEYbXCZCxvtH1XRCYuyjQCeL1MXrpBlqzbIv2MgG5uHgit61WTjo2qF0oe5MKESOryZctq3o4q5qHVpFZlF16dQtLZJuyEcGGzZpYniIecLnLGCyJ1Wok06BL9suSBMF6zcVtSTQb4+3oBGBtkxvJsmbUqWzIqlleh3KxWFWnToLr0aVWnwF4ehQlpRpvVrprzsMBvmYlPVrMmDwdLVjmKDieEU0TShfCu7SIrp4rM/ERk3rcix//HW6wzTd3SChMCHtZs2lbgpZLyC4EhSzO3yOLMzUZbNhrzkg0q3PZrXlt67lNHujUtvFShBaG2EbYkH1qVvVX8dx5RjPnJeOdIDOcdUVrYss77O32kSJfTPHNEKRDAgAcFyeRZ8w5hQuBHMuUJLmW99qmdY1MeceWBMuiQNlKmTEQG/zRfLnrpF3niq9kybr4ZpaQQm3woqPqQ7J58yph41pqRBSMMQsCt2YeHCwElyTD/OJKLE8KFyea1XspKJuaa9zOSqfDzBKc7DLtJFMQEXpcmNaVN/Wo61E6Fhof2e8mBreThs3vIi5f0loPb1ZcJC9fJJa+MlUe+mClj50cfmmkCQSII6GVGq8cdjixx1i2OEYYNKEmX/ByOwsEJ4cJi+0aRndtFprwj0nWANzOTUS/6ZemFfL+YBQhrRjATAFFU3hXxIE9Gz5a15MrD2qhA7tGitrw1drGc+/xo+a/RkPG6KA7J1igjwhlfZUfJwAnhwoLgDA1T/l6k00kiFasZtTA9IsDSBUwUTY1AxtUNLblVvQxpUL2STlYlU1OuWK6MHNWxgTx6Tg956Ox9pXZGBXni61ly6Su/6EKnLLeU7uCrjDDGFo6rnLdwavRLR7HCCeHCgMAMPCLmfCXSrI+5y6s7LTgXkLksi9+wRmXZp25GjqZcWNF5idK8dhW5qN8+8rLRjv9xYhf19x00eJzc+9E0+W1x+iUd8oPgxTOFoBEvwf0GDSJhlWtMGET9WbMG75O1PJUjbzghXBgggBHEeEV0OMHUankz/q0V/dKRKGjKROcRtFGQjG75pWOjanLzMR3k1YF9pH2jGvL017Nl4P/GqnacTmk548HE3frN23UyD43eTvDxft7qjerax7VgzsCt0CW8Tz1OCBcGTMitm+eZJJru7yVtd475+SbDaMhoxR2NIMRcwWRfMqlhHgAkrX/p0t5y87EdZf2mHfLXEZPkH+9Olld/XiCTl2ZF9yx+IHTRnjFnMMmHUCavsk14T8KmWIuqbjEC3i24Wvg4P+GCQtL2VdO8CLkMI3z3vUCkYReRcs75vjBBo+NFoEYqwoIRXtOWZcm4Bevk14WZsjp7q3RpWlP2bV7bvGrpklElCXKG1KhSURdXtdq0FcBMrGJKyqhUTsqRgSkKz0qiA9OReH7C8+bNk9atW2uSd1bWqFcvuaZEJ4QLCot4rl8kMvQMkXNfM2Pq5iJ120S/dBQFCOLN23fq0JuQ5lT4zhLpNnHRevlt8TqZtHiD7DYCioRE+7asLT1b1JbaaRStl0zwfmHyNd2IJYRHjBgh8+fPl1NPPVWmT58uWVlZctxxx0mDBg2iexQ9zhxRUDBBzPtOpEkPbxXlaslrvNIK3hRM6JHZDU+Lrk1q6AQbZoxkgZA9vGN9uenoDjL4sj5y34Du0rFxDfl5zmr585BxcuNbE+X935YWC0+LwoTrnb0yu1is4bd06VL9W716dRk/frz0799f9t9/f/n99991e7JwQrgg4JJGqPKMj0Q6nuS5pBXzbGnFkTJlykitqhV1Qo+VQVgzj+FyMmlep4qc1L2xRusNv/JAueyQ1hoFd89H0+XBz2bIm2MXy89z1xabCb6CsNUIYKL/WDaKla+nLsuSKcs2qOdJOvHkk0/KihUr5JdfftHP27Zt01eNGskNcU9rIbxkyRK5++675fHHH9fPWE7++c9/6vsxY8bI4MGDJTMzU+bOnSsvvfSS2naSCl4RWeZpyorKLfoW25zBJQmS0bNmHj7IXaO+yAhlvC34LlkQrXdxv33UF/nkHk1k1+7d8sXU5XLjsIly4Uu/aIDImPnrSmw+YszH5BPZvmu32vAxeq7I2qrJ8dmWDjzwwANy7bXXyoABA+Tkk0+Wzz77TKZOnSo9e/aM7pEc0loIb9++XW699VYpX7687NixQ4YNG6Zaz8aNG2XatGly4YUXyuuvv65230GDBsnIkSOjv0wS5IqY+ZlI26NEylUQqVIn+oUjHcBBBY0YoYy3BVoyLnDlyyW32+MDfWHflvKvU7rqytR3n9ZVGteqIu+MXyTnvzBGnvhylsxbvSm6d8mG5PjkYMZ/mSCTdFjp+pRTTlHtd+DAgXLxxRdLuXLJnVxMayHMjCX2mfr16+vMZUZGhjRu3Fg2bdqkdhwqa7fRMMr6ZmiTxrZomPLMT0XaH+cFZzi3tLSHYJC29VklJHVdH7MJLnAPnbWvJq+vVrmC/P3d3+VvIybKxDQPECkM0IrxuCDIBJMFOaL9L0wXuMuVluT4aS2EZ8yYoeaGc845R9atWycLFiyQn3/+Wf/yWrx4sS5VjcaMprxrVxKfqlvNzbJ8ormra3tJ26uWjmxpJYEKRhMmsVA6JIJvUKOSXH5IKxk6qK8c0bGRDB29UM55frQ89+1czZpWGkH2Emwyc+VG1ZZLsAOXktYuatiE7QzmvvvuK5UqVZJly5ZJkyZN1P47e/ZsOeyww2TDhg0yceJEteXUrbsnc1mRuqit+F3km3tF6rYWOeAqkVotol84ihNEjZG3ghdBIdho2YYLHIELO1Ngv1y8bot8MW25fD19lbSsU1X2MZrz/i3qqAtcxfKlb7TFiiQkgsL7BT9kFlnlRVshvliXMLeJWJfUPUUUmRDelmUe1dO91TPwDW7W23lFlEAITiDnAkPnVMDk1qwV2TJ+4Tr5bdF6mb9mo/RoVlMOaF1P+rWpm5LQ7nQFMxO2fwJJeJgGE0I5IZwiikwIr53jpayc/aXIyY+LNOwa/cJREiGXL8I41TZKND+SCk1YsE5+mbtO+neop5ohmvJ+LWqrtugI5/7bb5bszDUy8oP3o1vSh7S2CaclhClvyzYqyueeV4RL1FPiYa26Lk1qqJeDelg0qKbBIskGF7u+rerINYe3lSGD+shRnRtJZSN4P/59uVzz+gT5+zu/6+ohH09eoa5gjuKBE8J5ZdNq77ViskirQ0SqOre00gJDXAQh2ieJhTo0qq45FlLFPnWryhn7N5P7BnST5y/uLRf3a6VRhNOWrpf/+3CqnP/iGHnw0xnyzYxVOtHlSE+cEM4LpKskY9qi0eYOONjTgiuUrMQtjsRhwc7W9aupDzJLOiUzGCQIieo7Nakup+3XRP52XEcNpX7wzB7StVlNGT1njWrKV782QZ7/bq6MW5BZYoNEiiNOCOcFBPDunSK/DhXpfrbTgh0KE2Qsboqpgig93N/QlFPpiwzk0zixW2O5/aTOuvDptUe0Vy+CEQSJvDha7nxvinwwcVl0b0eqcEI4L2xcJTL/By8wo35HL2+ww+GDeB0myLAZt2tQXVefRiCnA2jKF/RtKf8xGvLrg/rJcd0ayZxV2XLZq+Pk7Od+llvf/l1e+mGe/FKCw6nTESeEE2VrlpesZ8rbIl0GeGvIuZzBjlzAXQqBTLh0Ks0VQdDSD2pbT1cSeeXS3vLypX3k7N4tNHrv7QmLVVO+6/2pMnLSck0A7yg6nBBOlGwzbFs7W2TDEpE2R3jasMORIPixohkTWIC2TNQePq3YldMBogdZjfrc3s3lIaMpD77sADmiUwNZnLlJHvp8hmrL3qoihBZn6Tp2jsLB+QknwuY1IusXi4y6z/TWJiJ9/uStnuFyRTgKAdZ7W5W1LW2yi4VB8nxMFyQamrdqo8xds1EyN22XZrWr6m1Qv3ol8z5D9m1RU7X+dCOd/YSdEM6NXTu95YtwS3vzHJHzhok0MgK4WqPoDg5H4UCehBUbilfiGhLtUGbSVM43AnrsgnWyY+du6dO6ji79tH+LWklNth8LF6xRnMlaIhLZJTJvlEir/p4ZwiXrcRQBdTMqSruG1ZK+7H9BwN5NTotjuzSSKw9ro/ZlVhlpUSdDpi3bINe++avcNGySfDp5hS7Hn05MmjRJnnrqKU3uvnbtWnn11Vfl5Zdflq1bk5t43wnheBAZR+J2TBETXhU54Eova1pZFx7qKBqwETOcTxePivzAKiOn7ttE/nwoQrmPDDy4ldqW7/9kugaQkD/5+9lrdK3AVFKrVi35y1/+ou8ZLZ9wwgmaBAzhnEycEI4FgRnrF4rs2iHy5V2eHTjDaMBuDTlHEkDDJO8wf+2ruCbsYZWRK/p7WvKDZ/SQlua6vpi6QgXyX4dPki+nrZQZy43Ck2Ratmypmm/v3r1l8+bNutIyLxaNSCZOCMcCLwgE8LiXPHe0Tqd4f8snP2eAo3SCLRWN2L6IzNunboa6vRVX0JJP26+p3HNaVw0gOat3c1m4dpM88+1sGfDMT/KPdyfrenzj5mdq4qSiZPjw4VKlShVhtZ6DDjpIPvjgA/nuu++kb9++0T2Sg5uYC2PrBpF187wJuY9vFjnzfyLVG4nU7yAuTNmRapi4W7Z+q3pVlCQ2bd8lU1hZw7zmrtqo3hhVKpaX/u3rS1XzlxWum9auKm3qZ+Q5Y1zYxBxL3ZPeEnr16qW24IoVK6o2nEycEA5CWDK5grdminx4g0gXowF3OtUI4caeIHY40oStO3ZJ9radaltl7TbsyRXLe/7H2Vt3lIioNxLcL92wRRat3WwePJtlaeZmmbt6k9TNqCStjDA+pF19zXIHJH+vZ0YMDUPs6c5FLUXkSwivneslbf/0Vu/z8Q962i9asMNRTOC2xm1szcaSpS1b5q/ZLPNWb1TBvGHLTsnaskOyzINn+Yatsm7Tdmlaq4r0blVHNWj46dX7peKObPnykw/1czrhhLCfzAWeN8TUd0UmvumZISrX8PJElC++s9WO0gsa8mKjPe7YVWJv8z9AYMny9Vs0AIYH0cqsLfLz4AckY/cm+fbzj6J7pQ9uYs6yfpEngDPni4x5VuSYf4tUqiZSs6kTwI5iC5N7bRtUl0Y1K+e6DltJgbSeLetWNZpwbTm5R2MZdEhradewelos7BqGE8KQtcxLU7l9o8io+0V6Xeppv5VrilR1OSIcxRu8KVh/rVW9jJxUm+RBti88L4qzx0VxxwlhAjJIUYk72sd/FanVUqTHBSLlKnjvHY4SBHkedOVi3wsfZFJu4gKXDiHGpY3SLYR3bPFc0QhL/uqfIhWqiBx2m/nC9NTarUztuMg4R+mBYBACRNo1qCa1Myqq/6yj6Cm9QhjNF08IIuN+eMxL0HPsfZ7gxRWtYkZ0R4ejdIGLW7NaVaRjo+qqHderVlG1ZyeTi4bSKYTRgFm2frcRxNM+EFk8RuSEhz1NmCWLnD+ww6F2YrTjxjWrqB3Zv3QTZgunKRcOpUsIb9/kab+rZ4js3CqyZpbImGeMBnyvNwlHWLKzAzscMbFLN2G26GQ0Zd6zCrUj/5QeIYz2i9AlEANwR/vs7yL9rhGp197Tguu28b5zOBy5gvBFK8Zs0cgIYwQ0mnOdjIqa5N0J58QoPUKYyTcLLmmf/E2kWW8vMQ9rxdVtJ1Km9JrIHY78QrgwQhdTBTZkotUQyghn7MmO+JQuqYMW/PNTIu9cLtKgs+cJwUQcGrDzhHA4ChWEM/bk9g2rq8aMlsxip86UvDelRwgTkvzOIE/rPfdNkUNu8pwma+/j0lM6HEUIghfbMVoyApkJPtzgmtWuoqYLJvn8LxZBLU2UnqtF2J7+gsgBV4hUqeVtq9HE9JAa3nuHw5E0cIOrXbWimi6Y5PO/OhhBTYRfUcOSRoMHD5axY8dGt6SG0vXIscIXqjUUyXCrZDgc6QYDVHJdoDXbLGi4y6FRM/nHX7Tlgpo13nnnHbn44otl8uTJsmNH0SaQj0daC+ElS5bIww8/LM8//7xWEu8feugh2bJli7z77rvy6KOPyooVK2T06NG6YF9CTzRc0bAHowU7HI60BWFLAvduTWtqWDVCmck//jLph1mjg/mL1pyf3BckccfXuXLlyrJ+/fro1uST1kKYLPfXX3+9bN++XSvs8ssvlwMOOEAmTJiglcZ3b7/9tgpfFuxDGMdEcwJ3FKnT2mVFczhKCCSyR2tGSAcTE/lf5MgoX3ZvcVepUiVV6DIzM3XRz1SR1kK4QYMGMnHiRP1bvXp1XYDv119/lXbt2unncuXKye7du6VsoHJDwf0MX2CHw1EiCSYm8r/wWQ6aLzBFsKbciSeemPQljfyktRCeMWOGPqXOOeccyc7Ols8//1xuuOEGqVevnixYsEAWL14sDRs2VE0Zc8WuXT5fYIfD4YgDi3wed9xx0qpVq+iW1JDWQrhatWpSs2ZN+eWXX3RJ6m7duul7BPMZZ5wh06ZNk9NOO00uuugiGTVqlFxyySXRXzocDkfxwC1v5HA4SjxXXnmlrqzMhH66kdaasMPhcJR0nBB2OByOFFKizRHnnnuu/Pbbb+oL6HA4Si+IuapVq6o8SDdKtBBeuXKleljgQeFwOEovWVlZUqNGDenYsWN0S/pQooWww+FwpDvOJuxwOBwppEQLYQI8COoorkyaNCn6TmT27Nkaug3Lly+XNWvW6Pt0ZeHChToEBLJVLVu2TN8TVIOJyOK/xnRm9erVmqcECHWdM2eOvofff/89+i49ICGNZe7cuVpewDyHmxZs2rRJ5s2bp+8ZDPt/kw7EqlP6Ef0J6F/0MyBydsqUKfq+uFHuX4bo+xIFN/sbb7yhUXTr1q2Tpk2bRr9JX+655x6NZydnxieffCIZGRmaDwOhS1QgASnEuBO6PXXqVGnevLlG/aQDlOf+++/XCCRyeyxdulR++uknLSPXwkOjfPny8vHHH+sECYE2hKRzjT///LN06dIleqTUwY3/yCOPyNFHHy0ffvihCiludMr99ddfa0IpwuU/+OADDXNFwI0fP16vgWvt2rVr9EipAz9Y+s+QIUO076OIfPPNN1K/fn3tSzzMec9+XBfXRP0TGDVu3Djp1KlT9EipY9iwYdpH3nrrLZk1a5YqHwRo0Ra0EQ+MJk2ayHvvvSc7d+7UPDLffvuttgP3RjrafeNRYjVhbiDCEbmhiLIrDvCEpxMRHYjQIlkR2gta10EHHaTZnr7//ns55JBDpHfv3mmlgSFEW7Rooe/HjBkjRx11lLRt21aF13777SeHHnqoBs2Q5+PAAw9UYWCvES0zHejevbs0btxY32/YsEG1LkZSaOt9+vTRctsHIdeDRp9u1zBgwADp3Lmz9pWZM2dqOWvXrq1Cij5EWb/66itVSviOByHXynY7Wkk1pCmg7/AwQfDysOOhzsOdMtOfvvjiC2nTpo3e3zxceNj069dPUxkUN0qsEEZD3LZtmz4pacziwGOPPSZXXXWVagI2KRF/rYsd2j2aGFoxQ0y0hXQEbZ56p4y2vLQF2pbN70HyJXtdCSVgSjKEwpO1j+vgBrfXwAw7f4Fy27JzPekAJhO04KuvvlrNDGDrnr+0CakA0C75Hm3YtgPv0wEEKfcA9wKZEi+88EJVRKhjroEXD0L+ck/wwLHXkC7tkBdKtHfEiBEj9OY57LDD0t4cwc3+3HPPSd26dWWfffZRbZimoXMxfLT2uyOPPFKTUXPzX3DBBWnT6RYtWqTDQ7QthopojAzZyfHx5ptv6vXxnu1cE2YK7JNWiKE5pxq0XkwNjDSsJkw7kJOEa8DuiJb22Wef6XvMDwznaSeug7ZJNc8884z07NlTH9DUP2YiynbssceqYKO/nHfeeWpuQYChAaPRsy8vNM1U8+STT2q5uAb6FfZrMijSfzCjUM7zzz9fhg8frtdAvaPRc508bOiDxQnnouZwOBwppMSaIxwOh6M44ISww+FwpBAnhB0OhyOFOJuwo1iC2yGuVngrMNHHGoN+cOXr379/9FNsyDfNJGGPHj2iWxyO5OKEsKNYQgBInTp1pG/fvvoZt6b3339fXeBOP/109Uk+5phjZPDgwequOHDgQPUqIXCH3+BxwiKxuC/imYHPNX7aBx98sOy///56TIcjGThzhKNYgvaLSxzuTERWWZ/ka6+9Vl555RUNZ8Vnlv1wuyLiCncm1igkag93rZtuukkz7OEzS9QYblEvv/xy9AwOR3JwQthRLGEAh8aL0CVvNNigHOt73Lp1a11Rl7BdfGHtdvxPEc6A/zJBCpgkEMKEjjscycSZIxzFEr9NGDAjEICAbbd9+/Ya/k0YK/ug6RKg8Omnn2qwAiHICOIff/xRAwEOP/xw1ZpJAENQD0ugOxzJwglhR4mAPAkIUaKqHI7ihBPCDofDkUKcTdjhcDhSiBPCDofDkUKcEHY4HI4U4oSww+FwpBAnhB0OhyOFOCHscDgcKcQJYYfD4UghTgg7HA5HCnFC2OFwOFKIE8IOh8ORQpwQdjgcjhTihLDD4XCkECeEHQ6HI4U4IexwOBwpxAlhh8PhSCFOCDscDkcKcULY4XA4UogTwg6Hw5FC0kII7969O/quZJCM60l2nZWUNsrral6Ffd0lpR5TfR0lpR4hKUL4888/l8MOO0xOOukk+de//qWvm2++Wfr37y9ZWVlyxRVXyIMPPhjdO/ns2LFDlzvfsGFDdEtsDj30UF1i/frrr9cVfi+44AK56qqr9PpGjBght912mxx55JHRvYuOZNXZTz/9JH379pWhQ4dGtxRPXnnlFWnRooUsWrQouiV3FixYIPXr19f+UVDmz58vJ5xwQkr7eWGwbdu2pPXxMObNm6crZ1955ZXRLSUAFvpMBgcddFDk8ssvj37yePLJJyMrVqyImBsjsmbNmujW5PPUU09FKlasGFm/fn10S2wuvvji6LtIpFatWpGXXnpJ3//666+RJ554IvLee+9FevXqpduKkmTW2eGHHx559dVXo5+KJ7t27YqUL18+YgRrdEs4o0ePjr6LRIy2FZk4cWL0U8G55JJLIvfcc0/0U2L4y5NK1q5dG5k1a5a+T1Yfj8X//d//RS699NLop+JP0swR1atXlzJlykQ/ecMJI9CkXr160rx5c6lRo0b0G49NmzaJuXGin3LHaitbt27Vv2CuT7Kzs6OfwhkzZoy0b99ejBCObvEI034oM1pAGPvtt58cccQRUqFChegW7xoog5+wMnGdbM9L2cPqbMuWLdF34XBMypQbGzdujL7zqFSpUvTdHtgnbEgYVmbqcvv27X+oCwvXH1Z2tC5eQYLH4zPv/fsGy1e2bFkxQjj6ySNYH8uWLZOzzjor+km0v3bt2vUP5Wb0FoTyQFibW4J9IwjH8PeBb775Ru68887op7wRPJYlrN1s2WP1N75nxEf9QH76eJBE2swSPFZYf4zFzp07/3Av2+sN9nOgPMH97Wd/ffI+P9cdRspswqNGjZLJkyfL4sWLteP/9a9/jX4jcsMNN8iwYcN0O0O4//znP2I0EhXY/G758uUyYMAAOf/88/Xmvf3229U08M9//lPq1Kmj2z766CP93XXXXSennXbaHyoW6EAMt48++ujoFg+jnUvNmjV1COmHG7lTp07RT3+EGxY4l9F41PzCNtvRwsrEMB+B+sILL+hfbrzcys4w2V9nCIV//OMf+ttTTjklVEj8+9//ltdff10ef/xxufbaa6Nb9+b777+X+++/X4ymo/UZNnTfvHmzmpPM6EGMNiRffPGFbh85cqTce++98tlnn4nRnLUNxo0bpw8ntrMv7RPk5Zdf1mt/5JFH5Oyzz9abht9ybZSDcvOwDjvejTfeqL/BNEM90Y6xyhckrD6+/vprWbJkiTz99NPa9pgwaJN169bp91999ZUKxY8//liOO+44+fLLL1Vo3H333dKzZ0/573//q/21d+/eun8Yc+bM0X7RsmVLMdpczo38zDPPaFn4PW3Acd98801ZuHChlmf16tV6PWeeeab2W665VatWYrRTfYjRH7777rvQY0FYvXBdDO0vvPBCueOOO2T//fff6z60cJ9OmDBB2+PHH3/UbXnp436WLl2acJuF9am8MHjwYHnnnXfkxRdfFKM960OEc1500UVy2WWXabkpP0KZ8v/pT3/SOqRd3nrrLT1fmGzhPfcKJtVPPvlEz5WIvImJ6QRJwXTaSPfu3SNGk4yYwkfatWsXMQ2q3/3tb3+L/OUvf9H3P/zwQ85Q55dffonUrVtX30OXLl0i5kbQ95gyTIfU9+amiNSuXTtihE9k5cqVauI4/fTT9a8R2JH69etHjFDXff08+OCDEfM01PfVqlXLMUeYGyDy6aef6hA2Hn5zhMU0RsTcHBFzo+jnxo0bR8yDI2aZ2I9moC4yMzMj5qGUUNn9dWY6acRoKvoes4i5ufS9HyO8Ihs2bIiYJ3jEPEwiRthFv/HgN+xjMTejlhtoO2uOuOWWW7RuKN8DDzwQMQ8l3T5o0KCIeQjo+759++b81ggkHYKbjq7X58d05IgRAPre3ASRk08+WU0sppNrP7GYTh0xN4O+Dx6PejjqqKP0O9o+VvmgcuXKOeaIsPrgN/5bwrYNZaJ+GjRooH0MMFOYB3XECMfIzz//HDE3qH5H3+H9jBkzdD8/1JG9XiOMImYkE3n33Xcj5kaO3HXXXXp+6oTy0PZGEEQOO+ww3R+GDBkS6d+/v75ftWpVJCMjQ68BbP3EOlasernvvvsiRhBquSdNmhRp1KiRbg/SsWPHyLfffqvv89rHgyTaZrH6FPskYo7o169fjgnFPGD170033aRlBNqrWbNmEaMIRKZPnx458cQTdTv306GHHqrvg7LFCOGIGTlHzIND+yDyKtHrjkVSNeE+ffrok/nhhx/Wp2q5cuV0u394YcokM2fO1Ke71SwtfnOG/z2/b9q0qZo8zI0io0eP1t/z1EbTffbZZ8U8AKJ7e5hG1+OjeTEhx3n5y1ORY6PpoPnmB/PgkKpVq+p7JoM4bqwy2Ws3nVyMUJfx48fnWnbw19lBBx0k5oGlmg/HMJ0m+s0ejHCWadOmqXaBlhUcqnI+85CLfhJ56KGHdLIxCJOsa9eu1f3btm2r2hCgbaDdoXlwvWhrQDm5NoawlM3P+++/n3MOzEEffvih1h3aBVqZheuivSB4PPsZaPtY5QuSW32Av45pP0Zi9DHo0aOHGCGo2yk77W1Nbk2aNFGNOgxbVvY5/vjj9feUGc2JMhvhKsOHD99ryG9BC/799991corREO389ttv64ilTZs2uk+sY8WqF8resGFDLTf3kBEk2v9yIy99PEiibRarTyUKGi+Tys8//7xq0sD1ckygvcyDX/sC5fnggw+0n2Gi9Pdfv2wxD3IdjdE/uUa05ESvOxYpM0dww1NBQRAoDI/ME0uHdwxV8woNhv3vjDPOyHnZircwxGJIirDlxU3Ifgx9ChP7sEikTJDofn6MFq/C2zyBdVjMtQVhNpkHjnliR7fsjdEqxTzpo588eDAFoXx0MFs2jkfd/e9//9MHK9u4QRMh3jkRBhaGgVWqVIl+ik+s8gXJrT7C8JcJ8lKuMBDqvCiz0SZzyszLCjg/nOucc84RoxHrAwwhxXujdeXYsmMdK9F6yQ957eNBYpUtP33KD15LZgSnQh1TQxgogtw3lAEzCQIWwRqPN954Q01kmDKo//xetyVpQpgnBRpHGGy3Nx+2GZ6s2AiZBMP2a8FOi20MePqjtQK/9R8bQYTdzgwV9DOaAxqDHzME0ieYffGkw+aHTRXQLMOEkJ+wa+I3fk2CG51tscpkz2GPk0jZwV9naJBo7djAsHVZO5Vl9uzZauMyw7OcyQh/GYEHohnu5djj0BKpD+A89lzY7LA/83u2YXvkGrEp4r4HnMMen32CdWThgYv9ErsnIFiYI6Bzo6FaGBnZfhA8XvBzrPIBn3nFqg+0HLDb7HH5DfvCzz//rH8REvQ/6i14ffbcuTF37ly9LspMf0dzBdqf+qc8wYmeyy+/XDU77pFjjjlGNWJsuzyIIdaxYtWLv+z+NgviLwvf230htz4ehH0TabN4fYoXsO3bb7/dqzyW1157LUfTRZhb/PvSnthwGTEgexo1ahS3/6Kxc4/8/e9/1z6E3T7R646JOUmRYwqt9jTswNauZJk/f766QGHrw46GbQabGvuaxlFbJ9vACJmI6XwR86RR286+++6rtrkrrrhCXcyMMNL94M4774yYYZjab/785z//wQYaBPuutQkvW7ZMbWlz5szRz0FMI0XMkINeoPZS68aEvYhzYV82Qxp9YfczT2G1H4WVyWgzehyjlUesjS23sgfrzDR4xAy91GaGLdXc3NE9PbBftW7dOnLIIYeoLd08pbVMQR5++OGIGX5pHWMTBuydZrgaMVqC2iGNANNy0Ua0jxmC6X7nnXeethllNw8ytV0aQao2faOlqa07iBk263FpO45pNAzdTj1yPbgicW3YO6k/87Dc63jYdw888ECdK5gwYYL+Nlb5sPtRz/fee6/aUWPVB3ZEo4lFzMgiMnToUP2NEQo6P8B8xLHHHqsuWv/6178iZuipv7n11lu13jgX8xi8v/766//Qbkaz03bjuNS1eejodq73+OOPV5t1t27dtG8B9kXqnrbgveWII47Yq6+MHTtW30OsY4XVCzZ1rsdoodpncLHkekeMGKG/8WOEjtrRsVPntY/7yUubhfUpzoe9tnPnzpGpU6eqbOBefe655/Q3fsxDSuscG/bdd9+t27g/evTooW6p9AVbP+PGjVPbL33r6aefVns7f4OyhfkB+gjHpL7s9tyuOx5l+M9UfNrA0wR7TIcOHcQIRX1hZ+GpCHzHU9lc5F42uzBMh9QnmtUS8gJPw/z8LjcSLVNeys6TmiEhGlGsYRv7oL0xNGU2mrqzNnk/aAPYFHM7r+mMei47FAVbZ5Sb44QNqcPIysrSobbpxNEtHpQTDZ/2zith5fMTqz7YjoYb75zUsxEY0U95B20qrJ3o65QHu6WFMvLZPz/BNls++kmYSSTsWJBbvcSDew87eG7k977Lb5/CQ4QXIyg/tCW/QcTZ36HBUn94Y7DN3+coN/VFP0Drt/b/IBwPEwTf+++h/F532glhJu8eeOAB9bnlgiZNmqS2OCZnHA6HIwimBkwKiTxYMEPy0MUdLl1IOyHMTCmzi0zY7LPPPjJw4EC1fTkcDkdBYO7h6quv1pEO3j/77rtv9JvUknZC2OFwOEoTKXNR84PtJhbxvssrhXksP9ink0FRlb+wKS7lLGpSXQ+uHXKvg2Tdu/FIqRDG6E7oH65KYeDCwwQIBu/CoFevXurOVVgwiYjpBKf7Rx99NLq1aMCRPF44bEHAzzRWcEFeILQcWz6hpukMobP4jxYVTLzhhxycKEoWuKQde+yxad8ORQlumgRgWLexIMm8d3MjpUKYWUT8LBHGYbRu3Vp9APPrEM9xEQwWcgUE80QUhEsuuURf+AQyMVDY/PijF6cP2MUpf2FDBCPRX82aNYtuyT/Y2Ag+SHcNjAioAw88UJ544onolsKFGX7qorCUh7zSuXNnjaYrzZowE/l4iMSiqO/dvJB0IYxrhx+/Cw0uMH6Y7ezWrdsfOhMuTWH4HdsZZhDVgqO/heQ7RLYkSqzzANdBkhdcmwgi4YERD1xlAPeYsCEQbmF2H8At7y9/+Uv0kxctZUNT/VDGoFmf+uIc/GUmOBZE1hH8YkNIwZaB3/vLQ9uETR8EgwlycxvE4yXYzmFQdv/5gQkVsK5AQYJlAXuM4IO+ffv2OlGDa1M84h0z7DvKzbmC7nZhhLVdPOz104diwXfsF3b+sP4cq36A74L3HsS7L8D2v2A5c/tdPOjHwTaPdR6uhXqN1QZ5vXftefgbdj8F7928kjQhTJQPOSMwBzBktRmfgMol+xBRSYT7EeHCNqKp0FqWL1+u+5G1Cs2NjEjsa8NIx44dqyHIDEGIESfDETH2ZN3C24JoljFjxqjWTRg0T0giaah8e2x+f+utt+r7WOex4Lnx5JNP6nv+cl5CGRGUfEfEDJorDwE6A8ci4xVDYMJLiXay4bo0LMNGtNy77rpLn85sIxKH89qMXmRuwnfagpZMebk+oq7YDwi7ps5wwRk0aJBquFxPGHfeeaeGbFvQDAnhJFafkE+8U6g7ykcoKdodnRGIyqJNSWTPtYYJRR4i11xzTU4YNVnJGPoR00/dcJ1hYB6hrohiIkKMDk42Kx6ilAUth3wHZD0Drg8/crLIsVAAUWSERFOXREAStkqfC+bCOOqoo2KmJg27PgQ2yf8xoZFtjNB7/E0tQ4cOVfdKG0kVi1htF6sP8dCh/XlY0q6MNujffigfdcAxOJ6N7APqg9+TBoBRDw/43OqH6yKCkr5LBBuEHScI5+ce5t6lvbg/wn6HcsSI4W9/+5sKTcKxeTDahyLtzrGIoCTjGuYD+qCNBg07D37GyBH6LHURpgmH3bv0T3J50NY8KMjiSN+HePdT2L2bl4dqDuZHRQ5RV0SSWMhoZBpAI3aIGiJShigmIDuSzeZlGocriixZskQjVUyn1ExFvIhaIZKI35FpynRC/Q0RMDYKhugbInwsRCsRKQOmsTWyiWOBqUw9X6zzBKFMlM08hfWzuVH0sz0eEXDnnnuuvjcPFU0oTsQZEPFDBBc89NBDkddee03fcy1E4FEOInLMTafbwTy0Iubm0/fsRwQiZbCfq1evrvsAEUxEdYHp/Bp9FgYZs/xRgUQKcg02uu3GG2+MHHzwwZphC8g4ZW4gfd+nT5+c/Yg4++233/Q9WcKIJvvggw80Q5iFbFhEkVE/5qbUKCSuMQzaicgzIKMV0GeIYqJ9gExhRL0B2eTMg0Pfmxsh8thjj+l7I/AjPXv21Mg82ocoMn80Ie/NzRf9tDexro/ILa4DiFBs3ry5vjc3spbbYoTXXhnQLPHaLl4fItKUOuN3ZG6z/d1CdBdRWxYi4WgHoD/T3zkuGQy5LyBW/ZgHrV4XZQPbBrGO44ff0teJujMjnogZLcT8He1mIxX5nvZlfyCzGv3OPMy0HwLRb6eeeqq+DzsP0W42Wxr3JfdBMEIXgvcumIdrjqwwAn+vbHKx7qdY925eSYombG42ja+28NTl6Y52CjyFzIXqe556psPrkNUftcS+pryqRfBCG+HJSN4HshvZiCImRGItfeIfKrdr1041jZdeekm1O45NNFCs8+RG0FHc/xmTC2YQtEwgRy1PeEDrtBnDqAOyOIVFJfnLTl4LInV4QgO/I+mI1RI4H0lcwH8uP2gf5qbQ4ZjFmoZsFjaOj9Zlr8Wfu4My8B5HeTRVv4mB0Q7JV/z1Rtk4DnVKsiE0GTQfbPZonLys9kgCJ5bPQQtjZANcPxFKaE+Ahoi2iLaDRoOGin2PSTdbFq6HOqfu6Utci78uuE5yzIYNk2NdX6y6RXvHdGaxbR0kXtvF60OUn31tm/gj6IC6I/mMxZ6fdp46dapqztQ9IzsbfRqrfigfWjHXQ50yyRfvOH74LcdDO7VRarF+9+c//1nrjSE+eZaZhEcbJe8Fdcz1s5QYo1TyihC4ZdsheB5MD+ahn1MH9BcrUxLBX9fBdojV5rHuXdrS9mn/iD8WSTNH2GG/hRsgLASRTsGEXfA786RRYenPVESFE0JqE8BYEKKJQDJvzBM0sBUYsc5TVOS3/Ay9KKeFDhxWn7Ggjuk48WzGQfydkzX2jEah9RYM00SAkiTHDvuAeqXN/fWKQGFIx3XwsiYNkhDRwYcMGaIP7DCzBTegFcwI9Oeee06PaYeRiYAiwDHCHnrxri8MBHaiNs+Ctl0Ysc7PNkwPJ554Yk69Y4rLzYbJQxSTC0oRob75PU6835FKlhdtTVIc+gtmKMw6rOQBCG/KwIQ63k2x4Bz0n0TboDCIde9SDtunw/pukKQIYSodjZXOB1QYT94wl6spU6aoJhR8GtEA2IUQmEBlWw2IrP9Wi6Iz0oEA+5p/8oQK8Qs4bIJ0fp6+zChDrPMEsZVr/yIUuJlt9iq0NDuREhSqNJLdhhaE/c3ar8j8xAMrXtm5ZgSazbELCD07y+s/n/9cQbBp2iVrILgfn/2dyH6PjRr3HoQt36OdWAHKPtQDGhR2MuyKQDg6djXcDgHtiDpGk8BuzIt2hyFG+DJKoV3RbNGSwJ4D0DC4odGIyMCFLZg+Q535y+InWBfYB7Gzcgw/uV2fxV8e+jK2SNuOPNzCBFS8tsutD/nbIgjn52Fky2fPjwaHkMemDpSZFSCCdQF2G9eLSyRKCvZbsvPFO04Qf1lz+x3aMJox9wGCmrYmQ6LV5JlD4MFKvfjbFvznIfsZWir3D7CdCbuwNrC/8dcno7ywegd/PXF++znWvYu8s33ajuTiYg6YFMhyZLQKzTpERiabQYksSGRxwj6FfQW7FvYdME8SrjbHfkZGfTM0iLRp00ZXYTBPIt3+zDPPRIzQUvseWblMB9Tt7I8tmkxlZMUiOxg2JTOc0O8BWxp2Jz+xzmOhfGTBomxGk85ZMQI7Fr8555xzIqYB1PZFhijsl0ZAaFYxbF/YMo2Gp7Y902hqjzIPJc0sxT6AjQm7FBmZKLsRNGoDs7YpM7RTG+Tw4cNz6g6wiVEu9jdCJnLSSSfpccg4FeT111/X1UXAdMjII488or812oiWC7ui0Va1rbDrmxtB7XjYZbFXk8WNlRmwcbM6A/Y3MzxU25jRECLXXXed/oa2Nze2Zr8zw0bNgIWdnXOGwe+x62NzNYJA7Z9cL21MXZJNj+xW1B8MHDhQbZis2HDllVdq5i0yntF25gaOmAd75Msvv9Q2wL5IvwJsx7RfEHPjhl4fWdxoO1ZgoG6N8ND6wh6NXZW+x7mNJq/v6ddk/QoSq+0grA+x4gV1advGlt8PC78yl8KCutQBf41g13uHLIbMJxiBqCtUMEdhBEfM+qHvmYej2vTJ+Ea2MAg7ThDzANVy3nDDDTn2+3i/wxZthFmOjZt+y4ogFlauIcMhbcw9h/2c9g87D32fvk4/w/Zs+wTnsMS6d43SoH0d+cD8EHZ7bOHx7qdY925eSZoQBm66oECzGI1zL0M5mKeRVoAVysANYivOD/vSsYLkZijn5rEdwE+s8+QGHZjrDF5Lbqxdu/YPNxfHoHzx4HexhFkicMNSd3mFc9p24ff2wZcb1E9u+9IeXDt9woLgovPHamf/vv73saB9SZMa1vaQ3+vj3Bw7kfaP1Xb57UNgjxn8LdvsxHAiUC+Ug2vxk9fjWOL9zi8kw+qZduD3QJniwX7UAeS1/jg318s9F/agi0XYvZsX0jJ3BCYFU/E6bGOYGbZShKNwoK5xHWMlk0R8W1MFboe4c1mTVkEwN4y642F3NII9utXhSA1Jm5jLC/gVYh/EFot90FF0YHvDLxI7fbqCjRKPCybh8B02mkr0m/yBDQ9/UieAHemAy6LmcDgcKSQtNWGHw+EoLaRMCO/2uYekK+kwSCgO9VQYBK8zmXWfLnUcLEdun/NDfo+RLnWUTJJ1zSkRwvjT4RNY2BCRg+8o/nt33323xqUz4WT9TPMCDuP4HWKPTCX4seJjXVLBD5WcHtQ3MElIbg18RYsaosCIiCzspbNuvPFGTWOJny3Hxm/Uvsd3OgzmQbDPY+/GT/W8887LifwM1lF+wPedvA3Wbxvf6kRTbRbV/ZruECTy4IMPRj8VIdiEkwE+lhZcTvCfLQrwD8TH0UKuCNO5E3I3w9UEP15gf6onNxe3guKvlzDw4cyPC1lxAp9Z/F8B1yj8ockvkR9yq88g+Ijjp1qYkA/Bul3hq0s+DaDf4/cchtG6clbtBlaaJo+KxV9H+aVDhw7qPw2s0Iw/bdAFLYyC3q95bZN0Ad9r64NclCRFEyYqi+xhFsJAyYAUJCvrjyGHRgDpXzRSU159Hw/crPxx9WghuGGR6NqP6Xx7RdNwHlyWbASZ312L/Ww5gjBkMYJD/271pdQL06ApP653lmC9AJoQ+9myEdUWBA0uCOdOpH7iESyfhTJx/f7jh7WVH0KCqZcgHD84zPPnxaDtiBzzE6tc4K+LsPqEWGXlmLm55YWVFxc3tlEnYf0CzwsiQoPQ79GugPb1e3kQ7UcIr61jf51A8DMk2labN3tpIP3XSsg4eRnIi2ChzcII3q/xrp/v/NdFZjuy9fmhbMH7I7c6DevzsfpFrOvIjeA9xEjYn38itzLmdk/EIilC+Ouvv9Y4fFLs4fPLUAiTgcU8nbWhCPsktSKp4rhYTAok/iEFHkO5sDDneFCppLoj7LF79+66jQYiJp7ELCQGsakCKRdhsmzHrGEhTR3ucnRaQqr9cF1sJ28BuQbI98vvSW/H8I3QWwtJjAjX5AYlRJWO6q8XTA5nn3223qR8T6w828hbYVcDIYSX4aytJ9LsAWkC8aNlaG2T+FiIxScEmnSfJMsh2RHpG6lfUoaSnIWOF1Y+UoFyfq6HcG7OM2PGDP3LQom0RzB2no5KKCfJVIxGqEl4gFBghumkb6Q+SWuaCGHlAq6XY1Pf9CXMF/765HyxysrwnjogZwHmjzBilXfkyJHq2vbyyy/rdm5Uf1IgQJjGgsRR1Ath10bT1bSXQDk4FvkIcoMy0Ca0P2Gx9N+wtqKuSJlJHZGu0h+ijrvfmWeeqe/pB9QRdU2aUT8IOf/9Gu/6CW+mTl988UVNA0sfI50A9U6bILi457inSI+JiQbiHTNWnw/rFwhByorgJ0WnXyjy0CNEmlB04JykLLDKWfAewjzEAx1ZAfHKiMsjbcl9itmIOiRsP2HMDVjkkMLOfypToRHTUfU9EXSECJoK088MyWrWrKkhqYTK1qlTR78zDarvzY2l+8XC3FwaWUU44yGHHBJp2LChhkpbTGXrPhbTgJHbb79d3xOqalPfYYagzKaR9DMpBfltEEKlbao/89DQ1JeUlWE1IbuEjXL9hGzzl1BHzCPDhg37Q70QYnnUUUfpe0IkgdBZQiqB76y5hGE04ZfmBtTQbKJ9TCfXNHx+KAthsKSSBMKOCcEEotA+/fTTmOUDzm9uYD02JhrCdxmmsS9pHa+66irdz8K+NhSYkHTTYfU9ob+2nswNoe1CqCwQpuwfahMGijkiVrnoM4ToWgiBJsSZ/fz1GVZW2pVwYq4HCKkOM0fEKi/1abRSrTugfBwjFvQvWwdAnRD2DByf84DRDLXsdvhL6LzfHOGvo0GDBuW0J2HAXDsE24owdJvWk/5IX7XmCD/cD4T2A2G6Qfz3a7zrp+/b/mmPQ3pIf0pP2o2oN6LZzKhHI83iHTOsz8fqF9QnUZBAaHQwOpe0l/62Jp0u5r5Y9xD3I/cLxCsjKUfpg0AaAMw8eSElE3P+oRXaHin0eDIDkwck62A7QyWeVnzHcI2Ul2g6uUHiZdP59MnGk5gnJU7+wFPOpp8DNGx/MpUgTBIBwzHTefS9H8pYq1YtfU/5SLVIWRlWM4wjwotrYThoGlC1MJLDWM3cD/XCRBygsYKtK57qJMJGkwKGkjy1GfaiAXFNHNs/wgDKQlYytBQwnUw1EdP2qjmirccrny2THcoyaYRWzb6MIphA8oMGfMQRR+h7fsdkEkNP2sLWO3WGRhKv3iFWufjsN9OgxfkTkgPaSVhZmaAiEtNeD30vSLzyUp/8Fq0IGAkl0ict1AnJcTgWaVPtsNx/T+QGmib9Ea2TPuk/hm0r+iR93i7rTn8kkU4YTGbbSWwSLQXxly3e9aMBogmSwhENPQy0brRPNEsj2HS0GuuYsfp8rH7BWpWkCuWe5vppZz+cx4/9HOseSvS6uZesRk36Tz7nhZQI4SDmiRZ950FnYQhdGNAZ2rZtqx3W4j9foucKNmAi2N9wo2DnpLPbV5hNPB4IFYaqCFGLbWyyZyFkmO0eEhJhSMZ/hqTk8T3wwAO1A3ET8LDj5ky0fOzHjWG0gJz9GPr6IfKO7GQWymjLmdd6j1Wu4Dkg2PFjlZWHItvjkd/yJgLlwuzETR98YCYKWQJpT67J5lcOI5FrBeqFlTgQbggyzBv5gdVYMH9h+sDkEgYeH5isaJfciNXnY/ULlB76uNGM1YyZl3QHud1D8bj66qu1zojwRbHh+vNCUoSwnaSwxnWegLajk+QZ7HIsPBmpdJ6o7OeHp5/9nRmiyNq1a/W9H/8+QHo67Ep0eqCSEUAWnrTkJADKaQ399hgcD+g4/uNa/Nt47y+z/Y4OgU0LLQzQ0LAZBesl+HuwdYUNCkGATQ0oJx2eOiAXKzlfYy2rg9DlhjdDK9UGBw4cqLZnhAHEKh/4y8QIA6Ft7aO24/nhJsYmzHf8zgzZVHihqfrrnfZjhAKcw9YV2M+xykXfwNWK6wa0EOYV/PUZq6xoO+SoxV5st9tJUAs3c7zy+tso2N+C8L1/f7RTzodGRTlt/7L72GPZOrD4P5P68dBDD9X3/mPwvf9c1J+1OUPYtQIuaCRHR7OkragfPxzTX5ZY189xmAhH2+UhAf57ipSdlId73vb54PWDPWasPh+rX2CTpc0Z9TH6C86P+BclsA9pZE2seyjR6+ZBgQDHxk1/oy7zhDlQUsBehB2FZVxIl4fd19q1sFORNtE0nC7JYoYEuv3WW2/NscOYYYa+Z2kZ7EjYinDj8cPvsDlhi8XuaYZXanMjdaapbN3HdERdnoTfYmvFHmy/Yz9+Twq/V155hRpWFzfSMhptQe1v2KAs2OLME1nTK2LDPfPMMzVdH/Yors10CE2FuGPHDk3RaYYzansiPSXXALZesLsZLVVT4tk0n1wztkhsg7jPYWcjJSA2dDPkUtsaNkSO8dFHH2nKQb/92w/XZNNWms6nS8H4CSuf0YzUbsa+Nv0nx69Ro4amBaUNsMv5wQZrhsARI8hy0jDC/Pnz1UaLXZM0ldYGid2fayT1I1m2WPaJeiedIO0Sq96wDdIfKIe1x4GtT9ogVlmx3bNUE0shYUMktWYw5WSs8pobW8vH+akTM/xUmydzGEFoEyNsI61atcqxL48bNy5ihslap6RRpa9iQx86dKge9/HHH9clp+i3lIuUicE6Mg9STZlJ3WDr7t+/v6ZRDLYVSxWRWpTlha677jr9DS6c3AN+uB+pE+5N9sMGbsG27L9f410/52EJIq6b4wH3C2WnjYyw1FSgzNWYB6IuG4U7X7xjhvV5COsX3M/c29yX2Ln9S1kB/Yn7mzSf3Ouch3KG3UO0P26B2NmZh4pXRqM5a4pN2ovUlsgd7rFESVruCJ4iPHWsthIGTxSefImA2w3H4smXH/g9vw2WB/saw/SiAE2EJyialiWRevHD/gzT/PVEE/Jkx3YeTFBuYR9mkK1LEiOO4DnDyhcG+1CGeENhtAvKGDTj8DvcfvLSbrHKhVbHNcWrz1hl5ZhAOfy2vyD5KW9ucG7agbZCu7PzIXkBTZLr5vqoh3grc9j7iv3CrpU648Ux7fxGfuAYnIO+5i8PfY3rpQ7Zh898zz1IeWL1WQu/CfZ5CPYL9qO/cb3x+iYaMG3qr49E7qFY4DHBCJBz05546iBHgp4msXAJfBwOhyOfIHRZlQd7OiYwHgy4HzJJHzb5HoYTwg6Hw1EAmGvAKwgNulWrVupb3KFDh+i3ueOEsMPhcKSQtHBRczgcjtJKqRPCGO8dyaeg9V6a260wB6scK9mD38I4nz1GssueDEqVEMYH8Kijjop+ciSD5cuXqz8ykU75AR9QEisRm1/YsOQ+eR7wo8ZH1H+js0Q7kV/4PBOFZSEAguWgyPVAXgbrdwo4/JO7gTwJsXJS5AeCIO6+++7op/xDEAJBDfjOFxb4K59zzjmaO4X1IIlqI3iBCEO8BvAdJuo0zKc/EfALJvcLftpQWHWRVpgOV2rYuHFjThy6o2ghVSL+0YBvqo3Bzw/4DJO7Iz/4y+GHnAH4iOI7jA8v/rr46gJLqlNm2LRpk+bewE8bBg4cmLO0OX7cNhcBqR7x8zYau37Gp9Xmxigo+KWG+SHnlS1btvCU+YNvd0E4//zzo+8i6hONnzOQ+wOf/+zsbD0nvrj5gfrEH9zmjCmsukgnkqoJ47/JKx74ffJKZPhpj2Wjbyx2O36I/uPg/8tT1YKPIa+dO3eq72IQfP34LjdwU8kLYaGkXDPgu2jh/KaNop/2EKtc7JtIWagvrjtRYh03Vluh/ZKhy56DmHtL2HFyK3eYb2usvmT9fyFYDj9og3feeac0bNhQM8mRMWvq1Kn6Hdrs8ccfr+/xZyWfCVFYRF6i7dpMXGRmmz59ek4WMnJmWL9oMn4Fown90IbBcsXqz7g+Ee3lx3+dlnj1yHZCfYPE+k3Y8YPQ7mQtCwONm3Bif9vTV8Lus7D7wUJ9+o8RrAvqkFesezjs2Oxv77cwuC5e/uPFuweA9swvSRHCCBZiyQk1JVyWBCRBiPkmHJGhBmGppJ1jeMMwkQomw72N3SfUmH3pADaFJEMtKoobqFu3bprC8tRTT9UQQiqdCmSIyY0DhDQ2btxYXnjhBXWqpnG5oSy4mRC+SNo60kqS6i4IoZOEVBLySFlxKCccllwVDKEpN47j5K8gFJQVPjjOo48+quVnX25shnMDBw7UYTsJVBiCX3PNNZpEhgQ71I0lVrmMNqep/UjEggDgARSElIIMpdl30KBBOas8EJ7LA4phNFAuwpwZeocdN9hWpHz0880336jDOolV7DCSYTsmiX79+unNaUmk3H5i9aVJkyZpH6FNbDh2WDkswQQzCGXyanDj0U4IEQvvuWaENAl/bD9EQDDUJgUqeQrCfhOE45Pm8amnnpIDDjhAw3t5WFAnhJRzbSTdIWyaPktKRfqHTfsYdp1AuleE/ogRI9TkZh8o5L/gt+zPveQnrO55ALAf9csDjP4ZC4IvwvJdW/wpPSkX9xn+s9a8E3Y/xCNYF/Hu4VjHxjyCWZL8G6QzDcL3hEsTbo+7Ge0T6x6gnTBJUU/sy72VL4zgKnJMBWjYKPzwww8Ro1no+yCEDt5xxx06fGT4R4iyDUllGOIvLsM9U8n6nuGjPT7DT0IsjUDUz4SMEvYMn3/+ecQISH0PRsvJSQNohKCmAQRCWAm9BVIPVqxYUVPvBSHkklSQYLQjDbsGwlFtikKuxZaTMFjCIRkOEi5rOpRuJ4SSUE7z9NXwZ0JlqQcgTR71ALHKRSjrSSedpMclTJRrJtQ2CGGWNqzZPJg0hNR0SP1MuKstpxEomjYw3nGDbeWHoSdtZeuMEFLCa7m+JUuW6Hfm4ZRwuQkVteaIWH2JslDvYB6K+jdYjlgQmkt/Mg/NiHnA628ok4V6oe6ef/55TXfqh3Zm2E24uq1LoF8ZIZVjnrAQTv/+++/r8SkvIb1gbvCI0b71vbnJdRUMG2ZO/yB9JYRdJ+lX9/etJkP/IYSWcxPCjdkEqGN7bbHqnhQChEcDdU0YeqL4zREW6p5zEkYOXIftz7HuhyDVqlXLMUf46wJi3cOxjs19Rig42PrzYx7yWl7qARmC3InVRwlptm2EmZMUBrau80JSNGEcl3ma8CJVXCzVnWEnqfgYNgVDXv3vgTBInoLgTyvHdjQVO2Txfxcc1sY6hqkX1ZwYarRv3z5mSDFPYMpL8hA0XntdZC0jgToaO09rEkwTEkkCE7QmEqWQRQptFCgXdcQ1ksKS3/PU5SlMOexxY5WL5Ed8Z1P7MTRG4/TDMYjkQSsAtBie6pQPSI7NRAqjBiOoNalRvOMG2yo30Bi5PuoZp3aGiYmUO0isvkR5GemQpCgsHWM8mHxDo6ZcNlWhER76FxiaU26+82+HWN+xnb4V7LfUN32Ba8YUYgSqtif1aTVp+i/Xg5kD/P027DrRcm27gnmgaFIj+h9taZNXkV3MEqvuedF3GWVRdrTCwoD2B66R6493P8QjkXs43rFJtEOIMSMHa1byw/GAvo0M4Rjx7gHbZqTbZJRNm5FwnkldXiTbz42kCGGGVdjcMBMwzEp36NwMCxleMJxhmBdsfMAEwtCG4Qg3lIWhPY390ksvqRmCzF2YKnhhIrHp98xTWRs4CDcB58Yu6R/uxSoXx+WGscflhZAOwzzNo++89Iw2xh/zA/lXMU0gWOmMeTluXrCCKT/Hj9WXEDQMc6lvhvkcOxEw7Vx++eU6TAZyCnBTY56wYEpB+HNjYqLxt5n/u7DfBKFctKn/msPs+zwQ/ELTEus6/e1q8+gi3HmohtlFY9U9/YGhNnMnCBVrOigs/G3PK5H7Ia/EOzbCmDYn33gwF3YYseopDNtm1Dltygvbcm4kRQgPGzZM7Sg8qeJNClFJ/kLzJKIzA/YgoGOBfz+OZxsveNHB7/yNHOsYTJAgVJ944gm1wSJQw8AmbQVB8LpwpcHuxDUDGgWa63333aefOYcZZmsDB6+b7TQ0+/uPG6tc5INlGR5ymQLL2PCA8MODATsompEFO5lN4wm4FlFuOi/EO26wzH54MHBddiKDfe012N/xN5FyA/vyglh9iQkz6swMzXPsjsFyBKEumE8g9p8bhrKYYafOR6D5WNAaqSeOT5l5SAL2UtrEzmH4f0OaRR7OQRBs9Bvbj9GEbfn8/Yffc8ODv9+GXacZLutnexw0YOzbPKioJ4QO2Mk27Oqx6h6tmvMxMsDWjxsfoFnaezEWlD/YJ2y57bVRz2yLdz8E8be/vy7Afz7OkduxqT9GgL/99psuoxYc2VjscXPro/a6qNO5c+fq5Cz3D3M6vHhQ5oopdJFjnqy6NJHpyGpXMxUUMZpc9FsP0iaSrs5cgNpyANuNUfd1aReWaalVq5ba3bDbsR07DzZUbLPYhszQQW1GpLjDTmYqWn9DykJsOtiX2c9Uqrolcfn3339/xFSspqDDrmZuLLXvkBYQ+7FpBLWRWZuWH5atwa6KnY99sBH50+dxLUYLiX7yUhtSHtNJ1MZIikxe2KlIM2jTKWJz4vyk6MMGiK0N+1W8cmGX5Lo5jhHOoavo4jaEPZV0kUZL17R9fsxNrLZbP2HHDWurIKRXPPnkk/WacePq3r271o3pwFrvtv1zKzfHJ6Ug35MWM1ZfwqZKekPSMV577bU5q2TbchhhpZ8tRtioDY+y2Je1NRvtR+uWfkL57BJBQBmwMXKegQMH5iyHBWaEoikvWWqHPmcETvSbPZCm0mjN2g969uyZ48ZGO5PG1AyTI2bIqy+wbcZcAG51sa6TMmI3x+Z/yy23aNpI4BqwO/Md9wbntdcTVvfYq9mXtJWkeWV+ALgH+X0Y2LDpU9jAsZGTrtNi25vr4T6jL5AGkusKux+CMN/D77HLc9/76yLePRzr2FwHbUS9hF0P18ExaQ9778bqo1wLS1XxG9JXhtmYEyFpuSN44jDM5cUTO9H0fTw5eZJhJ0N7sDabogTbD6s3MLtrhzYkDQ/LmG+vhWrEPulPq2ga6w9mDJ6wHDteqj1Ay7PHsufIrVzUMXWUW91iM+PYDJ+ChJU50eP6oT74nfUkiEdejx/Wl6hXXnz2L2uTl3IEWbx4sZon/C5RwHnMw0Fn44N1xdwA57PmjVhg1sAchG0ecJdjG54PaHGx+nms6wS0MrYb4RPd4sH+mCTYzr3kP3aw7tmXMhFc4e+jaNFcqy1vYcH5Erkf8kPYsdlGH+cvo8NECeujmDjQdrGf05ZhWnwiJMUcAXQsbhrIy83Mb7BTcYHJEMDApJh58qnRnXR0NCK+omHYa6F8fgEMwRsU6MSJdDj/sew5cisXdZxI3SJUwgQwhJU50eP6oT4SFXx5PX5YX6Je2RYUTHkpRxCGtUEBDJwLM0ZYXXEz5iaAAVc3v0BDgHKTI/Tj9fNY1wm0aVAAA7+x24PHDta9LVOwj1KH/vIWFhwzkfshP4Qdm21cS14EMIT1UdoMJZFz5FcAQ9KEcHEC/1dmNrH1YbzHb5fJoFSTruVyFAz8t60fObPxjvSHRVoZdeDLb+er8otLZelwOBwpxGnCPtzzqOjBFmfxvw/i2iIx4tVhcSTR/pEsklEGJ4QNuPDgF0mIq6NoGDp0qNpRcV5nYhDTCjbXWNx00035zrxWGmDijOXjcU8rCQSvB3c47NhMVqYSXNT8bp1FQYkWwn6/zSB4H1h/T5Yyxy7nKDqI7bd+pkx2cbPhSRCLW265RSci8ws21rAghZICk0HkLrC+v8Wd4PUQ9ECEJxOYqeT1119X74eiJGlCGLWemURcPfyE3SjsixtJEJz0mUH2Y/fjuBzf8sgjj2gFhsF+F198sTq1g3/GmBlPGwrrJ+zcQWxZOL6//BwvbHgdS0hg8A9ijxf2XaI3IufL6zA/rIy4OdnZ/FhQX+zjx+9NEOZZ4IeoNf/Mtu0//OXYQfzbVq5cqcEVwXoJK1Os/mPJS9vF6rfx4Jxh7RevvTkPSgSeMvHIa3loV7D3qK3z4D3LtrB7JB75uR6Esr+97DHYNwxGWGEken+E/Z4EYNYTJzdiyY7cSIoQJkoFtyoym3FRhNsyo/jPf/5TY7hxs8IHFoiIIpHz8OHDNZwU6Bz4whJdhG8ex+HGuP/++zV7EfvjJUB8OjcgGhfht1OmTNH8DkHQkhgWEwlDhJCFmG+Sh+P/yfkh7NxhEMXG0/udd97RqDPMGxybrG7ErtOh7E1OpA5lJ5sWcehEaQEPDrwfyDhF9jQalVwRRN0wNCdKjpDXf/3rX7o/QgWNEY3hsssu0xnbMBgRkO2J60U4cS1A5BbuOkRnAcchrSM3SlgZCWelLHfccYdGCp577rn6Oz/41pLdjGNy3TY3RV6gb5CFjgclkCeCyC8yjxF2SvtQPiBbGO3zxRdf5CTs5zqIXiKxOqOdsDLF6z9ACDLXSZ/gOumnkJd+Gw/6AiHolJt24JgQr70Bs84DDzyg4fI2Ei6MYHnox+QHsS6NrA7MPUloPZF/559/vl4nZaJ+w+5ZjkE/4jv6KZFn1C11RqTYtdHsZpyXfsW15Pd6hgzxEtAT1YmvL/lUyMFCW3MuG6kK7EP/x2zAfca+LLyZ6P0R6/fsjycSMgSf/JNPPllat26dEyJOBkXqA+hrpBJgxEe/5cGSMKYzFjmmw2l0khEuEfOk0MgsI2Q0AoxINtNAGgEGREfZ6CYiYoBoGSLl2NcIOY1eIQsX0WIcl4xQQLQO0StAdNyVV16p78PgfBwTKB9VYaOfTENHjDDS97HOHYSIHY5B1iW48cYbNaLGNIZ+Nh07Ym5YzezFtXM8XkbA5WSK69OnT87vTQfUiD8gis1mniJjFFFAYDqXRuxwDjKZ+SOVLObprtFtZC+zn6tXr66/NZpsxDws9LrACCfNOBevjEQfXXPNNXpOW+9+zI2k1w7/+9//NKrOYoaWOVGBRDxVrlxZ34dhhH/kzDPPjH6KRGrUqJGTpY42MZ1d37OfzWRFFBTlMpqStgVlh1hlitd/iLKzGcToj0RlQl76bTyIBDzwwANz3tesWVPfQ6z2JnqN81iIFKM9wggrDxn/iNazkPnvueee0/dEhRHJZh78GoUads/ed999OfUARO4ZgajvjTDa634rV65cTuaz/FwP5eD89BMgKpIIQ/qs0Wy179jo1NNOO00zxwFtQkQjJHJ/QKzfA+UzD399T7ubEVxOv2KxAfoa0YVcH9vNQ1qzGxKxlyhJ0YRxIjcVqk9UmzAGDQaNFC0NTQutA8iTS3YjtBRTAboNjRLtjH1NmfWJaYM3OK5NdMJED0/m/GITvvMEtkOTWOcOYk0a1okezQ17lt0XOygaOk9XjsPxeKEhoJ2BuWl0H7KnMfSyQxuObTNF+a8RDQOTCho6k4pMIgThmNS/zWFBMADJetAGqTu0l2effVa/Y18yTMUrI07rtCPXFZZgBm0KDYGcA+S+zc/wDILmilh1QLk438CBA1WLCWubWGWK1X/QoND6+QwkTkIbYhicl34bD/oamjkRj7z89RTrWtFuyQdhCat/S1h5gnXj/0y7knCIYAYy+QXvWYKHGBX4+5jNWUF9xTt2fq6HcnB+C8fge7ZRVu4texz6Ku0CBDHZcydyf0Cs34O/H7Zr105HqIweGMnwO4I+uJf4DX2CfmPzeyRKSibmsKcxxDBPqZzMRKj6CB6GBQzpGY4w7DBPMRWIXJTdlxeNUlT4G6Gwzm2PyfFoQP/xbKpB8zTVVHwIlmD0XRh0EBqd3yM8McGEwQwz57QQ1WUfhnaYRgdiGArxypgbCCiG/kxmxOr0hQk3MQEODBEpI+HEQfJaJq4fc4Tf9sgNl9d+Gw+OjWmI4a1dxSM3eECH2aLDyGt5EiWYhQ+hmJttOhZ5uZ548KDB5IBwpC/geQOJ3h+xfh8GSgsPZB7oVjGhv6B8+e8Xq/QkQtKEMJ3YdgSeijQgeVEB2yeZ6/lLp+FpQ2VgqyKKCE0Eu5k1sGPnYjvH9MPv7TZsUmiwsfB/b39jBZV9ykGscwcJloXP/o5vv0cIoAHZ7FR0QuxtCA80UrQXfodmxPWA/9h2G5jhpdrp+D1Zovw2NQvaAB2EfS1kxMIjBHADwv6KJnl2dKWGWGWE4HUFwS6GloeGQP36y8tv7bX434fBOfzf+9/725n+wkMSuzEaD7ZihAKanG3fWGUKnt8el/7JaAh7IuVgAhKbPzmD89JvqTdrMw5CDmqEEEKYMvmvN3itFjKwMTLDPglooHayKkhYeRiN4ZHCMTkfHkH0H+CcwXYNbsMm63fXwpZ66qmnan1zbB5cgNbJPeQ/tiUv1xOrToDj2G2cD0HKfAHthJ0fErk/INbvwV8GYN4BBYZ5G7LvATKC+QrmIQCt2t47CWFOUOSYDsFVaJYp7I1AxiFshKbDR/r27ZuTDYwsR2QRw3ZElihT2WpnMcMEtWX26NEj8tprr+m+d911V8RomLrwIvYaMpphozKdW+272EJZmcI0su7v54EHHoiYm1czKr3++utaPo7Hb80TTn+LTTbWuf2Yhoo88sgjegxsS0ZbUJuyeRpqZreff/5ZF5JksUtzY+q5jTatC0hie8TGbDqf2uvIxIbtDfuk0dw0YxnXhW0LWx3ZnTgPdlzsTthNv/76a71Of0YvP0bLVduWeYCobS14Ddjmrrrqqugnj7AyYs9t0qSJZrIio1UYZGczgl0zjJmOr/VGJiwzRNNyk22KLFfY3vgcVp/UOStd0D5Gk9HrY1+y1VEHZhismeVMZ9dVO7BHYv+77rrrcux1rFJBOVkhIVaZ4vUf7Pdcq3mAqe3WPLj0uHnpt7bfYzMMQjY2I9C1brFDYxPmd5wnVntjDyW7G9m8jKar7+mb1s7uJ6w89FPmKehjZmSgdcRCndQj/YN5C+oRwu5ZI9A0sx/2dbK10ZbUFRghr/ML1LkRaGr3xWaan+uhz5uHlO6H3Zn7iXri+NiIyTxHu1EOI+zVHkv7du3aVecvyDSHrTbR+yPW7+l7LVq00DmExdG5Gnj66ad1nsFCvRjtV+eLWNGE+RPqOlFSGrbMqRkq+21BPHnQPHiCmZslutUDh240N7ScRECbjJeoI7fv/eT13LnB9fHk55gW6oMyYYqgDtAm0NhjQV1hO6MOsZHlBloQWrHf3GJBAwnaYcPKmAgMtalXzoM2iB26qKAOqDeGhGipfii7Nbvkp0wcl3YP1m1e+i2z7GS9Q1sPQp1THsxbtDttTXvmBpozbUU5gm1miXcfUVdormFtngj8jmMHTWackzpne16Oncj1xAKNmNUu8Ejgumhncqpw3Yzwcrs/4v0eT4cwuC85brCt6FeMCuLds2G43BEORxGB/Xjs2LHq9ucoGjA/MelqRjP6YOFBgGmKCUD/pF8sCvr7wsAJYYfDUWxhroaJNLw00HZZZgo//datW0f3iE9Bf18YOCHscDgcKSQlLmoOh8Ph8EiZEMb2kgyYQEhXMPDnRrLqKUiqzpsb6VouhyO/JF0IM2uK3y0+nfkFv0J8NZ977jmNh7fZ0CzkayCaiRe+jRZmPIlTZx0vfotvLk7aOF0nU1gTxYPvKj7HROjgbxkEJ/MDDzxQY+tTATP6doXZdIB8BPj6Tp8+PbrF4SghYBNOBvjcGQGs7/HLxCcvv7DKMj6vQM4GfHo3bNign4kRx18U/1Be/tWP8TW0sfLkEMAfEX9Fe6xkQQy8rQv8HsNyMAC+wjamPdngO7p169bop/jgB13UGA1Y4/ZtLgGHo6SQFE14xYoVcuaZZ+Zom/4wR/wKg0NMUy71HQyDY+B7ad1HiG7iRRw6ELmCxguEa9pZTiMoVGMmKgbwfSVihyxWia7Thg9hEMqKf2AQW4bg9a1cuVIzcdnQZ/xHrS+rhRlbTBX+erLEO1dY+Tg3ZQjij8gLg2ggvx9krOthZEF7+KGNbIShhd9wvmBaxFhQPv958KcNqw+Ho7iTFCHMsBbBQ/o7O/TmhsQsQPw8YYI4VAM+eoSCkiKOEMGgYOEm5ib3CyMSjtjcwAgOwgYJ2SRxCb6aQEgh6e8ItuChQBIQow1r6srcIPQUEwcJTEh+Y7Qx3Y7AJ6UhMfqUlRwFCGX2RYhh8sDUQeIPhBgCjHSVXAPhkbxHCJOeDxC8f//73zUkkjDLadOm6XYg7JQUgI899pjGwnONXLPRquW2226TG264Qdq2bSsvvvhi9Bei10cqQur9hBNO0Lrk3LjkkM6SkGbOFYQ0h4Quk4gk3vUQpkqd/PbbbxomC8TVP/7449qupC4E8jqTJpLfs7oG5aI8mDxsqOvVV1+tYdv0E94TNs0+JBVyOEo05iYrcoyA1RBEIwT0M6n1COk1glQ/Y5oYOnSoDssJSSX0lJcRKhFzQ+s+fgi7JAQYjGCLGKGk4Y1+CKs12nLk8ssv18+UgTBNhveEcxpNW8MVjcal4ZeEs1KGIEaIR7p06aJhn0D4IyYMQoEJsbQQxkh5jSCNjB07NlKtWrWclJeEI2MaAaONa9irhfBRQjnhySef1FBPC2HS1hxBCDMpD6mXiy++WNPvAeG9t99+u74n5SZhqUD5/KkgjbavoaWE/r7//vt6HEwzhM4ajTO61x4OOeSQnHPHux7awaa5JKT3lltu0WObB5K2OddrHpoaZkq7YzYyWrKaFcwIICeknPajjmkDez0PPfSQps20UAZnjnCUNFLmHUH4rA2ntKkjMRkwBCWjFy+Guv3799d9/GB6ICkJyaoJOSQBB8mX/aBhohXihA2s0kBUDNoVa1mhUaI9EpqIkzbpGoNhiIAWTDo/+x2pC9HySDyCFmohsxba6qxZs9TUgKbNNQLZyciOFob/nFyXP1uZDYulbki6QzIW6oXJRhzKgXNhjgH/eUgg4k98zSQgWihp95jY5DhcN5qrNTX48YePJno9Nlk6x6YeSFJDvZNpixEIjvCEC3Msknszcfraa6/p9bEfdUEKRkZBpPNkEg6zhMNRkkmZEPaDvQ8QDrz3p4Tjxg2C+QI75Msvvyz777+/zppjfgiC8CQU0YIgQLCRhxRzCC9Wm8DDAqyd1g+5A4xmF/3kgaAB/3YeKAiboH03L5BVK8zmS73wImOVrRcErN9mGiRWuTkOAtBfx/GOkxc4NqYh/7H9SxQFMVqumkow59hVOrDbX3vttbpqA54jDkdJJylCGK0K4Won2xAGCEALtlC2YYdkoswuXcMkFsuGxAJtjGVhPvjgAxWAHMM/CYVt87zzzot+2gPuYTfeeKMKDeySJHYhuU1Y8hA0bI7DOYD0fwgNElp///33OdeEFszSMWj1VkhbuFa7DYHn/57PVgiiWfvT7XEtuPQRx472aG3H2MSxm1On/mP5z0P+VLRcNGigTidPnqyTkdidOQYgBK3d3I+/nP5zgP88/pSgHBt7sNWSGUVQR8D+QWGPRk8b/Prrr9KwYUPdhi0c27Y9rr+fcAx7Xurb2pMdjmKN6dRJgWVLSGdHaj3SJhqhomnzSBdJWkDSR2KnZbkaUsKR3o40e9gPg2CbJAXlJZdckrOECmAvJCUgNkpSFRoBozZaP9g3SUVnwWb8zDPPxHUFwy6NexSp/ljexR4TG67R4DStH7ZQm+4Qm6Z5KGgKPVIWYgM2DwO1f2KTpdpx08NGi92X9HmkyiOFI3Zs0gpiC9133301xR926Y8//ljT7VGG/v37q+sddm/S+2H7JU3g1Vdfrekncb3DDkv9UZfYqrlG4JxmhKD1hC2dJY2CGMGpNntcAbHvxroebPwsKUT7kb6QcuIGSBmwo5OSE6hbrtkI/xxXQgs2cGtfBtoMOzW2cvoC7odcO+3JMbCf0ydI1UidOxzFnaTljuA0uC0lMlxnBh87Zax0g3gNkLneb2qw4AGABo2JIiztJN9ZO2VeoDyUK1gmtDtMCHlN9xgPtHLSMnJOv4mEc/EdttxEQZvkGEEtH28UzhFmB88r2G39KUGx8aK5h40sggSvEWhDmyaR8gdTMQJ9id8VVmpRhyNVuAQ+DofDkULSYmLO4XA4SitOCDscDkcKcULY4XA4UogTwg6Hw5FCnBB2OByOFOKEsMPhcKQQJ4QdDocjhTgh7HA4HClD5P8B2+ysVrnlN6oAAAAASUVORK5CYII=;" parent="1" vertex="1">
                    <mxGeometry x="450" y="740" width="353" height="326" as="geometry"/>
                </mxCell>
                <mxCell id="6" value="" style="shape=image;verticalLabelPosition=bottom;labelBackgroundColor=default;verticalAlign=top;aspect=fixed;imageAspect=0;image=data:image/png,iVBORw0KGgoAAAANSUhEUgAAArUAAAFgCAYAAAClu4FAAAAAAXNSR0IArs4c6QAAAARnQU1BAACxjwv8YQUAAAAJcEhZcwAADsMAAA7DAcdvqGQAANtOSURBVHhe7J0J/E3V9sBPc7280iulaHpNmqVMkbFEQpIMyRAhEVEk8pKhJBkjpJChyDxljnhEZKgUUoZUkobX+PrX/u/v+p396/yuey6vfr97z2V9P5+bc/a599fZ5+y99lprr73XEcbiKYqiKIqiKEoac6T/r6IoiqIoiqKkLarUKoqiKIqiKGmPKrWKoiiKoihK2qNKraIoiqIoipL2qFKrKIqiKIqipD2q1CqKoiiKoihpz1/a0mv16tXeDz/84J8piqIoiqIoysHxt7/9zStSpIh/9tf5S0pto0aNvE8++cQ/UxRFURRFUZSD45xzzvFGjRrln/11NPmCoiiKoiiKkvZoTK2iKIqiKIqS9qhSqyiKoiiKoqQ9qtQqiqIoiqIoaY8qtYqiKIqiKErao0qtoiiKoiiKkvaoUqsoiqIoiqKkParUKoqiKIqiKGmPKrWKoiiKoigHwa+//uofKVHkqMct/rGiKIqiKIoSw+DBg70JEyZ427dv92bNmuUtX77cK1GihHfkkUd6X375pffAAw949913n/fzzz97Cxcu9EaPHu1ddtll3qmnnur/heTwf//3f97zzz/vVa1a1fv888+9a6+9VlLRrlq1yqtVq5a3e/duKTv22GP9XxxaaEYxRVEURVGUEJ544gnvnXfe8aZMmeKXeF7Lli29H374wXvppZfkfObMmd7dd9/tff3113Lep08fb9KkSd6///1vOU8mKNYnnHCCt2LFCq9YsWJ+qed16dLFe/DBB71TTjlFlPK9e/eKUk6q2quuusr77bffvHnz5ok3GqW3QIEC3vnnn+/997//9ebPny8Ks+Poo4/2Kleu7H344YfeBx98IGW5c+f2ChYs6J188slyngo0/EBRFEVRFCUOKKk9e/b02rRp45dk8NBDD3mjRo3y3n//fTk/5phj5F9Hvnz5vA0bNvhnycXdS+w9HXfccZke2vPOO0+U8CJFinhvvfWWV6FCBVFUqe/AgQPFm9ujRw+ve/fu8hu80cOHD/duvPFGr3Tp0t7SpUvl71xyySVex44dRYnm/4cSvXnzZrmWClSpVRRFURRFiQOK6S+//OJdeumlfkkG5557riiJb7/9tl/ieb///ru3bds2b8aMGaIQ9urVy78SPfCqcv9nnHGG16RJE2/lypXeF198IeV4ck8//XSvadOm3tixY+X7lKG4nnjiifKd5s2bSzngmSXM4vrrr/euu+66LM8k2ahSqyiKoiiKEge3MIxp+iBEblLG1LyD6XnCEGrUqCFezfvvv9+/Ek243/fee8/r1q2bV7FiRVFw4T//+Y/E4BJC0aJFCymDjz/+2BsxYoT36KOPSjhCkCVLlnh9+/aV0Ifq1av7pclHlVpFURRFUZQ4XHnlld5RRx2135Q65z/++KN3zTXX+CWeTNOzYOyxxx7z7rrrLm/fvn3+leTC/eJVDSrcgIJ+/PHH+2cZijnhBnXq1PEmTpzol3rimea7/fr181q1auWXehJf27hxY4kxJnwhyEUXXSSKPGEZ/L9ThSq1SqQJBqYfjhzu9VeiAYNfWFtkypVPPMK2P0r0GyV9CXvfENZ+Esm4KMg/vJdMtQ8ZMsQvyeC1117zqlSpIrGnQHtmoRV07txZYk3ZbcCVJRuUbRa3BcGLisIL9GliaEuWLOldfPHFUgaUE0rAzg5nnnmmX5pR7uB3ZcqUyfz7XOO7hCrUrVvX++yzz6Q8FeSoUsvKOqwWKot7u3fv3rJi8NVXX/W/obA6kRgUgqsJ1lY8WVHatm1bCc5nqoM2FFx1GjXYIoWAe2Ksnn76ae+ZZ57xunbtKqtA6exsA0MfqF+/vsRbrV27VgRG8eLF5bv0i/bt24u17HjjjTe8e++9VyzfZ599VvqNW1X7V2Gg4LlyT1jisfDcucbUE4KafznnPvA8MKXGuXsn3377rdewYUOx6BGaixYt8i644AKvWrVq3pYtW7yvvvpK6sb0FlvdwOuvv+7985//lG1niDujroMGDcp2RYdptBdffFHqPGzYMK9SpUoS60ad+FxxxRVeo0aN/G8r8WBrIp7T3//+d69Tp05+aQZsc8R7YwshvudYs2aNtPGTTjpJVkjj0XLE+w0eJcaFWM9SdsDqbKaEgf8vbbd169bSLpE17GpJGWMU7TedQCbQfrl/2rV7fkwd4zkLvpOchGdJf8+bN6+0lU2bNvlXPG/Pnj2iFBJnysr7b775RsqRjSy+QlbkyZPHmzx5spRD2G+QnXySDdPqZ599tky7T5s2TdoKituYMWPkOouoaL/IG+TMEUccIdeQf8j9VCh5tHUUcfosx3hQg7Ju9uzZ0n4YaxzIScIK3n33Xbl3B55bytnlgMVxjEu33nqrxNfyrhnX2OaMHRT4/9HnN27c6P86ydiGlaPMmTPH5MqVyz8zxgoNU6FCBWM7gLEDmF+awXvvvecfGWMfrpk6dep+nx07dvjfyPr9IMuXLzfjxo0zc+fONdZyNJ9//vl+f2flypXyXftC97tmO41cSxbWsjGNGzeWY9uZje00Weo5b948M336dPPdd9/J+datW83IkSPNm2++aT7++GMpO1A9PvnkE2MFuH+WwbJly+RvO/h/8js7IPklxtjOaGznNLbDGquAm82bNyd8ntlBuXLljFW2/LOMtmA7i9QZuG/+n9wP8Aw4f/vtt401pDLvySpOZufOnfIdhxX6mdf5O9nFxIkTjRXo/lkGkyZNymzjZ511lnn55ZflGKxiaGrXru2fZWAtf/mXd5k/f/4s74u/by1/6T/ZAffFPfGxAssvzeifpUqVwiQ3P/30k19qTKFChYxVauXYKrbmb3/7m1m8eLGcwyOPPGLswOOfGVO0aFHz5JNPyjHt1Sq9xio2cu649tprM98zdT399NOlz2YndtDMrJ8V7CIPHGPHjjWnnnqq+fTTT+Wc9kS7+Pe//y3nCxYskPN169bJuePP9iX69iuvvCKyif/X+vXr/St/sGTJksz26T4813h9jk/sM3VQT/pqEOQlv0Em//bbb35pYrZv3y79H6jLkUcead555x05t4OeKVu2rByDNc4z5ZE17uQeqLNVroxVCqQ80W9ob126dJHj7MIO2sYqIv5ZRrs/5phjjB2g/RJj7KAs7R1ZF0vsGHMw8jke/+vfYQzjXfEdnvv333/vf2t/aN+FCxc2tWrV8ksyxl2rePhnGcTeA7+zik2WcYJj/r+8d4c1CoxVZESeIZu++OIL/8of0LescSvvELnG+O6wilRm36A+nLtjqzzJO+nfv7855ZRTMuVl2G/AGqnGKlf+WXKh39D/g3IkyvA8d+3aJePi4UKOK7UMDEGlFmj8lCHgg1gLz7z//vtyjDDq2LGjCPMCBQrIQIPADyoGwe87XnrpJRl8GZzpCE5oNGjQwDz11FMiHPib1jqXcmu9SAdGqXzmmWekA3fv3l2uJQsGfGuV+mcZCsKll16aKSTp+G5Q4P4QXihnCC1riUv5gerRokULY602/ywDnvEJJ5xgrGXplxi5D9dhUQrvuOMOY61Q+f9xXwg3CHuefxWE7PHHH7+f8sZ7PeOMM6STct8MrkHFgno75YU6MDgixCtWrCjKi4P7RnAzgFG37IKBIKjUIviDA9Z5552Xpb2jbAWV2tWrV/tHxhQpUiTu8zz33HPN4MGD/bO/DvfAM+XZOhgwhg4dKoM8xoRj4MCBYlg4brjhBnP33XfLMe+EvhqkZMmS0g6ttW6aNm0aVxkvVqxYFuMFpb13797+2V+HwXDAgAH+mcmiGGzbts2cdNJJZvLkyX6JMf/5z3/MEUccIfIJuPc8efJkDrSOP9OXkF0M9AwwDIzcl1P6g6Dg5c6dW/o+H9ouxtqUKVNE4UEBQ/mnz/F8qUc8JkyYkEXJAepBO8QYPlhiFT0MEafUduvWTeSOg+eCzKEfBgfRdu3aZcqvsN84eCZBY+mv8uCDD5oNGzb4ZxkgX1DOHBhdtPfYgR9j5/zzz99PgUkkn+PxZ/4OhgzKN/eE8XPXXXeJ4hgGdTjxxBNF8UQu3nffff6VP4g3XjqnkzPc6PPNmjWTY6B/8gz5m/SfevXqZToTguzevds/MmbGjBmZSi1/79hjj83seyjzPH+eRfA3PIN//OMf0jcS/QYYi6pUqSLHihJLSmJqmZIiDsUKV7/E86wgk+kLa7HJORkw2PuMeBbiN2yD90qVKiXThxD7fQfTALaDym+YXrR1lHK2o7CdV9zl/G2mc6FDhw6y8TCBzVwntoRpj1RCADZ1Y9qC++cZMK0DTPWyLx7THGzDgbsfEtXDCgzZM48pCPc8gG05mNoh6JvtPODyyy+XZ0cckFUAZcr5tNNOk/3nmJZmqgjCnudfhWkzgtHZaiQI8UlsN7Jz5065bwLy+f86mOqnDLhOGyObi1Vcs0yv0D7YboTnSdxTdsIUK9P6VimUd0NYQiI++ugj+b5VcDJXmFrBLXFKsdvHAM/AKr/+2V+HBQOEDBAC4bADqPTNWIgNo90xrcxUGm2SmDLaI8+X+KpY7ODn3X777TJ1F/s+HVYZlP8nU2O8T9pcdsGm6IR4OGirQNtmEQd1Cq7SpT0Tb0bbAdo4W9Uwlej4M30JrIHtWYVNfsuKaZ77zTffLNeC8P/kN0z182EKn9g44t6I32Oalt/z/AkDYdudeFilV6YQ6S8O6sF98v84WJzcAaa2rWLsXX311XLOVGQwWxJygjZNPwyW8z3u3R3H+42D90W4SHZBG2WhTyzImblz58rH7bcZC1PftGv+RpBE8jkef+bv0O5oizwrZDxygjZHn4oHcpl+TEYr5JpVmP0rGYSNl7Snhx9+WFbrE1rE/5PwAWBKmfAkwoPom/QfQkf4TSyEPzgYf++88045tkaatDvX96iPNXpENgZ/gwzgHmjbiX4DjEWMf9yfosSSsoViNNjgYIEA/te//iVxG3QuBCNCPRYnEGO/72BlHoMugwH/oug5yOzxwgsvePfcc4/E+wJCNZag0E0VxEf9/PPP8i/PyT2rwoULyybJCDqEpRtgEtWDrCbEpaIUIcSD8HwI7ibmEaXR/X9Y2cngTxyRg2s8V0e85/lXQalDsMXi7ouBNR7uugMFjHsjdpP4OQeK+VNPPSUDSbBtZAcobsQZEU/EBtUH4qyzzsr8fqFChaQMpYFP2DMIq/+fBWX6k08+8ebMmSMDX9h9M5ChhKEojhs3TgbH/Pnze+PHj5cMNOXLl/e/+QcYWNwzex0GFcAg/L95Pyg7a9eujTtg/lmI9YrXL1A8iQFE2Y7Hc889Jx/qGsuf6UsolhhTzlBhgJ4+fbrcH0pyLPR7lBgX90tbiFcPjBI38AdhX03kQrNmzaQe2QV/a+TIkZn14p26RScQPHbguMCwccbwgX6Dko5szw5Q7OP1I3DGP5+gcexw/YyYTxS7WMLkcyzZ9XeQLeXKlZN49TBwYiBTGDtjZVvYeAnIH8bN2rVri8x390DGKQwClEigDRObnChWknEAQ5fFQhD7vuPVke9MmDBBHCju/EC/yc52ohxapESppdHi8XFelB07doh3iqB2rFcCrROR6Pt4dBlsWLiDdwPF1sHGwHjQWBjAgBBlEMYoDASbu0UODixy6s6ghWKbCJ41ygpB7HgC4glWPOB4yvBqOiGMYGTARciFkRPPE68UnhsUuyBY/3jQWFwEsUIuFtoFihpKOB4zB4M9f4v63XTTTX5p9oAg5hmj7OExwVOcCAZWvs+Az6AGDF4oP7HbxwD3Hdw+JjvAa8eAxmI1nhcDXBh4N1FoUUQZPFkcxkIE6h2rnADec7y4LIAMbgsThPrQNlFoY71If5V4Cs2yZctkMR/Kp1MIaePB9oYHlA/e1SB/ti+hFHDs/h+8YxQEjAHnFQ5CX+KdtGvXLq4390AgM2g/GIgox8FFWn8W3iGKvJsZggsvvDDL4kWOgzMM1BEPHEav40C/4Z255/ZXCVNoAWUN2cCHhbqxYLxw/8yM7Nq1K9P77kgkn4Nk19+BH3744YAOF4yfWGfQwYyvzIrixQ8uBKTdYoA5MDhZXOQWbcVC+8YQxGh08P/jfbp3yphC+w46S15++WUxFDEw4GB+k53tRDm0yHGlNp5ShNBHkGEZAtMyTNkiyOkUDJQIZAeDCR9Hou/TYVF4GJSYWlywYIGUB3+PkkOHCFqssf+PZMIzCj4nVxeEDCtCWRnvQDAhaLDamRaaOnWqfyWD2HrgqeR586zwtDC1gxfT4QQDz4tBCwEDKI+c8/sgbkA60PP8s9x2223y/431kjE4oDy7gQoByxSUI6hUcW8ojPwN2oPzbuAR4fkh9PHiIpyD07N/BQR68B0yIAQHl9h3HPv94GCFR4Up2OCAgjLGtDS7BGQXP/30k/zLtDkeNVZL03ec8hW8P2D6krbpconj7cZb4kKCgrj6McVIG3rllVf2C/dw30FBxFPDlGkiT9T/Cu1yz549/llG6E69evUk/3lQkaHNu2cRbNfZ1ZeYUiakA6PBQd+mjcYS/P8BRkZQEYq9p1jwQPP/xthkBxH6E6uVHbG/ddPZvAt+Gw/eMX37lltukXN3PyjuGCMOPMTsZgE8a2STC0vCu4dyneg3gKcvqOT+FfDm0Z5j6xzb9+K1d+QC7ZV3jZwNevUTyedYsuvv4JzBEcT7TERs3SDReMn3/8/fNotrtPGtW7fKOWMM7ZtZB0dYuwVWxOMt5jqKKDMRyEHkBvcO/EuYgXNKsGKevoixw3siLORAv4HsbCeE6uFJZ9YKeYX8Rc4e6FlHDfovbY068C+OEhwRYeE1hyy2IeUYBHjbgU8WX1jrTRaBWCEnK2PdymrbiGU3BLdy2nZeWfltLUY5Z5GEteDkNwSQH+j7jRo1MlZ4yCIRK4RlkRPfsRa5sR1DFlb179/flClTRr4PLOhhtTYLd6zw9kuTw1tvvWUuuOACYzuWHBM8z+ImVrs7WITE7gPAIh4WoFirXhaCBFfwx9aDv0W9WXwCrJS2A4ixSogE5rNIpnz58pmrWa0SJYvWHCw24/v9+vWTlfl2kD6o5/lX4X5Y0MWCP+6RRQ8cW2Htf8PIvdSsWVMWxPD/t4JPyrk/VldbgWRsJ5dFItbCl4U2wH1b4S0fdp2wQl3K/wosBKlTpw4jZ+YODQ7+vlXIpQ/cfvvtsrCHhWrXXHONOeecc4wVOP43s8ICId4Fz53FYbzr2NXsfxbes1XKjDVcMhfltGrVStoHz4yFPdSF/hp85sDCnuACPe4x9hlaxVR2FaBtffTRR9JXaUf8TX7PYik7eMrCENqNW8ncp08fKeOdZwf0EdqGg/eNLEE+sMiK+j3wwAPS/4BFitwjvwOekR2gpW391b5EG0EWcj/8fZ6D21UgCP3p+OOPN9bokjZKX7eGmX81o/9bAy5uu7FKtSzeo084WIRF+6fd0ResUmKs8mRGjBghi/vcgiJkDCvoY+H95cuXTxZB8jnttNPk+TnYWYB6sMCQhaNgjUdZKGiVSvmNNVqMVc7lGsT7jYN3wr1kF9YIybLLBM+Xd4x8QVawGImxiTIWl3LvLAK0hklmu0bGWmNa2uyB5HOQv/J3WBTId3n3vKvWrVvH3S0jCH+X5007dd9NNF5SV9oCC8FoO0A7cWMpsCiM8YQFwsjQO++8M3OhYBCeM23LtROrWGWO8fTve+65R3Z04Lm73UYYo63hn/kbjhkDIew3YBVy2SEnO2Q39XaL86yxJu3AQVt00HfYtcQq4ZnPykEb4n0hs4My+kC7jcTu0pQdsLiVOrj3jZxAhrlFd4549eFfzrlndikBFjBzzo4PvBOOkX3AwloWBdLuuH/kJ9f5G9YYyrY6/a/kqFKbCuhINHY6b7yGlK64hucEBQYDA2d2E9thgQ7iGnIy4f+Joh4GQpn3/L/A8+O5OeUj6qAABpXIVBPb5ngHUaZz585ZdnFIJvH6Es8rqm3vz/ZxDCEUxP+FeL+hbaEEZicM5snYzSbeu/4zZNff+SuEjQFOUfozMBb/r1thhf0GBTvMGfC/gq7gxtRYpdb1h549e2YqvijdGAnO+bVz504x2FC6v/32W9lRBoMU+Nvnhew2gsEab5emvwqKZ1CpxSBHqeXeHInqg+HCrjQO+mRjf7tR6oPBxE4cDnbkcEYOCi274tC3Fy5cKE5F5zRJJoecUqsoiuJAuOMxS5ViqxwcKFJ4Jf+K4hQG3isGXCX9QUnD85kTxCq1gMeSGa2gV7hr166yHRvgRcaT7kBBzpMnjyh2ULBgQdmqLRZmnpm5QS6hUAb3Bf4rOKWW2T1mQUqVKiWzO44D1Yet7phBCMJ2jg62IkRxdUoxMw3OsRT7W2Z5mK3Bo5tMUrJQTFEUJRmwNRK7L8RbyKZEB94PccC8r+yGLarYZURJf1joaxUn/yzneeutt7wCBQpkieelPblYdLdDhIMFbXnz5pVY8UQQ32yVwbi7NGUH/F12smFdAbHOX375pZQfqD7xCH6XBdbEaLMNJYtmuRa8HoR1OSxcZLFoMlGlVlGUQxq3uFCJLryjsMExO1Cj5tAg2e+RHVLYdSIIiyDdIuADXQ8j0S5N2QEp21mcyr7Cu3fvln/hQPdLHzQxCytjYQHmhAkTZE/x7du3+6Xx4f+V7C1SVdoriqIoinJY87u/C4b7F0qXLi07WHwT2MYMryZ7LwO7MgST+6BAsmWf897GKojOIxq2S9Nf5beYnS9+/PFH+aCIwoHqw7ZpwT3neRbsRuH4r7/DCztWsLsCuyw4YuvKc+HvsRtLMjnqcfZJUhRFURRFOQxh6z+m6VHw2C6S/ZjZQpHtyfB4usQQKJ/MKrAFGEop2xvicWXrM7YxQ1nt3bu37OPNNnbsZc3fQZGcOHGibFnGNn1sCfjhhx/KNlxLliyRrG7xkoD8L+zbt088soREoHyyN3L//v0lDIGMo9z3gerDvuXcN6EFKL6vv/66JNLg3tgnncRFRYoUkW0YCQXh/vE0E3ZB3UnIhNeXf8ncyf8/XoKYnOQIAmv9Y0VRFEVRFCUGFF+m0uOFQPzyyy8y1U5YwcHw888/i0f3iy++EC9qKkKkEtWHPeDZv/hAKbXxDKMMp+L+w1ClVlEURVEURUl7NKZWURRFURRFSXtUqVUURVEURVHSHlVqFUVRFEVRlLRHlVpFURRFURQl7VGlVlEURVEURUl7VKlVFEVRFEVR0h5VahVFURRFUZS0R5VaRVEURVEUJe35S8kXyBf88ccf+2eKoihKkMsuu0xSaCqKoij7c/7553uTJ0/2z/46f0mp/eCDDyTdm6IoirI/pI/8/fff/TNFURQlyPHHH+8VKFDAP/vraJpcRVEURVEUJe3RmFpFURRFURQl7VGlVlEURVEURUl7VKlVFEVRFEVR0h5VahVFURRFUZS0R5XaNIeV1f/973/9s6wcKquuv/nmG9lpI7Y+rHH88MMPvX379vklf/DLL79427dv98+ywjZ0O3fu9M+ih67dVA4n6Ne6Q8ThzeEg88LqqPI+e8nR3Q9WrVrltWjRwrvpppu8TZs2iSJxyy23eBs2bPCuv/56r0OHDv43lT9Lly5dvDPOOMO7//77/RJPnm/nzp29xo0be9WqVfNL05NXXnnFu+eee7yffvrJK1y4sPfGG294f/vb37zvv/9e2tKbb77pHXvssd6LL77o3XXXXfKbpUuXen369JF9lGfPnu2NHTvWO/roo0U55jd8j783cuRIuX7OOefI77ILjIyXXnrJO+qoo7x33nlH7qN8+fJyrW7dut4PP/zgnXTSSd7f//53b/DgwVLuWL16tTd16lSvR48ecv7vf//b+/XXX70ff/zRW7ZsmffII4/I71JNojp++umn8t4uvfRSqWvNmjWlfMaMGV7u3Lm9zz//XAyOhx56SMpfe+0179tvv/W2bdsmbfmBBx6QciXa0DbZg/c///mP98knn3hPPfWUd8IJJ8g1+tz//d//eaeddpr3z3/+U9oCLF++3Fu/fr138cUXy2DO2LBo0SKvdevW8j22QINKlSp5TZs2lWMlfUkkJxx9+/b1LrnkEpHNECYjkR/fffedd8wxx8hWovXr15fyZBFWF8pp1y+//LJ38803e7Vq1fJ/8Qexct0RVp5swmQwTqO5c+d6Z599tvfRRx95Dz74oNQ/rHzFihXy26uuusr74osvvE6dOnnFixeXv5U0UGpzinnz5hn78uXYCjxTpkwZObaDtLENWY7hvffe848ysMLQzJkzx9iXbdauXWvsICjH06ZNM/v27fO/lcGSJUvk2sqVK/2S/bEC19hO4p9lYBUE+R2ft956y9iG6V8xxjbQzP/fmjVrjFWg/CvZj1XSMu/DfaizI969O6hzuXLlzKBBg/ySDPi+HSzkb6UztlOYdu3ayfupXLkyxpcZPXq0XHv66aeN7VRm/Pjx5rjjjjN2QJRy3qPtlMYKCTk+4ogjjFV45dqzzz4rf8MaWHLNdkLzwgsvyLXspF+/fpnvkDpYwWy++uorOe/WrZuxgtHMnz/f/P7771LmsILaWIFu2rRp45cYYwVCZv/gmlXW5TjVhNXRGgvGDk5Sl99++80UKVJE6vnll1+aCy+8MLPOZ511lvStt99+2wwcOFDK4PLLL5f3qkQb+k+TJk38M2OsUW06duwox8OGDTPWYJTjIUOGmOHDh8vxu+++a6yiKseMC9bolmP6w/Tp06VPLFiwwLRt29ZYw0iuKelNIlkImzdvNkWLFs0yVsWTkXv27DE1atSQY2jWrJm0p2QSVpdffvlFxmnGKtfug8ST6xBWnmwSyeAbb7xR6gdjxoyR/gxh5fRf+j/j9M6dO6Us2eRo+EHJkiW9ggUL+md/gNfMNkr/zBPLBk+uA40fj07Lli3l91gOU6ZMEQ/kKaec4n8rA7xstWvX9goVKuSX7I9VgDz7kP2zDOwAK78rVqyYWBr83k2B2Zcq3qUSJUpk3utzzz0n17KbmTNnetdcc41YoVu3bhWPBt5DR7x7B7wjeDzweMeCJ9Mqev5Z+sKzp/5WMfLat28vZVju0KhRI69ChQryDnkGrnzx4sViIXKORc/GzniNAKsS6tWrJ8+btlWlShUpy26wwOH000+Xtsy7Be6hYcOGnhUKnlW4pcyBtXzrrbf6Zxnggb7ooovkmHolaufJJl4duV/eF32Y+lmDRP7FY0cf5hgvOX0N74xVjqQdO6jfunXr/DMlqvDekNnMIoB7b3ZM8bp37y79ku80b97cs8qvfKdr167ihaOcvmcNSilnnKAf0ifOPPNM6QPW6JFrSvoTJguRAcgHZuCCxJOR8+bNk987yEKFDE828erCTOG55567nzx3xJPrEFaebMJkMDNufKgfoDNZ4yO03IHH/e677/by58/vlySXHFVq3VRUPNw1lBCmyPv37y/nDpRXGo1rKJzHKrRAWa5cuUSBiQfTFfny5fMGDRqUJXaFv43ShMJcp04d+d7u3bvl2sknnyyD8qmnnipu9BEjRsjvca1nN4RgoJjzPKgH03IMBBB278CAQMc/lPnHP/6ROR3JdPV5552XOXWFkgQ8F8Ja3MDpBKb7He/RldHOrLXvrVmzRgwpFOWgoMwumEp1U6fE79KGr7jiCjlHEZg4caIYKr169ZIy4J6uvPLKTEHhINMKU7xM4zRo0MArU6aMfyW1hNXRWv0S47xw4ULPWu8S4uHgOlNWbdq08WbNmuWdeOKJMjU1fPhwuf7bb79JyBLGihJteHeEwzi5y3HFihWlL6KsYKwvWbJE2smXX34p36FtMG1JeBDhUU5BYFAE+jLpMsuWLSvnSvqTSBZOmjTJu+222+Q4SDwZSXgL47KD42Sn6E9UlzDC5HpYeSoIk8Fhz/xA7+LVV18VBwa6jRt7k0mOKrUHw7vvvuv961//8ubPnx93wc9fhY5DjAdeIQbUIMR8YWF07NhRFNswywKvZ7ly5ST2K7txylkQlGkIu3csVGLRotAhkgGW5NChQ6WjOI+sY/z48eKpxasPKLGxOAWXv8PzRgHme7zzlStXyrWcgPZF3CgDNd5zYDBnFoB4MGISiQkmPmzz5s1iQMXj6quvlnaAIogwjBKxddy7d6+UE1tGPH3Pnj29HTt2SBlQzswHMWRfffWVX5pBt27d5G/Fm91RoguymwGePsj7x4uD8YWMwutDmweu5cmTRzxw9957r8yYBEHeudhb5dAiVk6w8BeHDY6cWOLJSH7v5Dhw7GYJkk08uR6PMLl+IHmfSoIyOOyZJ3oXzG4zVlWvXl1ma4Iz8skipUotgx0B11hkeOGGDRvmX8kesPzxBGM54JHt16+ffyUD542dNm1a5vR2GASuO2UzGSS6d6bkW7VqJR4NgtPxcqM8HKqwAGXAgAHS0QhBcRDUTvsheJ/nhYF0wQUXyDUXSkIHdJ6gJ598UowDrFKUZL7DQJpTcN9MuRJe4nZjYBrNgYceoT1w4EC5T941Hi+8WQsWLJA6UT+gDSAE27VrJ+dRIbaOTB0GvRdMJ1MHZh2c1Y6iQ/gM9XbgmSHsB4OD8AQlPaDP4dlh5si9f965k5W0ca5DsG3gQNiyZYssTnEQuqJK7aFJrJxgFgevPjIPBQ/FFdkeJiNpT8gMB8fJHI+DxNYljDC5HlaeamJlcNgzT/QuqBOyHnh3OTG7fSCSptSiQODaDkJMCcoFq/RRTGjoTuNnQOfjCB4DHQFPT2w5uAf5+uuvi9XB3ycmFhc5U7ngfnfDDTeIZcF0dOz9OT777DPxkMWbKskuYuub6N4RACi8fBo1aiTTIo8++qhcc8R7LukIdWfHAxRRdkFwyjvvHkuQDoVHEO8PuxvgIWLAZLDEIuZDfA8wE+DeMV4kyCnByABNuACDONOuxG0jtPnXQbgLQoTp+DvvvFPaF155FPNSpUpJGyfW0CnoeAXCwmxSQbw60p927drlfyOj7xBSg0ednTocwbrwflHa8c4wSOCRV6IPMmnt2rUSGoOnlh0v8MTSp9xgTxunTUOwbbADBu/cTWPSxpFrlCmHFvHkBI4Z5B0f2kvRokW9yy67LFRGIt+RJQ7WFyAjk028uoQRJtfDylNJPBnMc8cL63QJ98zDyoHZRGZEgXfHO0069sZyHFab20ZprACTFY1grXdToUIFYxURObcN1lhlxFgBKbsf2EYvqwtXr14t10qUKGGqVasmqyK5Vrp0afnd6NGjzbHHHiur76yCbKySJ6vd7QOV31jBK9/78ccfTdWqVU2lSpWMtSSMtUp4I7JaD6ziY6xiK6u0WYlrX5qs4hsxYoSxSqNZv369fC8n2LFjh6wAtUqa7O5woHsP8vjjj++3+wEri+3gYlq2bCnPLl2xHUveA+/JfVhhTfsoXLhwlvKjjjoqc5cIOziaW2+9VdqDVYRlFT5s27bN2E5mrGJsWrVqJTsqhO0s8Veg3bAjQ65cucyJJ55orPImK0WtwSZtd926dcYadPJ+glhjzFihYkqWLGmsUSP3PXjwYOkD9Bf6kFt9m2rC6sg9W0tfduZgZwqryMr3Wb1sDRSzZcsWWenMTijW8JB+RT93f+foo4/O7JNKdGGXiwsvvFDeGx/aQufOneUabbdr166yst0qAGbr1q1Sjpxr3ry5sca5eeyxx2R3GQdyzSrGWXahUdKfMDnhQMYXLFhQ5DRyMZGMZBxmtyCuIWOcXE8WYXWhzY4aNUrGbOT3hAkT/F9kECvXHWHlySaRDEbfQm5v377d3HvvvaKbJCpn1wR0qw8//FDKGbeSTY7uU6soqQKPLN5aFpsFoblj8dvOmyXYPVngkcIbwR6M7Mt5MOANwDPNwoJEiy+jAnVkNS3PnlXBDld3wn6cta8cmrA4jAUltFl2IHGw3/LGjRtlR4/Yvkk4GlOWyuFNIhlJyAoynNkfJTns2bNH4uQJfwuuWQkrJ3ae0EC82YlijnMKVWoVRVEURVGUtEddJYqiKIqiKErao0qtoiiKoiiKkvaoUqsoiqIoiqKkParUKoqiKIqiKGmPKrWKoiiKoihK2qNKbZrD9idus+MgLonFoQBJFUirSF3jEdyUOxZ+E0zTCmwaTzabKHEova8gurmK8r+ibUY5VDhU5XoYUaivbumV5pCliUwg999/v5yznymZt0i/R7pKUt+lc+pJshRRH9L2FS5cWDKfsPcd+9BOnTpV0gezDyb554OwTyZpcVFqySh27bXXinJ8yy23eHfddZf8vZEjR3qzZ8/O9r0xMTLIkMfefaSIvf32273y5cvLtbp160rKZfZg/Pvf/+4NHjxYvs++nezp6bJskVKU1MAo82Rtoo4o7zyLKOxVm6iOjr59+0rGHJ45zJgxQ1IoUkcyvZHbHcjMQwa9r7/+2uvTp4+UKdGH9KVkOSSrH3vSkj7Utc2xY8dKKtDTTjtN9hp1Mmj58uWyhzH7jDL0uMx+jtg2o6Q3YXKCrFUzZ870cufOLWlikcG33nqr/CaejIRUy4lEMo/Ml2eddZZk17r66qu94sWLJ5TrUZN5YfdDGuw5c+ZI3cgC2LZtW8keSN9HgWXfaXSNRx55RN4V+sjSpUvlvfI9ePjhh73rr79ejpMCSq2SOsiQQoal4CeYNcoOFqFZr8jaVK5cuSwZxTgmUxMZf8hQRha2dMUKCNOuXTvz1ltvSfYvmisZ5OCjjz6SZ0cZmbaCkBXODpqSbS3Is88+K98nw50VOJKF7IUXXvCvZh9W0c58h9SBbC3W2JDzbt26STYWMutZhVvKrOAwdjCXMjK5WKEimVnAZWkCngN/OwokqiOQTYosebRnIKNYjRo15BiaNWsm9QbeJdmlGjZsKOdK9KH/kNXJYY1qyfYHZF6yBqMck+lx+PDhcsz7btq0qRyT9bBx48Zy7IhtM0r6EyYnyBbm3j/v3SqwcgzxZCSkWk6E1WXWrFnGGnRSDmQ7JetlIrkeNZkX737o4+eff775/vvv5bxXr17y3sAq7ea9996TY2uESN2A71glWOpLvckIx7NIJhp+kGKwVq+55hrxYm3dulU8GngPHeTItoqcf/YHeEfweMRaQFiPWLh49vBIpjNHH3201L9IkSJe+/btpQxrEPD+FCtWTI6D2DbtWQVYLE47yPqlGWAlQ7169eR5FyxY0KtSpYqUZTerV6+Wf08//XSxWnm3wD1YwSG5zJ0lS53wtFOGhX/KKad4FSpUkGu8Yyts5JiQiShlXAqrI95xq4CLZ90xb948+Z7DCkt5B8C7xPuhpA94oaxxmDndWKhQIW/dunXS/7p37+5Zg1q+07x5c88qv/Kdrl27iheOcvqeNSilHOK1GeXQIJ6cqFSpkvfoo49KuVUQZQx0xJOREAU5Ea8uU6ZMEXnmYLaC7yWS61GTefHuh1lC+jfZN4HZlVdffVWOX3zxRfFCA++P/g/oHxUrVhQPNt72Dh06JL2eqtSmGF46igodIVeuXNJwGAiAqdp8+fJ5gwYN2i/OjAGBjh8LIQcOBpk777zTP0s/SKPpUqlu377dO++88/ab4o6F6c1Vq1Z5F1xwgXfHHXeIkWCta7lWrVo1r0aNGt6aNWu8WrVqiaIcVLSyi9atW3tNmzaVY+J3EcykDAQUAUJCMFSsVStlvH83PcU0FgqBg2mdZs2aySBAWsLq1av7V1JLojpOmjTJu+222+TYwfR0MC0xx/xOSU8Y6Jh2dO2WYwYzDC8UVIz1JUuWSDshFAiY4mSqmenJzp07ZyoIEK/NKOlPmJwghCx//vzeuHHjRBYiEx3xZGQUCKtLmGxLJNfTAcIa0UEchO8xDkOBAgUk9KhTp05egwYNvDJlykj5hRdeKP8yVhGuwDtONqrUphhizmI59dRT5V8E/QMPPCAxZnPnzpUywMNFLNqxxx7rl+wP+Ze//fZb8YykO3h2hg4dKhax89SGwaAJeGCJ6yNXOHFAwN/heeM5wnqsU6eOt3LlSrmWExBT+NBDD3mTJ0/OzIHNYF6zZk2JJyUu6c0335Ry2L17t1i9wZhZYn+feOIJEZDEK6EYRInYOmLdY4hhoAXhe85AAY4Pt0UUhyrz58+XAb5ly5Yid8gHzyCHjMKDQ5sHruXJk0c8V/fee6/MmEBYm1EOHeLJQsYvnAvMNvbs2VPKIJGMjAKxdTmQbIsn19MBHD4o8cTaEgNNfC0Gq4PYYfSTWbNmiaMoCLM1eG1TgSq1EQXP7OLFi8Xdj8XUr18//0pGSEKrVq28smXLei+//LLXv3//LEKBhkdAO8rQoQALUAiuZ8pyw4YNfml8nEHAIIsCzJSPsy5ZOIZxMHz4cFGSeU4YDjkF982UK1NrCAXug2l4B4oqQtsxZswYmQZysJiK+0OwcL9c529Gidg6DhkyRLx1tNvNmzfLgMQ7470QMuPg2L0rJX1hoGNmhJkj3j9Tx8wWuXdLG+c6cM158/HgYHBieIe1GeXQIZ4sZFEzzgXC5JDJLAI+kIyMArF1OZBsi5Xr6UTv3r1lDGVWhfrioUU3YaEcoJtcddVVXrt27eQccB4xzmLApgJVaiMCDSUYYoB1hDXYuHFjmbpgOgN3PyD0UXj5NGrUSKZFXHwSICAIYcAyZPqA6Zx0hboj7KgTK/+DyjsWMtCJHCVKlJCp0X379sk5QrNo0aJyTBm7JoBbdZ1TihUxR0zLMIjjXf3oo49koOZfBxb85Zdf7p95Uk+EhIOtyFh16rj55psjpQjGqyMGF9PIfLhXnv1ll10m3rng1mt4LkqVKuWfKekIMonQHqYgMSLZqYSBjPfOYA+0cWaa4IYbbvB27dolx0xN0taZqg1rM8qhQTw5wXjlQg6YonefA8nIVBOvLrGyDWU9uNYlVq6nE88++6z0xZIlS4pxioMFw5OZUOe1xVvtwiyAsMdEs8g5jlWklBRjlRdZ9ctuBVbxMrYjG6ucGTtoyPUff/zRVK1a1VSqVMlYJVXKHKzwD+5+YBVhkzt3bpM3b175nHnmmbITQjoyZcoUc+SRR8qOBe7jVlhbYWK6dOkiZVaJNePGjTNWYZVrEyZMMEWKFDFWaJqCBQsaa/1L+bZt24ztoMYqxqZVq1ayo0LYzhJ/BVZ/H3fccSZXrlxyb7bDGzvIm19//dXYAdzYTi+rSFkZGqRQoUKyajQIdRw1apSsNH3++eeNtZj9K6klrI4O3h3P3hoiUl+wxpfsWME5K+fd+5oxY4axxpm5+uqrZdU8u3co0QaZcuGFF8r750NbcDt1WIPcdO3aVVa1WwXAbN26VcqRc9bYNtY4N4899pistg4Sr80o6U2YnGAnl/Hjx8vuPux2wG4okEhGplpOhNWFMbl+/frS3idNmpRlJwSIJ9ejJvPC7qdFixbmww8/lLHU7XCA3B48eLCMRVbRld2H3K4QMH36dGOVYP8s+eg+tcohCR5ZvIFBTyfQ3LGqrVDKEtyfLLBu8UawQ0XslBReLO43GJ8FLESgLux36OLR0hWmnHkHLIhUDl1YHEa7pc2yE4uDfS03btwoK6dZCKocvrA6nraQN29eWQTsSCQjowqzhoTiEHoT65UNk+vpAvUivjZ2UTVearzS9PFgvHDY2JssVKlVFEVRFEVR0h6NqVUURVEURVHSHlVqFUVRFEVRlLRHlVpFURRFURQl7VGlVlEURVEURUl7VKlVFEVRFEVR0h5VatMctj8JJh9wuMQEhwLknCaVptvsOQgJCtxG70HYUoiUuYk29yBjV3DTbEVRshfdXEdR9udQShEetT6uW3qlOV26dJF98e6//345J4PYww8/LFk/6Dik6AvuAZhukKWITGI//fSTV7hwYcnOwl6t7IVXu3ZtyRFOik6eA1lP4L777hNFn9zT5KYmxW7lypXlGrDvHqkOyQpTt25dScWYnfD/Jk0x2cxIJ8h9lC9fXq7x/2N/RvZgJI3v4MGDpXzGjBny7sjMgrJN3nPH2LFjxUg57bTTZN/GSy+91L+SOsLqiIExc+ZML3fu3GJU8GxvvfVW+c3SpUslQxC/4X26OoY9EyXakL6ULIekBWVPWvpUcL9K2jN997XXXpNzUqDyffbrJBsTbYa2TFtavny5pPwma16tWrXk+4oSJRK10ylTpsierU5O33HHHVKOPCTFOfvXItfvvPNO77jjjvMqVqwoWfg45l/6xIgRI0RupgL2nHV1mz9/vl+akfJ38uTJIpepX5kyZWSP6SD049GjR3u5cuWS808//VTGbfo2cp0xOqmg1CqpgwxLU6dOzfIJZucg40pY1quVK1eacuXKZckoxu9t55Hjxo0bm759+8pxOvLFF1+Ydu3aSfYZsn/RXG3nkWv9+/eX7C6///676dSpkzn//PMl0wnPju8NGTJEvnfDDTeYevXqyTGsWLHC2A66X4aX7KRfv36Z75A68P+zAkHOyZ5jlUFjBYfcO+zZs8fUqFFDjoHsOlbxlmOy2JDhBajT8OHD5TjVhNWRLEC0OyDDjlVU5dgKR9OrVy85Bo5d1qh4z0SJNnaAl6xwDmtUZ2b7c1hjUjKEOayBmdmWaddVqlSRY7IyIefo6+66okSNsHZKtkcygDqqV69udu3aJcdkGnMZ9ciut3HjRjl++OGHzbx582QcIpPek08+KeWpgvtlHDrvvPP8kgzIDEiWNyCLINn+gsyePdvky5fPfPPNN3LOd2655RbRQRiPyeyZbJmu4QcpBq/WNddcI5462/jFurENxb/qSV50rKBYsKDWr1+fJcc0VKtWTaw/sO9XLMJ05eijj5b6247htW/fXsqwGAFLkKxgWLl4+MhDj+fIZW7Bczt9+nSxFK2SKL/ZuXOneGzxKFpjQMpyitWrV8u/ZGHB+ubdwtlnn+01bNhQ8oVz72CFW5ZsLVZBl/bA++vevbt4pPESNG/e3LOKhP+t1BOvjpUqVZK87kBWGdo28E5effVV8dQBVn+ePHnkON4zUaIN7XHTpk2Z06iFChWSnO8OvPLFihXzzzLo0KGD5IwH2ga/AfLEn3vuufrulUgT1k4XLlwoMtvB7NS0adM8q+zKmHPBBRdIP7GKsMwOMsvYokUL76abbpKx6PPPP/ceeugh/9epwSqmcbNVUlfGIDzQhAEGswAy68YYfcopp/glnvfiiy/KeM1sHL996623kt6vValNMQh6OgHTdrjvSR+K8gJM39HYBg0atF/cClPuKALxQGHo1KmTdKrgdGC6QQdyqQWZuiSMwk3jo0C5a3QgoIxQDKZB9+3bJwr+DTfc4FkrWq6PGjVKylGGCxYsKELl66+/lmvZSevWrb2mTZvKMco2nRphBigCEydOFEOlV69eUsbUbTBlL8f8DoFIHDGGz5IlS+TvEiscBcLqiGDMnz+/N27cOKkjdQXKUciLFi0qU3AoNy6NYrxnokQb+tCyZcskXAY4dgY0gx/9LDbFKe+bKdjnnnvO+/7770VGKUq6Q5pf2ryDY8arNWvWiINp0qRJ3qxZs7yOHTvKOM545UICcWhg3KEcRhEcQtz7tdde6/Xt21cUXAf3zhgahLAi+j6K/pAhQ0SRTzaq1KYY4m9iOfXUU+VfOgMxoZdccok3d+5cKQO8eDQmLMd4oBw3btxYPGEu1jadwStEXBJxS85T6xTZIEElt169ejKI9u/f33vmmWeknBhPwEpG8V2wYIFczymwbrHAiUlyVnDnzp0lxoh4UjzLb775pnzP3TtwjGW/d+9eiU8ijon3jfDj91EiXh1pl8SbMYvQs2dPKQPKiZfds2eP16pVq0yDIt4zUdIHYvAwalq2bCnn9FMMynjQJxs1aiTthtkWRUl3brvtNpHZOCGQ13hecUYgv/Fm1qhRQ75DeWybZ10Cns2owoww8cHIZsZgYm4BHeSWW26R4yDUGYg5ZpxF/rOYO5moUhtRsOgWL14sU7Z4H/v16+dfyQhJQCkoW7asNDIUs6DygHWIl2T48OHeli1b/NL0BQWUxV54Vzds2CBlTOkgOIABEi688EJRVNu1a+d17dpVvEcImwkTJsh1ZywwALvFYVjUOQX3zX0wBc+CAf5fWLcO7gEljvtCeDg4poxpeRYYuPvm+6tWrZLjqBCvjswUYFjcdddd0gZZ3LdixQp5X3fffbecIxBZxBj2TJT0gEWXtElmjnj/ixYtksGbPoehg+GCDOPdb9y4UYw1jB8Wl9x7773iuVUUB3Kese1gPyiRqYbZCmaacJrQ3glFKFCggMhvN0MHsfKbY0IRogx6BQvPGVNZEOycEjjZnH6CZxoHHP0+ts6MX/wumahSGxFQYoMhBq+//rp4wPC4Ml3HFK+LR8STRYPig9eDqWAXxxiE8IVSpUr5Z+kJdUcJQjliJbVT3vHEMoXJYIkgQcktXry4TH0AwgLhQrlTCrEege84Ty/T4TkBsUUNGjSQDs6UDKtLUcj514EVf/nll0ssaXBrMeINeW942rl3lAXg+3jto0K8OtIOXcgBwt59UGiCuzZgxSMMw56JEn2QSWvXrpUwAgxFvFClS5f22rZtK54pwn4IpXGerKpVq2bKMBRb+mC8GRfl8IWZyYEDBx70h/C8VMO6DZRx5DiyEOUW7yZjCwqgI1Z+M67hsIoyGKFuFpHxlB2G6NN9+vSRfs0HvYW1KqytINxv165d8n1gXCOkMpkc9bjFP1ZSBNMWeFu//fZbiRllsMcKrVOnjizAwZtBB0DRZWBwC8GAWEsGCDeF0aNHD5nSQKljWy8U3uOPP16upRtTp04VpZ3BE6WJhSjUn2eE1xbhgVeTZ0PcMQIOby0KFAtVUHaJa0L5IsyDrUh+/PFH8eAibFAYeV7ZPbCigDMV+/zzz4sSzjkhEHTulStXSngI26fg0WzTpo3cG95J4p9pA9w7igGKAh53rGGmbYlPwisaDNZPFWF1JFaM7boIE+Gd4J1AgeW9cI6AxKiYMWOGbL2GAhvvmSjRBplEeAke2SeffNJ74oknvMsuu0z6JvGBDGzESGOAM9jhyceLw6wKhii/QYEhpIaBk23rWFyDtwfUsFGiRqJ2ynZcxJ0OGzZMZiFQblH+UGT5uHEHdcuNN26rrJxetHwwsOiXcYZZM5wpyGPGRxxHhBehhzALg2J71VVXSR+nLzPbhixnsTbjK3rI+PHjRVmnvsQbJ3tLL92n9hCDAYMYFhpVOi8SO1hQkBAesYop5Xg4mf6IBcuaQdl5cJMJ7wfvJEIgdiENoSJ0x1jLlsVhLCa78sor08JA4fliWCDQgnskUzfKeQYIRucBSPRMlEMLjEk887TxVPQ/RckJWPdBKA6eWBZRBmEBM0ot8htHhQOnC8qhWycSVXA04CDDMeF2rEkE8pydmXC+sFtEslGlVlEURVEURUl7NKZWURRFURRFSXtUqVUURVEURVHSHlVqFUVRFEVRlLRHlVpFURRFURQl7VGlVlEURVEURUl7VKlNc9g+g+1E4kE519Md9u394IMP9qsLG3ewV61LuBAPfhMvTV8w2YGiKNkH+3n+FXRDHuVwIh3b+1/t4zmJbumV5nTp0kX2pL3//vv9kgxQ5tgInQ3v03kjc7IUkUmMDf0LFy4siRZINsGm0KRaZXP3Y489VhIskJbVwd6ubPDOcyA1Kxtjw1tvvSUph0nswN/MCTAmSIDB3rmkCGQzbt4F1K1bV/ZxZU9W9ick7WCi8r59+8rm1mx6jXI/ZMgQ2cw+1YTVkefNHrQkx2BvxooVK3pNmzaV31APNvFm43LS45IxD1577TVJOrFt2zZpy2zKr0QfEoaQIYwEKOyjTMpk9sbmnbMfJ0li+Jf9iNmcns3a+c2zzz4rm9jHywZFe2evz3h55RUllSSS68g2MniSPZE90OvXry/lU6ZMkX1eafsk2SHTWBB+w/iGDEwl7B1N8hvS7pNswcFeumT1JLEKe4wjm0855RTRO0gShDx3e++STpesnmQbY7zC4XTrrbfKeJBUUGqV1GGVNGMVrCyftWvX+leNsYOFscqOf5aVlStXmnLlyhmruPolfzBq1Chz6aWXmnfffdcvST+++OIL065dO2MVUVO5cmWMLzN69Gi59vTTT5u5c+ea8ePHGzt4mn/+859SDlahNRdffLF5/PHH/ZIM9u3bZ6wwMuedd545+uij/dLsxyrNme+QOlgl1VjBJufdunUzVjAaKziMVQClDMLKrXJrxo0bZ6zQM1aR90tTT1gdrfA2bdu2NdbIkGft4J1ceOGFmXU766yzzJo1a8zbb79tBg4cKGVgDTB5r0q0sQO8adKkiX9mjDWqTceOHeXYDm5m3rx5ZsGCBcYO6sYal1JO/9u7d6+57rrrRK7FsnnzZlO0aFGRgYoSNcJk3p49e0yNGjWkHJo1aybj7nvvvWdKlCjhlxpTvXp1s2vXLv8sgwEDBpiCBQv6Z6mD+6IejI1B6tata2bPni3HjMMtW7aU4169epk5c+ZIH2fMohzZP2zYMNO+fXv5zq+//ir1D45nyUDDD1LMzJkzJYUklh6ZR8iPbxuRf9XzrPIm6SZjwTtC1g5SVcZCOlnSqqZ7xh6yrVB/Uu/ZjiJleDGB9LkVKlTwateuLc/Alds2LXmosTDtICtlDixMPIhkusppSDsIeFWxZnm3QKrQhg0bSp7wYHaZsHK80qRLtkJzv0w1qSasjqQ+5f3wrB14KfBaUDc85Hh08cjh/aAdO/gt7VeJNry3TZs2ZU5DuvdGem7SIt90003ixcIr7zzy9L8wmUR7YBaF2RhFiSrxZB6pZYOzZ3gpGc8XLlwoxw5ShpNi14Gns1ixYv5ZamHWhLEmFlLzuwyX/EsqXcBLzYwMfZwZxg4dOogHO/h9xm9mVJETyUSV2hRDY6CxM21HvmUaRPPmzeUaUxM0NkIIUNaCvPDCC6IExYLCwJQ8ylG6Q5o9l0qV6WpSrrrpHpQk4Lns3LnTa9KkiZwzhbJq1SrvggsukKkejARrXcu1ZNG6devMKfePP/5YFDlygQMdfOLEiWKoWGtXyiCsnGl58mtzDcWeKf0okKiOixcvFgWW8I+ggcb1uXPnem3atPFmzZolSjrTVcOHD5frKES8O4wVJdrw7sjtznQrcMwgx8DmUiMz2KPsMrgdiEmTJnm33Xabf6Yo0SNM5hF6Q6p2B8dcx3lCyJiDY8Yxd8xakKinBQ/WgX8J62MMImUukPYawzV//vxynqjOyUKV2hTjlLMgzpuBoCeGBY8WyoADKxBPCLGksQwbNkxidA4l8AoNHTpUFCXnkXWMHz9ePLUtW7aUc+J4oEqVKhK3t2XLFq9t27ZSlmyIo8JLNXny5EwruHPnzl7NmjUl5or4QgyQROW8y3r16sm1M888U+KVokRsHVFqiFmuXr26KOG8F2YVHDfffLPXrFkzr0ePHhJrFqRbt27yt4IeXiX6EIPHAO/6oIP4Q2ZZDgSLQDHeMeoVJerEyjzOnfMFOGYGAyONY5wun376qSh/zEgAY1m1atXkOMogp/Eu4zzCS418d3WA7t27i9fW0a5dO5lxYcxeuXKlGL3B7ycDVWojCo0IjxfufhbPoCg4mJJv1aqVV7ZsWQns7t+/v9ezZ0/viy++8AYOHCjB2VwjsJtp4KC3LB1hAcqAAQNE2dmwYYNf6snCIgL2GTx5Xu+++26mQcAgiwLMlGeyLUUH9921a1cJL/nll1/kPvBeOfDQo8CGleO5pG4OVx4lYuvIQj4MCUAA4tFjMRGzDsHwBBRd2qoDTzQLGvG459QCPiX7oc/hXWfmiPfvoIz2ezCw+JGBH1m3efNmMeiC/Vw5fEDOM7Yd7AdlMdnEyjzGnKDhzjFlKHTINRwthMMRilCgQAFv0aJFouBOmDBBFGOu0faTrfwdDCjmLLTGcKW+OFac8YniirMtT548cg54nunP1JGQOmZpqHNSscqAEgFYaGEbg39mJDh7/fr1cmwbuyx8IvA8FhZDxVsoBmXKlEnrhWJA3ayCbpo3b26sgm5q1aol5Sw4KVy4sATl82HBnB0MJdjdKlLGWtLyPWsQZP7GwUIVa0FLYHtOMWLECLNjxw45JsCedzd9+nRZ4OawFq6ZMWNGaPk333xjqlSp4pdmLCpg4VxUiFfHRx991CxdulTKrFJj8uXLJ+/q+eefN3Xq1JFyqFatmrFWvhxb480sWbJEjn/++WczduxYOVaijTUqZUGqg8WBDhaSuEUlscQuFOOduw9txA72sshEUaJGPJm3adMmc8cdd0gZsFASmc7C3t69e/ulRsYxZDrjjmvv/P6qq66S41TD/cYuFLNKd6YewvETTzwhx0D9r7jiCv8sg40bNxqryMvxZ599ZipWrCjHyUQ9tREAL8Xbb7/t2YFdrDb2UMXtz/ZOYBu8WDtMeQQtwkOdqVOnSvgFHmurFInXEksQD1ClSpVkOoSwBD48OzyAWI18jyB8tknBssSzDXgLR44cKZ5DrGIsbmKEshtiRFkswzYoWLUlS5aUGCTuGVgYRWgJi/nwqoeVE5vFFBXeT9oHXtpOnTrJd1NNWB3vvfdeWTCEx43YYDwaeC2YouI7eGuZziJWGE8LHrmqVavK4j7+Dh9mJpRog0wi9pmtBJkROf7442XmxMGsEQtpgiDn2Hpv165d0n7oo8DWX3zmzJkjseUsNrGDvVxTlKgQJvMYmwmfYQxChjOGI8/w1DKTQbu3yq2EYyHTmcGivTPOEz5HXOq4ceP8/0tqYCxl7Q5xvsy6IL+B8ZH4YGZeWK+CDuKI18etTikyHTn/zDPPyHZgyUb3qVUOSVB86XQoiFECZZpOj8ESXCQQVg7sIcgKUxYlBGO3ogoLCRDm1CMYM+7qiFAn1CAd6qL8ORjYmXqMjYFXlEMVwq5Qp9zqf2CKHlnIupio7V5zsJC8iDCLiy66yC/JIGyMxWGBInzllVeKrE82qtQqiqIoiqIoaY+6ShRFURRFUZS0R5VaRVEURVEUJe1RpVZRFEVRFEVJe1SpVRRFURRFUdIeVWoVRVEURVGUtEeV2jSHbZLYNiQM9mZNd8gfTSpN6hqEjTvI1sLeerHE+w3pDNluJPhh+ykl59DNVZQDQR+N7duKoih/Bt3SK83p0qWLbFbPJuiOV155xXvwwQfluESJEpKEIF2hLvfcc4+kTi1cuLAkIiDf9vfff+/dcsstklLz2GOPlU3d77rrroS/ISkD5UGeeOIJ77HHHvPPsgeMDP5f7NFHGl8SD5QvX16u1a1bV/acZT9a9vAcPHiwlLMPIEkkSBbBxvZ33nmnbNDdt29fb8aMGZJiEUWdFISnn366/CaVJKqjg3tnf0beE1APNusmRSSpgd1G3iSWYMN99jbt06ePlCnRh2QgJDIhIcwnn3wiyUxOOOEEuTZ27FgxItmnmP2KL730UnnnfJ/9iXnntBnKSanZunVr+Z7bu5iEJE2bNpVjRYkCiWQesg0HEgkXkN/169fPLI8n8xL1nVQQdj+MsyQ+IskE+/CSMjdv3ryh5UDCBfauZQ/bq6++2itevLiUJw2UWiV1WIXLTJ06Nctn7dq1/lUj6SStEuSfZWXlypWSHjY2Te6//vUvSXnHJydTweY0tlNIWljS8VWuXBnjy4wePVqukVZ27ty5Zvz48cYqf8YOiFKe6Ddt27Y1VtiYNm3aGDuIyu82b94s17KTfv36Zb5D7scqr+arr76S827duhkrGM38+fMl/bGD+9q6dascN2jQQNINglV6zbhx44w1TOR9RoVEdQSea9GiRaU9w5dffmmsAMyssxV6Zs2aNXL80UcfmWnTppmGDRvKuRJ97ABvmjRp4p9lpPnu2LGjHA8bNsyMHDlSjkn9PXz4cDl+4IEHMsv5jksBTX8grSh9YsGCBdJPP/30U7mmKFEhTOaRmr1GjRpSDqRtJz19mMxL1HdSQaL7IeUvegbs2rUrM+V8WPmsWbOMVYjlGEqXLp10HUTDD1LMzJkzvWuuuUYsOlLL4bmYPXu2f9WTFK9WKfPP/gCLipR8119/vV+Swbx588RSaty4sViTqcjokV2QkYj6FylSRFIMgstQ1KhRI0nTWbt2bXkGrjzRb6zg8UaNGiUeRLy6ZDyJzZKSXZB2EPCqYqnzbuHss8/2rPLm3Xjjjd4RRxwhZaQEJZXiBRdc4P3666+SypfsYYCHuU6dOnLvUctIE1ZHppKtUSFecgceuylTpkid8aDzHby4gIcundvp4QheK1La0l6BFNWkR7Zjite9e3fpl3ynefPmnh0w5TsdOnTwrCIrx1YpkN8A6UYpp08wU0GK6KhlAlQUiCfzGHODs2fMqjGeh8m8sL6TKhLdD/dPfYBUwAsXLpQZmIMpB7y97pklC1VqUwyC/pxzzpGXTz5pUuwxEADTGTQYcjIzWAQhPzPKUSyEG9CwUJ4YJOhc6co//vGPzOlIpm7OO++8zOkel36V54JC6AbORL8JGgAotwy8OQFTqW7qlHSBCDWnpCI8Jk6cKIZKr169pMxa7xJqMGnSJM9aup61kjPfN3G/Y8aMkd+gpEclBjhRHanHbbfdJsdBuD537lyvTZs2Us90TRupePLuli1bJtOtwHHFihWlLzJ4Y6yTC592Qv54QFFlahajm+nLTp06STlTmECbnzx5sle2bFk5V5QoESbzmK4/+eSTpRw45jrEk3lhfSdVJLqf2LrhfKA/H2x58FkkC1VqU0wwN77j1FNPlX9RDh544AGx7ugYDhTVm266SWJJY6GB4vno3bu3ePz69evnX0lfsCSJN0VZd15Xx/jx40VZbdmypV+SQaLfcO3VV1/1atWq5ZfkDFiuxFAxUONxhc6dO3s1a9aUmCvimIgJ3rt3r7d7927xxqIMEn9FXDAQA1yvXj35DV6sqMWcxtaRxXkYYhho8bj55pu9Zs2aeT169PC++uorv1RJZ+bPny8DPH2Qtvzpp596ZcqUERmF14c270CxZZaFduPauAN5x0yVokSZWJnHuXOkAMfO6wmJZF6w70SB4P1gZP7222/71Y3xM145dT7Qs0gGqtRGFBrU4sWLRfliIVhQOWV6vVWrVuLRePnll73+/ft7PXv29K/+QdWqVWXaI90haH3AgAFewYIFvQ0bNvilnrdt2zYJsSB4n+f17rvv+lfCfwN4kS677DIvf/78fknOwD107dpVwktYCIbnmKkqBx56FFu86s7LCZSvWrVKBAd1c7jvR4nYOrKQDW8d7Xbz5s2itPP8mXVw4QkoOoTPDBw4UM6V9IU+R1tl5oj3T1vG+HKGuWvLsHHjRhngUARYZHPvvfeK59bBYk9Vag9vkNmMbQf7wYBKNrEyj7aOPHNwTNmBZF5s30k1sfeDcsvMZ7BuLHKmLF75KaecEvoskokqtREBpYyPg9XgWIPExjJdhwuf1YmAooDCy6dRo0YyLfLoo4/KtSDENRJ3ms5Qd3YvGD58uHgtnfKOxUv4AJ2mRYsWEmrB7gAQ9hsHoQfEqeYkDNANGjQQZZWV3h999JEod/zrwDt7+eWXe0WLFvX27Nnjl2aU451nihbL2eG+HxXi1RGDC28zH4QZdcOAwKPOTh0OFBs33aWkJ8iktWvXShgBAyCe1zx58sh7d4O0a8uAke1kGO+fKUsXS03IAnINA145fGFmEsXvYD/MCiWTeDKPseezzz7zv5ERL16qVKmEMi9e30klYfcTrBvjEeGRzHweTDkwTseu+8lxrCKlpJgdO3bISnGrpJl9+/YZOxCYEiVKGNvQ5PqPP/5o7IBgKlWqZKz1J2WOxx9/PMvuB9WrVzd169Y1tlGa559/3vz888/+lfRjypQp5sgjj5QdDNyHVZn/93//ZwoXLpyl3A6OsktE2G8crFQ94YQTZGVqTsHKbnZWyJUrlznxxBONFWTGDvLm119/lV0b1q1bJ7sZtGzZ0v+FMU8++aR59dVXjbWUzV133SXfB2s1G2u8mNWrV2e2jygQVkcH76FgwYLGGhVSX567NTbMli1bZEeEMmXKmG+//Va+O2PGDGONM3P11VfL6nhXrkSXn376SVZ28/750BY6d+4s16xBbrp27So7YLCTx1Z/Vw/a/Lx586ScNu52QgDkmh1MZSW2okSRRDKvdevWspMRso6dBH777bdQmZeo76SCRPezfv16qdvOnTtF11i4cGHCcvoxO/nQxydNmpRlJ4RkofvUHmLg8bBKskwB2sbplypRgfeDx5Z9aln1H4SpKhaCsSsD1rIDbwDTO3gHgvFK6YarO945PM7pXBclMW7RCG35+OOP90s9mZGgPePZiZ2WRG4RrqAo6Qj7taJO0bYdh4LMY+xhhoUZN9bsOMLKiasllAEdJBUzL6rUKoqiKIqiKGmPukoURVEURVGUtEeVWkVRFEVRFCXtUaVWURRFURRFSXtUqVUURVEURVHSHlVqFUVRFEVRlLRHldo0hy1DSFsXxtdffy2ZqdIZkiqQfpW6xsJGz99++61/tj/r1q3bL6samchcPvqok+wUg9mNbq5y+BHWZtO9LSuK8r+RCvmvW3qlOWQsYS+4+++/3y/JgKxZZAmpVKmSV6RIkSz7nqYTZDYhKxiKaeHChSVTGJlZyGJCJjXyb3NMRjVSFwZ57bXXvJo1a8qeeewRyN+oXLmyZLsi3SzZj8hKk91gZJDelr0JSeNLStDy5cvLNTItDR06VPbwI0XonXfeKfsJk52GLHIYIX369JHvQsWKFeXd8R3+ZZ/DESNGeLlz5/a/kRoS1dHRt29fySZ1yy23yPnSpUslwxS/4V3Ur19fyuvWrSt7HrJ3L1lpBg8eLOVKtKEPsU8lWf3Yk5b0oSeccEJom3322WelDdB2nTx6+OGHJeMQ6U7p66TJpS3QbxUlSiSSeWHymzEIpwuOFMZpMqYBY9KcOXO8s846y/v888+9tm3bZvaJVBDWlxlbn3/+ee/CCy+UfXjvvvtuL2/evKHlQWLlf9JAqVVSB1lIyDYS/Kxdu9a/aoxtYJIpKx4rV6405cqVy5JRDMhO9dhjj/ln6csXX3xh2rVrZ9566y1jlVGMLzN69Gi5tmjRIvP7779L1hYyu5CNKggZTa666ir5jRUgUvbMM8/IORmOyGLFMdmPspt+/fplvkPqYBU189VXX8k52VZchiWyLW3cuFGOP/roIzNt2jTTsGFDOXfYQV+yMC1YsECydPFuo0CiOgLPnyx5tGewwtL06tVLjoFjsu9At27djB0szPz58+WdKtGHzF9kTnJYozozc19Ym+Wd24FcynnXZNQjOyAZjezAJ9kPycRkjXBtB0rkSCTz4slvq+iagQMH+mfGXH755Wbu3LnSd84//3xjFUMpp1+QbS9VHKgvo2fArl27TK1ateQ4rNwRK/+TiYYfpJiZM2d611xzjWeVLMkohadi9uzZ/lVPculbRc4/+wMsqvXr1++XVxnrb9iwYd4jjzwi2anSmaOPPlrqj6e5ffv2UoYnD8qWLSuWLSEJeIIefPBBKQe8oWPGjBEvdRCsayAcw3k6rXIs/2Y3q1evln9PP/10+X/xbt977z1v586d3gUXXCBTsSNHjpQsYUB2MTwAQbjPFi1aeDfddJN4BLDoH3roIf9q6olXR+CdWENEPOsO3tGrr76amfufnOB4yuHss8/27GAgecNT6a1QDh68Vps2bcoMKShUqJCE+iRqs3i28OJSjje2Q4cO0ubJp08f55j3T9vRdqBEkTCZF09+00cYox2ujxBKR79xWbjIQIZsTBVhfRmsUepZBVyO8+XL5y1cuFAyhoWVQzz5n0xUqU0xCHZSQ+Lqz5UrlzTw5s2by7XvvvtOGsygQYP2i0154YUXRBGIZfjw4dLY+vfvL0pdUNlLN/7xj39kphXcvn27d95552WZ4kZJvO6660SJZerHMWDAAK9ly5b7DYwok8BUkIuz5bfZDWERTZs2lWNCQLgPlNc1a9bIlOykSZO8WbNmedYaThhzhJCkzjBv3jwRNij6USCsjkD9CPEIQshIkyZNPGu9S8hFlSpVZOoNEKgTJ04U461Xr15SpkQbBuRly5Z5xxxzjJxzjMKaqM0yVQmkykXZzZ8/v5wzdbtv3z4ZGIcMGSLGnqJEjUQyLx7FixeX8Rgw9latWuVVqFBBwhAY2x2sGWF8SxVhfRkIRTj55JPlGOjfLgV2vHKIJ/+TiSq1Kea0007zj/7A5USncRCDQ1zK3LlzpQzw6uIJOfbYY/2SP6Cz8RsUJry2xABt3LjRv5qeYEkSh4p16Dy1QJwsnlYGTuLxli9fLrFBWM0oUfwOnAJL3FLVqlW9bt26ScwxIHhyCixXvFTE/XI/e/fulZjSGjVqSKdnYOe+DwbeI96sqBFbR7wQGGIYaLHQXomXRalp1aqVxJ9B586dJYaSGFve35tvvinlSnowf/58GeAxJIOEtdnu3buL19ZBv4Cbb75ZvLw9e/b0duzYIWWKEjViZd7BwJjDbwoWLCheXpRjHDE4VYivxbsZBYJ9GYcLyrhzLAHHjKvxyvH0JpL/yUKV2ohCg1q8eLFMS2DZ9evXz7+SEZKAUsAU/MsvvyxeWQYC4Ls0OKDDXXbZZSm1ArMDgtbxviIQNmzY4JdmcNFFF8ngCQgGFPk77rhDOhULU8CFIWBZTps2TZRfFEqmvTEOcgrum8VrhJcgvPj/BS17PPRY7weC77h3GjVi64injRAL2u3mzZtFQeWdrVixQt4PCwpY7MfiAUJEaJt49Bw8ExRbJT1gQKZ9MnMUnPUIa7MMiBjoLvQEYvsFiyhdqJByeIGcZ2w72A8LDJNNrMw7EMxC4YBhpso5WHr37u2dcsopEs7A3ylQoICUp5LYvoxyy2wpoY4OwoYoi1dOfcLkf1KxypMSAQjOtg3CPzNm9uzZZv369XJslQFz8cUXm/fee0/Ogzz++ONZFor16dMnM8gbrJIgi83SFepmlXfTvHlz06hRo8yAdBafWKVfjrds2WIuueQSWWhCgDqLv/jcdtttshjsxRdflO85CMo/6aSTMp9vTjBixAizY8cOOWahG+/OKnDmxhtvlDIgOD/4zmfOnLnfQjFgIQGLaqJGvDryDtynTp06ZsKECcZa8Gbo0KHGCjj5LrC44IknnjDTp0831kjzS425/fbbZRGfEn22bdtmRo0a5Z+ZLP0srM3STqwC659lMH78eNOlSxf/zBhrqJr333/fP1OU6BBP5jniyW/GqCVLlsgxMnHs2LFyzDj93XffyfEDDzxgli5dKsepIqwvM966hdYs9r3uuuvkOKw8TP4nE/XURgAsG+LKbOOXKVn2Xu3Ro4dscQS2gYglx/RF0DqKx3333ScWEluJEJtGHNC5557rX00vpk6dKqEUeKzZPgSPLKEFePyYtmdhEfUjlIAYVeJV8dwyjcnHxfa5KVCmRqwRIJ4iFixdddVVUp7dEEfFNCpecjzGJUuWlHhCvJDEBNuOLhY6VjvblQELBgk3wUNFfYIxV1988UXmwraoEFZH3gEfPObEyjLFRuyzFYJSb5493gAr3GWKy3nRWVBB/YmzvfXWW6VMiS7IJOID2UqQkKDjjz9eYtUdYW02Xjkx1oTlsLiEfm0HQ1kwqyhRIkzmQTz5jYeScDe2keT7fJhJhY8++kjGecZpxucbbrhBylNBor7MVpnUe9euXbJVmVvzEFYeJv+Tie5Te4hCh6GB0pEOVRgIqWMwzjYRBOQTgsC0SiphxSw7U1x55ZUHdS8YOiy2Odh6RhVEDfHdGCUYFC4mi3MGAIw4jBYl/Qlrs4QkoNi6RYIO2gCGDdOa6WqEK8r/AtP9xNfyiTKEFuAEQpl3OzZAWHmqUaVWURRFURRFSXs0/EBRFEVRFEVJe1SpVRRFURRFUdIeVWoVRVEURVGUtEeVWkVRFEVRFCXtUaVWURRFURRFSXtUqU1z2ArHpYM9VGErLvaYpa7xYPuyWMiIkiiTWrzfKIqSvQQ31yGNpqIoSk6iW3qlOV26dJENndk4GUgN+8wzz3hHHXWUnLMXKJsgH2yO6qjBZuwkKCBRQeHChSXFKnVhv0uSM5A+mM2iyVntWLp0qWwITX752bNny0b/7JkJbPDOb/itS1mY3WBkkCiCd8Bm3NwHSRegbt26sr8fe7Kyh+fgwYOlfMaMGbJh9zHHHCObYdevX1/KUebXrl0rdUQR51mccMIJci2VhNURY4KNyNlg/8MPP5SEEy6ZQlgdSTzCJt3sbcp7U9ID0hmzTyUJYT755BNJHxpsm7xr2isbzAOyir5J23D7Mz/88MPe9ddfL+lO6eskXaB/1KxZU64rSlRA5pFindT0JPchoYxjypQp3ldffeX93//9n3faaadJqnYIk/cH6jvJhmQQrm7BsZT7mzx5stw79StTpowkOAorR51Ehp9//vki/5H9OZXkKBSUWiV1WCXNWAUry8cqMf5VIylubafwz7KycuVKU65cuSxpcjm2ypoc8zvbueQ4Hfniiy9Mu3btJB1h5cqVJeXt6NGj5ZrthPLsKAumnrWCx1gl3/To0UOO7eCZmfJv3759xipg5rzzzjNWyZWynMAqzZnvkDrYjm9sx5fzbt26GasMGis4JP0x7Nmzx9SoUUOOoVmzZpkpCDt37iz/As+Bvx0FwupICuLGjRtLOSmLSUcMierIu5w2bVrcFMFKNKFvkebZQZrvYHpuGDBggClYsKB/lpE6d86cOWbBggXS/kmja5UAkVe33HKLpNa0xqopUqRIZt9QlKhgDXYZjxmTRo4c6ZcaSZVbokQJ/8yY6tWrSxpwiCfvD6bvJBvuFxnN2Bika9eumWlu6afWSJXjsPJhw4aZ9u3byzHXeS7J7ssafpBi8Gpdc8014sUi0xSeCryLjqefftqzipx/9gdYSmTgwcsRBI8tXj0gdWzFihXlOB3Bu0r9SXNrO4qUYRkCmaeKFSsmx0FIqUvGIr6HR5BngacWTjnlFM8Osl7evHnlPCchDS6QLQbPFO8Wzj77bM8qb5Li13mr5s2blyWrDFYu7QF4x1bhk2PSKeP5jArx6kjaW1IoAu+Btg2J6si7dDMLSnqA14oZIBdSUKhQIW/dunVyDHhkY/sn3nzkER59vFcdOnSQ926NTunjHNMnmE05mEx7ipJMjj32WMl2F9s2Fy5cKPLMgYx2MjuevD9Q30kF+fLlizubyz13795dPNCEAZLxL1E5M24XX3yxHDN+f//991LXZKJKbYpBsNMJmHogpS0Nonnz5nKN6Tsa26BBg7LEpsELL7wgnSURTA9Uq1bNP0s/6CgulSrxsdaKzJzGD8Mpj+53DJSuLFm0bt3aa9q0qRx//PHHIgCuuOIKOaeDT5w4UQwVly+b6SfS9zo45nfwyCOPeM2aNRNl0VrSXvXq1aU81YTVEcGYP39+b9y4cVJH6gqJ6qikH6TFXLZsmRiOwLEzoBnk9u3bt1/KY5cnn3b8+eefSzsBwk/4PsrBkCFDvJEjR0q5oqQDOElo8w6O3XqOePI+Ud+JGow9OMeuvfZar2/fvqLIJipP9CyShSq1KYb4m1hOPfVU+XfSpEneAw884F1yySXe3LlzpQzwcN10001iOYaBJwQrKd7fTzewbIcOHSpxS85TG0Y8j59TcJMNVuxDDz0kxoWzgjt37izxgsSTElf15ptvyveC98ixs+KJ+33iiSfE8CEmEQUgSsSrI+2SeDNmEXr27CllieqopDfE4GHUtGzZUs7pp4mMaQZAvLaOvXv3yr/EKbZo0ULazI4dO6RMUaLObbfdJvKMmTRiwzHY3KLmePI+SGzfiRrMCBMfzP0zBhNzm6i8Xbt2MtPCmL1y5UpR3N2zSBaq1EYUPLNMpb/66quyEIzFTQ6m5Fu1auWVLVtWGlP//v0zlQcHVhTevUMBgugHDBggoQMbNmzwS+NzwQUXyL+uI6FMOQ9RsuG+u3btKlPwbjcGpuEdKKoIOowYhISDY8pYTIVhg0cUwTFmzBj5m1EiXh1ZOIBxcdddd3nDhw+XxX1hdVTSm3fffddbtWqVzBzx/hctWiSD+oQJE8TQYfEfMsz1RwY7DPQ8efLIOTBF62Yy4Mwzz5TFh8rhB3Kese1gPyiRqQbFDW8sC6No74QiFChQIFTeO2L7ThRBr2AxJ8oqfZKFboypYeXMzjDbghygXxOCwLNIJqrURgSU2GCIAbEpeMAaN27sPffcczJVy2pJwNpD4eXTqFEjmQp2cYwOVhxHZar6r0DdUYpQjlhJHVTe6UTAQOlgFSbTmt9++60ohXzuvvtu/2oG/I5Blh0UcgriBBs0aCCDNd5VVpeikPOvY/fu3d7ll18u8VbBLcaIRS1VqpR4q8466yy/NMOTFSVFMF4daYcu5ABh7z5hdVTSF2QSO3N06tRJvE3sXlC6dGmvbdu24r0qUaKEhJk4TxYQOxg7w3TDDTd4u3bt8s8ytttzcXnK4QUzkwMHDjzoD+F5qYZZUZRxZByyEOUWL2aYvId4fSeKMJvm+i7KesmSJWXsDCtHUUcvIZwCxwYhg87RlCxUqY0ATFugFCxZskQsPYR6jx49ZBsQQDHD2kHJDXq7wqCTEcuCxyOdYdsthByd5Pnnn5ctpFyc3rZt28RjDWvWrPHGjx8vnQrLkGOmQIhjQhHGYwjEKBOvh3HAd/Eyfvnll3ItO0EBZxr1sssukzhpOjzeYuc5Z/EXHlgUVrY84d0inHn/XKMNVK5cWQZ2hAf14J7x1t57773yN1JNWB0xsFg0hpeCaWbCEFBuwuoILJbkeWDxjxo1St6TEm2QSRUqVJCFqYQEsSCTPslAdtxxx4kMox8SP0t8tQNjhvYR5M4775QBnz7L4F6nTh1ZMKsoUcLJ4hUrVshMaNB4R5ljHO/du7csasaYC5P3YX0nlbDol7U7xLbjOd68ebOUE+bIFqGMP8y44IjAKA0rxzGHMs86Fq7jlEo2uk/tIQieyB9//DFTKT4cwQuLt9atyowKKNN0et5N7EKaLVu2iFCI9VKxyApl4Morr4y7QjVqYFRt3LhRFg1gqQcJq6NyeEC/pC0HZyCAfsHgT39lhbmipBPMFqLYsv6FhWCORPI+XSCcDCUXp0UwbCisnHEXTzTjVbw1LjmNKrWKoiiKoihK2qPhB4qiKIqiKErao0qtoiiKoiiKkvaoUqsoiqIoiqKkParUKoqiKIqiKGmPKrVpDqsrg/u0OtwerocCbE/2wQcfSF2DsMaRPQHZhiQMfuOyE/FMWJkZ/LBLRNTQtZvKoYK2ZUU5tIlaH9fdD9IcUqeScYw974B9bCkrXLiw7BVXtGhR2bQ/XWHfSvaaJV0sdSIRA9takQL4lltukUQU7I9HIgC3Hy2w/+yTTz4pSi3JF8hRzT63/K0gpKB97LHH/LPsASOD/xfbmbD3KilBy5cvL9fq1q0rW16xxQt7FJKJJQj7BbI/L/sUA5t3L1++XDLHkVIxKoTVkcw47DvLXqQYHGTRYW9GCKv7jBkzZG9a9ntkD0dSLyrRh+xI7FOJzGHbOfZ9PuGEE/yrGftC099IBAPsTcy+lextzJZv7EF9yimnyDXK2eaL7b6uvvpqr3jx4lKuKFEhkVwPk2GkjGbrKxwqpKwnKQNETa6H3U+iPuvgObB/L/uV84zc30HvYJ/ypINSq6QOq6QZq8Rk+axdu9a/aowdLIxVBPyzrKxcudKUK1fODBo0yC8xpl+/fsYqc3K8a9cuU7ZsWTlOR+wAZ9q1a2feeustU7lyZYwvYzuPXHv66afN3Llzzfjx481xxx1n/vnPf0o5WIXWXHzxxebxxx/3SzJo27atscLGtGnTxrRu3Vp+t3nzZv9q9sE7cO+QOlgFzljBJufdunUzVjAaKziMVbilzGGFobGKn9yfg3e4Z88ec9555/kl0SCsjlaBMY0bN5Zynq1VYOUY4tWdutWoUUOOoVmzZubdd9/1z5SoYgcv06RJE//MGGtUm44dO/pnGQwYMMAULFjQPzPStmfPni3H9OmWLVvK8axZs4xViOUYSpcubawS4J8pSjQIk3lhMuy9994zJUqU8EuNqV69ushziJpcD7ufsD7r4Fq+fPnMN998I+e//PKL6CyM2yNHjpSyZKPhBykGrxZ587H08KySScc2FP+qJ1mzsIJiwTvCZuXXX3+9X5IBG5ePHTvW27t3r1hM6eylJTsY9S9SpIhkaQE8fEB6YLKy1K5dW56BK7dtWjJVYWHaQVbKHFbwSMaqvn37ileXzaEvuugi/2r2gscVTj/9dPFa8m6BfNgNGzaUlIqkRwyCR8t5NR1k4YpqwoV4dSSLjkvZjNeNtu2IV3dyo/N7BykX6QtKtMEjs2nTJsmyBIUKFZIUuI6lS5d6xYoV888yIPW3S7rBv2QiArxZvHcH3l7XthQlSsSTeWEybOHChVnaNbNW06ZNk+OoyfWw+wnrs0AWQMbooOeWWVN0kNixLZmoUptiOnToII0dQY77nobTvHlzucZ0Bo2N9HUoa0FIZYeCEIvLuc50+8qVK+XvpytkF3L5pUm7SnYqN93DVA7wXEhP2KRJEzlHkV+1apXkm2aqByOBHNsQNABQblGIcwJSxTZt2lSOyaxCBycnOKAIkF4RQ6VXr15SBqT6RcmOzYsfVcLqiGDMnz+/pEalji6VJMSrO9PWpJR0cMzfU6INWZOWLVsm063AMfnegRh44txjMyiRYY5rwL+ECBHTrm1ASQfCZF5Y+w22d+CYcSydCOuzgDJPutyooUptinHKWZBTTz1V/iVfNDEspN6bO3eulAFWII0pngKEkkfKOmJ6yM8/ffp0/0r6gldo6NCh4tFxHlkH+eVRVlu2bCnnxHFClSpVxGNNWta2bdtKmYO/h8WZ0/E+xFE99NBD3uTJkzOt4M6dO3s1a9aU90NMIjHBxGCRbvCqq66S76QT8epIu+TZ8l569uwpZRCv7vzeGS7AsfP+KekBMXgM8K4P0k+rVasmx0GIE8dThYzC40VsIjHv2gaUdCJW5oW1XxxMHON0+fTTT73PP/98v8XOUSesz6KDsKYliqhSG1FoRIsXLxbli4Vg/fr1869khCS0atXKK1u2rARk9+/fP1N5GDNmjHh8u3XrJgpfu3btpDydYQHKgAEDvIIFC0oebce2bdskYJ/gfZ4XubedQcAgiwLM1EisdUzIB4HveBRzEu67a9euMgXPAiruA+vWgYce5W7gwIEiGHnXeLxQzBcsWOB/K9rEqyMLIxB+hHhgWLG4L6zuvC9CaRwcu3eoRB/6HDMjzBzx/hctWiSD94QJE2TQJwyIds1AyCDPok2UYNrLmWeeKbJK24DiQM4zth3sB2Ux2cTKvLD2yywGM1PIc/oBoQgFChTwv5UexOuzOIVwsjn9BA8uDjj6fSSwyoASAVhoMWTIEP8sIwB7/fr1csyimosvvlgCz2NhMVRwoViXLl1Mr169/DNjzjrrrLRedEHdWOzWvHlz06hRI1OrVi0p37t3rylcuLAE5fNhwdybb74pwe4nnniisZa0fM8aBJm/cVStWjXLs84JRowYYXbs2CHHBNjz7qZPny4L3By33367sRavLLphkRgf7otgfALuHd9//33kFopBvDqysCD4bHPnzm2soh5a902bNpk77rjDLzXm4Ycflu8q0ccalWbUqFH+mTEvvviiyBrXlmkPV111lRyDVXIzZRrHTzzxhBzTXoIyrHjx4mbfvn3+maJEh3gyL0yGIbd79+7tlxoZx6wC6J9FT67Hu594fRZ9xPVxPiwUswqt+e233+R7wPibqoViqtRGADpJ0aJFTe3atUWY7969W1ZNfvzxx3L9xx9/FEWsUqVK5rvvvpMyR6xSy9+qUKGCsRaieeaZZ7J0qnRjypQp5sgjj5RdD9yHFdYMnCi0wfKjjjoqc5eICRMmmCJFisgzYPX19u3bpRxQek844QTZISGnGDZsmOyskCtXLlGwrcUuSuqvv/4qit26detkl4DYlaQrVqwwNWvWNCVLljSvv/66lK1atUpWhrOLwPDhw421+qU81YTVEUHPjhSsgGW3AwwOSFR3dqJgFxCusaI+KByVaPLTTz+ZCy+8UN4/H9pC586d/atGZBfnefPmFWUXhg4dKru70EZYHY1cA2Qau5KwW8akSZOy7ISgKFEhTOZBPBnGtQYNGsiYjOybM2eOfBeiJtfD7ieszwIygO/yGxxpKLY4aDB00V8YyxiLk43uU3sIwlSf7Uiy0Mo2OL/08MIKFVl9z96XUYJ3QwgF7yV2Ic2hAnvRsqchiwxY3OdIVHdinxFFbqWtcmiCXLKD/X67jhB+QygD05uEWylKuhFPhjFVT7tmXQyLK9ORsD4bVVSpVRRFURRFUdIeXSimKIqiKIqipD2q1CqKoiiKoihpjyq1iqIoiqIoStqjSq2iKIqiKIqS9qhSqyiKoiiKoqQ9qtSmOWyTxLYhsbBFzqECGUs++OADqWs8PvvsM//oD7799tvMTzDbi4NntmbNGv9MySmCm6scTOpT3YxFURRF+bPoll5pTpcuXWRfx/vvv1/O9+7dK2l0r732Wm/p0qWSj/3SSy+Va+nIK6+84t1zzz3eTz/95BUuXFhSrpJvm31op06dKumDjz/+eEnj59i6dWuWPfVq1qwpaTuD8FxI8ffll1/6JdkHCjOpe0kVSxrf22+/3Stfvrxcq1u3ruzjyl6tpPEdPHhwwnJSLJKS8Oyzz/Y++ugj78EHH5S/m2oS1dHRt29f2Z+RHOF8n3dy5ZVXSvpIoE6kxXSQW5x3Sr5xJfqQ5vj9998Xo/GTTz6R9KEnnHCCvHdyw5MWFIN0yJAh3umnn+6tWLHCe+CBB7yrrrpK9pDu1KmTV7x4cflbpDulryOr6Af0WUWJEolkHu39u+++E9n2888/e/Xr15dyxuDdu3fLbxjDXDl7186ZM0f2USe9bNu2bSW1e6pgbFm+fLmk3Q+OpaT3fe655yStPHuP039JPQ98f/369bIvL2rkTTfdJM/I/Z2bb77Zq1Wrlnw3qaDUKqmDLCRk7Ah+1q5d6181kpnJZcqKZeXKlZIeNphRrGnTppKxCTZs2GAKFSokx+mIHfgkiwnZTCpXrozxZUaPHi3XbCeUZ0fZjTfeKGUOsqCQSY2ManysAPKvZECmMjIdnXbaaX5J9mIV7cx3SB2skmq++uorOSfLlhWMxgoOSTfoCCunbi5rzZgxY3I8ve/BkqiOQHYosuTRnsEKcWOVHanfggULTJ8+fYxV1uUakG6RFLtt2rTxS5QoYwcvyZzkIM032f7AGmRm3LhxIodIvengvZOViT68c+dOvzQjM5E1fKQNkImJbIDBPqAoUSBM5pGlskaNGlIOZFFE3lljL0vKeo7JOEbfsQZfZt+g3I3ZqWLXrl1Sj9g0uchkUvYD47DLBEn90DWA8bVx48ZyzFiFzsK4nao0uRp+kGJmzpzpXXPNNWLp4WHEU2EbkX/VE6+rHQT8sz/AO4KVdP311/slGbz55puZlhReMawrO4DIebpx9NFHS/3tIOe1b99eyvBiAhmpihUrJsexYCnu27dPvoMFXLBgQf9KhhcXb3Yw01VOgNcR8FDlzp1b/r+Ad7Jhw4aeVVazWObxyvFe8Tn22GPl/MILLxRPZlQIqyNhIlYAimfdwXtjNoH64Z2jjVaoUMG/6nlWqHu33nqrf6ZEHTwymzZtygwpscazZwdsOWYmpU6dOp4d6PfLooTX/u677/by58/vl3jeiy++KH0cbxZtn7aTSq+VooQRT+bNmzdPzh3MUDCeH3nkkTIbyGwGWAXYy5Mnj4TS0W9c38DTyfdSSb58+aTfxvL6669nZkgL3mfXrl1ldhE5wPj6wgsvSDlj1bnnnpvS/qtKbYrp0KGDd84558i0Xa5cuaThNG/eXK4xnUFjGzRo0H6xhjQilKBYTj31VBkUHHScnJhiTwak+UUwwPbt20URjZ3ijoV0fihITz75pEwPlSlTRpRYIGSB6SNrVcp5TtG6dWvPWrFy/PHHH0sHv+KKK+QcRWDixIliqFgLXcogXjlTuieffLIcA8f8vSiQqI6TJk3ybrvtNjl20MZd2AHTWbVr15ZjILYZA8wp70r0Qa4sW7Ys851yXLFiRTkmjn3MmDHSnjFGf/zxRykHBsUpU6aI3HNG0Ntvvy1G6MKFCyVUYeTIkVKuKFEiTOaFyWmUxCZNmnhFixb17rzzTq9KlSoSbkC4IGO7gxAdxrcoQqpz7g/4F12C/kyfJTSO8IrOnTtnKvtRQJXaFHPaaaf5R3+AYgooB8SwEJdIXKUDK5D4lXhKABYUng8UYWIT8ejmtFcyp8EaHDp0qAyGzlMbBs+EzsYASVwenQ4lCvgbxDTRKVFwMRSIf8opWKz30EMPeZMnT860ghEA3Bf3QUwinvWwcn7vlHrg+GAWWyWT2DrihcAQw0CLB/FlxFNixAHPf/PmzRJnqaQnxOAxwBOnDsTA16tXT9rzmWee6fXp00fKS5QoIfKsevXqYtQ0a9ZMyp3RSQxeixYtvJ49e0q+eUWJIrEyL5GcZjxifcSePXu8Vq1aSYwqXl2UY7ygOGGIrw1bBJ1q0CGmTZsmYyWKK7Mp3Ct9Fq8zM2/33nuv9PeooEptRKERLV68WDwbWHYsiHIwJU8HKVu2rARk9+/fXwYCKFeunIQlVK1aVaYBsA7xeKYzLEBhQRHTHBs2bPBL48PgytQmz4HFYXi98QLB+PHjvQIFCojCRQdlOoip0JyC+8bIILwE4YU1zlSVA+8lCmxYOcZNcOcGjp3BExVi64injXAX2i3KKsp58J3hwSMsxDFw4EAZFPg+3j4MkgULFvhXlajDgLxq1SqZOeL9u9kQh2vLwDt2HirKWTgGhN44Lz+gCLMQRzn8QM4zth3sh/CsZBMr88LkNO0bBZAxhgXOhN4g/6B3794SgsU4xN9hXIoizLhx/xiu3Cd9k/Ez2GcZb7ds2SIzNJHAKk9KBGChRXAREMHZVjmVYxZNXHzxxea9996T8yCPP/54loVijs8//9yUKlUqy+KddIS6WeXdWOXUNGrUyNSqVcu/YiTQniZMPR0ErfMsWUgGLE5igQqwsM5ax/KxipU56aST9ltEll2MGDHC7NixQ44JsOfdTZ8+3ViDRMrg9ttvNzNmzAgt571fffXVmYtmZs2aZdq2bSvHUSBeHVns4z516tQx1rAwv/76q3wHKlWqlGVRBIsm3Pdp/yxEsAOFf1WJMtu2bTOjRo3yz4x58cUXzTfffGOsIe2XGGOVFFk0AjVr1jSfffaZHLOI9dprr5Vja2yaLl26yDFcdNFF5v333/fPFCU6xJN5mzZtMnfccYeUwcMPPywynQXL1qj3SzMWYz3xxBNyzEJZa+DJ8QMPPGCWLl0qx6mE8TR2odjkyZMz9RCO3f2zGG7RokVyTL1YeB3koYceStlCMVVqIwCdhJXitWvXNvv27TO7d+82JUqUMB9//LFc//HHH03VqlVFIXAdwRGr1PJdFAkanVPs0hV2KTjyyCNFcXUft8KaujEQUnbiiSfKamtWTq9atUp2Nfjb3/4myu3EiRPl+7EULFgwx3Y/YIX3cccdZ6xFK/d2zDHHiKKGcofyygpYFDu3kjSsHNgR4bnnnjPbt2839957r7SNKBBWRwfvjmd8zz33SL0c7MbhjIwgK1asEKWnZMmSYnQo0YYdCy688EJ5/3xoC507d5ZrL7zwglm8eLFZvXp1pkwDdrugP3744YfSlumrQL9lJwWMzlgFV1GiQiKZ17p1a9mNB1lHW6ZNY+C1atVK5BkKMLscuL7QokUL6Qf0BxTcVENffOqpp8TRM3z4cLk3QDFnBxvuH+MU/QLQWXA0YXw+9thjZtq0aVKOkwJDF/0FeY4ukmx0n9pDDNvYJFA9GLh+OMJelyxmiRpMRzEdz360wWn4sHIgHotpNuJOiWlKZ6xVL4slgjFoyqEH+17SB5miDL5rYvG2bdsm5S7OHGj/hE0RKkXYlKKkG0zBo0653QKAc3Ygon0jv4N9gdAd4muDOydEEXQKwiyCe78Da1OoG+VRCnFUpVZRFEVRFEVJe9RdoiiKoiiKoqQ9qtQqiqIoiqIoaY8qtYqiKIqiKErao0qtoiiKoiiKkvaoUqsoiqIoiqKkParUHgKQkemnn37yzzKg7FCBnNOkX2VblCBs3EEGKpcxLJbvv/8+S6aXWH7++Wfvs88+88+UnEA3V1EURVGShW7plaaQWrV48eKiNLDfI3vekU+fc/Kr33DDDd66deu8O++8U9LLpiuvvPKK5JJHaS9cuLCkG6S+KKykHSQNK/m1X3zxRe+uu+6S3/BsBg0a5A0fPtybNWuW5JwPwrMi1SF7ZdatW1dSdmYn//3vfyVVKHvKku7z9ttv98qXLy/X+P+xfyf70f7973+XvOAwY8YML3fu3N7nn38u909ucWC/z+XLl0s6ZFIVRoVEdXT07dvXu+SSS+Q9wZQpUyQ1MQbXaaed5t1xxx1Szh6IQ4cOlRSMGBq02eOOO06uKdGF9Lfvv/++GI6ffPKJ9ClkEIwdOzbzPbPv8qWXXirpk2fOnCl7da5Zs8Z75JFHMvdknjhxoqS4Jmc+KUYrVKgg5YoSFRLJPOQ3KaCPOeYYkWH169eX8rffftt7/fXXva+//trr06ePlAHOmLlz50q6WWT8gw8+mNI9yMPGGe77ueee8y677DLZkxbdgvS+YX0ZWU45Yxl1ZGy99dZb/b+WJFBqldRBFhIydgQ/a9eu9a8aYwcLY5Ug/+wPyP5BClxS2wUzOZHN49FHH5VjspeQXvd3P81quvHFF19IFhOymVSuXFmyh40ePVqukYGLDEVkICLLi+1QUg5kp7KKkXx/2bJlfmkGXLPKZNysVtlFv379Mt8hdeD/59IVd+vWTbKEWcGR+V6+/PJLyc7kzs866yxjBYUck4Jwz549+6UvTDWJ6gibN2+WLHm0ZyCdJFlmHNWrV5e6gR0AzNatW+W4QYMGxgpPOVaiC5mDyJzkIHufy/ZH5iWXIpPUx2QoAr5jFWA5JpOSNcrlmL6wZMkSOQZrnKatzFIOXcJkHvK5Ro0aUg5k83z33XflmMyXZNtq2LChnDtuvPHGzHF7zJgxWVLkp4KwcaZu3bqSsh8Yh122y7C+TEbMxo0byzFjABnKko2GH6QYrJprrrlGLD07sItHwzYi/6rnWeXNs4qcf5YB1tMzzzwjXj/biMRT6eC7119/vRxjUR199NHiUUlHuHfqX6RIEa99+/ZShncTGjVqJN6c2rVrS31dORQrVmy/rFyAdWmVY7Guy5Ur55fmDKtXr5Z/yRaD1cq7BSxzK+A8K9TEMwV4s/Bico5HmjALPJyQL1++LJmXokRYHbl/KwDFs+5YuHChd/755/tnnljwVth7VtmV93LBBReIl84qQ+JBV6INXqtNmzbJO4NChQrJzJAdU7zu3btLv+Q7zZs396zyK98hjIisS+C+D3jlkWeEEfF7vD+ubyhKlIgn8+bNm5clKxhyjvEcGIdiPbBkh+Tjxu0LL7zQs8a/HKeKsHEGL7PLkMa/r776qhyH9eVKlSp5jz76qBxbxV90m2SjSm2K6dChgwzwTNvlypVLGg4DATCdQWNjKh1h72DqmikClDrc/g8//LB/xZPYU6bvHChMTC2kI6Tec2kFmZK3VmTmdA/1Ap4LSpEbOBMxatQoGThJn0tIxk033SQGQnbTunVrr2nTpnL88ccfywDtFDUUAaZaMT569eolZcB1pqPatGkjIRNRTPEbJFEdJ02a5N12221y7MibN68IQgfHvFOmrlBq+A317tixY5a2rkQT2ueyZctkuhU4rlixovRFjBqM9SVLlkg7+fLLL+U7Y8aMyRzk3PeBUCkM8AIFCkg/DvYLRYkKYTKP0JtgWnqOuR7G//r9VBKU2/xLXyY9blhfRjHOnz+/N27cOBnjGOuSjSq1KcYpZ0GcUspATwwLXjsUHgeWH0pZ27ZtxQtL7KhbGIZCELQMUxmnk13g8SHmEm9m0CML48ePF09ty5Yt/ZJwiPGBFi1aSPzfggULvP79+0tZTsA7ITZ28uTJmVZw586dvZo1a0rMFe+OmGDHzTff7DVr1szr0aOHxJ6mA7F1xKjCEMNAC4KSi4GC0oOXgthhlJ+9e/d6u3fv9mrUqCHfoZw4aiV9wMBmgKcP8j55v2XKlBGjES8ObT4I75t++8ILL8g5MebE7PXu3dtbtGiRGDaKElViZR7nzvkCHLsZjHj8r99PJYxFzKihV+ClRp9Abjti+zLgga5Vq5aMyz179vRLk4cqtRGFRrR48WJx959xxhlev379/CtZYaqDkAXXKZjKCHofOeZ6OoMCOmDAAFHkN2zY4Jd63rZt2yRgn+B9nhcLwBLhjAUGYLc4DG9hTsF9d+3aVSxaAuj5fzFV5eAeUGzxyLupe5QAFt4MHDhQzqNObB2HDBkiiivtdvPmzaK0887w6GG1Y1jQJmm3eOYIxwiGG/BMVq1a5Z8pUYc+x/tiUOP98z5Z8Of6Wuz7pG0/++yzYri4RWX07erVq3sNGjSQcBSUYhalKIcftIVWrVod9Ie2kmxiZR5tnXbt4Dg4WxrL//r9VIKj4e677xbDlfrSt53DIl5fZozDIYPyy8JtHG4s7k4mqtRGBJQyPg5iWbAGGzduLKsPmZ5gpXEseDmYunONCi8gU7pAfCZezquvvlrO0xHqTqegc7ALgrP86DjE7dGx8LwSoxqc3sYaBurvwBMKhCA4D3bRokXl3+yG3RgYpFHYWAFLCAjKXTAUBCv38ssvF0u3S5cufmnGFI6b1o0y8epIDDSCkA+CmueLF452yoDFe+L7KLfsfsD1PXv2+H8x45m4eGIl2iCT1q5d63Xq1EkMRQa3PHnyyHtnsIfg+2RV+IgRI8T7w5Sr88hj0LkYeNo+MefBvqwcPjAziUF/sB9mhZJJPJmHTAtuDUksaalSpfyz/UHm45114/2Bvp9KmB1FjyDUEUPThV+E9WXiaV3IAWOY+yQV+2CVFLNjxw5ZKW6VNNmxwA4EslLcDhpy/ccffzRVq1Y1lSpVMt9995155plnTOnSpWWF8fPPPy+/d/BdVg+zq0KHDh1kZXG6YjuUsZ1fdjFwH1ZYW4XVFC5cOEu5VVIzd4lgxb0VHFJep04dY40BKYeHH35YnrO1tGXFqlV6/SvZB6u/2ZHBWrTmxBNPNLZTy0rXX3/9VXZtWLdunawSdStJWXVqlXezZcsWufcyZcqYb7/9Vq6tWrVKdrpgFSmryK0yKOWpJqyODt5dwYIFjTVEpL5cY2cD2irPYM6cOf43jXnyySfNq6++KnWl7Qb/jhJN7EAnO3bw/vnQFjp37izXrEEu/YvVz7xzq7RKOSuprdIq3+ffkiVLSjntg11OrJIg7cIaP1KuKFEikcxr3bq1jLm0ZXYF+e2336R8xowZplGjRubqq6+W8drJdXbAQeZv377d3HvvvTLmp5KwcWbo0KEyJrHzAX0U/QLC+jLfY0cidm1ipx92gkg2uk9tmoIHhMUawYDzIEzL4MHF86FkBa8hlmYqpnyIR8Jjy2K/4A4NrhwPsrPkDzXwmjNdjeeOthsEbx0LEK688krx+inpDQtKWBDD+zz++OP90nDoj+vXr5c1BuyEoSjpBrsBoE653QIOBDNUjNNXXXVVpNe+7NixQ2ZeLrroIr8kMYyveHVZZMbi7mSjSq2iKIqiKIqS9mhMraIoiqIoipL2qFKrKIqiKIqipD2q1CqKoiiKoihpjyq1iqIoiqIoStqjSq2iKIqiKIqS9qhSGyHY4uO3337zzxQHG7GTfjWYng/YuINN/EmmEAtbkIRlC/v++++9Xbt2+WfZD/9vMiOxaXUQ3u23336b+Ym9DmRJYzPuILQLyqNE2DtxkC6VLW7iEa+OlLENlJI+0IcOlJGP7wRTgJI0JVEK6HhtQ1GiQJhch7B2zfZWQZkf3GyK5CVkX4wKwQQSDu5/06ZNmcmMYmGbRpfsycH4ynMKJj5KJqrURoj27dtLnmXlD8hUctZZZ0mq32LFislepkDHKV26tKRaJXXf2LFjpRyWLl3q3XnnnZKJjBzUwQ75xBNPSLo/0nmSCSa7d7SjM5OqmIwzpILl3EE639y5c2d+OA9CdhrS5L722mt+iec98sgjXrt27aRdkHUmCpmWwt6JA+FfsWJFyS4TS2wdGSDKlSvnzZw5MzP1pRJ9HnzwQelD7EPZsmVLvzQDlFiyPZEmc926dZl7Lvfp00c+pBiNl/Y7XvtXlCiQSK4natfsye3kPceMN8jw66+/3ps9e7akE+dvshdsKsDRMmnSJO+GG27w6tev75dmMHnyZJHNGK7cO/tIx9K2bVuR9Q4yrlWuXFkcFGXKlJHxNunYh6xEgK+//tqccMIJpmzZsn6J8sUXX0gWE7KU2I4iGcJGjx4t18hKNXfuXMleQpaXf/7zn1JOhrAzzjjD9OjRQ46POOIIYzuaXHvnnXckY9vvv/9u7OApf4/nnp3Ywd78+9//Nlahk79PRi0HGZfIBuc+e/fu9a9kZGiqXr26/GbQoEFStnr1ajl/4YUXzH/+8x85tkquXEsVid6Jg8w0lN9xxx1+SQbx6shz4JysU2Tf4ZiMVEp0mTVrlmQytMajsQO8vDOX1ZBMSrz38uXLS+Y/B5mW6IvLly+XLIdkCnSZxiBe21CUqBAm1xO1640bN0qmMSfvp0+fLuXPPvus/I1NmzbJGEU2TGR8KrCGpGRC435uvPFGvzRjHD3llFNMvXr15Pzaa681xYoVk2MHWSPz5s1rTjvtNL/EmJNPPtnUqlVLjh977DGTP39+OU4m6qmNCBMmTBBLcPHixZJ1CcirjvXHhzIsOyxCrKsVK1Z4vXv39vr37y/ZeJjq5Xt4SLiGd+/zzz8Xjyb5mynv1q1b5hQv/3bv3t3r1auX/A3yOPN9/hb/D8qWLVsm300VRx99tGeVV69IkSLixYa///3v8m+jRo0kH3Xt2rXF6nXlPD+mLzkn5zTZjJwXt2DBgpJljYxVeG8bN24sFnR2wd/s0qWLV7x4cXkXxx57bOZ9ce3NN9+U6RysYt5PMKNZ3759xbscBC8X8L5z5colz2PRokVSlioSvRPAuqf+8YhXR2toyL/U0b2LVNdRSQzvvlmzZtKOGzZsKP3JZS5kZgFPqx3Es2RJwiNlxxtpK2TTI2zFGqT+1fhtQ1GiQCK5nqhdW+M8U3bfd999XpUqVaScGQ6wCqNnDXkZl9y1ZENWS2bbYsE7+/XXX8v9A7J55cqVmbNyZIAkxCw2Y5hVYsXzS3/evHmzyINko0ptREDJfOihh+T4ueeek3+ZikMhRXlF4T3jjDO8c845RxQBBpS7775b0uXSYUhhxxRu586dZap62LBh3qpVq+RvotQxrUsHrFOnjvxtFMK33npLrnfs2FEUiRNOOEGURBTkJk2ayPQ8jTdV/OMf/8icuqST0YHKly8v56TTBAQKcUncL7j7db9jYA3WwYUtkJKW+tMxswsUPqeYYSAA7wgQCEuWLPH+9a9/iRBp0aKFlMOsWbNEYKJwB3HpQokzRLDyYWo/lSR6J8RPkvaxaNGich7kYOroYtVSXUclMa7vAW3g9ttvFwON9zZ48GA5Hj16tJcnTx7v5Zdflu8F+6VTdl1ZWNtQlCiQSK4natcotYMGDfKaN28uqc8Zj6FatWpejRo1JBaV8DicA6effrpciwqE9GGoIpchKJtRdAmdwykUC84wlHjCEnhWdevW9a8kD1VqIwAePBQdPBUMCAwEBJVDmzZtxLuH9UOsaPXq1TNjMRcuXCiKhIvDxSuJ1+Spp56SxVNVq1b1brnlFu/mm28W5ZfOycIqGiVB6gxOdEQUFeJ8COzmb/HbqVOnyt/CO5xquK+hQ4eKgh/0CgJWMZ5aF9cX9A45nBIGdDjqiFDC+83fzQnwgg8ZMsS79tpr5RzvFjGDeLGwzLmGkos1jIJduHDhLIIDi79s2bIi8Hj3eAogzAuabOK9k+eff17isjAcACWc+MpEdUT40U6ZRRg1apRci0odlcQw4JHjnTg6QBYhqzDGn332WfEC4dHFuxPWLxO1DeXwAwfF8uXLD/rDuJZMYuV6ovGGtQcosh06dJBFWPwLyE7GXhwx/B5HE06PKHHiiSdKv2bWE0cZMcSsX8HwRO4j5+nX6BI4lpjhBeT9TTfdJDKc8Q1vdNKxN6SkGOJ1iBEl7oZYNF5Lv3795JoV9BLbYhU3M3DgQCkjZoXvbNmyReIyXWxmyZIlJcYliFViTaVKlSTG1CpWmTEu/L8uvfRSM2HCBGOtUIn3IcaHv3vvvfdm/l07SMn3U0nXrl2NtWrleP369fIvEA/00EMPSRyfHQQlhom4JuowYMAA+Y5V9I3tZHIchJghax2bJ554wi/JPog1soaHHH/66adZYmeB+7WWu5k8ebJZsGCB3G/sxyrc/rczsEqfOeaYY8yyZcv8ktQS+06sAhu3HsRHHmwdaftnn322+eqrr/wSJarYQczcd999me+KNkB8Ou+1QoUKUkZsLeeffPKJ6dSpkxxbBdbYAVyOkUkH2zaUwwPkhVWeDvpjDWH/lzlPPLke1q5jsQquueqqq+SY35x33nlyPHLkSPkN41iqoC9zD8GY2iBvvvmmXEdHAfQMzoMf+vq3335r/va3v0md+Ju8H6u0m2+++UZ+lyxUqU0xe/bsMU8++aR/lqGE0kguuOACUX4Apddaf2b79u1y7hbivPrqq3K+du1aUepobChqQa644gpRFADF2Cm1LLAi6H3z5s2ZCzpoiCi4dD5rcZlffvlFFMVUgpBj8Vzz5s1No0aNMoPQESiFCxc2zZo1k0+5cuWk83Hf1BElEIOA5+QWMqHAjxgxQo7hoosuMu+//75/lj2wgIpFaNwvxgHHKNA8bwLnv/vuO/kedfnyyy+lHiyM4tOlSxe53xYtWsjCMMfWrVvFsHEL3lJNvHdC+3P1eO2116QetEfa7MHUkd+cdNJJWYwWJZogl3jndevWlb5Xu3Zt07NnT7mG4XzdddfJMd8588wz5fv0M947fXTOnDkizz7++OODahuKkmrC5HpYu0bB47uLFi2S3zNG074BY9CNySjH/D6oAySb77//Xu6hVKlSfskfMIbSnxs2bOiXGFHeXZ9lgTZym0XYLCLm77gxlueUK1cueU7JRJXaFEJjYgV5/fr1zeeffy5lDO5YNzSOBx54QMo++OADc+utt8oxIPBvuOEGsYr4PauRUU5Z9c9KTCxKR82aNaWscePG4gnD20ejZLChMV555ZWmTJkyYoWhmKB84d1EGabzpdJTSz0QEjwL9+nYsaMo4Si0wXKembtXBAzPa+jQobJK1RkHDJY8i6pVq5rHH3/czJs3T8qzi23btplTTz01y30VL15crj333HPyvs455xzZwWDVqlVSHmTq1KnyG5RGQOnFO4/SgFCNAmHvJAiWOeWxux9AbB2ZHfjXv/4lAnDXrl1SpkQbjOzg++fDTiSAEXzZZZeZSZMmmaJFi8rMiaNv377yW+QafTOW2LahKFEgkVyHeO0a5wVjKOMNYzDfweEC/D36CIZgq1atZAxP1TjLbKczJk888UQzbtw4GS9RRDm+66675N8wChYsmGX3A2Y+6fdjx44111xzjcxGJpsj+I+tkBJxiHl1weoOFuUQYM4q/0QQd0Tgt22ssjAqb968EstI/BIxpsTBsQqT3Q6IFSK2zXZKWZiWrlBX4pKJFw7CcyRmLxV1I8aU+zruuOP8ksTwXni3rLY9VOF9nHzyyRK/rRw6IHPoY7Exh7Rp3rXbLUFRDgXC2jXlxKfGgtpFnC3XkH9Rg7EKPSB2DcvBQKwteka+fPnixhznNKrUHoawOOPcc8+V1ZfsmkDnYqN0FoexLYmiKIqiKEq6oUrtYQrbdpFxC+uSHRfY4iueRakoiqIoipIOqFKrKIqiKIqipD26T62iKIqiKIqS9qhSqyiKoiiKoqQ9qtQqiqIoiqIoaY8qtYqiKIqiKErao0qtoiiKoiiKkvaoUqsoiqIoiqKkParUKoqiKIqiKGmPKrWKoiiKoihK2qNKraIoiqIoipL2qFKrKIqiKIqipD2q1CqKoiiKoihpjyq1iqIoiqIoStqjSq2iKIqiKIqS9qhSqyiKoiiKoqQ9qtQqiqIoiqIoaY8qtYqiKIqiKErao0qtoiiKoiiKkvaoUqsoiqIoiqKkParUKoqiKIqiKGmPKrWHEb///rt/FJ+vv/7a++233/yz6LFu3Trvp59+8s/+4LPPPvOP/uDLL7/0PvzwQ88Y45f8wccff+zt3LnTP8t54t3DnyG7/k5OEOV7U3Ieff/KwRDWTv7X9qPtLTn8+uuv/lH6cIRtHDnWOvbu3es98cQT3sSJE70WLVp4xx9/vLd9+3bvhhtu8GrVquV/S8lpUPp69+7tHXvssd5TTz3ll/7BqFGjRNGrVKmSV6RIEe+II47wr0SH1157zatZs6b37rvvepdffrko31OnTvX69esn7Wr+/Pn+Nz3vvvvu8/773/96t99+u/fAAw94AwYM8CpXrux988033i233OLdddddohyPHDnSmz17tnfOOef4v8x++vbt611yySXy/4UpU6Z4X331lfd///d/3mmnnebdcccdUj5jxgwvd+7c3ueffy595KGHHpJyx3fffefdc8898hyiRrCOGE5XXXWVV7BgQe/HH3/0Klas6DVt2lS+V7duXe+HH37wTjrpJO/vf/+7N3jwYCmn7tTvmGOO8X7++Wevfv36Uq6kB7Ftkz46Z84c76yzzpL23LZtW5EpK1askP5I+/jiiy+8Tp06ecWLF/d++eUXb+bMmdL+MUTpj7feeqv8LeXQIVYWOmLL3377be/1118XJ0ufPn2kLMjq1atF9vfo0cMvSQ5h7RQVivs8//zzpZwy2jiEybYDyftkE3Y/yG/67nHHHSf/Hnnkkd6IESO8l156SX5DnRlXhwwZ4p1++umi8/373//2nn32WW/s2LFevnz55O8kFZTanMQKN5MrVy7/zBj7Yk2FChVMtWrVjB0AjW0oxjYUYxtp5odzWL58uZxbBUTOHZRPnz7d/Oc//zFbt26V73BuG49ZtmxZ5t956623jFVu/F8Zs2HDBim3HcZYC8TMnTvXTJs2zVilz/9GxnfGjRtnZs2alfnb4D3y/8tOXB25jzVr1pjvv//ev2LMl19+KeXvvPOOX5KBVYrkN3yf77jfUw48c8p4HmAVCWMFgGnTpo2cB3nyySfNY4895p9Fk82bNxsrJDC+jB0wpeyjjz4yb7zxhpTdeOONUgZr166VMtvJ5NwaUKZevXpybDuaXNu0aZO826OOOsq88MILci0n4L6LFi0q7wLee+89U6JECTmG6tWrm127dsk7vPDCC6U/gFUG5N0GsYq5sYqifxYdYutolXVjlRjz4osv7tduu3XrZqwwNNYAyazrnj17TI0aNeQYmjVrlvmOlfQg2DbpV3agy5RjvXr1MlbZleMFCxaYYcOGmdGjR5udO3dKGXC9cePGckx7skaPHCuHDrFywhGvHNnOeNawYUO/5A/QH6xxHHcsy2nC2iltun379nKMXoGMR76FybaDkffJJNH9PPzww2bevHnSd6dMmSL6AgwePFj0JJ5JUGfZt2+fsYqtue6668wnn3zilyaXHA8/wEIJgsaP53bhwoXehAkTxHtoH6o3fPhwzyonXunSpb2lS5fKd6+55hqvdu3anhWCcg7ffvutZxuKZxUEzyrL3gUXXCBWAhYG3h/7cuQ3xYoV82zn8AoVKpQ57X7FFVd4rVu39k4++WTv6KOPFmsQb1nevHnlun1hcl916tSRciwurEV3jwMHDpT/X3aC1xEPpO0Ick+24XvPPfecXOMesFpvu+028ew5eFZ4G7EG+c7ixYvFOvrHP/4h10855RTPKkvyPOBvf/ubPPdY8KbYDuk98sgj4lWLIljHY8aMES9ykH/+85/yjmPBO4Q12aVLF88aOuIZ5JnC2WefLf9aJVesTLyJVapUkbLshjZnjSqvcOHCfoknbQvL1oGlb4W3vEM8uFjCeJD5LZ4LB/0hXl1TTbw6An2uUaNG8nyD8PztQCX93M0GWIEpFr6D58O7UdKD2Lb5wQcfyJTliSeeKOcXX3yx9+qrr8ox4I27++67vfz58/slnvTtRx99VI7x4CL3lUOHMDkRVo5sP+qoo/yzrDAbkCovflg7RY+gnQNjuFXyvE2bNoXKtgPJ+2QTdj/MhjLDftNNN3nly5cXHct5cNEp0JPQxVxfB3SPU0891T9LDSmJqWX68dprr/XefPNNOedBnHDCCfJwcIE3b95cyilDecO1z4MGFGEaF79xcOwUOn5PwzrjjDPkoeP63717t1zjpfFdlNqnn35aBt7rr79erm3dutV74YUXROkFpuFRNPke8Lvg/zO74F7owDQElFRc+4MGDZKpOsB9jzLuBgamMFBwUVipJ8Te27nnniv1PxAox3S0/v37yzN98MEH/SvRgdCBli1bZipBB4J6E2JhLUavWrVqEurCewTO6YTWCpXwF2tdZxE62cmkSZPEGAmC8cRUjYNjpnqAdzx37lyvTZs23qxZszIFBd+hLgj6qBGvjoCRhZDESCS8w4Ggx6DFSO3Vq5eUWWte+oCDY0JhlOgTr23S/5C5jmAbB+QYbaNDhw4ic4EBEiV33Lhx0jZoI8qhQ5icCCsPA7l95ZVXipMpFYS10zC5nki2hcn7VBHvftBLzjvvPLmOgo6zwukcOBdxNvEMGEej5BRL2UIxHlpQUeFlo9BhCQXjI7Hi8L7h0cJyQKkLNpR4oPRNnTrV69ixoyi2Qa8AEHPJ/58O4sBiLFCgQJZ74kU75TJZ4FEtV66ct2jRIr/E8x5++GGJiQUEAZ7dRFCHg1ECeebEuPGc8NoSJ7Nx40b/aurB+8yAiTAhRhawJA8EnRFvLO0Ghf2ZZ56Rcv4GVmmTJk3kO7SNlStXyrXsBG8VxggzCUEQ4HiRWaT26aefiuXrjDW4+eabxatMrBhxt4ACgDIeNcLqyHMlzrl69eoi7DBI/vOf/8i1zp07S9slrox3i1FLX+WZODhOx8UJhyPx2iZGIjHUeK+YZSG+1rVxjEvkDW2D2TQ3gwIoKhiaOBl69uzplyrpTpicCCsPg3F/8+bNmbGqqSJeO23Xrp3oD4wvjCfMTtPmDyTb4sn7VJLoftANcPQ5iKFnjEWen3nmmXFjn1NFSpRaY4xYXSwScOAxbNy4sSwsc9aBg8ERpY4g7apVq/ql4TjPJ4owv42FgZbg9GXLlvklGUo2U9VBsEbcFH4y4T6CLnxCMlB2saTwjMR6YVFgeaYOOtTBKLX8HbfbAYrjZZddlsWrkmpQtFlIheAj8BxiwxBiWbBggQiZrl27yvtFkODdBzyHPEM81EOHDpXnhJGQ3RAOg+KKVwpBjPK2YcMGEXZYtiwmIKyFNo8hhWfLea2whlECCXXBsEHx5f4nT54sv+FvBhXhVBFWxzfeeMPbsmWLfId+SL96//33pV1h7TsIvUCxpZ07pRc4TvX0lXJgErVNZDUzRyzoYYqWNg5cd15c3r9zGNA2GERpL8zM0T9pR0r6EyYnwsrDQB6iJPJ95DoyFFmfTMLaKY4X6kOfIMQKbyZtPky2hcn7VHGg+1m1alWWXZE4Rsl1OFkeFXJcqQ0+DAdxGZdeeqlY6xBUyGgQZcqU8d555x05x/pBkeFBL1++XKbW+X7wN8Fz9y/TzngFsKqC98B1PLAovFgaa9eulXIURzpZcBoBocsKegj+/4D7cr/NTtipAIXfTcs4yw5vLR4Q4hGD9QU6EqsOHcT74KUMEnv/UKFCBYnZdeA9DHqvUw0ePTw+fNzzcOEggJAD58UFlH7gnaM0EgPtlCSuubZAnBDkhALFPXK/fPj7RYsWFYMBY4VwCt4hbRDBjNI+fvx4iQF2YGCgANMmWTnO38HLxQwFx0HrP1WE1ZFZFmLKAAUHZYc4dwYsYtwdhAQRT86zCG7JRtstVaqUf6ZElURtEwOUtlCyZEkZEN3uF0xrur7K++c7wOycm8ql3buPkv6EyYmw8jCYFr/zzjvl+8R7IteTLSfC2imzEYRcsVMACi9OOe4vTLaFyftUcaD7QXEPOtKQ78HZdCfLo8JRj1v842yHxVW4pVGcEHZY7jxAph0Y3HlwTFFh5aDI4dXhO0xT0nhZhPDyyy9LY+GhIkgBLyteVNzlKKL8LRQcruPdYysJlFo6AdYcDRFFGYuQqVFiYJg2w4PE/wsF++qrr5Y4X+cR5HfcM50JQcw9IqCJ80W5poGjMP/VOFsCx7lflND169eL16N79+7SKegQTJ2zZRXKNZYiiyz4Ph4SlFJCKwhS5xmgkKM4MLXD9523dseOHfIeWDyGd5wpeGAhD3HE1JO68QwO5AlNJgg7FCI+TO8wtcPUCFOc27Ztky2hlixZIgo9Ciwd66KLLpIQCtoOChXt6sUXX5Q6IzTxzGKZoijnyZNHnm92CxQMMz7MLLCwAWUWa542TIgN7YwFerwjlFsMNQQFbQmPBXWijdPW+Du8t9GjR8s16h6FhTRhdWRajmdPXfBksKgDpYf2zPvD607/weNB3+K9YOVTV/o0v3VbQCnRBZkR1jaJtaMvMtDzHp3zAsUXLz6/Qw4zkDIWYJQTVsSsGOsJ8PywQEVJf8LkBO89XjljM2WMgzi2kAuUo2jxfXQJYlrxLNJOGBuSRVg7RVmlrXOdcRiVCvkXJttQeuPJ+3iLuZNB2Pjj7od3QZ0JiwT0EWJoGUcZe9FFWCNBPdHHGGMJ/8SRxjvj7yeTHN2nNl3Zs2ePKFRYXekERgRKA43rfwHlmUZ7sPFN6QBeWQwm4n2C0NypLwbUgWKzcwIMJCx7vA3cgwOvJt5M2hwKAUpDuoLAo44MRs6AAldHFopyLQjKDu/GrSJW0hveP0ounyAMghikGHMoKg6UGoxRlJrY8DNFiQph7RSllTUqzHTG6g3xZFvU5H2i+8E5hHIaG4qJA43nQV+O0nilSq2iKIqiKIqS9qSvO0hRFEVRFEVRfFSpVRRFURRFUdIeVWoVRVEURVGUtEeVWkVRFEVRFCXtUaVWURRFURRFSXtUqT2MYNuOdGbdunVZ0uSycQcJDFzCBQfbqwQ/LotRELbWYg/bdCLKG5UczL0dTPpb3Yzl0EXTHyvK4UUq5Llu6XUYwL6spK4kb/VTTz3ll3qSaILkA25fPfaa27RpU5b9I6MCG3STZ5r9L9lHj82ib7nlFtksmnqRYIHUhewVGLsHKptGL1y40D/LgFTJpFxkb9/sBuOBHOUkt2DPVpKHuKxKJNtAySbhA/nMyZoGbCpOQgj2BIyXR5vfkG+b5xA12KibfXd5H0CyEzbdR4lhv2eShGBEkBiDfRxdsgu3WbmDxCts2k2CDSX68N5pzyQ+IfELCWrYl5YN53n3tH1Smj7yyCOyxyXJFtiAPnfu3JnJNciUSEIY2jx/ByOVhB2pzvGvKLGw7zmJIWi/tFOSL9BWYcqUKZJQhiRQ7M1NpkjgN6RkZ7905D0JoUhqwO9J2Y4MZL/XBx98cL/9bZNJWJ8lk6tLvkD9SGKFHGe/aX6DDkEyKJJpxBI7LiQNlFoldSxfvtzYgdxMmzbNrFmzxlhlzb9ijFW4pPydd97xSzKwjUt+w/f5jvs95TBnzhwps4qQnP/www/GKgqmTZs2cu4YNGiQ+emnn+SY79iOKMdRY/PmzcYOchhfxiq1Uvb0008bKxTM+PHjjRUSxiqyUm4VKmM7kdSVD+XDhw+Xaw4rgEzevHmNFT5+SfZiBZtp27atsYp2lne3Z88eU6NGDf/MmGbNmmXWxwo2eYcNGzaU81is8meskuyfRQfeTdGiRaW9wfz5882SJUvkGKyhYaySL/W0Qk6uL1iwwFglRt6fwwp8U7du3f3aqBJdBg8ebMaNG2esoZVFblkl1bz33ntyzDvlXUOvXr1ENvH+aQfWsJS+MmzYMNO+fXv5jh1YTYkSJaTNKEqUoJ03btxYjpF7J510khzT1mmzjurVq5tdu3bJcf369c3WrVvluEGDBmbjxo1yfOONNxqr8MrxmDFjjDUI5ThVhPXZrl27Sp8EdIV77rlHjvft22esYmuuu+4688knn0hZkNhxIZlo+EGKweuIB5JUomTtsIqO99xzz8k1LD48eKQMxgJ0kH4UryTeDL5Dij6spn/84x9ynXR3pK90GUDwvMZLwXf//fdLyjsgLzsexaiBpUvazdj0vY0aNRIPICk4Sc3q6orFSF2wEvFKk/HEKpJyDUiviJWZ01mLChUqJPeIt9Yxb968LBmW8Ezh6QK8y2GWOt6tYsWK+WfRAY806YsLFy7sl3jSzvD+ExJi5Yt4//HK8X5ob+RDxzNHG+X9OfBAO6+Hkh4gV+rUqSP9K5gdj1kTvDlAClH6ApAWGhlTvnx56ZcdOnSQNs8Mhcu2hAxkFoYZI0WJEoxBpMcH2rVLV84sILLcgQd32rRpnlUSJW0sKcLxgo4cOVKyb3366afyYYYRSPVrlT85ThVhfRbZTdp+9A9mY4I6BrNw8Yg3LiQTVWpTDKlaEew0EJTUESNGSF7pFStWyHWUNDoCU+XAFAYNDCWBAQBoYHwc5Fo+44wz/LODgymGatWq+WfRgelpQgXcdKXDpV9FcUJwNGnSRM5RmBwojHQs92x+++0376WXXvKstS3nOQmGBlNSTz75pDd79mwpsxZtltS8HBMukQgECQpibEhFFCDHNwZXkBtuuEGed4ECBeSdkBMcEPQu7ACjDWPEQWwzYQlOyCvpAfHqGJyEm7Rv316mLoF3//7773udOnXyGjRoIFOW4PL0k4b8888/9/Lnzy/npBylnTs43r59u3+mKNEAI442O27cOG/06NHS7iGs/SLXMPKRkzhaOnbsKOPVnxkHcpqwPouTjXu/9tprxVGEgnsg4o0LyUSV2ohBJyAGdNGiRX5JRtwZMbFAg8GzmwgUwFglMBF4TfCOOEUxKuB9RplDmBCTCcGFYjB+/Hjx1KL4xjJq1CjxJDmIbSKGlcEXBRcBg5GQ3WCk9OvXz6tevboM9twbsUkYI8Ec2RxjwScCxTiKxsYHH3wgBleuXLn8kgxoS5dddpm0V9owgjzI7t27xRNwwgknyDnPf/PmzWLQKekFMd716tUTeUTMYDAW/Oqrr/YeeOABGRBjF2QyMOK1dbRr1048O/TxlStXivGDt0dRogaGd61atWTM6dmzp5ShwCHLca7ggcVgo/0yI4i8YyaD71D+yiuv/KlxIBnE67OMW8QHM24yfr788stSHkbYuJBMVKmNICgGQdd+6dKlRdklsByvXawXFgUWBc1Bh/pflFoacez0fhSYM2eOdCg6CAHpELzPbdu2ee+88454X6k/i8gceIOYtq9atapfkqEAY5Hy91iUROD73Xff7V/NPt544w1vy5YtcoyCy9QsVjDvFCHh4DhsCgdQChGEEyZMEE86i8jw2EdhwGdREEKc+0EpZcHehg0bxLOOMo+1z/QbQn7jxo3+rzzx7AW9zgMHDhQhz99hgQILKBYsWOBfVaKKm/Vw4InHCKUf0icBOYWxgtLqQHFFjuXJk8cvyQi9oT3R3lk4wwwU/VQ5/EB+tGrV6qA/yJdkgfeVMQOZTvgfYYDIeowwvLbILmQ0oQi0X9oys6wO+siqVav+53Egp0nUZ1HccapxzncGDx4s8jqMsHEhmahSGzHYqQArybnvnQVHw2IFPTGJNMKgEkvnwSp04Ak766yz/LMMgt+PhXhGFJGogXVIvB0f9zyefvpp+RfhwhQ2AqFFixbyXIJTQKzIRAEOWozEerq/x0B60kknyXRLdjN//nzxfAMKKIKOqVfukffr4D2VKlXKP9sfjJm2bdtK3Ym5ZprKeQVSDe+Be+GDQC5atKh4aIlZdkorHvaGDRtmeS8MAkGjrE2bNrIimL/DSlnizxI9EyUa0L5p5w48UqwPYCCrUqVKpuFFG3BhJ8C2fLFhJhijhOsQb4vCQLw77UA5/MBTiKF7sJ94q+5zCuJpXcgBbdp9cEKhjCPfUWJRbnHGIBNxrjjoI8g4+gky3I3JBxoHcppEfRb9w403KOslS5ZM6FQJGxeSyVGPW/xjJQXMmDFDFDCU0PXr14tHjuk5hDoKEIoYi7mYrsNSxLPI9/HesdCGGB8WWdCpUB7YHoQpAL7vvLU7duyQqUEWjxFzGgwzoEMyTY9iGDXoFCiDfJieZGqS7Z4oL1u2rHhbMQD4UEeegeuM9913n1jyQY8Pz8r9PYL2qbvzAGcnvDu8xMSWYs2zAAqllOeON4upd+IR+Q5KK++JrWJ491jDXEcx5F+8Vrw3Yriwello5hYopBLuiw/3jVHEs+SeEWI8U94RFjqelGC4DNcQoE7xRYnh77Agklg1lGI8GrwjJbogkwjjYas5DGrkEfHTyDEGRQZC3v3zzz8vAx3hCbB27Vrpr4QuOBjUUWrdFm8MScE1AooSBWifhL+xnoV1L8gpN26yFoa402HDhsnYi3KLEwJFlo/bKou2jbyj/7BuBgOf3+BccYudkw2Lv8L6rDNe2caMmRQUW9Y/4I0lFJIFbijn1Im1PGHjAnHHyUL3qT2EYM9VPJMuXvFgYCqBDofXUsk+eKZ4oOjQsbHKhCbQ7dyK70MN4mQx0Kh3rMcNBR3FJwreZuWvgxHNwMUgHnynlDObwgAYlEeELcSbScLIY7EM38fQUZQoQlsnnAolLbiDDmE1yHs8scGdQABDnfGAth0MC8SLixLJdH8U2nxYn6UMby6OhmDYUFRRpVZRFEVRFEVJe9RdoiiKoiiKoqQ9qtQqiqIoiqIoaY8qtYqiKIqiKErao0qtoiiKoiiKkvaoUqsoiqIoiqKkParUHkaEbZqcKENIlGDj9tg0uezly3ZAsbBnL/v1Jtoomq2ngskQcorDYYMRV0eed6JnriiKcihwMHI9Culvc5pEzyEVY59u6XUYgOJGLn4y+Tz11FN+aUZ6vi5duniFCxeWvfTYOP/mm2/2r0YLNnJmE3/2AiQjC5tCt27dWhIWcEy2l65du8p3ya/N5u4owNSNLFZsLu3gb/Ac2Fuzbt26sol2TtG3b1/Zu/CWW26R8ylTpsi+fxgS7ONK5hkgCQcbXJMWlyQbDz30kJQDyTbc99n39tJLL/WvRINgHdmgm/fCfbp9S8nsRja8sLrzbjFMSHvMZuRkFVKiD++ddsuG7BiRpMgkOQj7XS5fvlzyxAezjtFP2did/S7Zq5lEMm5T9ueee072rmUPW3LQkyRGUaJKrFynH5CIhOQ/OEvIhsnetRdddJHs++qSArkEIyThQeF1SRkeeeSRlCVfgLD7QUdgjOUY2V2mTBmpUxCSTZAcKJi9E2KfUdJAqVVShxX+ZurUqWbatGlmzZo1xgp+/4oxX375pZS/8847fkkGtnHJb/g+33G/pxzmzJkjZbaTyfkPP/xgevToYdq0aSPnjn79+pknn3xSjnft2mXKli0rx1Fj8+bN5qqrrsL4MlYhlTKrPJnff//d7Nmzx1iBYexAKOV2UDTt2rUzb731lqlcubL8xnY4uQYrVqwwtoOaBQsW+CU5B/dtDQV5F/Dee++ZEiVKyDFUr15dnjvv0A70Uh+wg7u8Wxg2bJgZOXKkHFulwQwfPlyOo0JsHV966SUzffp0Y5UZecZt27Y1n376aWjd3377bTNw4EC/1BhrsJi5c+f6Z0qUGTx4sBk3bpyxRkkWucV7pV+ed955fkkGDz/8sFm5cqUc851atWrJ8axZs4w1MuUYSpcubazh458pSrSIlXm09Ro1asgxNGvWTMYpPlaxy5SFffr0yZRt1mgTmQh169aVa6kk7H66du1qrLIrxz/99JO555575Ngxe/Zsky9fPmONWr8kg9hnlEw0/CDF4HXEA0kaVdLL2Q4hXgvAm0X6UPIoB0MESL161113SSYSvkOKSSwt0t0BKSbtoJFp+eGlPO644+Q4CGnt8AKS5hLPShS9tL/88os3ZswY8fYFIU0u2VmY6sYj+OCDD0o5z5AUf0WKFPHat28vZe45kNrPKrpe+fLlvXLlyklZTsF9kdoXT7Fj4cKF4tVy4CG2xoi8Q7yY1AfvMr/FwrX9U1Im165dW6z+5s2be02aNPF/nXri1ZHc4KTBJQ86aRZJEYwHLqzu1IvsY45ChQpJmIkSfZArderU8eyAniWLEvn4gzMjDtq4awN8hzaBXAuWA9mMSIGtKFEjnsybN2+ezFA4aMt4bhl37r//fpGFzDwwLpPaHl588cVMjyezE8i9VBJ2P4xJjEH0U2ZjnI4BpP9lvI1NaR3vGSUTVWpTDPmhSZFHrnyUVHJIk1eavNCA8Gea/NVXX5VzpjZoYHQYGhTQqIINC2WVadwDgbKMMk3O6pUrV3odOnTwr0QHpmpatmyZJb2gw1qW3nXXXSeK7+uvvy5ldDo37c00PqkMUWJh1KhR3r59+2QALliwoHfTTTd5X3/9tVzLbsiLzfMNwlQrgsHBMfcIvGNrxXtt2rTxZs2aJfeIEo6AII/2kiVLZFqfVMhRIV4dmVoGFHKmrTA+IKzuCHuMNCCF6qpVqzIFvxJtCBnB4Jw4caIYkExdJuKTTz4ReedA7tGeY8s5JmWuokSNeDIvrP1iuLuwAxxVOCccBQoU8N5//32vU6dOXoMGDWRaP5WE3Q9ONsYjdATCCVBwHSjzjKGxxHtGyUSV2oiBRxUvIrGJjocfflhiYoEGg2c3ESiA8ZTAWFA8yOVM/A+KxfTp0/0r0QDvM7GZeH3w6EFwoRhebp4TViVxtHibHXx/6NCh4gVyntoPP/xQ/m3RooXE1C5YsMDr37+/lGUnLFDDGImNMaKjo3CjrJLzm/hZlFYHnnKESI8ePSR+CQ8630PAIDyoZ+fOnf1vp5awOjpop8HY3wPVHbp16yaxxBgcSvQhbr1evXoij/DK9+nTx7+yP8gajBZncALHxPFhpMcrV5QoESbzDtR+8Wji/WQGIgix46wfQGlcs2aNX5o64t0PMbWsfUBHYDwlTh7wRMeLlT3QuJAMVKmNID/88IN4bh2lS5cWZRdPHp7GWC8sCiyDhgNl4WCUWrwsND6UifHjx3vt2rXzr0SDOXPmSIfiHp999lkpiw1DYMrkpZdekuOgkoTSipcXBWnDhg1S5p4pz8YtDnOe0uyEBTMob3jXN2/e7L355ptyD1jteLVQrvEQM02FhcwCAxbqAYorgmTgwIGyqABlwd0394wnMwqE1dHBdFZQqQ2ru4NrGCmEV8TucKFEDxRU1++AtokRGgZ9jlkU2rYDOccME+07WM5xUP4phw/I7FatWh30BwM5WYTJvAO1X8ZZnDMOxup33nlHjhnLmaFN5dib6H569uwpTjXO+c7gwYO9PXv2iC5C2CPPglk3nBg4Kg40LiQFWyElxRx//PH+kTHWqjNXXHGF+eyzz+TcLaKxg76xA4d5//33jVUKjG18Ug5WgZDFUQ4WlrEgKkjv3r33WyjWpUsX06tXL/8sY4GStTr9s9RDsPnrr78un9tuu00WfVFXYIGb7VRyvGXLFnPJJZeYn3/+Wc4HDRoki96aN29uGjVqlLkghaB2/sbMmTPNpk2b5JjFV9kN9+E+derUMRMmTJBgexbT8B4c3KMVCOb555+X7zmqVatmunfvLsdXXnllZr2scMysS6oJqyNYhcdYQ8Ts3btXziGs7sB7XLJkiRzz98aOHSvHSnTh3VWpUsU/M8YqI1lkEO87dqEYbdct9LQDv7nuuuvkmD5In3WwaMUa7/6ZokSDMJnHWHLHHXf438pYEMliWUelSpVkMaXjgw8+kMVVyElgMdmNN94ox6kg0f3cfffd8q/DGhJZngMffmsVWvl9sDx2XEgWqtSmGBr/kUceKavcR4wYYVq3bm3Wr18v11BwK1asKAotDeaBBx6Q8hdeeMEcddRRmYorA8hNN90kAwsKAf/+7q+kh+3bt5vy5cubG264QTqgY8eOHaZChQry95955pksSkfUQCFHCWVQ5Fmw2wHPgGfSuXNns3XrVvnelClT5HnyXffp2LGjXAMETu3atWVVJytW//vf//pXsh/upWDBgrJidN26deaXX34xDRo0kOf+9NNPyy4VwOrZ5557TpRzVouWKVPGfPvtt3INhZ57RcHnt66eUSG2jsCuG0cccUSWZxtWd9r63//+d1GCTzzxRHP00UcnZWcK5a+DHMIgWb16tfQpp4iuWrVKdjM46aSTZLeODz/8UMp518i3nTt3mscff9wsXLhQymkv9evXlzY+adKkLDshKErUiCfzaNdvvPGGnDdp0iRTQYRChQplkWlcY+cQ+g19BQVy7dq1/tXkk+h+2DkIvYCdEV555RXRFRzshkD/pp/jHEOxdcR7RslC96k9hGDRBVP1sbE7iWDK3ioaMjVoG6dfmh4Qq0S8rIuZPViY9rSWZEqmOIn1tYq57G4QXDHOe2CahsUzTMMHY7TcYhr2Ozz++OP90mhDm3IhHo6wuivpC3vS0p9Y6Bhss2HwXRakXHbZZVnaAHGJtA3CbQ5mkauiRA32Xkaduvjii/2SDNiJiB1gYvsHfYe1E8j1/2XMzinC7ocyQglYBMwanKijSq2iKIqiKIqS9uhCMUVRFEVRFCXtUaVWURRFURRFSXtUqVUURVEURVHSHlVqFUVRFEVRlLRHlVpFURRFURQl7VGl9jAimHErCNvppAPr1q2Lm23qs88+84/+gKwn27Zt88/+4LfffpOc9e6TjOxVh8MGI/9rHXXTlUMLfZ+KcugRTPf7Z0iFXNAtvQ4DUPp69+7tHXvssZI+1rF3717v6aef9q699lpv6dKlXsuWLbOkNo0Sr732muSYZy9L9nFFOZ06darXr18/2bt1/vz5/jc975FHHpH0iaScnTJlijd9+nQvd+7ccu2FF17w7r33XjmG5557zmvRooV/lv307dtX9mV1ebK5H/b9w5A47bTTJA0wkEubdLmkk2UPXXJtA6lH2deT1IvsVcv7i8KehkFi60jKW9KiIhDZC7hChQpS7li9erW8ux49esg57xYDAyOEPUrJP66kD7Tbe+65R94jkP997dq10i+RPVyjzdKGJ0+eLPtK0wfKlCkjaa4Zgvr06SOpk0mjfOutt0qqTkWJEr/88os3c+ZMGUtop+zDTVuFMLkeJtuiJte5H+T1jz/+6C1btkzGUPpply5dRDegzi71Pmlzr7/+em/58uXe+vXrZV9e+vBNN90k1x2x40LSQKlVUodtGJJFatq0aWbNmjWSHczx5ZdfSjlpb4PYziO/4ft8x/2eciBbE2Vk6oEffvjBWAVivzS5TZs2zUzft2HDBsl8EkXINGQHOYyvzDSbH330kWRwoSyYYpCsKJSR7YhUnBzbDupfNZJ9jOxp7hNM5ZrdcN9FixaVdwFkZSlRooQcQ/Xq1c2uXbskoxjZzRzNmjWTepKRi+w0jvvvvz9LdrQoEFtHa1xkpryFu+66K0t2O9In1q1bN7Mtvv3225mpoMEaLGbu3Ln+mZIOkMGQ7EEO+pjjrbfeMtbwlGMy47mUmWQjItsQkE2xffv2csx1+kiwzShKFGCsbNy4sRwj98ikBWFyPUy2RVGuk5qaegDy2RqZckymMPQJMqIh21u2bCmp9Bmf0B8A/cQ9F0fsuJBMNPwgxeB1xANpO4V39NFHe1ahEe8hYPHZjuHddtttWUIEhg8f7lllQbwZfGfx4sViaZEVDE455RTJYuIybf3tb3/zjjvuODkO8uabb8p3gSwiGzdu9Hbu3CnnUQHreMyYMV6lSpX8kgz++c9/esWKFfPP/oAQBcCTS3Y1numiRYukjGdInclqdMMNN3jt2rXLsaxihHrYAd0rXLiwX+J5CxcuFG+UA0vfGiPevHnzvNNPP90v9eQ7eG7JwLVp06bMKSA8z65+USBeHWln1ljw9u3bJ9Y7WXSchQ94Lpx3A6gj1r4janVUEoMXJ7Yf8j5p14A8cZnlaAfdu3eXfvjNN99kyqvXX389MwsT/dUa9tLuFSVKMAY9+uijcvzFF19411xzjRyHyfUw2RZFuf7iiy/KrAlQN+4Jbr/9dq9ixYpe+fLlZdzs0KGDZL20BqpnlV+pizVoZQbUEW9cSCaq1KaYk08+WRoJyhVK6ogRI7xBgwZ5K1askOv58uWTFJSvvvqqnDM1zaCAwsoAACimTjmFc88996BSTfL/pPE5SFtJStYoMWDAAAmLCCpGibjgggvkX6Z7eE58UIxh5cqV3pIlS7x//etfMhDnZNjBpEmTxBgJkjdvXhnMHRxv375dpp9oBw6OP/74Y3kfTAURkgAcI2CiQrw6YizQFgsUKOA1adLEs5a+f8Xz1qxZI8YTYTCO4sWLi5EGGCKrVq3aL1xBiSa0X4wXDMwgTF1inKMEENtevXp1Kads1qxZEu7E1CQKLoT1C0WJEjiH8ufP740bN84bPXq0hFlBWPsNk21RlOvIa8IhOnXq5DVo0EBCg4DUuEA//vzzz6X+gLONEAyM2s6dO0tImSPeuJBMVKmNGHi6ypUrl+ldBGJYiIkFGgye3USgAB6MEoi1hYWGEk18I/E95513nn819eB9ZsBEmGARwoEWdpUtW9Zr3769PCfigQDhAkWKFJH81ngLsS6HDBkiSm52Q0whxgie4iB0dDyXeK+I+UVIYNWieAfzgnPsrHgHMcO8UxT8KBBWR6x58vrTXmnDHTt2lHKMsc2bNyeMlezWrZv30EMPybtRog9xhNWqVfPP/oA++sQTT4jHij7IAAjIF2INiRcfOnSo9/LLL0s5MyYY1/RxDE8Ge/qFokQNDPJatWpJTGnPnj2lLEyuBwmTbVGS61dffbXE/GJ44oAIggGK19bBepw8efJ4N954o6xRqVevnpSHjQvJRJXaCIJiEJwWL126tCi7c+fOFc9IrBeWTsFUr4MOdTBKLcoz0yNVq1YV726VKlUypwSjwJw5c2QQpIM8++yzUhYbhhAPvINbtmwRZZgB0nU4BBJKco0aNWSgJfSD55ndoCwj4PCuo8gR8rBhwwa5F6x7LNyvv/5apqywkHnXDPgOjoPvn8VxWPlM8Tivc6oJqyOedTxzWPvvvfeeCHnCWgYOHCjKO9/HM8EzWLBggf/XMhaX8T7w7iZjRwrlr4HBwuA9YcIEWfxFe+bdstAEg7Jp06aiuBI65BanogRgoKPEvvPOO97gwYOlTdAnaU/8zbPPPltmoOgXyuEH8qNVq1YH/UG+JAu8rywGY2aV8D+8sG+88UaoXHeEybaoyHV0B/ojoFvgeKCPOjA20T1QYh30U2aQAe8t4y0L4sLGhaRiK6SkmOOPP94/Mmb37t3GNhbz2WefybkLNLcdw5xzzjnm/fffN7bjGNv4pBxefPFFYxuhf5YRuL1ixQr/LIPevXtnLs6JxQ5OplSpUpkLzaICweavv/66fKw1LIu+qKuDRXWUce+xbN261ZxyyilZvj9+/Hjz2GOPZS6ga9SokSy0y25YDOU+derUMXbglwUw3C/vwVG2bFnzzTffmE2bNhmrvPulxtiB30yfPl2Ot23bZkaNGiXHEKxPKgmrI4t/+NdhlRqzdOlSWRzhvm8Fnyw4sIJcvrN48eLMxWVcHzt2rBwr0cUqo5nvkwUmLOTk2A7splu3bv63MnALSu6++27512GVEmkD1ugR+QbIvYoVK8qxokQJFlAhuxy5c+c21kAPlesQJtuiJNc/+OADky9fPvPbb7/Jed++fbMsvn7rrbdEJwnCYmZrhMoxi+Ly5s0rx04m8AmOC8lEPbUpxi0IwuqzDVu8jLbhS5wO2+EwFcB0Oa5/pjnYcgtPCO5/purgzjvvFGsIbxjxPlhHRYsWlWuwY8cOWYzBlALTAw6sRqxIYkxfeumlSHlpgcD1m2++WT4uLIIQAiBmlu3IgHpZhVU81DwXwimI86HOVnGV7wBeWbYOwsJkWvy+++6ThXbZDV51PniaWRDAfeC1xKLHOseSZXqeMAniZ7HqmbIhFALPOdZ+5cqVZcqeGKz7779fYqjZIol6R4GwOjJ9RUwl74QynjlxttSd7+MRwCPHwggWONJumSmgvnjk+RxMPLiSWvBW8T6RUfQ9Yu6QPSz4InSGmENi9PDWui302PKHRYSU48mxxqjMnthxSNqBNUTlulsoqyhRonXr1rK1FR5bpuMJQ2CBd5hcD5NtUZPrjLPE0rINH7Gx6BxubAUWjrktMR18n1kaZD99nA+EjQvJRPepPYRgkRcd52D3u0PZpfMFFymlO4RuIGSCi5GCMN1J0D4dLxVgwCAA2b+PBQNBmMKhO7qV4OkKQhvlHIPBLdxTDi9Y/MhgyMJAwoAcTN8yLckClOB0JlOXLI7k+yjMihJFGF8Ip8LpFFx/kkiupwusN6F/0geDOgTjJX35rLPO8ksyINSIZ4FSHCWHmCq1iqIoiqIoStqj4QeKoiiKoihK2qNKraIoiqIoipL2qFKrKIqiKIqipD2q1CqKoiiKoihpjyq1iqIoiqIoStqjSu1hAltZhZHoWpRgb9PYbFNsSxabjYXtgYKf7777zr/yB2zBEpsKMKc4HDYY0U1UDm/0/SvKoQd7TqcbuqXXIQ6v98EHH5Q87ewrxybJLocz19gsn83xURhJ4hDVvPskoKhZs6bsBUjKQfbOq127tpSRZpAc8yVLlpS9Lkm7GYR0wAsXLvTPMiDXNhvAs7dvTtK3b1/Zu/CWW26R87p168pehyeddJJsvE2qUCAJBxtck3qUzb3JEw7Ul42s2SOQa23btj2oFMjJJFhHEmCQZpF2RHurWLGipEwF6oiBwT7C7GVbv379hOVKesC7u+eee6SPAgle2MidTeVJzsA19r1csWKFyBvaB/tesoF78eLFRQ6RFIX0oqQavfXWW+U7ihIlcJ7MnDlT5DTt9JxzzpG2Coyv7PGKg4j9uUnvDqRjJwEBCXVo445///vfojAiI0kbTsIaxoNUEXY/jKtLly6VOrtxh1TX9M/nn39e9ptmf/W7775b9u5N9IySBkqtkjqWL19upk6daqZNm2bWrFkjKfccpHClnLS3QUhny2/4Pt9xv6ccrBIkZaSDpdwqRsYqG6Z///6SOpZjIE3fo48+Ksf79u0zF198cea1KEG6XNJw0lypC1CX4447Tu7XDo7GDoiS5o90m1a5kpTAfKyCa4YPHy6/cVgBJGn9rPDxS3IG7rto0aLyLhykEH3ppZfM/PnzM58179AKh8xzq8DKuyW1LPVybaJXr17GKg5yHBVi60j6VKt4S9rHYLvds2ePqVGjhn+WkWaRdxlWrqQPAwYMMNaI8c+M6dy5s3+UkWKzX79+crxgwQIzbNgwM3r0aLNz504pA8rat28vx6TULFGiRCTlkHJ4g+xt3LixHCP3TjrpJDkmTTRt1lG9enVJHQsfffSRjMENGzaUc4c15uR3QPpdq/DKcaoIux/GHPQJ+i5jFunNkfGkcl+5cqV8h7rWqlVLjsOeUTLR8IMUg9cRbyPp9o4++mjPDuqZaSKx+LD0SI8bDBEgpe5dd90l1hLfId0olpbL6mEVV882NLG0ChcuLP8PrCxSxvKvfe/yPTu4eNdff70c8xv+//ydKIHlN2bMGK9SpUp+SQavvPKKZG6hPng98dBy76SbJc0f3sOnnnpKvKJWafJ/5UkqTlLpBrPB5AR2UPbsgC7PP8jZZ5/tWQHn3XjjjZmWL+8QS59zwiv4LZ5PPF5Yzy5DDZnG8C5HhbA6FipUSNpa0Os/b9487/TTT/fPPPHK4aENK1fSA7w4xYoV888yIJucHcjlmNSheGscePPx6uTPn98v8cST5bLoIYOsEScpNhUlSjAGPfroo3LMTMM111wjx8wCIrcctHfX/pk1jJchj5T4ZOIC/hYyM5WE3Q+zusy2lS9fXsbSDh06SH0Yr1ydGXN5BugoYc8omahSm2JIUUsjOfXUU0VJHTFihDdo0CCZqgMazBVXXJGpzDA9S+NBYWUAABRSPo5zzz03M3/+mWeeKf8Cgw0K3pFHZrx2lCb+vw6UK1LlRYkBAwZIqIBTAB0op64eTmhQxnSmA+UIhcs9G0IWXnrpJc9aknKek0yaNEmMkVgYrCdOnCgGhbWC/VJP3vHcuXO9Nm3aiFKOIss7DMYDf/PNNxKaEBXC6oiRhdB78sknvdmzZ0sZaVOD6Zg5xhAJK1eiD+1x3759+4X7MHWJcc4At2fPHq969er+FU/kGG2DwZH+Ckxb8rccUWvnigKke8YYGzdunMhv5Dj8mfZboEAB7/3335cQnAYNGnhlypTxr6SGsPshvADox4S/OWM0Vm4zBhPKF/aMkokqtRHjuOOOkxjQRYsW+SUZMSy9e/eWYxQJPLuJQAGMVQLxzk6YMMF79tln/ZKMsqAVGTyOAnheGTDpKCzsArdQLN69OiXXMWrUKK9OnTr+mSfxxMRrEjeEgkv9MRKyG4wFjJFcuXL5JX/QuXNneX/cB/V78803/Sued/PNN4sy0KNHD4nPwoNJPCqeLDzWxNfiHY0CYXXkvfTr108Umfbt24tB8p///EcMseD74RgvdFi5En1QTqtVq+af/QF99IknnhCPFTF5zDYBs1HE1NI2iIenrUO7du3E408fX7lypcRWR6WdK0qQY4891qtVq5bMcPbs2VPKMOyRW8xKfPrpp6L8HUz7vfrqq6U/4MRI1qLlRCS6n+7du2dZi8P4GSa34z2jZKJKbQTBzR/0oJYuXVqUXTx5eEacF9aBAutCCoAOFavUvvzyy9Jgg0oIVhgB7A6OL730Uv8s9bBAioB77tkp4y4M4YILLsgUHC40w1mVgGXJ1GjVqlX9Es8bP368WKT8vdWrV4viyFRodjNkyBARcHilNm/eLIrrhg0bxHpnut3BoI9iizfWea2Y9kEJHDhwoJxjzOBp5n6ZyuH+o0BYHd944w1ZOAAouHic8QDQnqmXg2PKwsqVaIPRzeCNoTx58mSRHbQFDEYMb4wxjEhChwgDAq67mQfavpuNwnClPfE3Cc9hBioq7VxJLszMtWrV6qA/KJHJAvnNmIFcI/yPMEDkHUYYHkkWRtEPmJZP1H4Zq9955x05ZixnhhbDLlUc6H4wNtE98uTJI+foFoQ6BuU2OgvjVNgzSiaq1EYMVgtjJblpXWf94K1loCAWk0YYVGIZCIgTdRDLwmp5B5bXddddJ0ofv1u1apWU4zF0FhneFRov1lpUwJuJl5KPex5PP/20/FuvXj2JvUOxRZCg5AZDD8aOHSsKcFCJf+aZZzL/HgMpsbhMt2Q33CP3ywcFrWjRot5ll10mSl8wvGP37t0S74yyjUfLgWcaQQko8/yWnR14b24ngVQTVsf58+fLewH3bmh3tFvatoM2WqpUqdByJdpgaLMTB+8fDyxTkRwTyx+UPcw+OCMFOeRmXGj7tBdgBoKQFWL3GAyJd6c/K4cfOF4w6A/2w2xRsiBW1E2nI5/dB4UOZRxZRhgZyq3b/SAeOAGqVKmS6ZQJyvtUcKD7YWckvK9BgnIbeU9MPCGRYc8omRz1uMU/VlLAjBkzRAFjICDmFa8Hrn6EOo0GRYytcXD9YwXhWeT7eEgqVKgg8Ss0KDoVsTwoTUwN830squnTp4vFhOLEliJMC6IsIgyuvPJKieFl0GFbrPvvvz8zWDwKcF8oRHyYnmRqkql5puVZhITwwFrEEiQOOSjg7rvvPrHkgxYzz8r9vZEjR4owCoZjZBd4mviwtQnbHPH/QYlmOoY6oGgvX75cLFpiaImBRjBg6eLx/P/2zjXEqqqN4+el1BE/aEIpiIlfYrykH7xGF1KxssJLZZbo5CUhNXNESVHR7miFF3C8EVl+UUhtRkEtK5xB1FSQUDNCVCJsCE2hT36Q9a7fM2edlqc5Z4ycc/bO/w/2nLPX3ufM3metvdaz/utZ66mvr7eJbqjzKF0YvjT65CfDtkmg2D2ikHMv9NJZzgWjB39tVGmWdmLtYM7BKKL331x6/kiDSBYMN5L/GLH4zlFueS5p7Jg0gopPY0Z9RhmgfsPwRcXnc7io0JHjmaUjQ/mmc049RpMU/OCFSAqUT8QfjDfaG0YbZs2aZcdoRwcMGJDZvHmztb0Yt0D9yDOAEkodRx3JPBcMR54hlGaWxkIkiOe/lBJU12LXw/J8iF8szRfA5uCeuU8mtjNPBYW62G9UKrRO7X8IHLUxmHh4/gkUZBoRCnbawB2DxhKFJw3QG0axRSWmgguEdO4DIzb2V0LJwmCIVwlIMgxBc83cH8ZsDEYNVU6Y7R4olC7SCRNJMFbpOMf1CiNK58+ft8YwTqdDwwRBzk/LsyzuPOi8nzp1yiaHxSvoMAJBnceqNWG1mpZAgELYoMz/0za7NSh0PfjP5o/+Ar8FrmWMuMT3XOg3KhUyaoUQQgghROqRT60QQgghhEg9MmqFEEIIIUTqkVErhBBCCCFSj4xaIYQQQgiRemTUCiGEEEKI1COjNkEQBYvlM0TzsAh0CJMLLNzBWrUs69UcrP0aRz2JiRf8by1YuoilUGJYtog1PIvB2p9xqFiWOwpbofspF3GeEHI4vla2sNh+gKXLKOf5cM8txUsXyYF6Ks7n/OeS5YGaW1iHZ5K8LkZ++RciKVCnN1c2SWdJzXxY3ip+TvKfCerHJITIpT3k+mJ4VuNrZ6P+JoJnfjrLOAZauufWRkZtgiBWfl1dXXZPxLDAP2FiqTyAB46oRgRXYJFoAlIEMI6IwEawBdZ+jSGIw8svv3zTGrGtAY06IW+5biAwBoEJ9u7da+FCWafzl19+sWNARUmEHAJlYCiGdWoJn9upU6fcxiLXSSE/T4jlH18rG783EB517dq1FtyDoAwx8+bNs0W7WdPw9ddfz6aKJLNly5ab8pl9oBNH9DvWvh46dOhNnToCv1BeyGuCNMSNXaHyL0QSYD1WgoiwDi1rbxMdD+jMDR8+3IIshNC9MZwfnhHe5xt4BJohkl65oB2lTWGtWe5r+fLl2SMZWy89fsZpTxEuCLkfp7MR2CnQ0j23Ov4figRw9epV1759ezds2LBsigj8/PPPrl+/fjwZ7vTp05b24Ycfuq+++spt27bNtWvXznkj1dLhyJEj7sUXX7TzDx06lE117o8//nAnT5503nhyd999dzb19uMrOjdu3Dj7/+vWrbO0VatW2f7Zs2ed7527u+66y33yySd27MaNG+6FF15wI0aMcL4XbGmBTZs2uY8++sh9/PHHtnH9SaC5POH6Z86c6aqrq93EiROdrwSd79nbMW+o5H6D9957z9LANw5u48aNrqGhwfXs2dOOe2M/e1QklaVLl+bKJNvly5ctnXI/cuRIe//www+7qqoqe0+55fmjPPjOnuUzdR4UK/9CJIHvvvvOXmtra63szp071/Yp++yfO3fO7dmzx97v37/fjp06dcrOC8/I7t27LT3w5Zdfuq5duzpvTGZTSg/3xTP5+++/uzZt2rj+/ftbOvu8f+ONN6w+f+yxx5zvcNoxb4jbc00690f7S3sALd1zKVB3OCEQ9pbwrYSLJDIJEJ7u7bffto00VD56RAz9ecMt440dU7/oPRGRifNQOzg2f/78TGNjo/XE/MNj6e+++25uiIRXwvGuXLnSvoOQd5zPd/E/SPMGoZ1bTq5fv26hYkeNGpVNaWLq1KkWJpiwsSighOULoBA1p8QSNY3wukQ6aU0IceuN6uxeE6hTMGnSJAuNzHUQbxsWLVpkqqevBP4WTYlwurhXcD/06vlcuWkuT3xdYuVp/fr1dv9cJ3kTwt36CjIX6z9m8ODBpvA++uijmSlTptj5aYxsdyfB8CNhcRlmJN+oawhpzT6KVXgWiZrHqATnUx54/shf9lGHUHKgWPkXIgkMGzbMXml7UTRfeeUV2yf8LZAeyrM3FO3VG7eWTpRPwraH+h4YgSO6XjkibsVwXzyTuBUwOsKoGTCy9vXXX5sdQH3OPTDCCc8//3zm888/t3RGVohAFsLrF7vnktFk24pyg3rlC4r19F577bVsqrPeUocOHUz9O3HihPPGrzt+/Lgpfb/99pt78803nTcG7NyBAwc635C4hQsXOl+oXF1dnfMGg/OF0I736dPH1BDwjYx79tlnTRlBIUZZu3btmhszZox9xhvD1gPzxrKdXy5QZOk1+obPfpugCgboZfrOgPNGezaliXB+rNQGvNHbakqtb9Sd75hYb53/H5Ra1FnygTT+t2/sLd13Iix/vVHgfIVivfatW7fmjnkDzz7DRm/Zd0bsWDlpKU+AskZ5jQm/SazUxkybNi1XVkVy8QZtrkz6BtHUeThz5oyloboC9Qv7Fy5csP0///zTyjBpffv2tbJcrPwLkSQYFaStpP4O7c2yZcusPO/bt895I9DeBxWXtpZ9NkYHv//+e0unzV28eLG1XbRF5VRqgfqbUTWu86WXXsqm/gV2xn333WdtWD6zZ882RTZQ6J5LiZTaBIDqgbqIuofigc8KDtZQXV1tCsjOnTszDQ0NmXHjxuX817799lubVBH8cCsqKqzXtWLFClP3Ro8enXn66aczTz75ZObSpUsZ/zDaxCp6UkxYoseJMtK5c2fz+cRpne/is7W1tfZdqMPl4vDhw6ZQotxxbRBPSAFf0ZhSmwRfzKtXr5oP76BBg3LXiapJL5jr5/d+9dVX7Ten13v06FHLP/IX/9tVq1bZ/aJc4njftm1byy/yefz48Zb/NTU19r3l4lbyhIkPHBswYEA2pWXwyyVe+KeffppNEUkFdR2fcdRVFNgNGzZk6uvrC6qswT8W9Yb6ZfLkyTbytGnTpqLlX9x5MImW0alb3WjXSgUjT7SLHTt2tPkv+IEzekY7yygo6iU89NBD9rp9+/bMsWPHMgsXLrSJWLwC5b6qqsrKOG2xt8NshLRc4DuLuswzyDXzu8YwX2XMmDGZNm3aZFOaoI5nJGbChAnZlML3XFKabFtRTlAoUL/o8YSezpo1a+wYCu0999zjvOGW6x36QmTnoKLiyxb82R555BHz0YnxRpEbNWqUe//9951vjKxHBvyvXr16mfLbqVMn833B35PvnTFjRu57fYNj55cD/Pa4nniLe7W+YXULFiwwnzx6vfjzBMqh1H7zzTd/u142esJLliyxnit89tlnls6141fI+yeeeMKOoXKxf/HiRduPQcHHx6mctJQnMGfOHFMw8imk1KLWofZduXLF9n/44Qd7FcmHZw9VfteuXc430uaX99xzz9mxp556ypQtlKkY3xia8vPOO+/8o/Iv/vswslVZWXnLG6ObpWbt2rWuoqLCXb9+PZvSBG139+7dc/VYjDf2bA4C0E6HujNsYXSjnFDvci3Mb4h58MEHcz7FMTt37rSRl0LE91xKpNSWGXxbfQVvs/XxTcMnEfCBReFDfcXXEFWPHiEwgxjwuUXZZRa9z0tL4zMx+L+giixevNiU2kC3bt1M9UVpwbcH35eePXuaXxAz1umN4hsXZraXA3qz+OiwjR071tK88W+vvuKwnjNLXM2aNctmU6M2B/Dbg6AmxnCM34le8u2E3zJcrzfqLI1r69Gjh6nf4f+NHDnSXsk7fm+UL44DaherOeCDyyxwFOiQB8wkDWWgXBTLE0C9QD0nb/JpLk/IB/zTGJmgjKJgh5nFIpmgxlC+efZQYSm/+NZ6AzbjDdrcKBMjF+QnZfqLL77IqfAoPtQvviEvWv7Fncfs2bMzZ8+eveWN+qi1oa3xnXkb3QRGqVAnGUkLMJJ6/Phx8yln5BOfVHxKmSMDDzzwQK6+xHc81KGMTOB7vmTJEjtWahjVPXjwoL3nvmhjeB4D+AxjH7DSUD4o08HPFordc0lpsm1FOcBv9ZlnnrGZhI2NjZa2Y8cO85cla4Iq99NPP5l/WgDfNN+ImL8ln2cGObMPu3TpYj5uzKoMjB8/3tKmT59uPUmUFG8gO99wmP8tvbDHH3/clGLUTvyG6IXi84Z6Vk6lNoaZlvwmqJ4oP4MGDbL9sPGbhWtlhirqEen+oXM//vijpfvG1m3ZsiXnp4piiG9oaxBmyQafWm+Yut69e7sPPvjAlEzyLVwvCjPH6PkOGTLEHThwwNKPHTtmKijXi++SNwwsPSnEeRKg7OGvnQ9lDgWP8/ET9xWppTNKQVq8saqFSC41NTVWJu+//34bEaGcBvC/o27au3ev1SthFMl37qwe8p0y99Zbb5n/YaBQ+RciCdD+4vPtjVUbgaLdoO0Gb1i75cuX2+jmr7/+amngDTxrQynztMGrV692vsOfPfoX1JX5I12lglEW6mLaTmwNRuFYxSEG/2Dq+XxoNxmFied43Oo9tzb/449vSETCQYUMsysDrAWJypvv65IPfkeoHyiF9LqY/Y8vEP5L+Lnh08aMfFY7wA8SH0l6Xd5Izn6DuB3wqOFn1KFDB1Oq8iGf+M1Rq2LIHz4jRFJAdac+adeuXTblZhiBuvfee7N7TVCH4WNeqF4pVP6FKDfU3YyI0o7GCi1lmrrcG3LZlJtJQ93Nc8eobLyC0L+h3Pcso/YOhGFBhsSZ0MNSHBhaLM2BEzxDIUIIIYQQaUNG7R0K69riS0MPE99O1nyVGiiEEEKItCKjVgghhBBCpB6tfiCEEEIIIVKPjFohhBBCCJF6ZNQKIYQQQojU8698avv27Zs5c+ZMdk8IIYQQQohbo7Ky0gJp3C40UUwIIYQQQqQeuR8IIYQQQojUI6NWCCGEEEKkHhm1QgghhBAi9cioFUIIIYQQqUdGrRBCCCGESD0yaoUQQgghROqRUSuEEEIIIVJOJvN/FaKwCpxWYl0AAAAASUVORK5CYII=;" parent="1" vertex="1">
                    <mxGeometry x="40" y="1260" width="693" height="352" as="geometry"/>
                </mxCell>
            </root>
        </mxGraphModel>
    </diagram>
</mxfile>